#N canvas 621 133 634 671 10;
#X obj 51 11 cnv 15 40 115 empty empty \$1 1 5 1 8 -257985 -1 0;
#X obj 199 506 l MASTERtypeIN \$1 1;
#X obj 200 484 l MASTERtypeOUT\$1 1;
#X obj 529 104 l KEPface \$1;
#X obj 58 111 bng 10 250 50 0 empty empty empty 17 7 0 10 -4034 -1
-1;
#X obj 75 111 bng 10 250 50 0 empty empty empty 17 7 0 10 -258113 -1
-1;
#X obj 199 539 l MASTERtypeNO_IN;
#N canvas 1769 613 392 407 KEPboutons 0;
#X obj 188 142 tLock \$1 1/1;
#X obj 188 162 tLock \$1 1/2;
#X obj 189 182 tLock \$1 1/3;
#X obj 189 202 tLock \$1 1/4;
#X obj 8 8 KEPbus \$1 X AllPos b1;
#X obj 15 265 KEPbus \$1 l1 -l1- tl1;
#X obj 15 288 KEPbus \$1 l2 -l2- tl2;
#X obj 17 310 KEPbus \$1 l3 -l3- tl3;
#X obj 17 331 KEPbus \$1 l4 -l4- tl4;
#X obj 12 356 KEPbus \$1 lR -lR- tlREC;
#X obj 185 258 KEPbus \$1 lr -lr- lrouge;
#X obj 185 281 KEPbus \$1 lv -lv- lvert;
#X obj 8 75 KEPbus \$1 Y Y b4;
#X obj 9 227 KEPbus \$1 Store Copy tREC;
#X obj 9 138 KEPbus \$1 - - t1;
#X obj 9 159 KEPbus \$1 + + t2;
#X obj 8 30 KEPbus \$1 RX RX b2;
#X obj 7 97 KEPbus \$1 RY RY b5;
#X obj 8 53 KEPbus \$1 Sc RZ b3;
#X obj 8 182 KEPbus \$1 -- Start t3;
#X obj 9 203 KEPbus \$1 On Paste t4;
#X restore 200 419 pd KEPboutons;
#X obj 318 428 tgl 15 1 empty empty empty 17 7 0 10 -262144 -1 -1 1
1;
#X obj 317 446 switch~;
#X obj 108 40 KEPface \$1;
#X obj 37 159 KEPCommon \$1 \$0;
#X obj 422 510 param;
#X floatatom 408 144 5 0 0 0 - - -, f 5;
#X obj 303 257 r \$1-X;
#X floatatom 238 327 5 0 0 0 - - -, f 5;
#N canvas 1935 648 374 391 NbPos 0;
#X obj 185 176 i;
#X obj 141 175 + 1;
#X obj 72 47 r \$1-+;
#X obj 141 50 r \$1--;
#X obj 72 94 sel 1;
#X obj 141 90 sel 1;
#X msg 74 115 1;
#X msg 140 113 -1;
#X floatatom 139 261 5 0 0 0 - - -, f 5;
#X obj 70 72 change;
#X obj 141 70 change;
#X obj 140 202 mod 100;
#X obj 200 52 r \$1-Start;
#X obj 200 93 sel 1;
#X obj 200 73 change;
#X obj 19 190 s \$1-l2;
#X obj 43 158 s \$1-l1;
#X obj 163 242 s \$1-NbPos;
#X msg 200 115 0, f 2;
#X floatatom 85 228 5 0 0 0 - - -, f 5;
#X obj 155 145 t f f;
#X obj 233 159 s \$1--l3-;
#X obj 285 28 r \$1-AllPos;
#X obj 285 92 i;
#X floatatom 310 174 5 0 0 0 - - -, f 5;
#X obj 285 47 * 100;
#X obj 285 71 - 0;
#X obj 285 114 change;
#X connect 0 0 1 1;
#X connect 1 0 0 0;
#X connect 1 0 11 0;
#X connect 1 0 19 0;
#X connect 2 0 9 0;
#X connect 3 0 10 0;
#X connect 4 0 6 0;
#X connect 5 0 7 0;
#X connect 6 0 1 0;
#X connect 7 0 1 0;
#X connect 9 0 4 0;
#X connect 9 0 15 0;
#X connect 10 0 5 0;
#X connect 10 0 16 0;
#X connect 11 0 8 0;
#X connect 11 0 17 0;
#X connect 12 0 14 0;
#X connect 13 0 18 0;
#X connect 14 0 13 0;
#X connect 14 0 21 0;
#X connect 18 0 20 0;
#X connect 20 0 1 0;
#X connect 20 1 0 0;
#X connect 22 0 25 0;
#X connect 23 0 24 0;
#X connect 23 0 27 0;
#X connect 25 0 26 0;
#X connect 26 0 23 0;
#X connect 27 0 20 0;
#X restore 398 116 pd NbPos;
#X obj 399 255 r \$1-NbPos;
#X obj 414 362 r \$1-NbPos;
#X obj 429 453 s \$1-X;
#X obj 282 282 f;
#X obj 305 171 r \$1-Store;
#X floatatom 456 429 5 0 0 0 - - -, f 5;
#X obj 381 280 f;
#X obj 305 205 t b b;
#N canvas 87 288 609 666 Gem 0;
#X msg 198 294 open \$1;
#X symbolatom 204 270 0 0 0 0 - - -;
#X obj 198 228 split_path;
#X obj 198 207 getdir;
#X obj 200 186 bng 15 250 50 1 empty empty empty 17 7 0 10 -262144
-1 -1;
#X obj 198 248 makesymbol %s/pic/\$1.png;
#X obj 184 356 pix_texture;
#X obj 184 103 separator;
#X obj 397 134 spigot;
#X obj 184 54 r PVJPoshead;
#X obj 184 125 spigot;
#X obj 272 50 r \$1-On;
#X obj 184 384 posGem \$1;
#X obj 229 458 circle 1;
#X obj 184 166 colorRGB 1 1 1 1;
#X obj 184 322 pix_image ../pic/\$1.png;
#X msg 180 596 font vera.ttf;
#X obj 181 574 loadbang;
#X obj 185 409 t a a;
#X obj 229 437 separator;
#X obj 155 464 separator;
#X obj 155 487 translateXYZ 0 0 0.01;
#X obj 156 520 colorRGB 1 0 0;
#X obj 158 624 text3d 1;
#X msg 328 524 text \$1;
#X obj 345 493 r \$1-NbPos;
#X obj 272 126 tgl 15 0 empty empty empty 17 7 0 10 -262144 -1 -1 1
1;
#X obj 348 115 tgl 15 0 empty empty empty 17 7 0 10 -262144 -1 -1 0
1;
#X obj 328 166 s \$1-l4;
#X obj 346 88 tgl 15 0 empty empty empty 17 7 0 10 -262144 -1 -1 0
1;
#X floatatom 389 68 5 0 0 0 - - -, f 5;
#X obj 272 103 sel 1;
#X obj 272 73 change;
#X connect 0 0 15 0;
#X connect 2 0 5 0;
#X connect 3 0 2 0;
#X connect 4 0 3 0;
#X connect 5 0 1 0;
#X connect 5 0 0 0;
#X connect 6 0 12 0;
#X connect 7 0 10 0;
#X connect 9 0 7 0;
#X connect 10 0 14 0;
#X connect 11 0 29 0;
#X connect 11 0 30 0;
#X connect 11 0 32 0;
#X connect 12 0 18 0;
#X connect 14 0 15 0;
#X connect 15 0 6 0;
#X connect 16 0 23 0;
#X connect 17 0 16 0;
#X connect 18 0 20 0;
#X connect 18 1 19 0;
#X connect 19 0 13 0;
#X connect 20 0 21 0;
#X connect 21 0 22 0;
#X connect 22 0 23 0;
#X connect 24 0 23 0;
#X connect 25 0 24 0;
#X connect 26 0 10 1;
#X connect 26 0 28 0;
#X connect 27 0 28 0;
#X connect 31 0 26 0;
#X connect 32 0 31 0;
#X restore 67 402 pd Gem;
#X obj 365 194 s \$1-lR;
#X obj 296 326 tabwrite PVJ-PosX;
#X floatatom 446 283 5 0 0 0 - - -, f 5;
#N canvas 2678 283 450 683 Store 0;
#X obj 143 120 r \$1-NbPos;
#X obj 26 147 f;
#X obj 49 36 r \$1-Store;
#X obj 125 145 f;
#X obj 49 70 t b b;
#X obj 47 122 r \$1-Y;
#X obj 353 128 r \$1-NbPos;
#X obj 236 155 f;
#X obj 259 44 r \$1-Store;
#X obj 335 153 f;
#X obj 259 78 t b b;
#X obj 257 130 r \$1-RX;
#X obj 154 312 r \$1-NbPos;
#X obj 37 339 f;
#X obj 60 228 r \$1-Store;
#X obj 136 337 f;
#X obj 60 262 t b b;
#X obj 58 314 r \$1-RY;
#X obj 362 331 r \$1-NbPos;
#X obj 245 358 f;
#X obj 268 247 r \$1-Store;
#X obj 344 356 f;
#X obj 268 281 t b b;
#X obj 265 332 r \$1-RZ;
#X obj 145 516 r \$1-NbPos;
#X obj 28 543 f;
#X obj 51 432 r \$1-Store;
#X obj 127 541 f;
#X obj 51 466 t b b;
#X obj 48 516 r \$1-Sc;
#X obj 40 192 tabwrite PVJ-PosY;
#X obj 250 200 tabwrite PVJ-PosRX;
#X obj 261 402 tabwrite PVJ-PosRZ;
#X obj 52 384 tabwrite PVJ-PosRY;
#X obj 44 587 tabwrite PVJ-PosSc;
#X floatatom 78 552 5 0 0 0 - - -, f 5;
#X floatatom 279 361 5 0 0 0 - - -, f 5;
#X floatatom 189 559 5 0 0 0 - - -, f 5;
#X connect 0 0 3 1;
#X connect 1 0 30 0;
#X connect 2 0 4 0;
#X connect 3 0 30 1;
#X connect 4 0 1 0;
#X connect 4 1 3 0;
#X connect 5 0 1 1;
#X connect 6 0 9 1;
#X connect 7 0 31 0;
#X connect 8 0 10 0;
#X connect 9 0 31 1;
#X connect 10 0 7 0;
#X connect 10 1 9 0;
#X connect 11 0 7 1;
#X connect 12 0 15 1;
#X connect 13 0 33 0;
#X connect 14 0 16 0;
#X connect 15 0 33 1;
#X connect 16 0 13 0;
#X connect 16 1 15 0;
#X connect 17 0 13 1;
#X connect 18 0 21 1;
#X connect 19 0 32 0;
#X connect 20 0 22 0;
#X connect 21 0 32 1;
#X connect 22 0 19 0;
#X connect 22 1 21 0;
#X connect 23 0 19 1;
#X connect 23 0 36 0;
#X connect 24 0 27 1;
#X connect 24 0 37 0;
#X connect 25 0 34 0;
#X connect 26 0 28 0;
#X connect 27 0 34 1;
#X connect 28 0 25 0;
#X connect 28 1 27 0;
#X connect 29 0 25 1;
#X connect 29 0 35 0;
#X restore 196 192 pd Store;
#X obj 420 393 tabread PVJ-PosX;
#X obj 54 22 MASTERtypeNbPos \$0;
#X obj 450 315 s \$0-NbPos;
#X text 110 7 Pos : construit les tableaux de position X X RotX RotY
RotZ Scale;
#X obj 182 273 posLoad \$1;
#X obj 182 250 r \$1-NbPos;
#X connect 4 0 11 0;
#X connect 5 0 11 1;
#X connect 8 0 9 0;
#X connect 14 0 20 1;
#X connect 17 0 23 1;
#X connect 17 0 28 0;
#X connect 17 0 32 0;
#X connect 18 0 30 0;
#X connect 20 0 27 0;
#X connect 21 0 24 0;
#X connect 21 0 26 0;
#X connect 23 0 27 1;
#X connect 24 0 20 0;
#X connect 24 1 23 0;
#X connect 30 0 22 0;
#X connect 30 0 19 0;
#X connect 35 0 34 0;
#X coords 0 -1 1 1 42 117 2 50 10;
