#N canvas 398 706 361 675 10;
#X obj 1 1 cnv 15 40 654 empty empty \$1 1 5 1 8 -257985 -1 0;
#X text -27 -26 KEPtype nomUnique;
#X obj 9 662 KEPCommon \$1;
#X obj 8 643 bng 10 250 50 0 empty empty empty 17 7 0 10 -4034 -1 -1
;
#X obj 25 643 bng 10 250 50 0 empty empty empty 17 7 0 10 -258113 -1
-1;
#X obj 4 12 MASTERtypeIN \$1 1;
#X obj 57 0 KEPface \$1;
#X obj 4 100 MASTERtypeOUT \$1 1;
#X obj 115 95 r \$1-Volume;
#X obj 115 116 Vcurve;
#X obj 115 138 m;
#X obj 168 121 r \$1-Volume_max;
#X obj 82 165 mull~ 0 10;
#X connect 3 0 2 0;
#X connect 4 0 2 1;
#X connect 5 0 12 0;
#X connect 8 0 9 0;
#X connect 9 0 10 0;
#X connect 10 0 12 1;
#X connect 11 0 10 1;
#X connect 12 0 7 0;
#X coords 0 -1 1 1 42 656 2 0 0;
