#N canvas 1818 289 274 189 10;
#X declare -path ../../lib/Fraise/pd/;
#X obj 34 149 declare -path ../../lib/Fraise/pd/;
#X obj 41 19 Fr2Pied 0 12346;
#X obj 103 125 KEPfruit 1 KEP1 51;
#X obj 104 102 KEPfruit 1 KEP0 50;
#N canvas 1615 575 766 671 testKE 0;
#X obj 295 -3018 unpack f f f;
#X floatatom 293 -2988 5 0 0 0 - - -;
#X floatatom 346 -2986 8 0 0 0 - - -;
#X floatatom 421 -2988 5 0 0 0 - - -;
#X obj 577 -2978 tgl 15 0 empty empty empty 17 7 0 10 -262144 -1 -1
0 1;
#X msg 562 -2954 S\$1;
#X floatatom 320 -3051 8 0 0 0 - - -;
#X floatatom 375 -3052 8 0 0 0 - - -;
#X floatatom 430 -3052 8 0 0 0 - - -;
#X floatatom 485 -3053 8 0 0 0 - - -;
#X floatatom 538 -3052 8 0 0 0 - - -;
#X obj 70 -2771 * 255;
#X obj 56 -2805 tgl 15 0 empty empty empty 17 7 0 10 -262144 -1 -1
0 1;
#X msg 67 -2734 c 4 c \$1;
#X msg 137 -2739 c 5 c \$1;
#X obj 92 -2946 tgl 15 0 empty empty empty 17 7 0 10 -262144 -1 -1
0 1;
#X msg 165 -2910 500;
#X obj 334 -2916 == 0;
#X obj 107 -2920 sel 0;
#X obj 332 -2892 change;
#X floatatom 196 -3062 5 0 0 0 - - -;
#X obj 333 -2938 & 16;
#X floatatom 263 -2785 5 0 0 0 - - -;
#X msg 194 -2910 200;
#X obj 45 -2894 bng 15 250 50 0 empty empty empty 17 7 0 10 -262144
-1 -1;
#X obj 257 -2859 bng 15 250 50 0 empty empty empty 17 7 0 10 -262144
-1 -1;
#X msg 198 -2889 100;
#X msg 186 -2859 60;
#X floatatom 406 -2874 5 0 0 0 - - -;
#N canvas 57 1192 538 684 lcdtext 0;
#X obj 223 33 inlet;
#X obj 128 72 t a a;
#X obj 116 114 unwonk f f;
#X obj 314 141 a2l;
#X obj 314 162 l2s;
#X obj 208 325 f2char;
#X obj 266 411 f2char;
#X obj 41 244 bng 15 250 50 0 empty empty empty 17 7 0 10 -262144 -1
-1;
#X msg 67 203 128;
#X obj 65 165 t f f;
#X obj 65 188 > 128;
#X obj 355 64 l;
#X obj 223 111 unwonk f f f f;
#X text 261 33 side line start len string;
#X obj 117 268 symbol;
#X obj 37 99 * 40;
#X obj 87 112 * 64;
#X obj 81 61 t f f;
#X obj 223 145 pack f f f f;
#X obj 208 216 t a a;
#X msg 208 240 \$2;
#X obj 208 262 > 1;
#X obj 208 441 pack s s;
#X obj 208 283 + 128;
#X obj 266 240 unpack f f f f;
#X obj 305 319 +;
#X obj 303 270 % 2;
#X obj 303 292 * 64;
#X obj 266 343 +;
#X floatatom 238 367 5 0 0 0 - - -;
#X floatatom 180 310 5 0 0 0 - - -;
#X obj 136 512 outlet;
#X msg 394 124 symbol L\$1;
#X obj 266 381 + 128;
#X obj 266 267 * 20;
#X obj 81 605 print;
#X msg 85 579 \$1---;
#X obj 317 210 makesymbol L%-5s;
#X msg 117 215 \$4;
#X obj 117 236 t b f;
#X obj 181 189 t a a;
#X msg 79 419 \$1;
#X floatatom 140 399 5 0 0 0 - - -;
#X msg 149 454 L\$1;
#X obj 107 311 change;
#X msg 209 466 L\$1\$2;
#X msg 107 334 symbol L%-\$1s;
#X obj 14 357 makesymbol L%-5s;
#X obj 334 493 f2char;
#X obj 392 505 f2char;
#X obj 334 535 pack s s;
#X obj 334 470 + 128;
#X msg 335 560 L\$1\$2;
#X msg 392 482 1;
#X obj 357 423 t f b;
#X msg 364 391 0 \, 1;
#X text 364 371 clear;
#X connect 0 0 12 0;
#X connect 3 0 4 0;
#X connect 4 0 14 1;
#X connect 5 0 22 0;
#X connect 6 0 22 1;
#X connect 9 0 10 0;
#X connect 12 0 18 0;
#X connect 12 1 18 1;
#X connect 12 2 18 2;
#X connect 12 3 18 3;
#X connect 12 4 3 0;
#X connect 14 0 47 0;
#X connect 18 0 40 0;
#X connect 19 0 20 0;
#X connect 19 1 24 0;
#X connect 20 0 21 0;
#X connect 21 0 23 0;
#X connect 22 0 45 0;
#X connect 23 0 5 0;
#X connect 24 0 34 0;
#X connect 24 1 26 0;
#X connect 24 2 25 1;
#X connect 25 0 28 1;
#X connect 26 0 27 0;
#X connect 27 0 25 0;
#X connect 28 0 33 0;
#X connect 33 0 6 0;
#X connect 34 0 28 0;
#X connect 36 0 35 0;
#X connect 38 0 39 0;
#X connect 39 0 14 0;
#X connect 39 1 44 0;
#X connect 40 0 38 0;
#X connect 40 1 19 0;
#X connect 41 0 31 0;
#X connect 43 0 31 0;
#X connect 44 0 46 0;
#X connect 45 0 31 0;
#X connect 46 0 47 1;
#X connect 47 0 41 0;
#X connect 48 0 50 0;
#X connect 49 0 50 1;
#X connect 50 0 52 0;
#X connect 51 0 48 0;
#X connect 52 0 31 0;
#X connect 53 0 49 0;
#X connect 54 0 51 0;
#X connect 54 1 53 0;
#X connect 55 0 54 0;
#X restore 432 -2631 pd lcdtext;
#X msg 445 -2698 0 1 10 20 0_1_10;
#X msg 183 -2825 10;
#X msg 181 -2802 1;
#X symbolatom 566 -2586 10 0 0 0 - - -;
#N canvas 383 1225 696 562 numeric 0;
#X obj 183 14 inlet;
#X obj 245 392 outlet;
#X obj 183 117 unwonk f;
#X obj 272 236 l;
#X obj 183 168 moses 100;
#X obj 245 191 - 100;
#X obj 245 214 t f b;
#X obj 272 259 unwonk f f;
#X obj 272 282 * 256;
#X obj 272 305 +;
#X obj 245 363 pack f f;
#X obj 183 53 route list;
#X obj 245 168 moses 150;
#X obj 274 36 outlet;
#X obj 122 460 outlet;
#X obj 60 238 unwonk f;
#X obj 149 379 l;
#X obj 122 357 t f b;
#X obj 122 435 pack f f;
#X obj 60 311 moses 1;
#X obj 149 402 unwonk f;
#X obj 272 327 / 16383;
#X obj 122 311 moses 20;
#X obj 122 334 - 0;
#X floatatom 183 236 5 0 0 0 - - -;
#X obj 511 138 print;
#X obj 350 319 list;
#X connect 0 0 11 0;
#X connect 2 0 4 0;
#X connect 2 1 3 1;
#X connect 3 0 7 0;
#X connect 4 1 12 0;
#X connect 5 0 6 0;
#X connect 5 0 24 0;
#X connect 6 0 10 0;
#X connect 6 1 3 0;
#X connect 7 0 8 0;
#X connect 7 1 9 1;
#X connect 7 2 26 0;
#X connect 8 0 9 0;
#X connect 9 0 21 0;
#X connect 10 0 1 0;
#X connect 11 0 15 0;
#X connect 11 0 2 0;
#X connect 11 1 13 0;
#X connect 12 0 5 0;
#X connect 15 0 19 0;
#X connect 15 1 16 1;
#X connect 16 0 20 0;
#X connect 17 0 18 0;
#X connect 17 1 16 0;
#X connect 18 0 14 0;
#X connect 19 1 22 0;
#X connect 20 0 18 1;
#X connect 20 1 15 0;
#X connect 21 0 10 1;
#X connect 22 0 23 0;
#X connect 23 0 17 0;
#X connect 26 0 2 0;
#X restore 308 -3110 pd numeric;
#X msg 268 -2738 1 3 5 15 Count=\$1;
#X obj 539 -2615 makefilename %5.3f;
#X obj 252 -2818 count 2000;
#X msg 445 -2823 c 102 i \$1;
#X floatatom 444 -2847 8 0 0 0 - - -;
#X msg 457 -2869 0;
#X msg 497 -2870 4095;
#X msg 175 -2682 0 \, 1 \, 3 \, 4 \, 5;
#X obj 175 -2659 + 100;
#X obj 435 -3148 print;
#X msg 112 -2897 0;
#X msg 485 -2895 2048;
#X obj 559 -2670 hsl 128 15 0 1 0 0 empty empty empty -2 -8 0 10 -262144
-1 -1 0 1;
#X obj 494 -3015 t b b;
#X obj 494 -2994 del 100;
#X msg 494 -2974 1;
#X msg 522 -2974 0;
#X obj 500 -2952 change;
#X floatatom 387 -2923 5 0 0 0 - - -;
#X obj 349 -2856 & 1;
#X obj 349 -2836 == 0;
#X obj 331 -2816 change;
#X obj 140 -2762 * 255;
#X obj 140 -2781 tgl 15 0 empty empty empty 17 7 0 10 -262144 -1 -1
0 1;
#X obj 588 -2701 metro 10;
#X obj 607 -2732 tgl 15 0 empty empty empty 17 7 0 10 -262144 -1 -1
0 1;
#X obj 269 -2762 speedlim 5;
#X obj 534 -2644 speedlim 5;
#X obj -8 -2857 metro 500;
#X obj -2 -2881 tgl 15 0 empty empty empty 17 7 0 10 -262144 -1 -1
0 1;
#X floatatom 282 -2889 5 0 0 0 - - -;
#X obj 358 -3142 print;
#X obj 224 -3112 route t2;
#X obj 323 -2570 FruitSend Hur2A;
#X obj 83 -2694 t a;
#X msg 514 -2559 1 0 0 15 Pot3=\$1;
#X msg 439 -2763 \$1 0 aa \, \$1 1 bb \, \$1 2 cc \, \$1 3 dd;
#X msg 441 -2785 0 \, 1;
#X msg 431 -2740 \$1 \$2 0 20 \$3 \$3 \$3 \$3 \$3;
#N canvas 821 1192 450 300 notes_bin 0;
#X obj 118 17 inlet;
#X floatatom 143 149 5 0 0 0 - - -;
#X obj 77 82 & 15;
#X msg 78 104 15 \$1;
#X obj 79 128 -;
#X obj 96 180 mtof;
#X obj 76 218 outlet;
#X obj 72 156 sel 0;
#X msg 62 184 0;
#X connect 0 0 2 0;
#X connect 2 0 3 0;
#X connect 3 0 4 0;
#X connect 4 0 7 0;
#X connect 5 0 6 0;
#X connect 7 0 8 0;
#X connect 7 1 5 0;
#X connect 8 0 6 0;
#X restore 224 -2959 pd notes_bin;
#X floatatom 229 -2929 5 0 0 0 - - -;
#X obj 570 -2878 hsl 128 15 0 16384 0 0 empty empty empty -2 -8 0 10
-262144 -1 -1 0 1;
#N canvas 6 1236 937 616 brouillon2 0;
#X obj 322 141 unpack f f f;
#X floatatom 320 171 5 0 0 0 - - -;
#X floatatom 373 173 8 0 0 0 - - -;
#X floatatom 448 171 5 0 0 0 - - -;
#X msg 462 216 c 2 c \$1;
#X msg 472 189 1;
#X obj 604 181 tgl 15 0 empty empty empty 17 7 0 10 -262144 -1 -1 0
1;
#X msg 589 205 S\$1;
#X obj 356 87 route 0 1 2 3 4;
#X floatatom 340 117 8 0 0 0 - - -;
#X floatatom 395 116 8 0 0 0 - - -;
#X floatatom 450 116 8 0 0 0 - - -;
#X floatatom 505 115 8 0 0 0 - - -;
#X floatatom 558 116 8 0 0 0 - - -;
#X obj 97 388 * 255;
#X obj 83 354 tgl 15 0 empty empty empty 17 7 0 10 -262144 -1 -1 0
1;
#X msg 94 425 c 4 c \$1;
#X msg 164 420 c 5 c \$1;
#X obj 119 213 tgl 15 0 empty empty empty 17 7 0 10 -262144 -1 -1 0
1;
#X obj 121 290 metro 500;
#X msg 192 249 500;
#X obj 361 243 == 0;
#X obj 134 239 sel 0;
#X obj 359 267 change;
#X floatatom 223 97 5 0 0 0 - - -;
#X obj 360 221 & 16;
#X floatatom 290 374 5 0 0 0 - - -;
#X msg 221 249 200;
#X obj 72 265 bng 15 250 50 0 empty empty empty 17 7 0 10 -262144 -1
-1;
#X obj 284 300 bng 15 250 50 0 empty empty empty 17 7 0 10 -262144
-1 -1;
#X msg 225 270 100;
#X msg 213 300 60;
#X floatatom 433 285 5 0 0 0 - - -;
#N canvas 61 87 538 684 lcdtext 0;
#X obj 223 33 inlet;
#X obj 128 72 t a a;
#X obj 116 114 unwonk f f;
#X obj 314 141 a2l;
#X obj 314 162 l2s;
#X obj 208 325 f2char;
#X obj 266 411 f2char;
#X obj 41 244 bng 15 250 50 0 empty empty empty 17 7 0 10 -262144 -1
-1;
#X msg 67 203 128;
#X obj 65 165 t f f;
#X obj 65 188 > 128;
#X obj 355 64 l;
#X obj 223 111 unwonk f f f f;
#X text 261 33 side line start len string;
#X obj 117 268 symbol;
#X obj 37 99 * 40;
#X obj 87 112 * 64;
#X obj 81 61 t f f;
#X obj 223 145 pack f f f f;
#X obj 208 216 t a a;
#X msg 208 240 \$2;
#X obj 208 262 > 1;
#X obj 208 441 pack s s;
#X obj 208 283 + 128;
#X obj 266 240 unpack f f f f;
#X obj 305 319 +;
#X obj 303 270 % 2;
#X obj 303 292 * 64;
#X obj 266 343 +;
#X floatatom 238 367 5 0 0 0 - - -;
#X floatatom 180 310 5 0 0 0 - - -;
#X obj 136 512 outlet;
#X msg 394 124 symbol L\$1;
#X obj 266 381 + 128;
#X obj 266 267 * 20;
#X obj 81 605 print;
#X msg 85 579 \$1---;
#X obj 317 210 makesymbol L%-5s;
#X msg 117 215 \$4;
#X obj 117 236 t b f;
#X obj 181 189 t a a;
#X msg 79 419 \$1;
#X floatatom 140 399 5 0 0 0 - - -;
#X msg 149 454 L\$1;
#X obj 107 311 change;
#X msg 209 466 L\$1\$2;
#X msg 107 334 symbol L%-\$1s;
#X obj 14 357 makesymbol L%-5s;
#X obj 334 493 f2char;
#X obj 392 505 f2char;
#X obj 334 535 pack s s;
#X obj 334 470 + 128;
#X msg 335 560 L\$1\$2;
#X msg 392 482 1;
#X obj 357 423 t f b;
#X msg 364 391 0 \, 1;
#X text 364 371 clear;
#X connect 0 0 12 0;
#X connect 3 0 4 0;
#X connect 4 0 14 1;
#X connect 5 0 22 0;
#X connect 6 0 22 1;
#X connect 9 0 10 0;
#X connect 12 0 18 0;
#X connect 12 1 18 1;
#X connect 12 2 18 2;
#X connect 12 3 18 3;
#X connect 12 4 3 0;
#X connect 14 0 47 0;
#X connect 18 0 40 0;
#X connect 19 0 20 0;
#X connect 19 1 24 0;
#X connect 20 0 21 0;
#X connect 21 0 23 0;
#X connect 22 0 45 0;
#X connect 23 0 5 0;
#X connect 24 0 34 0;
#X connect 24 1 26 0;
#X connect 24 2 25 1;
#X connect 25 0 28 1;
#X connect 26 0 27 0;
#X connect 27 0 25 0;
#X connect 28 0 33 0;
#X connect 33 0 6 0;
#X connect 34 0 28 0;
#X connect 36 0 35 0;
#X connect 38 0 39 0;
#X connect 39 0 14 0;
#X connect 39 1 44 0;
#X connect 40 0 38 0;
#X connect 40 1 19 0;
#X connect 41 0 31 0;
#X connect 43 0 31 0;
#X connect 44 0 46 0;
#X connect 45 0 31 0;
#X connect 46 0 47 1;
#X connect 47 0 41 0;
#X connect 48 0 50 0;
#X connect 49 0 50 1;
#X connect 50 0 52 0;
#X connect 51 0 48 0;
#X connect 52 0 31 0;
#X connect 53 0 49 0;
#X connect 54 0 51 0;
#X connect 54 1 53 0;
#X connect 55 0 54 0;
#X restore 459 528 pd lcdtext;
#X msg 472 461 0 1 10 20 0_1_10;
#X msg 210 334 10;
#X msg 208 357 1;
#X floatatom 567 87 5 0 0 0 - - -;
#X obj 529 29 dbtorms;
#X floatatom 499 91 5 0 0 0 - - -;
#X symbolatom 593 573 10 0 0 0 - - -;
#N canvas 250 184 475 584 numeric 0;
#X obj 183 14 inlet;
#X obj 245 363 outlet;
#X obj 183 117 unwonk f;
#X obj 272 236 l;
#X obj 183 168 moses 100;
#X obj 245 191 - 100;
#X obj 245 214 t f b;
#X obj 272 259 unwonk f f;
#X obj 272 282 * 256;
#X obj 272 305 +;
#X obj 245 338 pack f f;
#X obj 183 36 route list;
#X obj 245 168 moses 150;
#X obj 274 36 outlet;
#X obj 122 460 outlet;
#X obj 60 238 unwonk f;
#X obj 149 379 l;
#X obj 122 357 t f b;
#X obj 122 435 pack f f;
#X obj 60 311 moses 1;
#X obj 122 311 moses 10;
#X obj 122 334 - 1;
#X obj 149 402 unwonk f;
#X connect 0 0 11 0;
#X connect 2 0 4 0;
#X connect 2 1 3 1;
#X connect 3 0 7 0;
#X connect 4 1 12 0;
#X connect 5 0 6 0;
#X connect 6 0 10 0;
#X connect 6 1 3 0;
#X connect 7 0 8 0;
#X connect 7 1 9 1;
#X connect 7 2 2 0;
#X connect 8 0 9 0;
#X connect 9 0 10 1;
#X connect 10 0 1 0;
#X connect 11 0 2 0;
#X connect 11 0 15 0;
#X connect 11 1 13 0;
#X connect 12 0 5 0;
#X connect 15 0 19 0;
#X connect 15 1 16 1;
#X connect 16 0 22 0;
#X connect 17 0 18 0;
#X connect 17 1 16 0;
#X connect 18 0 14 0;
#X connect 19 1 20 0;
#X connect 20 0 21 0;
#X connect 21 0 17 0;
#X connect 22 0 18 1;
#X connect 22 1 15 0;
#X restore 335 49 pd numeric;
#X msg 295 421 1 3 5 15 Count=\$1;
#X obj 566 544 makefilename %5.3f;
#X obj 279 341 count 2000;
#X msg 472 336 c 102 i \$1;
#X floatatom 480 311 8 0 0 0 - - -;
#X msg 484 290 0;
#X msg 524 289 4095;
#X msg 190 501 0 \, 1 \, 3 \, 4 \, 5;
#X obj 184 525 + 100;
#X obj 462 11 print;
#X msg 139 262 0;
#X msg 512 264 2048;
#X obj 586 489 hsl 128 15 0 1 0 0 empty empty empty -2 -8 0 10 -262144
-1 -1 0 1;
#X obj 521 144 t b b;
#X obj 521 165 del 100;
#X msg 521 185 1;
#X msg 549 185 0;
#X obj 527 207 change;
#X obj 362 197 route 0 1;
#X floatatom 414 236 5 0 0 0 - - -;
#X obj 376 303 & 1;
#X obj 376 323 == 0;
#X obj 358 343 change;
#X obj 167 397 * 255;
#X obj 167 378 tgl 15 0 empty empty empty 17 7 0 10 -262144 -1 -1 0
1;
#X obj 615 458 metro 10;
#X obj 634 427 tgl 15 0 empty empty empty 17 7 0 10 -262144 -1 -1 0
1;
#X obj 296 397 speedlim 5;
#X obj 561 515 speedlim 5;
#N canvas 1281 404 450 345 attack 0;
#X obj 115 25 inlet f;
#X obj 115 73 t b b;
#X msg 115 114 1;
#X msg 143 114 0;
#X obj 121 136 change;
#X obj 115 94 del 40;
#X obj 115 241 tgl 15 0 empty empty empty 17 7 0 10 -262144 -1 -1 0
1;
#X obj 122 158 t b f;
#X obj 118 203 0;
#X obj 197 306 outlet;
#X obj 119 182 del 100;
#X obj 218 181 ||;
#X obj 192 30 inlet t;
#X obj 220 154 t b f;
#X connect 0 0 1 0;
#X connect 1 0 5 0;
#X connect 1 1 3 0;
#X connect 2 0 4 0;
#X connect 3 0 4 0;
#X connect 3 0 6 0;
#X connect 4 0 7 0;
#X connect 5 0 2 0;
#X connect 7 0 10 0;
#X connect 7 1 6 0;
#X connect 8 0 6 0;
#X connect 10 0 8 0;
#X connect 11 0 9 0;
#X connect 12 0 13 0;
#X connect 13 0 11 0;
#X connect 13 1 11 1;
#X restore 685 6 pd attack;
#X obj 439 64 maxlib/scale 0 1 50 100;
#X obj 19 302 metro 500;
#X obj 25 278 tgl 15 0 empty empty empty 17 7 0 10 -262144 -1 -1 0
1;
#X msg 183 573 c \$1 i 2048;
#X floatatom 309 270 5 0 0 0 - - -;
#X obj 385 17 print;
#X obj 251 47 route t2;
#X obj 246 13 FruitReceive Hur2A;
#X obj 110 465 t a;
#X msg 541 600 1 0 0 15 Pot3=\$1;
#X obj 590 40 line~;
#X msg 588 16 \$1 10;
#X msg 466 396 \$1 0 aa \, \$1 1 bb \, \$1 2 cc \, \$1 3 dd;
#X msg 468 374 0 \, 1;
#X msg 458 419 \$1 \$2 0 20 \$3 \$3 \$3 \$3 \$3;
#X obj 689 33 *~;
#X obj 456 33 / 16383;
#N canvas 823 478 450 300 notes_bin 0;
#X obj 118 17 inlet;
#X floatatom 143 149 5 0 0 0 - - -;
#X obj 77 82 & 15;
#X msg 78 104 15 \$1;
#X obj 79 128 -;
#X obj 96 180 mtof;
#X obj 76 218 outlet;
#X obj 72 156 sel 0;
#X msg 62 184 0;
#X connect 0 0 2 0;
#X connect 2 0 3 0;
#X connect 3 0 4 0;
#X connect 4 0 7 0;
#X connect 5 0 6 0;
#X connect 7 0 8 0;
#X connect 7 1 5 0;
#X connect 8 0 6 0;
#X restore 251 200 pd notes_bin;
#X floatatom 256 230 5 0 0 0 - - -;
#X obj 597 281 hsl 128 15 0 16384 0 0 empty empty empty -2 -8 0 10
-262144 -1 -1 0 1;
#X obj 350 589 FruitSend Hur2A--;
#X obj 459 239 FruitSend testKE1--;
#X connect 0 0 1 0;
#X connect 0 1 2 0;
#X connect 0 2 3 0;
#X connect 4 0 93 0;
#X connect 5 0 4 0;
#X connect 6 0 7 0;
#X connect 7 0 92 1;
#X connect 8 0 9 0;
#X connect 8 1 10 0;
#X connect 8 2 11 0;
#X connect 8 2 88 0;
#X connect 8 3 12 0;
#X connect 8 4 13 0;
#X connect 11 0 55 0;
#X connect 14 0 16 0;
#X connect 15 0 14 0;
#X connect 16 0 80 0;
#X connect 17 0 80 0;
#X connect 18 0 19 0;
#X connect 18 0 22 0;
#X connect 19 0 15 0;
#X connect 19 0 44 0;
#X connect 20 0 19 1;
#X connect 21 0 23 0;
#X connect 22 0 52 0;
#X connect 23 0 32 0;
#X connect 23 0 18 0;
#X connect 23 0 71 1;
#X connect 25 0 21 0;
#X connect 26 0 69 0;
#X connect 27 0 19 1;
#X connect 28 0 19 0;
#X connect 29 0 44 0;
#X connect 30 0 19 1;
#X connect 31 0 19 1;
#X connect 33 0 92 1;
#X connect 34 0 33 0;
#X connect 35 0 19 1;
#X connect 36 0 19 1;
#X connect 38 0 37 0;
#X connect 38 0 83 0;
#X connect 38 0 71 0;
#X connect 41 0 60 0;
#X connect 41 1 8 0;
#X connect 41 2 51 0;
#X connect 42 0 33 0;
#X connect 43 0 81 0;
#X connect 43 0 40 0;
#X connect 44 0 26 0;
#X connect 45 0 92 0;
#X connect 46 0 45 0;
#X connect 46 0 88 0;
#X connect 47 0 46 0;
#X connect 48 0 46 0;
#X connect 49 0 50 0;
#X connect 50 0 75 0;
#X connect 52 0 15 0;
#X connect 53 0 46 0;
#X connect 54 0 70 0;
#X connect 55 0 56 0;
#X connect 55 1 58 0;
#X connect 56 0 57 0;
#X connect 57 0 59 0;
#X connect 58 0 59 0;
#X connect 60 0 25 0;
#X connect 60 0 76 0;
#X connect 60 0 89 0;
#X connect 60 1 61 0;
#X connect 61 0 62 0;
#X connect 62 0 63 0;
#X connect 63 0 64 0;
#X connect 64 0 66 0;
#X connect 65 0 17 0;
#X connect 66 0 65 0;
#X connect 67 0 54 0;
#X connect 68 0 67 0;
#X connect 69 0 42 0;
#X connect 70 0 43 0;
#X connect 71 0 14 0;
#X connect 71 0 87 0;
#X connect 72 0 38 0;
#X connect 72 0 39 0;
#X connect 73 0 15 0;
#X connect 73 0 66 0;
#X connect 74 0 73 0;
#X connect 75 0 92 0;
#X connect 78 0 0 0;
#X connect 78 1 41 0;
#X connect 80 0 92 0;
#X connect 81 0 33 0;
#X connect 83 0 82 0;
#X connect 84 0 86 0;
#X connect 85 0 84 0;
#X connect 86 0 33 0;
#X connect 88 0 54 0;
#X connect 88 0 72 0;
#X connect 89 0 90 0;
#X connect 91 0 46 0;
#X restore -8 -2997 pd brouillon2;
#X floatatom 609 -3054 8 0 0 0 - - -;
#N canvas 1601 604 857 351 Commands 0;
#X obj 170 261 outlet;
#X msg 70 120 c 4 c \$1;
#X obj 56 60 tgl 15 0 empty empty empty 17 7 0 10 -262144 -1 -1 0 1
;
#N canvas 1590 533 594 292 bin------------------- 0;
#X obj 31 48 inlet;
#X obj 31 117 +;
#X obj 57 115 t b f;
#X obj 31 81 * 128;
#X obj 96 48 inlet;
#X obj 96 117 +;
#X obj 122 115 t b f;
#X obj 162 49 inlet;
#X obj 162 118 +;
#X obj 188 116 t b f;
#X obj 227 49 inlet;
#X obj 227 118 +;
#X obj 253 116 t b f;
#X obj 294 52 inlet;
#X obj 294 121 +;
#X obj 320 119 t b f;
#X obj 359 52 inlet;
#X obj 359 121 +;
#X obj 385 119 t b f;
#X obj 425 53 inlet;
#X obj 425 122 +;
#X obj 451 120 t b f;
#X obj 490 53 inlet;
#X obj 96 81 * 64;
#X obj 162 82 * 32;
#X obj 227 82 * 16;
#X obj 294 85 * 8;
#X obj 359 85 * 4;
#X obj 425 86 * 2;
#X obj 490 86 * 1;
#X obj 31 191 outlet;
#X connect 0 0 3 0;
#X connect 1 0 30 0;
#X connect 2 0 1 0;
#X connect 2 1 1 1;
#X connect 3 0 1 0;
#X connect 4 0 23 0;
#X connect 5 0 2 0;
#X connect 6 0 5 0;
#X connect 6 1 5 1;
#X connect 7 0 24 0;
#X connect 8 0 6 0;
#X connect 9 0 8 0;
#X connect 9 1 8 1;
#X connect 10 0 25 0;
#X connect 11 0 9 0;
#X connect 12 0 11 0;
#X connect 12 1 11 1;
#X connect 13 0 26 0;
#X connect 14 0 12 0;
#X connect 15 0 14 0;
#X connect 15 1 14 1;
#X connect 16 0 27 0;
#X connect 17 0 15 0;
#X connect 18 0 17 0;
#X connect 18 1 17 1;
#X connect 19 0 28 0;
#X connect 20 0 18 0;
#X connect 21 0 20 0;
#X connect 21 1 20 1;
#X connect 22 0 29 0;
#X connect 23 0 5 0;
#X connect 24 0 8 0;
#X connect 25 0 11 0;
#X connect 26 0 14 0;
#X connect 27 0 17 0;
#X connect 28 0 20 0;
#X connect 29 0 21 0;
#X restore 56 81 pd bin-------------------;
#X obj 76 61 tgl 15 0 empty empty empty 17 7 0 10 -262144 -1 -1 0 1
;
#X obj 97 61 tgl 15 0 empty empty empty 17 7 0 10 -262144 -1 -1 0 1
;
#X obj 117 62 tgl 15 0 empty empty empty 17 7 0 10 -262144 -1 -1 0
1;
#X obj 137 61 tgl 15 0 empty empty empty 17 7 0 10 -262144 -1 -1 0
1;
#X obj 157 62 tgl 15 0 empty empty empty 17 7 0 10 -262144 -1 -1 0
1;
#X obj 178 62 tgl 15 0 empty empty empty 17 7 0 10 -262144 -1 -1 0
1;
#X obj 198 63 tgl 15 0 empty empty empty 17 7 0 10 -262144 -1 -1 0
1;
#X text 127 119 ButLeds;
#X floatatom 37 157 5 0 0 0 - - -;
#X msg 41 225 c 2 c \$1;
#X floatatom 41 206 5 0 0 0 - - -;
#X obj 261 90 + 100;
#X text 268 127 set pots;
#X msg 261 112 c \$1 i 10000;
#X msg 290 207 c 20 c \$1;
#X msg 284 179 0;
#X text 275 162 switch in;
#X text 356 161 lcd;
#X msg 354 177 1;
#N canvas 17 192 538 684 lcdtext 0;
#X obj 223 33 inlet;
#X obj 128 72 t a a;
#X obj 116 114 unwonk f f;
#X obj 314 141 a2l;
#X obj 314 162 l2s;
#X obj 208 325 f2char;
#X obj 266 411 f2char;
#X obj 41 244 bng 15 250 50 0 empty empty empty 17 7 0 10 -262144 -1
-1;
#X msg 67 203 128;
#X obj 65 165 t f f;
#X obj 65 188 > 128;
#X obj 355 64 l;
#X obj 223 111 unwonk f f f f;
#X text 261 33 side line start len string;
#X obj 117 268 symbol;
#X obj 37 99 * 40;
#X obj 87 112 * 64;
#X obj 81 61 t f f;
#X obj 223 145 pack f f f f;
#X obj 208 216 t a a;
#X msg 208 240 \$2;
#X obj 208 262 > 1;
#X obj 208 441 pack s s;
#X obj 208 283 + 128;
#X obj 266 240 unpack f f f f;
#X obj 305 319 +;
#X obj 303 270 % 2;
#X obj 303 292 * 64;
#X obj 266 343 +;
#X floatatom 238 367 5 0 0 0 - - -;
#X floatatom 180 310 5 0 0 0 - - -;
#X obj 136 512 outlet;
#X msg 394 124 symbol L\$1;
#X obj 266 381 + 128;
#X obj 266 267 * 20;
#X obj 81 605 print;
#X msg 85 579 \$1---;
#X obj 317 210 makesymbol L%-5s;
#X msg 117 215 \$4;
#X obj 117 236 t b f;
#X obj 181 189 t a a;
#X msg 79 419 \$1;
#X floatatom 140 399 5 0 0 0 - - -;
#X msg 149 454 L\$1;
#X obj 107 311 change;
#X msg 209 466 L\$1\$2;
#X msg 107 334 symbol L%-\$1s;
#X obj 14 357 makesymbol L%-5s;
#X obj 334 493 f2char;
#X obj 392 505 f2char;
#X obj 334 535 pack s s;
#X obj 334 470 + 128;
#X msg 335 560 L\$1\$2;
#X msg 392 482 1;
#X obj 357 423 t f b;
#X msg 364 391 0 \, 1;
#X text 364 371 clear;
#X connect 0 0 12 0;
#X connect 3 0 4 0;
#X connect 4 0 14 1;
#X connect 5 0 22 0;
#X connect 6 0 22 1;
#X connect 9 0 10 0;
#X connect 12 0 18 0;
#X connect 12 1 18 1;
#X connect 12 2 18 2;
#X connect 12 3 18 3;
#X connect 12 4 3 0;
#X connect 14 0 47 0;
#X connect 18 0 40 0;
#X connect 19 0 20 0;
#X connect 19 1 24 0;
#X connect 20 0 21 0;
#X connect 21 0 23 0;
#X connect 22 0 45 0;
#X connect 23 0 5 0;
#X connect 24 0 34 0;
#X connect 24 1 26 0;
#X connect 24 2 25 1;
#X connect 25 0 28 1;
#X connect 26 0 27 0;
#X connect 27 0 25 0;
#X connect 28 0 33 0;
#X connect 33 0 6 0;
#X connect 34 0 28 0;
#X connect 36 0 35 0;
#X connect 38 0 39 0;
#X connect 39 0 14 0;
#X connect 39 1 44 0;
#X connect 40 0 38 0;
#X connect 40 1 19 0;
#X connect 41 0 31 0;
#X connect 43 0 31 0;
#X connect 44 0 46 0;
#X connect 45 0 31 0;
#X connect 46 0 47 1;
#X connect 47 0 41 0;
#X connect 48 0 50 0;
#X connect 49 0 50 1;
#X connect 50 0 52 0;
#X connect 51 0 48 0;
#X connect 52 0 31 0;
#X connect 53 0 49 0;
#X connect 54 0 51 0;
#X connect 54 1 53 0;
#X connect 55 0 54 0;
#X restore 425 209 pd lcdtext;
#X floatatom 450 56 5 0 0 0 - - -;
#X obj 425 251 outlet text;
#X msg 388 138 list Salut la compagnie;
#X msg 543 137 Bon alors quoi;
#X msg 446 99 0 1 0 15 num=\$1;
#X obj 425 172 list prepend 0 0 0 20;
#X msg 261 67 0 \, 1 \, 2 \, 3 \, 4;
#X msg 291 286 c 21 c \$1;
#X msg 300 259 1;
#X msg 265 259 0;
#X text 298 243 K1_AN;
#X obj 526 207 tgl 15 0 empty empty empty 17 7 0 10 -262144 -1 -1 0
1;
#X msg 511 231 S\$1;
#X connect 1 0 0 0;
#X connect 2 0 3 0;
#X connect 3 0 1 0;
#X connect 3 0 12 0;
#X connect 4 0 3 1;
#X connect 5 0 3 2;
#X connect 6 0 3 3;
#X connect 7 0 3 4;
#X connect 8 0 3 5;
#X connect 9 0 3 6;
#X connect 10 0 3 7;
#X connect 13 0 0 0;
#X connect 14 0 13 0;
#X connect 15 0 17 0;
#X connect 17 0 0 0;
#X connect 18 0 0 0;
#X connect 22 0 18 0;
#X connect 23 0 25 0;
#X connect 24 0 28 0;
#X connect 26 0 29 0;
#X connect 27 0 29 0;
#X connect 28 0 23 0;
#X connect 29 0 23 0;
#X connect 30 0 15 0;
#X connect 31 0 0 0;
#X connect 32 0 31 0;
#X connect 33 0 31 0;
#X connect 35 0 36 0;
#X connect 36 0 25 0;
#X restore 277 -2667 pd Commands;
#X obj 223 -2998 print;
#X msg 174 -2611 c \$1 i 0;
#X obj 335 -2962 route 1 2;
#X obj 94 -2869 metro 100;
#N canvas 1281 648 450 300 print-keys 0;
#X obj 91 52 inlet;
#X obj 105 246 outlet;
#X obj 158 80 route 1 2 10 11 12;
#X msg 98 195 0 3 0 20 key\$1:\$2;
#X connect 0 0 3 0;
#X connect 3 0 1 0;
#X restore 638 -2797 pd print-keys;
#N canvas 1771 1109 632 547 synth 0;
#X obj 140 42 inlet;
#X obj 99 204 log;
#X floatatom 37 206 5 0 0 0 - - -;
#X obj 99 226 / 0.693;
#X floatatom 86 324 5 0 0 0 - - -;
#X msg 87 117 255 \$1;
#X obj 88 141 -;
#X obj 99 250 i;
#X msg 170 107 255 \$1;
#X obj 170 132 -;
#X obj 170 155 * 256;
#X obj 99 180 +;
#X obj 114 157 t b f;
#X obj 151 298 mtof;
#X obj 156 382 mull~ 0 10;
#X obj 272 337 > 0;
#X obj 144 491 dac~;
#X obj 154 452 *~ 0.2;
#X obj 152 324 blosc~ saw;
#X obj 152 276 + 30;
#X floatatom 229 224 5 0 0 0 - - -;
#X obj 271 43 inlet;
#X obj 151 355 moog~;
#X obj 279 198 mtof;
#X obj 267 281 line~;
#X msg 264 244 \$1 50;
#X obj 195 345 sig~ 3.5;
#X floatatom 297 227 5 0 0 0 - - -;
#X obj 279 167 maxlib/scale 0 1 40 130;
#X obj 148 413 compressor~ 10;
#X floatatom 280 385 5 0 0 0 - - -;
#X obj 335 275 * 5;
#X obj 380 276 pow 3;
#X obj 279 104 route 2 0 3 4 1;
#X obj 350 137 maxlib/scale 0 1 20 100;
#X obj 191 218 t b f;
#X obj 413 418 *~ 0.2;
#X obj 446 397 pow 3;
#X obj 470 300 sig~ 300;
#X obj 417 352 vd~ \$0dA 100;
#X obj 140 72 route 10 11 1;
#X floatatom 406 112 5 0 0 0 - - -;
#X msg 495 22 127 \$1;
#X obj 495 43 -;
#X obj 495 73 & 15;
#X obj 495 114 sel 0;
#X obj 523 187 pipe 50;
#X floatatom 525 255 5 0 0 0 - - -;
#X obj 573 186 != 0;
#X obj 524 210 spigot;
#X obj 522 163 * 150;
#X obj 22 450 delwrite~ \$0dA 2300;
#X obj 45 8 loadbang;
#X msg 45 32 \; pd dsp 0;
#X connect 0 0 40 0;
#X connect 1 0 3 0;
#X connect 3 0 7 0;
#X connect 5 0 6 0;
#X connect 6 0 11 0;
#X connect 7 0 4 0;
#X connect 7 0 19 0;
#X connect 8 0 9 0;
#X connect 9 0 10 0;
#X connect 10 0 12 0;
#X connect 11 0 1 0;
#X connect 11 0 2 0;
#X connect 11 0 15 0;
#X connect 12 0 11 0;
#X connect 12 1 11 1;
#X connect 13 0 18 0;
#X connect 14 0 29 0;
#X connect 15 0 14 1;
#X connect 17 0 16 0;
#X connect 17 0 16 1;
#X connect 18 0 22 0;
#X connect 19 0 13 0;
#X connect 20 0 19 1;
#X connect 21 0 33 0;
#X connect 22 0 14 0;
#X connect 23 0 25 0;
#X connect 24 0 22 1;
#X connect 25 0 24 0;
#X connect 26 0 22 2;
#X connect 28 0 23 0;
#X connect 28 0 27 0;
#X connect 29 0 17 0;
#X connect 29 0 51 0;
#X connect 30 0 29 1;
#X connect 31 0 29 1;
#X connect 32 0 17 1;
#X connect 33 0 28 0;
#X connect 33 1 31 0;
#X connect 33 2 37 0;
#X connect 33 3 32 0;
#X connect 33 4 34 0;
#X connect 34 0 35 0;
#X connect 35 0 19 0;
#X connect 35 1 19 1;
#X connect 36 0 29 0;
#X connect 37 0 36 1;
#X connect 38 0 39 0;
#X connect 39 0 36 0;
#X connect 40 0 5 0;
#X connect 40 1 8 0;
#X connect 40 2 42 0;
#X connect 42 0 43 0;
#X connect 43 0 44 0;
#X connect 44 0 45 0;
#X connect 44 0 48 0;
#X connect 45 1 50 0;
#X connect 46 0 49 0;
#X connect 47 0 38 0;
#X connect 48 0 49 1;
#X connect 49 0 47 0;
#X connect 50 0 46 0;
#X connect 52 0 53 0;
#X restore 132 -2987 pd synth;
#N canvas 1143 1203 450 300 leds 0;
#X obj 145 23 inlet;
#X obj 136 246 outlet;
#X obj 141 84 route 1 2 10 11 12;
#X msg 126 182 c 4 c \$1;
#X msg 126 129 255 \$1;
#X obj 126 154 -;
#X msg 184 141 255 \$1;
#X obj 184 166 -;
#X msg 184 194 c 10 c \$1;
#X msg 252 142 255 \$1;
#X obj 252 167 -;
#X msg 252 195 c 11 c \$1;
#X msg 318 141 255 \$1;
#X obj 318 166 -;
#X msg 318 194 c 12 c \$1;
#X obj 151 52 spigot 0;
#X obj 200 24 inlet;
#X connect 0 0 15 0;
#X connect 2 0 4 0;
#X connect 2 2 6 0;
#X connect 2 3 9 0;
#X connect 2 4 12 0;
#X connect 3 0 1 0;
#X connect 4 0 5 0;
#X connect 5 0 3 0;
#X connect 6 0 7 0;
#X connect 7 0 8 0;
#X connect 8 0 1 0;
#X connect 9 0 10 0;
#X connect 10 0 11 0;
#X connect 11 0 1 0;
#X connect 12 0 13 0;
#X connect 13 0 14 0;
#X connect 14 0 1 0;
#X connect 15 0 2 0;
#X connect 16 0 15 1;
#X restore 646 -2955 pd leds;
#X obj 685 -2978 tgl 15 0 empty empty empty 17 7 0 10 -262144 -1 -1
1 1;
#N canvas 1865 661 808 498 testB 0;
#X obj 363 -2970 unpack f f f;
#X floatatom 361 -2940 5 0 0 0 - - -;
#X floatatom 414 -2938 8 0 0 0 - - -;
#X floatatom 388 -3003 8 0 0 0 - - -;
#X floatatom 443 -3004 8 0 0 0 - - -;
#X floatatom 498 -3004 8 0 0 0 - - -;
#X floatatom 553 -3005 8 0 0 0 - - -;
#X floatatom 606 -3004 8 0 0 0 - - -;
#X floatatom 264 -3014 5 0 0 0 - - -;
#N canvas 120 809 475 584 numeric 0;
#X obj 183 14 inlet;
#X obj 245 392 outlet;
#X obj 183 117 unwonk f;
#X obj 272 236 l;
#X obj 183 168 moses 100;
#X obj 245 191 - 100;
#X obj 245 214 t f b;
#X obj 272 259 unwonk f f;
#X obj 272 282 * 256;
#X obj 272 305 +;
#X obj 245 363 pack f f;
#X obj 183 36 route list;
#X obj 245 168 moses 150;
#X obj 274 36 outlet;
#X obj 122 460 outlet;
#X obj 60 238 unwonk f;
#X obj 149 379 l;
#X obj 122 357 t f b;
#X obj 122 435 pack f f;
#X obj 60 311 moses 1;
#X obj 149 402 unwonk f;
#X obj 272 327 / 16383;
#X obj 122 311 moses 20;
#X obj 122 334 - 0;
#X connect 0 0 11 0;
#X connect 2 0 4 0;
#X connect 2 1 3 1;
#X connect 3 0 7 0;
#X connect 4 1 12 0;
#X connect 5 0 6 0;
#X connect 6 0 10 0;
#X connect 6 1 3 0;
#X connect 7 0 8 0;
#X connect 7 1 9 1;
#X connect 7 2 2 0;
#X connect 8 0 9 0;
#X connect 9 0 21 0;
#X connect 10 0 1 0;
#X connect 11 0 2 0;
#X connect 11 0 15 0;
#X connect 11 1 13 0;
#X connect 12 0 5 0;
#X connect 15 0 19 0;
#X connect 15 1 16 1;
#X connect 16 0 20 0;
#X connect 17 0 18 0;
#X connect 17 1 16 0;
#X connect 18 0 14 0;
#X connect 19 1 22 0;
#X connect 20 0 18 1;
#X connect 20 1 15 0;
#X connect 21 0 10 1;
#X connect 22 0 23 0;
#X connect 23 0 17 0;
#X restore 376 -3062 pd numeric;
#X obj 292 -3064 route t2;
#X obj 404 -3033 route 0 1 2 3 4 5;
#X floatatom 677 -3006 8 0 0 0 - - -;
#X obj 182 -2968 print;
#N canvas 1601 483 571 547 synth 0;
#X obj 140 42 inlet;
#X obj 99 204 log;
#X floatatom 37 206 5 0 0 0 - - -;
#X obj 99 226 / 0.693;
#X floatatom 86 324 5 0 0 0 - - -;
#X msg 87 117 255 \$1;
#X obj 88 141 -;
#X obj 99 250 i;
#X msg 170 107 255 \$1;
#X obj 170 132 -;
#X obj 170 155 * 256;
#X obj 99 180 +;
#X obj 114 157 t b f;
#X obj 151 298 mtof;
#X obj 148 379 mull~ 0 10;
#X obj 272 337 > 0;
#X obj 144 491 dac~;
#X obj 154 452 *~ 0.2;
#X obj 152 324 blosc~ saw;
#X obj 152 276 + 30;
#X floatatom 229 224 5 0 0 0 - - -;
#X obj 295 84 inlet;
#X obj 151 355 moog~;
#X obj 279 198 mtof;
#X obj 267 281 line~;
#X msg 264 244 \$1 50;
#X obj 195 345 sig~ 3.5;
#X floatatom 297 227 5 0 0 0 - - -;
#X obj 279 167 maxlib/scale 0 1 40 130;
#X obj 146 410 compressor~ 10;
#X floatatom 280 385 5 0 0 0 - - -;
#X obj 335 275 * 5;
#X obj 380 276 pow 3;
#X obj 279 104 route 2 0 3 4 1;
#X obj 350 137 maxlib/scale 0 1 20 100;
#X obj 191 218 t b f;
#X obj 405 343 vd~ \$0dB 100;
#X obj 403 408 *~ 0.2;
#X obj 436 387 pow 3;
#X obj 427 262 sig~ 200;
#X obj 140 71 route 10 11 1;
#X floatatom 237 114 5 0 0 0 - - -;
#X obj 11 440 delwrite~ \$0dB 2300;
#X msg 470 20 127 \$1;
#X obj 470 41 -;
#X obj 468 64 & 15;
#X obj 472 96 sel 0;
#X obj 500 169 pipe 50;
#X floatatom 502 237 5 0 0 0 - - -;
#X obj 550 168 != 0;
#X obj 501 192 spigot;
#X obj 499 145 * 150;
#X connect 0 0 40 0;
#X connect 1 0 3 0;
#X connect 3 0 7 0;
#X connect 5 0 6 0;
#X connect 6 0 11 0;
#X connect 7 0 4 0;
#X connect 7 0 19 0;
#X connect 8 0 9 0;
#X connect 9 0 10 0;
#X connect 10 0 12 0;
#X connect 11 0 1 0;
#X connect 11 0 2 0;
#X connect 11 0 15 0;
#X connect 12 0 11 0;
#X connect 12 1 11 1;
#X connect 13 0 18 0;
#X connect 14 0 29 0;
#X connect 15 0 14 1;
#X connect 17 0 16 0;
#X connect 17 0 16 1;
#X connect 18 0 22 0;
#X connect 19 0 13 0;
#X connect 20 0 19 1;
#X connect 21 0 33 0;
#X connect 22 0 14 0;
#X connect 23 0 25 0;
#X connect 24 0 22 1;
#X connect 25 0 24 0;
#X connect 26 0 22 2;
#X connect 28 0 23 0;
#X connect 28 0 27 0;
#X connect 29 0 17 0;
#X connect 29 0 42 0;
#X connect 30 0 29 1;
#X connect 31 0 29 1;
#X connect 32 0 17 1;
#X connect 33 0 28 0;
#X connect 33 1 31 0;
#X connect 33 2 38 0;
#X connect 33 3 32 0;
#X connect 33 4 34 0;
#X connect 34 0 35 0;
#X connect 35 0 19 0;
#X connect 35 1 19 1;
#X connect 36 0 37 0;
#X connect 37 0 29 0;
#X connect 38 0 37 1;
#X connect 39 0 36 0;
#X connect 40 0 5 0;
#X connect 40 1 8 0;
#X connect 40 2 41 0;
#X connect 40 2 43 0;
#X connect 43 0 44 0;
#X connect 44 0 45 0;
#X connect 45 0 46 0;
#X connect 45 0 49 0;
#X connect 46 1 51 0;
#X connect 47 0 50 0;
#X connect 49 0 50 1;
#X connect 50 0 48 0;
#X connect 50 0 39 0;
#X connect 51 0 47 0;
#X restore 240 -2876 pd synth;
#N canvas 1281 552 450 300 leds 0;
#X obj 145 23 inlet;
#X obj 136 246 outlet;
#X obj 141 84 route 1 2 10 11 12;
#X msg 126 182 c 4 c \$1;
#X msg 126 129 255 \$1;
#X obj 126 154 -;
#X msg 184 141 255 \$1;
#X obj 184 166 -;
#X msg 184 194 c 10 c \$1;
#X msg 252 142 255 \$1;
#X obj 252 167 -;
#X msg 252 195 c 11 c \$1;
#X msg 318 141 255 \$1;
#X obj 318 166 -;
#X msg 318 194 c 12 c \$1;
#X obj 151 52 spigot 0;
#X obj 200 24 inlet;
#X connect 0 0 15 0;
#X connect 2 0 4 0;
#X connect 2 2 6 0;
#X connect 2 3 9 0;
#X connect 2 4 12 0;
#X connect 3 0 1 0;
#X connect 4 0 5 0;
#X connect 5 0 3 0;
#X connect 6 0 7 0;
#X connect 7 0 8 0;
#X connect 8 0 1 0;
#X connect 9 0 10 0;
#X connect 10 0 11 0;
#X connect 11 0 1 0;
#X connect 12 0 13 0;
#X connect 13 0 14 0;
#X connect 14 0 1 0;
#X connect 15 0 2 0;
#X connect 16 0 15 1;
#X restore 541 -2875 pd leds;
#X obj 580 -2898 tgl 15 0 empty empty empty 17 7 0 10 -262144 -1 -1
1 1;
#X obj 287 -3098 FruitReceive Hur2B;
#X obj 538 -2820 FruitSend Hur2B;
#N canvas 1601 578 857 351 Commands 0;
#X obj 170 261 outlet;
#X msg 70 120 c 4 c \$1;
#X obj 56 60 tgl 15 0 empty empty empty 17 7 0 10 -262144 -1 -1 0 1
;
#N canvas 1590 533 594 292 bin------------------- 0;
#X obj 31 48 inlet;
#X obj 31 117 +;
#X obj 57 115 t b f;
#X obj 31 81 * 128;
#X obj 96 48 inlet;
#X obj 96 117 +;
#X obj 122 115 t b f;
#X obj 162 49 inlet;
#X obj 162 118 +;
#X obj 188 116 t b f;
#X obj 227 49 inlet;
#X obj 227 118 +;
#X obj 253 116 t b f;
#X obj 294 52 inlet;
#X obj 294 121 +;
#X obj 320 119 t b f;
#X obj 359 52 inlet;
#X obj 359 121 +;
#X obj 385 119 t b f;
#X obj 425 53 inlet;
#X obj 425 122 +;
#X obj 451 120 t b f;
#X obj 490 53 inlet;
#X obj 96 81 * 64;
#X obj 162 82 * 32;
#X obj 227 82 * 16;
#X obj 294 85 * 8;
#X obj 359 85 * 4;
#X obj 425 86 * 2;
#X obj 490 86 * 1;
#X obj 31 191 outlet;
#X connect 0 0 3 0;
#X connect 1 0 30 0;
#X connect 2 0 1 0;
#X connect 2 1 1 1;
#X connect 3 0 1 0;
#X connect 4 0 23 0;
#X connect 5 0 2 0;
#X connect 6 0 5 0;
#X connect 6 1 5 1;
#X connect 7 0 24 0;
#X connect 8 0 6 0;
#X connect 9 0 8 0;
#X connect 9 1 8 1;
#X connect 10 0 25 0;
#X connect 11 0 9 0;
#X connect 12 0 11 0;
#X connect 12 1 11 1;
#X connect 13 0 26 0;
#X connect 14 0 12 0;
#X connect 15 0 14 0;
#X connect 15 1 14 1;
#X connect 16 0 27 0;
#X connect 17 0 15 0;
#X connect 18 0 17 0;
#X connect 18 1 17 1;
#X connect 19 0 28 0;
#X connect 20 0 18 0;
#X connect 21 0 20 0;
#X connect 21 1 20 1;
#X connect 22 0 29 0;
#X connect 23 0 5 0;
#X connect 24 0 8 0;
#X connect 25 0 11 0;
#X connect 26 0 14 0;
#X connect 27 0 17 0;
#X connect 28 0 20 0;
#X connect 29 0 21 0;
#X restore 56 81 pd bin-------------------;
#X obj 76 61 tgl 15 0 empty empty empty 17 7 0 10 -262144 -1 -1 0 1
;
#X obj 97 61 tgl 15 0 empty empty empty 17 7 0 10 -262144 -1 -1 0 1
;
#X obj 117 62 tgl 15 0 empty empty empty 17 7 0 10 -262144 -1 -1 0
1;
#X obj 137 61 tgl 15 0 empty empty empty 17 7 0 10 -262144 -1 -1 0
1;
#X obj 157 62 tgl 15 0 empty empty empty 17 7 0 10 -262144 -1 -1 0
1;
#X obj 178 62 tgl 15 0 empty empty empty 17 7 0 10 -262144 -1 -1 0
1;
#X obj 198 63 tgl 15 0 empty empty empty 17 7 0 10 -262144 -1 -1 0
1;
#X text 127 119 ButLeds;
#X floatatom 37 157 5 0 0 0 - - -;
#X msg 41 225 c 2 c \$1;
#X floatatom 41 206 5 0 0 0 - - -;
#X obj 261 90 + 100;
#X text 268 127 set pots;
#X msg 261 112 c \$1 i 10000;
#X msg 290 207 c 20 c \$1;
#X msg 284 179 0;
#X text 275 162 switch in;
#X text 356 161 lcd;
#X msg 354 177 1;
#X msg 261 67 0 \, 1 \, 2 \, 3 \, 4;
#X obj 446 214 tgl 15 0 empty empty empty 17 7 0 10 -262144 -1 -1 0
1;
#X msg 431 238 S\$1;
#X obj 431 263 outlet;
#X connect 1 0 0 0;
#X connect 2 0 3 0;
#X connect 3 0 1 0;
#X connect 3 0 12 0;
#X connect 4 0 3 1;
#X connect 5 0 3 2;
#X connect 6 0 3 3;
#X connect 7 0 3 4;
#X connect 8 0 3 5;
#X connect 9 0 3 6;
#X connect 10 0 3 7;
#X connect 13 0 0 0;
#X connect 14 0 13 0;
#X connect 15 0 17 0;
#X connect 17 0 0 0;
#X connect 18 0 0 0;
#X connect 19 0 18 0;
#X connect 23 0 15 0;
#X connect 24 0 25 0;
#X connect 25 0 26 0;
#X restore 615 -2895 pd Commands;
#X obj 164 -3030 print t2;
#X obj 370 -2815 route 5;
#X floatatom 370 -2791 5 0 0 0 - - -;
#X obj 377 -2715 & 1;
#X obj 402 -2718 & 2;
#X obj 378 -2692 tgl 15 0 empty empty empty 17 7 0 10 -262144 -1 -1
0 1;
#X obj 403 -2692 tgl 15 0 empty empty empty 17 7 0 10 -262144 -1 -1
0 2;
#X obj 432 -2696 tgl 15 0 empty empty empty 17 7 0 10 -262144 -1 -1
0 4;
#X obj 457 -2696 tgl 15 0 empty empty empty 17 7 0 10 -262144 -1 -1
0 8;
#X obj 431 -2719 & 4;
#X obj 456 -2722 & 8;
#X floatatom 238 -2792 5 0 0 0 - - -;
#X obj 238 -2816 route 3 4;
#X floatatom 276 -2791 5 0 0 0 - - -;
#X obj 577 -2927 init 1;
#X connect 0 0 1 0;
#X connect 0 1 2 0;
#X connect 9 0 14 0;
#X connect 9 0 15 0;
#X connect 9 0 21 0;
#X connect 9 0 32 0;
#X connect 9 1 11 0;
#X connect 9 1 14 1;
#X connect 10 0 0 0;
#X connect 10 1 9 0;
#X connect 11 0 3 0;
#X connect 11 1 4 0;
#X connect 11 2 5 0;
#X connect 11 3 6 0;
#X connect 11 4 7 0;
#X connect 11 6 12 0;
#X connect 15 0 18 0;
#X connect 16 0 15 1;
#X connect 19 0 18 0;
#X connect 19 1 18 1;
#X connect 21 0 22 0;
#X connect 22 0 23 0;
#X connect 22 0 24 0;
#X connect 22 0 29 0;
#X connect 22 0 30 0;
#X connect 23 0 25 0;
#X connect 24 0 26 0;
#X connect 29 0 27 0;
#X connect 30 0 28 0;
#X connect 32 0 31 0;
#X connect 32 1 33 0;
#X connect 34 0 16 0;
#X restore 114 -3031 pd testB;
#X obj 679 -3006 init 1;
#X obj 585 -3133 loadbang;
#X msg 585 -3109 \; pd dsp 0;
#X obj 418 -3115 route 0 1 2 3 4 5 6;
#X obj 219 -3146 FruitReceive KEP1;
#X connect 0 0 1 0;
#X connect 0 1 2 0;
#X connect 0 2 3 0;
#X connect 4 0 5 0;
#X connect 5 0 68 1;
#X connect 8 0 48 0;
#X connect 11 0 13 0;
#X connect 12 0 11 0;
#X connect 13 0 69 0;
#X connect 14 0 69 0;
#X connect 15 0 18 0;
#X connect 15 0 83 0;
#X connect 16 0 83 1;
#X connect 17 0 19 0;
#X connect 18 0 45 0;
#X connect 19 0 28 0;
#X connect 19 0 15 0;
#X connect 21 0 17 0;
#X connect 22 0 61 0;
#X connect 23 0 83 1;
#X connect 24 0 83 0;
#X connect 25 0 37 0;
#X connect 26 0 83 1;
#X connect 27 0 83 1;
#X connect 29 0 68 1;
#X connect 30 0 29 0;
#X connect 31 0 83 1;
#X connect 32 0 83 1;
#X connect 34 0 82 0;
#X connect 34 0 84 0;
#X connect 34 0 85 0;
#X connect 34 0 86 0;
#X connect 34 1 85 1;
#X connect 34 1 92 0;
#X connect 35 0 29 0;
#X connect 36 0 70 0;
#X connect 36 0 33 0;
#X connect 37 0 22 0;
#X connect 38 0 68 0;
#X connect 39 0 38 0;
#X connect 40 0 39 0;
#X connect 41 0 39 0;
#X connect 42 0 43 0;
#X connect 43 0 81 0;
#X connect 45 0 12 0;
#X connect 46 0 39 0;
#X connect 47 0 62 0;
#X connect 48 0 49 0;
#X connect 48 1 51 0;
#X connect 49 0 50 0;
#X connect 50 0 52 0;
#X connect 51 0 52 0;
#X connect 53 0 54 0;
#X connect 54 0 55 0;
#X connect 55 0 56 0;
#X connect 56 0 58 0;
#X connect 57 0 14 0;
#X connect 58 0 57 0;
#X connect 59 0 47 0;
#X connect 60 0 59 0;
#X connect 61 0 35 0;
#X connect 62 0 36 0;
#X connect 63 0 12 0;
#X connect 63 0 58 0;
#X connect 64 0 63 0;
#X connect 67 0 0 0;
#X connect 67 1 34 0;
#X connect 69 0 68 0;
#X connect 70 0 29 0;
#X connect 71 0 73 0;
#X connect 72 0 71 0;
#X connect 73 0 29 0;
#X connect 74 0 75 0;
#X connect 76 0 39 0;
#X connect 79 0 68 0;
#X connect 79 1 68 1;
#X connect 81 0 68 0;
#X connect 82 0 21 0;
#X connect 82 0 65 0;
#X connect 82 0 74 0;
#X connect 82 1 53 0;
#X connect 83 0 12 0;
#X connect 83 0 37 0;
#X connect 84 0 29 0;
#X connect 86 0 68 0;
#X connect 87 0 86 1;
#X connect 89 0 87 0;
#X connect 90 0 91 0;
#X connect 92 0 6 0;
#X connect 92 1 7 0;
#X connect 92 2 8 0;
#X connect 92 2 47 0;
#X connect 92 3 9 0;
#X connect 92 4 10 0;
#X connect 92 5 78 0;
#X restore 40 103 pd testKE;
#X coords 0 0 0.00203252 0.00161812 280 45 0;
