#N canvas 216 703 985 616 10;
#X obj 157 59 gemhead;
#X floatatom 336 167 0 0 0 0 - - -;
#X obj 157 385 rotateXYZ;
#X obj 157 437 cube;
#X floatatom 224 359 0 0 0 0 - - -;
#X obj 224 310 metro 50;
#X obj 203 412 translateXYZ 2 1 0;
#X obj 203 438 cube;
#X obj 157 201 pix_movie;
#X text 377 167 control which frame;
#X text 256 436 automatically textures;
#X obj 177 238 print frames;
#X msg 287 25 open ../data/homer.avi;
#X obj 224 290 tgl 15 0 empty empty empty 20 8 0 8 -262144 -1 -1 0
1;
#X obj 297 307 print done;
#X msg 336 135 auto \$1;
#X obj 336 116 tgl 15 0 empty empty empty 20 8 0 8 -262144 -1 -1 0
1;
#X text 43 486 the texturing is done automatically: there is no need
to care for the image-size (it doesn't have to be a power of 2). on
the other hand \, you cannot do image-processing !! use [pix_film]
for this;
#X msg 297 284 reached the end !!!;
#X obj 280 250 t f b;
#X text 449 13 Win32;
#X text 461 73 linux;
#X msg 297 56 open ../data/anim-1.mov;
#X msg 307 87 open ../data/alea.mpg;
#X text 8 264 notice: you don't need pix_texture;
#X text 406 131 play the movie !;
#X obj 224 335 i;
#X obj 259 335 + 1;
#X obj 295 335 % 360;
#X text 471 42 apple;
#X msg 49 15 open ./film/homer.avi;
#X obj 755 16 model;
#X obj 713 224 cnv 15 200 280 empty empty empty 20 12 0 14 -228992
-66577 0;
#X obj 715 511 cnv 15 200 60 empty empty empty 20 12 0 14 -195568 -66577
0;
#N canvas 0 50 450 300 gemwin 0;
#X obj 132 136 gemwin;
#X obj 67 89 outlet;
#X obj 67 10 inlet;
#X obj 67 41 route create;
#X msg 67 70 set destroy;
#X msg 142 68 set create;
#X msg 132 112 create \, 1 \, lighting 1;
#X msg 298 112 destroy \, reset;
#X connect 2 0 3 0;
#X connect 3 0 4 0;
#X connect 3 0 6 0;
#X connect 3 1 5 0;
#X connect 3 1 7 0;
#X connect 4 0 1 0;
#X connect 5 0 1 0;
#X connect 6 0 0 0;
#X connect 7 0 0 0;
#X restore 722 544 pd gemwin;
#X msg 722 525 destroy;
#X text 719 506 Create window:;
#X obj 721 276 cnv 15 180 165 empty empty empty 20 12 0 14 -106458
-66577 0;
#X obj 719 453 cnv 15 50 30 empty empty empty 20 12 0 14 -24198 -66577
0;
#X obj 834 525 gemhead;
#X obj 834 544 world_light;
#X obj 803 443 cnv 15 100 50 empty empty empty 20 12 0 14 -106458 -66577
0;
#X obj 539 10 gemhead;
#X obj 724 460 model;
#X obj 842 246 bng 15 250 50 0 empty empty empty 0 -6 0 8 -262144 -1
-1;
#X obj 737 299 openpanel;
#X obj 825 285 tgl 15 0 empty empty empty 0 -6 0 8 -262144 -1 -1 0
1;
#X msg 825 305 rescale \$1;
#X msg 741 365 smooth \$1;
#X obj 825 345 tgl 15 0 empty empty empty 0 -6 0 8 -262144 -1 -1 0
1;
#X msg 825 365 revert \$1;
#X msg 737 415 material \$1;
#X msg 825 415 texture \$1;
#X msg 827 467 group \$1;
#X floatatom 741 347 5 0 1 0 - - -, f 5;
#X msg 737 320 open \$1;
#X obj 827 449 hradio 15 1 0 3 empty empty empty 0 -6 0 8 -262144 -1
-1 0;
#X obj 724 256 color 1 0 0;
#X obj 705 391 tgl 15 0 empty empty empty 0 -6 0 8 -262144 -1 -1 0
1;
#X obj 825 395 hradio 15 1 0 3 empty empty empty 0 -6 0 8 -262144 -1
-1 0;
#X floatatom 592 168 5 0 0 0 - - -, f 5;
#X msg 673 165 1 0 0;
#X msg 688 189 0 1 1;
#X obj 766 154 pack f f f;
#X floatatom 765 79 5 0 0 0 - - -, f 5;
#X floatatom 819 83 5 0 0 0 - - -, f 5;
#X obj 813 110 t b f;
#X floatatom 881 83 5 0 0 0 - - -, f 5;
#X obj 875 110 t b f;
#X obj 536 381 pix_movie;
#X msg 477 326 open ./film/homer.avi;
#X msg 439 357 auto \$1;
#X obj 439 338 tgl 15 1 empty empty empty 20 8 0 8 -262144 -1 -1 1
1;
#X obj 741 45 square;
#X obj 471 301 bng 15 250 50 1 empty empty empty 17 7 0 10 -262144
-1 -1;
#X floatatom 554 44 5 0 0 2 amount - -, f 5;
#X msg 658 50 0 1 1;
#X msg 599 49 0.1 0 0;
#X floatatom 584 468 5 0 0 0 - - -, f 5;
#X floatatom 553 109 5 0 0 2 amount - -, f 5;
#X msg 657 115 0 1 1;
#X msg 598 114 0.1 0 0;
#X floatatom 585 420 5 0 0 0 - - -, f 5;
#X floatatom 591 218 5 0 0 0 - - -, f 5;
#X floatatom 578 264 5 0 0 0 - - -, f 5;
#X obj 541 195 rotate 0 1 0 0;
#X obj 540 239 rotate 0 0 1 0;
#X obj 527 285 rotate 0 0 0 1;
#X obj 582 589 circle 1;
#X obj 512 536 pix_image ./pic/KDC.png;
#X obj 508 570 pix_draw;
#X floatatom 630 357 0 0 0 0 - - -;
#X obj 542 74 translate -30 0.1 0 0;
#X obj 541 139 translate -24 0 0.1 0;
#X connect 1 0 8 1;
#X connect 2 0 3 0;
#X connect 2 0 6 0;
#X connect 4 0 2 2;
#X connect 4 0 2 3;
#X connect 5 0 26 0;
#X connect 6 0 7 0;
#X connect 8 0 2 0;
#X connect 8 1 11 0;
#X connect 8 2 19 0;
#X connect 12 0 8 0;
#X connect 13 0 5 0;
#X connect 15 0 8 0;
#X connect 16 0 15 0;
#X connect 18 0 14 0;
#X connect 19 0 8 1;
#X connect 19 1 18 0;
#X connect 22 0 8 0;
#X connect 23 0 8 0;
#X connect 26 0 27 0;
#X connect 26 0 4 0;
#X connect 27 0 28 0;
#X connect 28 0 26 1;
#X connect 30 0 8 0;
#X connect 34 0 35 0;
#X connect 35 0 34 0;
#X connect 39 0 40 0;
#X connect 44 0 45 0;
#X connect 45 0 55 0;
#X connect 46 0 47 0;
#X connect 47 0 43 0;
#X connect 48 0 43 0;
#X connect 49 0 50 0;
#X connect 50 0 43 0;
#X connect 51 0 43 0;
#X connect 52 0 43 0;
#X connect 53 0 43 0;
#X connect 54 0 48 0;
#X connect 55 0 43 0;
#X connect 56 0 53 0;
#X connect 57 0 43 0;
#X connect 58 0 51 0;
#X connect 59 0 52 0;
#X connect 60 0 85 1;
#X connect 61 0 85 2;
#X connect 62 0 85 2;
#X connect 63 0 85 2;
#X connect 64 0 63 0;
#X connect 65 0 66 0;
#X connect 66 0 63 0;
#X connect 66 1 63 1;
#X connect 67 0 68 0;
#X connect 68 0 63 0;
#X connect 68 1 63 2;
#X connect 69 2 74 0;
#X connect 69 2 82 0;
#X connect 70 0 69 0;
#X connect 71 0 69 0;
#X connect 72 0 71 0;
#X connect 74 0 70 0;
#X connect 75 0 92 1;
#X connect 76 0 92 2;
#X connect 77 0 92 2;
#X connect 78 0 88 1;
#X connect 79 0 93 1;
#X connect 80 0 93 2;
#X connect 81 0 93 2;
#X connect 83 0 86 1;
#X connect 84 0 87 1;
#X connect 85 0 86 0;
#X connect 86 0 87 0;
#X connect 87 0 69 0;
#X connect 89 0 90 0;
#X connect 89 0 88 0;
#X connect 91 0 69 1;
#X connect 92 0 93 0;
#X connect 93 0 85 0;
