#N canvas 353 152 502 435 10;
#X declare -path Hurface2/Fraise;
#N canvas 233 475 450 300 HurfaceCtl 0;
#X msg 187 196 \; \$1-SelectCache-rcv \$2;
#X obj 234 163 s MASTERSvol;
#X obj 235 28 vsl 15 128 0 1 0 0 empty empty empty 0 -9 0 10 -262144
-1 -1 0 1;
#N canvas 2724 310 607 462 MasterVol 0;
#X msg 280 216 c 21 c \$1;
#X msg 289 189 1;
#X msg 254 189 0;
#X text 287 173 K1_AN;
#X obj 381 167 r Hur2A-snd;
#X obj 383 186 route b6;
#X floatatom 380 226 5 0 0 0 - - -, f 5;
#X obj 274 380 FruitSend Hur2A;
#X obj 393 379 FruitSend KEP0;
#X obj 460 186 route b6;
#X floatatom 469 224 5 0 0 0 - - -, f 5;
#X obj 446 145 r KEP0-snd;
#X connect 0 0 7 0;
#X connect 1 0 0 0;
#X connect 2 0 0 0;
#X connect 4 0 5 0;
#X connect 5 0 6 0;
#X connect 9 0 10 0;
#X connect 11 0 9 0;
#X restore 312 111 pd MasterVol;
#X obj 258 24 r Hur2A-snd;
#X obj 260 43 route b6;
#X msg 263 65 1 \$1;
#X obj 263 86 -;
#N canvas 489 155 788 401 CtlNames 0;
#N canvas 741 91 538 684 lcdtext 0;
#X obj 223 33 inlet;
#X obj 128 72 t a a;
#X obj 116 114 unwonk f f;
#X obj 314 141 a2l;
#X obj 314 162 l2s;
#X obj 208 325 f2char;
#X obj 266 411 f2char;
#X obj 41 244 bng 15 250 50 0 empty empty empty 17 7 0 10 -262144 -1
-1;
#X msg 67 203 128;
#X obj 65 165 t f f;
#X obj 65 188 > 128;
#X obj 355 64 l;
#X obj 223 111 unwonk f f f f;
#X text 261 33 side line start len string;
#X obj 117 268 symbol;
#X obj 37 99 * 40;
#X obj 87 112 * 64;
#X obj 81 61 t f f;
#X obj 223 145 pack f f f f;
#X obj 208 216 t a a;
#X msg 208 240 \$2;
#X obj 208 262 > 1;
#X obj 208 441 pack s s;
#X obj 208 283 + 128;
#X obj 266 240 unpack f f f f;
#X obj 305 319 +;
#X obj 303 270 % 2;
#X obj 303 292 * 64;
#X obj 266 343 +;
#X floatatom 238 367 5 0 0 0 - - -, f 5;
#X floatatom 180 310 5 0 0 0 - - -, f 5;
#X obj 136 512 outlet;
#X msg 394 124 symbol L\$1;
#X obj 266 381 + 128;
#X obj 266 267 * 20;
#X obj 81 605 print;
#X msg 85 579 \$1---;
#X obj 317 210 makesymbol L%-5s;
#X msg 117 215 \$4;
#X obj 117 236 t b f;
#X obj 181 189 t a a;
#X msg 79 419 \$1;
#X floatatom 140 399 5 0 0 0 - - -, f 5;
#X msg 149 454 L\$1;
#X obj 107 311 change;
#X msg 209 466 L\$1\$2;
#X msg 107 334 symbol L%-\$1s;
#X obj 14 357 makesymbol L%-5s;
#X obj 334 493 f2char;
#X obj 392 505 f2char;
#X obj 334 535 pack s s;
#X obj 334 470 + 128;
#X msg 335 560 L\$1\$2;
#X msg 392 482 1;
#X obj 357 423 t f b;
#X msg 364 391 0 \, 1;
#X text 364 371 clear;
#X connect 0 0 12 0;
#X connect 3 0 4 0;
#X connect 4 0 14 1;
#X connect 5 0 22 0;
#X connect 6 0 22 1;
#X connect 9 0 10 0;
#X connect 12 0 18 0;
#X connect 12 1 18 1;
#X connect 12 2 18 2;
#X connect 12 3 18 3;
#X connect 12 4 3 0;
#X connect 14 0 47 0;
#X connect 18 0 40 0;
#X connect 19 0 20 0;
#X connect 19 1 24 0;
#X connect 20 0 21 0;
#X connect 21 0 23 0;
#X connect 22 0 45 0;
#X connect 23 0 5 0;
#X connect 24 0 34 0;
#X connect 24 1 26 0;
#X connect 24 2 25 1;
#X connect 25 0 28 1;
#X connect 26 0 27 0;
#X connect 27 0 25 0;
#X connect 28 0 33 0;
#X connect 33 0 6 0;
#X connect 34 0 28 0;
#X connect 36 0 35 0;
#X connect 38 0 39 0;
#X connect 39 0 14 0;
#X connect 39 1 44 0;
#X connect 40 0 38 0;
#X connect 40 1 19 0;
#X connect 41 0 31 0;
#X connect 43 0 31 0;
#X connect 44 0 46 0;
#X connect 45 0 31 0;
#X connect 46 0 47 1;
#X connect 47 0 41 0;
#X connect 48 0 50 0;
#X connect 49 0 50 1;
#X connect 50 0 52 0;
#X connect 51 0 48 0;
#X connect 52 0 31 0;
#X connect 53 0 49 0;
#X connect 54 0 51 0;
#X connect 54 1 53 0;
#X connect 55 0 54 0;
#X restore 161 207 pd lcdtext;
#X floatatom 70 41 5 0 0 0 - - -, f 5;
#X msg -19 85 list Salut la compagnie;
#X msg 70 62 0 1 0 15 num=\$1;
#X obj 92 155 list prepend 0 0 0 20;
#X obj 64 259 FruitSend2 Hur2A;
#X msg 136 84 list Bon alors quoi;
#X obj 260 305 t a;
#X obj 245 259 list prepend 1 1 0 20;
#X obj 260 236 list prepend 1 3 0 20;
#X msg 662 261 3 Effets;
#X msg 603 256 1 Note;
#X msg 631 232 2 Phrase;
#X msg 692 237 4 Reverb;
#X msg 739 262 5 Volume;
#X obj 630 164 bng 15 250 50 0 empty empty empty 17 7 0 10 -262144
-1 -1;
#X obj 303 194 list prepend 1 1 12 20;
#X obj 282 216 list prepend 1 2 5 20;
#X obj 284 16 r HurfaceScreen;
#X obj 618 293 list prepend ctlNameB;
#X obj 356 146 list prepend 1 0 0 20;
#X obj 631 345 s HurfaceScreen;
#X obj 627 315 list trim;
#X msg 772 280 titleB Rythmic1;
#X obj 280 108 unpack s s s s s s;
#X symbolatom 417 115 10 0 0 0 - - -, f 10;
#X obj 330 175 list prepend 1 3 12 20;
#X symbolatom 400 96 10 0 0 0 - - -, f 10;
#X obj 516 14 t b a;
#X obj 513 112 list split;
#X obj 514 93 list;
#X obj 515 68 t b f;
#X obj 539 135 list split 1;
#X obj 242 146 route 1 2 3 4 5 6;
#X obj 516 43 for++ 0 5;
#X obj 571 176 + 1;
#X obj 531 206 pack s f;
#X obj 448 263 list prepend ctlNameB;
#X obj 461 315 s HurfaceScreen;
#X obj 457 285 list trim;
#X msg 523 228 \$2 \$1;
#X obj 281 36 route ctlNameB titleB All raw;
#X connect 1 0 3 0;
#X connect 2 0 4 0;
#X connect 3 0 0 0;
#X connect 4 0 0 0;
#X connect 6 0 4 0;
#X connect 7 0 0 0;
#X connect 8 0 7 0;
#X connect 9 0 7 0;
#X connect 10 0 19 0;
#X connect 11 0 19 0;
#X connect 12 0 19 0;
#X connect 13 0 19 0;
#X connect 14 0 19 0;
#X connect 15 0 11 0;
#X connect 15 0 12 0;
#X connect 15 0 10 0;
#X connect 15 0 13 0;
#X connect 15 0 14 0;
#X connect 15 0 23 0;
#X connect 16 0 7 0;
#X connect 17 0 7 0;
#X connect 18 0 41 0;
#X connect 19 0 22 0;
#X connect 20 0 7 0;
#X connect 22 0 21 0;
#X connect 23 0 21 0;
#X connect 24 0 8 0;
#X connect 24 1 9 0;
#X connect 24 2 17 0;
#X connect 24 3 16 0;
#X connect 24 3 27 0;
#X connect 24 4 25 0;
#X connect 24 4 26 0;
#X connect 24 5 20 0;
#X connect 26 0 7 0;
#X connect 28 0 34 0;
#X connect 28 1 30 1;
#X connect 29 1 32 0;
#X connect 30 0 29 0;
#X connect 31 0 30 0;
#X connect 31 1 29 1;
#X connect 31 1 35 0;
#X connect 32 0 36 0;
#X connect 33 0 8 0;
#X connect 33 1 9 0;
#X connect 33 2 17 0;
#X connect 33 3 16 0;
#X connect 33 4 26 0;
#X connect 33 5 20 0;
#X connect 34 0 31 0;
#X connect 35 0 36 1;
#X connect 36 0 40 0;
#X connect 37 0 39 0;
#X connect 39 0 38 0;
#X connect 40 0 33 0;
#X connect 41 0 33 0;
#X connect 41 1 20 0;
#X connect 41 2 28 0;
#X connect 41 3 0 0;
#X restore 91 123 pd CtlNames;
#N canvas 229 165 812 386 VidCtlNames 0;
#X obj 254 355 s HurfaceScreen;
#X obj 254 327 list trim;
#X obj 254 300 list prepend All;
#X obj 266 35 route instru;
#X obj 262 11 r KEP0-rcv;
#X obj 266 57 symbol;
#X obj 266 79 sel VidCtl1 VidCtl2 VidCtl3 VidCtl4 VidCtl5 VidCtl6 VidCtl7
VidCtl8 VidCtl9 VidCtl10;
#X msg 252 167 Bleu Rouge Move Vert Alpha FEEDBACK;
#X msg 305 191 Panneaux Ampoule Etoile Moire Feedback MASTERS;
#X msg 353 214 ScaleRythm ScaleMelo Ampoule (rien) (rien) EFFETS;
#X msg 201 139 Bleu Rouge (rien) Vert Alpha MOIRE;
#X msg 370 236 Bleu Rouge Vitesse Vert Alpha ETOILES;
#X msg 389 260 VEpaisseur VAmplitude HEpaisseur HAmplitude Alpha BARRES
;
#X msg 409 297 X Y Z VitesseZ Master BOUGE;
#X connect 1 0 0 0;
#X connect 2 0 1 0;
#X connect 3 0 5 0;
#X connect 5 0 6 0;
#X connect 6 0 10 0;
#X connect 6 1 7 0;
#X connect 6 2 8 0;
#X connect 6 3 9 0;
#X connect 6 4 11 0;
#X connect 6 5 12 0;
#X connect 6 6 13 0;
#X connect 7 0 2 0;
#X connect 8 0 2 0;
#X connect 9 0 2 0;
#X connect 10 0 2 0;
#X connect 11 0 2 0;
#X connect 12 0 2 0;
#X connect 13 0 2 0;
#X restore 94 145 pd VidCtlNames;
#N canvas 757 268 611 573 Center 0;
#X obj 252 24 r KEP0-snd;
#X obj 258 77 route 2 3 4 5;
#X floatatom 249 121 5 0 0 0 - - -, f 5;
#X floatatom 288 125 5 0 0 0 - - -, f 5;
#X floatatom 321 125 5 0 0 0 - - -, f 5;
#X floatatom 360 129 5 0 0 0 - - -, f 5;
#X obj 258 52 route sw;
#X obj 97 201 & 1;
#X obj 97 222 != 0;
#X obj 136 202 & 2;
#X obj 172 203 & 4;
#X obj 211 204 & 8;
#X obj 246 204 & 16;
#X obj 285 205 & 32;
#X obj 97 243 != 1;
#X obj 135 223 != 0;
#X obj 135 244 != 1;
#X obj 172 225 != 0;
#X obj 172 246 != 1;
#X obj 210 226 != 0;
#X obj 210 247 != 1;
#X obj 248 226 != 0;
#X obj 248 247 != 1;
#X obj 286 227 != 0;
#X obj 286 248 != 1;
#X obj 108 265 tgl 15 0 empty empty empty 17 7 0 10 -262144 -1 -1 0
1;
#X obj 293 272 tgl 15 0 empty empty empty 17 7 0 10 -262144 -1 -1 0
1;
#X obj 257 272 tgl 15 0 empty empty empty 17 7 0 10 -262144 -1 -1 0
1;
#X obj 213 267 tgl 15 0 empty empty empty 17 7 0 10 -262144 -1 -1 0
1;
#X obj 177 267 tgl 15 0 empty empty empty 17 7 0 10 -262144 -1 -1 0
1;
#X obj 143 265 tgl 15 0 empty empty empty 17 7 0 10 -262144 -1 -1 0
1;
#X obj 97 284 change;
#X obj 135 289 change;
#X obj 178 288 change;
#X obj 209 314 change;
#X obj 246 289 change;
#X obj 292 299 change;
#X msg 245 341 tREC \$1;
#X msg 297 346 tSHIFT \$1;
#X obj 99 358 tgl 15 0 empty empty empty 17 7 0 10 -262144 -1 -1 0
1;
#X obj 219 156 f;
#X obj 340 235 != 0;
#X obj 340 256 != 1;
#X obj 347 280 tgl 15 0 empty empty empty 17 7 0 10 -262144 -1 -1 0
1;
#X obj 346 307 change;
#X msg 373 349 tSHIFT \$1;
#X obj 432 223 != 0;
#X obj 432 244 != 1;
#X obj 439 268 tgl 15 0 empty empty empty 17 7 0 10 -262144 -1 -1 0
1;
#X obj 438 295 change;
#X msg 458 350 tSHIFT \$1;
#X obj 339 213 & 64;
#X obj 431 201 & 128;
#X obj 238 422 t a;
#X msg 142 347 CVA \$1;
#X msg 110 318 CRA \$1;
#X msg 206 342 CVB \$1;
#X msg 183 367 CRB \$1;
#X msg 375 165 incrA \$1;
#X msg 441 166 incrB \$1;
#X obj 238 461 s HurfaceCenter;
#X connect 0 0 6 0;
#X connect 1 0 2 0;
#X connect 1 0 40 0;
#X connect 1 1 3 0;
#X connect 1 1 58 0;
#X connect 1 2 4 0;
#X connect 1 2 59 0;
#X connect 1 3 5 0;
#X connect 6 0 1 0;
#X connect 7 0 8 0;
#X connect 8 0 14 0;
#X connect 9 0 15 0;
#X connect 10 0 17 0;
#X connect 11 0 19 0;
#X connect 12 0 21 0;
#X connect 13 0 23 0;
#X connect 14 0 25 0;
#X connect 14 0 31 0;
#X connect 15 0 16 0;
#X connect 16 0 30 0;
#X connect 16 0 32 0;
#X connect 17 0 18 0;
#X connect 18 0 29 0;
#X connect 18 0 33 0;
#X connect 19 0 20 0;
#X connect 20 0 28 0;
#X connect 20 0 34 0;
#X connect 21 0 22 0;
#X connect 22 0 27 0;
#X connect 22 0 35 0;
#X connect 23 0 24 0;
#X connect 24 0 26 0;
#X connect 24 0 36 0;
#X connect 31 0 55 0;
#X connect 31 0 39 0;
#X connect 32 0 54 0;
#X connect 33 0 57 0;
#X connect 34 0 56 0;
#X connect 35 0 37 0;
#X connect 36 0 38 0;
#X connect 37 0 53 0;
#X connect 38 0 53 0;
#X connect 40 0 7 0;
#X connect 40 0 9 0;
#X connect 40 0 10 0;
#X connect 40 0 11 0;
#X connect 40 0 12 0;
#X connect 40 0 13 0;
#X connect 40 0 51 0;
#X connect 40 0 52 0;
#X connect 41 0 42 0;
#X connect 42 0 43 0;
#X connect 42 0 44 0;
#X connect 44 0 45 0;
#X connect 45 0 53 0;
#X connect 46 0 47 0;
#X connect 47 0 48 0;
#X connect 47 0 49 0;
#X connect 49 0 50 0;
#X connect 50 0 53 0;
#X connect 51 0 41 0;
#X connect 52 0 46 0;
#X connect 53 0 60 0;
#X connect 54 0 53 0;
#X connect 55 0 53 0;
#X connect 56 0 53 0;
#X connect 57 0 53 0;
#X connect 58 0 53 0;
#X connect 59 0 53 0;
#X restore 96 169 pd Center;
#N canvas 6 101 644 358 incrs 0;
#X obj 296 30 r HurfaceCenter;
#X obj 296 58 route incrA incrB;
#X obj 195 89 t f f;
#X obj 194 125 -;
#X obj 337 305 s 2Gem;
#X msg 344 278 turnSphere \$1;
#X floatatom 353 84 5 0 0 0 - - -, f 5;
#X obj 345 106 t f f;
#X obj 346 132 -;
#X obj 344 245 +;
#X floatatom 308 275 5 0 0 0 - - -, f 5;
#X obj 345 153 + 128;
#X obj 346 177 mod 256;
#X obj 346 199 - 128;
#X obj 382 246 f;
#X obj 23 56 r SYNCHRO-bpm-snd;
#X obj 21 248 s HurfaceScreen;
#X obj 21 218 list trim;
#X msg 22 172 bpm=\$1;
#X obj 20 81 * 100;
#X obj 19 103 i;
#X obj 21 125 change;
#X obj 22 146 / 100;
#X obj 21 194 list prepend raw 0 0 0 20;
#X obj 186 244 +;
#X obj 187 152 + 128;
#X obj 188 176 mod 256;
#X obj 188 198 - 128;
#X obj 216 245 r SYNCHRO-bpm-snd;
#X obj 189 317 s SYNCHRO-bpm-rcv;
#X obj 190 221 * 0.1;
#X obj 348 222 * 2;
#X obj 475 58 r 2Gem;
#X obj 476 107 route hurfA;
#X obj 476 128 route tog;
#X obj 470 163 & 1;
#X obj 476 82 list trim;
#X obj 470 186 != 0;
#X obj 535 232 tgl 15 0 empty empty empty 17 7 0 10 -262144 -1 -1 0
1;
#X obj 501 260 s SYNCHRO-on_off-rcv;
#X obj 474 210 change;
#X connect 0 0 1 0;
#X connect 1 0 2 0;
#X connect 1 1 6 0;
#X connect 1 1 7 0;
#X connect 2 0 3 1;
#X connect 2 1 3 0;
#X connect 3 0 25 0;
#X connect 5 0 4 0;
#X connect 7 0 8 1;
#X connect 7 1 8 0;
#X connect 8 0 11 0;
#X connect 9 0 5 0;
#X connect 9 0 10 0;
#X connect 9 0 14 0;
#X connect 11 0 12 0;
#X connect 12 0 13 0;
#X connect 13 0 31 0;
#X connect 14 0 9 1;
#X connect 15 0 19 0;
#X connect 17 0 16 0;
#X connect 18 0 23 0;
#X connect 19 0 20 0;
#X connect 20 0 21 0;
#X connect 21 0 22 0;
#X connect 22 0 18 0;
#X connect 23 0 17 0;
#X connect 24 0 29 0;
#X connect 25 0 26 0;
#X connect 26 0 27 0;
#X connect 27 0 30 0;
#X connect 28 0 24 1;
#X connect 30 0 24 0;
#X connect 31 0 9 0;
#X connect 32 0 36 0;
#X connect 33 0 34 0;
#X connect 34 0 35 0;
#X connect 35 0 37 0;
#X connect 36 0 33 0;
#X connect 37 0 40 0;
#X connect 40 0 39 0;
#X connect 40 0 38 0;
#X restore 80 211 pd incrs;
#X connect 2 0 1 0;
#X connect 4 0 5 0;
#X connect 5 0 6 0;
#X connect 6 0 7 0;
#X connect 7 0 2 0;
#X restore 239 42 pd HurfaceCtl;
#N canvas 320 259 334 445 mode 0;
#X obj 65 27 inlet;
#N canvas 28 316 483 257 pg_leds 0;
#X obj 15 13 inlet;
#X obj 15 77 drip;
#X obj 15 34 t b f;
#X obj 15 99 t f f;
#X obj 15 164 pack f f;
#X obj 45 138 ==;
#X obj 95 112 - 10;
#X obj 15 212 outlet;
#X msg 15 56 0 1 2 3 4 5 6 7 8 9 10 11 12 13 14 15;
#X obj 159 119 drip;
#X obj 159 76 t b f;
#X obj 159 141 t f f;
#X obj 159 206 pack f f;
#X obj 189 180 ==;
#X obj 239 154 - 10;
#X msg 159 230 bl \$1 \$2;
#X msg 159 98 0 1 2 3 4 5 6 7 8 9 10 11 12 13 14 15;
#X msg 15 188 al \$1 \$2;
#X obj 159 34 - 16;
#X connect 0 0 2 0;
#X connect 0 0 18 0;
#X connect 1 0 3 0;
#X connect 2 0 8 0;
#X connect 2 1 5 1;
#X connect 3 0 4 0;
#X connect 3 1 5 0;
#X connect 4 0 17 0;
#X connect 5 0 4 1;
#X connect 8 0 1 0;
#X connect 9 0 11 0;
#X connect 10 0 16 0;
#X connect 10 1 13 1;
#X connect 11 0 12 0;
#X connect 11 1 13 0;
#X connect 12 0 15 0;
#X connect 13 0 12 1;
#X connect 15 0 7 0;
#X connect 16 0 9 0;
#X connect 17 0 7 0;
#X connect 18 0 10 0;
#X restore 176 356 pd pg_leds;
#X obj 28 384 outlet;
#X obj 65 177 != 1;
#X msg 164 76 \$2 \$1;
#X obj 164 96 route 1;
#X obj 115 217 i;
#X obj 164 143 spigot;
#X obj 176 189 i;
#X obj 81 141 sel 0 1;
#X obj 114 72 b;
#X obj 33 103 tgl 15 0 empty empty empty 0 -6 0 8 -262144 -1 -1 0 1
;
#X obj 176 378 outlet;
#X obj 176 210 t f f;
#X obj 115 293 t f f;
#X obj 65 49 route mode updateall a b;
#X msg 218 76 \$2 \$1;
#X obj 218 96 route 1;
#X obj 218 116 + 16;
#X msg 115 314 GenMode \$1;
#X msg 115 258 -10 \, \$1;
#X msg 206 234 \$1 \, -10;
#X obj 28 202 spigot 1;
#X floatatom 153 297 5 0 0 0 - - -, f 5;
#X obj 225 201 route GenMode;
#X obj 225 180 r HurFace;
#X connect 0 0 15 0;
#X connect 0 0 22 0;
#X connect 1 0 12 0;
#X connect 3 0 22 1;
#X connect 4 0 5 0;
#X connect 5 0 7 0;
#X connect 6 0 20 0;
#X connect 7 0 6 1;
#X connect 7 0 8 0;
#X connect 8 0 13 0;
#X connect 9 0 6 0;
#X connect 9 1 8 0;
#X connect 10 0 6 0;
#X connect 13 0 1 0;
#X connect 13 1 21 0;
#X connect 14 0 19 0;
#X connect 14 1 23 0;
#X connect 15 0 3 0;
#X connect 15 0 9 0;
#X connect 15 0 7 1;
#X connect 15 0 11 0;
#X connect 15 1 10 0;
#X connect 15 2 4 0;
#X connect 15 3 16 0;
#X connect 16 0 17 0;
#X connect 17 0 18 0;
#X connect 18 0 7 0;
#X connect 19 0 2 0;
#X connect 20 0 14 0;
#X connect 21 0 14 0;
#X connect 22 0 2 0;
#X connect 24 0 8 1;
#X connect 25 0 24 0;
#X restore 295 173 pd mode;
#X obj 295 148 r fromHurf2;
#X obj 334 194 s toHurf2;
#X obj 353 218 tgl 15 0 empty empty empty 17 7 0 10 -262144 -1 -1 0
1;
#X obj 295 241 s HurFace;
#X obj 295 219 spigot 1;
#X obj 294 277 r 2HurFace;
#X obj 340 310 tgl 15 0 empty empty empty 17 7 0 10 -262144 -1 -1 0
1;
#X obj 294 331 spigot 1;
#X obj 294 361 s toHurf2;
#X obj 266 246 tgl 15 0 empty empty empty 17 7 0 10 -262144 -1 -1 0
1;
#X obj 208 269 print;
#X obj 207 247 spigot;
#X obj 26 340 fruit/send Hur2B;
#X obj 119 289 tgl 15 0 empty empty empty 17 7 0 10 -262144 -1 -1 0
1;
#X msg 120 315 S\$1;
#X obj 214 367 print;
#X obj 213 345 spigot;
#X obj 259 349 tgl 15 0 empty empty empty 17 7 0 10 -262144 -1 -1 0
1;
#X msg 26 316 c 20 c 0;
#X obj 239 64 HurfCtl a Hur2A;
#X obj 23 170 l fruit/fruit 1 Hur2B 51 FraiseKE;
#X obj 28 11 declare -path Hurface2/Fraise;
#X obj 22 121 l fruit/fruit 1 Hur2A 50 FraiseKE;
#X obj 239 86 HurfCtl b Hur2B;
#X obj 23 45 l pied/pied 0 12346;
#X connect 1 0 6 0;
#X connect 1 1 3 0;
#X connect 2 0 1 0;
#X connect 4 0 6 1;
#X connect 6 0 5 0;
#X connect 6 0 13 0;
#X connect 7 0 9 0;
#X connect 7 0 18 0;
#X connect 8 0 9 1;
#X connect 9 0 10 0;
#X connect 11 0 13 1;
#X connect 13 0 12 0;
#X connect 15 0 16 0;
#X connect 16 0 14 1;
#X connect 18 0 17 0;
#X connect 19 0 18 1;
#X connect 20 0 14 0;
