#N canvas 50 471 138 102 10;
#N canvas 193 196 584 594 guts 0;
#X obj 39 76 prvu~;
#X floatatom 195 485 5 0 0 0 - - -, f 5;
#X obj 256 382 loadbang;
#X msg 169 383 disconnect;
#X msg 299 483 connect localhost 61612;
#X obj 197 571 print netreceive;
#X obj 42 103 vu 15 120 empty empty -1 -8 0 10 -66577 -1 1 0;
#X obj 184 169 bng 15 250 50 0 empty empty empty 17 7 0 10 -262144
-1 -1;
#X obj 184 147 aubiotempo~ 0.3;
#X floatatom 260 172 5 0 0 0 - - -, f 5;
#X obj 128 244 s aubiotempo;
#X obj 340 229 bng 15 250 50 0 empty empty empty 17 7 0 10 -262144
-1 -1;
#X msg 374 48 0;
#X msg 372 67 0.1;
#X msg 373 93 1;
#X msg 382 115 10;
#X msg 378 147 0.3;
#X msg 386 168 0.2;
#X obj 340 206 aubioonset~ 0.3;
#X floatatom 61 266 5 0 0 0 - - -, f 5;
#X obj 206 198 s tic_mesure-Aubio;
#X obj 340 252 s tic_evenement-Aubio;
#X obj 128 216 timer;
#X obj 128 195 t b b;
#X obj 176 303 r aubiotempo;
#X obj 350 323 r tic_evenement-Aubio;
#X msg 350 346 send ev;
#X obj 502 164 loadbang;
#X msg 503 190 \; pd dsp 1;
#X obj 41 16 adc~ 1 2;
#X obj 177 52 dac~;
#X obj 173 22 *~;
#X obj 222 25 hsl 128 15 0 1 0 0 empty empty empty -2 -8 0 10 -262144
-1 -1 0 1;
#X obj 219 45 pow 2;
#X msg 176 326 send tempo \$1;
#X obj 81 347 outlet;
#X obj 507 314 outlet;
#X obj 109 66 loadbang;
#X obj 192 462 netsend -u;
#X msg 279 440 connect 255.255.255.255 61612;
#X obj 301 412 del 5000;
#X obj 197 549 l netreceive -u 61612;
#X msg 109 87 t_metro 50 \, t_hold 100 \, t_release 50;
#X obj 49 45 *~ 50;
#X connect 0 0 6 0;
#X connect 2 0 40 0;
#X connect 3 0 38 0;
#X connect 4 0 38 0;
#X connect 7 0 23 0;
#X connect 8 0 7 0;
#X connect 8 1 9 0;
#X connect 11 0 21 0;
#X connect 11 0 36 0;
#X connect 12 0 8 1;
#X connect 13 0 8 1;
#X connect 14 0 8 1;
#X connect 15 0 8 1;
#X connect 16 0 8 1;
#X connect 17 0 8 1;
#X connect 18 0 11 0;
#X connect 22 0 19 0;
#X connect 22 0 10 0;
#X connect 23 0 22 0;
#X connect 23 1 22 1;
#X connect 23 1 35 0;
#X connect 24 0 34 0;
#X connect 25 0 26 0;
#X connect 26 0 38 0;
#X connect 27 0 28 0;
#X connect 29 0 43 0;
#X connect 29 1 43 0;
#X connect 31 0 30 0;
#X connect 31 0 30 1;
#X connect 32 0 33 0;
#X connect 33 0 31 1;
#X connect 34 0 38 0;
#X connect 37 0 42 0;
#X connect 38 0 1 0;
#X connect 39 0 38 0;
#X connect 40 0 4 0;
#X connect 42 0 0 0;
#X connect 43 0 0 0;
#X connect 43 0 8 0;
#X connect 43 0 18 0;
#X connect 43 0 31 0;
#X restore 27 18 pd guts;
#X obj 27 42 bng 15 250 50 0 empty empty empty 17 7 0 10 -262144 -1
-1;
#X obj 66 41 bng 15 250 50 0 empty empty empty 17 7 0 10 -262144 -1
-1;
#X connect 0 0 1 0;
#X connect 0 1 2 0;
