#N canvas 804 77 579 795 10;
#X obj 1 1 cnv 15 40 654 empty empty \$1 1 5 1 8 -257985 -1 0;
#X text -27 -26 KEPtype nomUnique;
#X obj 9 662 KEPCommon \$1;
#X obj 8 643 bng 10 250 50 0 empty empty empty 17 7 0 10 -4034 -1 -1
;
#X obj 25 643 bng 10 250 50 0 empty empty empty 17 7 0 10 -258113 -1
-1;
#X obj 4 12 MASTERtypeIN \$1 1;
#N canvas 510 755 347 661 KEPboutons 0;
#X obj 26 78 KEPbus \$1 Effet Dir-in b3;
#X obj 25 100 KEPbus \$1 Reverb Reverb_max b4;
#X obj 25 122 KEPbus \$1 Volume Volume_max b5;
#X obj 31 163 KEPbus \$1 Recloop -t1- t1;
#X obj 31 184 KEPbus \$1 1way -t2- t2;
#X obj 32 205 KEPbus \$1 Ajoute -t3- t3;
#X obj 33 227 KEPbus \$1 tOver -t4- t4;
#X obj 32 251 KEPbus \$1 REC -tR- tREC;
#X obj 35 285 KEPbus \$1 l1 -l1- tl1;
#X obj 35 308 KEPbus \$1 l2 -l2- tl2;
#X obj 37 330 KEPbus \$1 l3 -l3- tl3;
#X obj 37 351 KEPbus \$1 l4 -l4- tl4;
#X obj 32 376 KEPbus \$1 lR -lR- tlREC;
#X obj 168 280 KEPbus \$1 lr -lr- lrouge;
#X obj 168 303 KEPbus \$1 lv -lv- lvert;
#X obj 27 55 KEPbus \$1 VolMix ___ b2;
#X obj 27 34 KEPbus \$1 Tss Vitesse_max b1;
#X restore 262 725 pd KEPboutons;
#X obj 339 145 tgl 15 1 empty empty empty 17 7 0 10 -262144 -1 -1 1
1;
#X obj 338 166 switch~;
#X obj 57 0 KEPface \$1;
#X obj 4 100 MASTERtypeOUT \$1 1;
#X obj 143 148 r \$1-Volume;
#X obj 143 170 Vcurve;
#X obj 143 192 m;
#X obj 196 175 r \$1-Volume_max;
#X obj 110 213 mull~ 0 10;
#X obj 81 330 bng 15 250 50 0 empty empty empty 17 7 0 10 -262144 -1
-1;
#X obj 81 308 aubiotempo~ 0.3;
#X floatatom 219 252 5 0 0 0 - - -, f 5;
#X obj 163 559 s aubiotempo;
#X obj 175 428 bng 15 250 50 0 empty empty empty 17 7 0 10 -262144
-1 -1;
#X msg 271 209 0;
#X msg 269 228 0.1;
#X msg 270 254 1;
#X msg 279 276 10;
#X msg 275 308 0.3;
#X msg 283 329 0.2;
#X obj 175 405 aubioonset~ 0.3;
#X obj 142 101 r \$1-VolMix;
#X floatatom 79 527 5 0 0 0 - - -, f 5;
#X obj 109 122 mull~ 0 10;
#X obj 103 359 s tic_mesure-Aubio;
#X obj 175 451 s tic_evenement-Aubio;
#X obj 88 481 timer;
#X obj 88 408 i;
#X obj 117 409 + 1;
#X obj 88 433 mod 2;
#X obj 88 458 sel 0 1;
#X obj 386 341 netreceive -u 61612;
#X obj 386 363 route tempo ev;
#X obj 362 412 t b f;
#X obj 366 470 s tic_mesure-Aubio;
#X obj 386 441 s aubiotempo;
#X obj 411 409 s tic_evenement-Aubio;
#X obj 436 392 bng 15 250 50 0 empty empty empty 17 7 0 10 -262144
-1 -1;
#X obj 406 426 bng 15 250 50 0 empty empty empty 17 7 0 10 -262144
-1 -1;
#X floatatom 339 483 5 0 0 0 - - -, f 5;
#X connect 3 0 2 0;
#X connect 4 0 2 1;
#X connect 5 0 30 0;
#X connect 5 0 17 0;
#X connect 5 0 27 0;
#X connect 7 0 8 0;
#X connect 11 0 12 0;
#X connect 12 0 13 0;
#X connect 13 0 15 1;
#X connect 14 0 13 1;
#X connect 15 0 10 0;
#X connect 16 0 31 0;
#X connect 16 0 34 0;
#X connect 17 0 16 0;
#X connect 17 1 18 0;
#X connect 20 0 32 0;
#X connect 21 0 17 1;
#X connect 22 0 17 1;
#X connect 23 0 17 1;
#X connect 24 0 17 1;
#X connect 25 0 17 1;
#X connect 26 0 17 1;
#X connect 27 0 20 0;
#X connect 28 0 30 1;
#X connect 30 0 15 0;
#X connect 33 0 29 0;
#X connect 33 0 19 0;
#X connect 34 0 35 0;
#X connect 34 0 36 0;
#X connect 35 0 34 1;
#X connect 36 0 37 0;
#X connect 37 0 33 0;
#X connect 37 1 33 1;
#X connect 38 0 39 0;
#X connect 39 0 40 0;
#X connect 39 1 43 0;
#X connect 39 1 44 0;
#X connect 40 0 41 0;
#X connect 40 0 46 0;
#X connect 40 1 42 0;
#X connect 40 1 45 0;
#X coords 0 -1 1 1 42 656 2 0 0;
