#N canvas 85 75 580 797 10;
#X obj 51 11 cnv 15 40 115 empty empty \$1 1 5 1 8 -159808 -1 0;
#X obj 58 111 bng 10 250 50 0 empty empty empty 17 7 0 10 -4034 -1
-1;
#X obj 75 111 bng 10 250 50 0 empty empty empty 17 7 0 10 -258113 -1
-1;
#N canvas 2873 175 392 407 KEPboutons 0;
#X obj 188 142 tLock \$1 1/1;
#X obj 188 162 tLock \$1 1/2;
#X obj 189 182 tLock \$1 1/3;
#X obj 189 202 tLock \$1 1/4;
#X obj 209 254 KEPbus \$1 lr -lr- lrouge;
#X obj 209 277 KEPbus \$1 lv -lv- lvert;
#X obj 9 159 KEPbus \$1 Evnt g2 t2;
#X obj 8 182 KEPbus \$1 Tic g3 t3;
#X obj 15 288 KEPbus \$1 lEvnt -lg2- tl2;
#X obj 14 265 KEPbus \$1 lTrig -lg1- tl1;
#X obj 9 138 KEPbus \$1 Trig g1 t1;
#X obj 9 227 KEPbus \$1 On On tREC;
#X obj 12 356 KEPbus \$1 lOn lOn tlREC;
#X obj 8 203 KEPbus \$1 Sym Switch t4;
#X obj 17 310 KEPbus \$1 lTic -lg3- tl3;
#X obj 17 331 KEPbus \$1 lSym lSwitch tl4;
#X obj 8 8 KEPbus \$1 Speed Speed b1;
#X obj 9 30 KEPbus \$1 Phase Phase b2;
#X obj 8 53 KEPbus \$1 Warp Warp b3;
#X obj 8 97 KEPbus \$1 Film Film b5;
#X obj 8 75 KEPbus \$1 Rien Rien b4;
#X restore 358 100 pd KEPboutons;
#X obj 108 40 KEPface \$1;
#X obj 37 159 KEPCommon \$1 \$0;
#X text 110 7 Group : construit les Groupes de projecteurs;
#N canvas 587 94 450 401 Tic/Evnt-led 0;
#X obj 211 70 tgl 15 0 empty empty empty 17 7 0 10 -262144 -1 -1 0
1;
#X obj 239 59 sel 1;
#X obj 238 36 r \$1-Evnt;
#X msg 239 81 1;
#X obj 168 54 sel 1;
#X obj 167 31 r \$1-Tic;
#X obj 108 223 s \$1-lTic;
#X obj 199 212 s \$1-lEvnt;
#X obj 147 126 sel 0 1;
#X msg 100 163 1;
#X msg 121 186 0;
#X msg 220 176 1;
#X msg 181 171 0;
#X msg 165 79 0;
#X obj 327 207 s \$0-Trig/Evnt;
#X obj 300 154 r \$1-lEvnt;
#X obj 175 267 r \$1-lTic;
#X obj 175 289 change;
#X obj 175 311 == 0;
#X obj 175 334 s \$1-lEvnt;
#X obj 288 294 change;
#X obj 288 316 == 0;
#X obj 288 271 r \$1-lEvnt;
#X obj 288 338 s \$1-lTic;
#X connect 1 0 3 0;
#X connect 2 0 0 0;
#X connect 2 0 1 0;
#X connect 3 0 8 0;
#X connect 4 0 13 0;
#X connect 5 0 4 0;
#X connect 8 0 9 0;
#X connect 8 0 12 0;
#X connect 8 1 11 0;
#X connect 8 1 10 0;
#X connect 9 0 6 0;
#X connect 10 0 6 0;
#X connect 11 0 7 0;
#X connect 12 0 7 0;
#X connect 13 0 8 0;
#X connect 15 0 14 0;
#X connect 16 0 17 0;
#X connect 17 0 18 0;
#X connect 18 0 19 0;
#X connect 20 0 21 0;
#X connect 21 0 23 0;
#X connect 22 0 20 0;
#X restore 355 56 pd Tic/Evnt-led;
#N canvas 465 513 450 300 On-led 0;
#X obj 148 37 r \$1-On;
#X obj 147 143 s \$1-lOn;
#X obj 231 100 s \$0-onoff;
#X obj 242 37 r \$1-lOn;
#X obj 148 86 sel 1;
#X obj 148 60 change;
#X obj 148 114 f;
#X obj 184 114 == 0;
#X connect 0 0 5 0;
#X connect 3 0 2 0;
#X connect 3 0 7 0;
#X connect 4 0 6 0;
#X connect 5 0 4 0;
#X connect 6 0 1 0;
#X connect 7 0 6 1;
#X restore 357 33 pd On-led;
#N canvas 735 112 450 300 Sym/Switch-led 0;
#X obj 71 78 sel 1;
#X obj 71 30 r \$1-Sym;
#X obj 71 135 s \$1-lSym;
#X obj 154 138 s \$0-Sym;
#X obj 154 66 r \$1-lSym;
#X obj 71 52 change;
#X obj 71 106 f;
#X obj 107 106 == 0;
#X obj 243 86 sel 1;
#X obj 243 60 change;
#X obj 243 114 f;
#X obj 279 114 == 0;
#X obj 243 38 r \$1-Switch;
#X obj 243 143 s \$1-lSwitch;
#X obj 326 74 r \$1-lSwitch;
#X obj 326 146 s \$0-Switch;
#X connect 0 0 6 0;
#X connect 1 0 5 0;
#X connect 4 0 3 0;
#X connect 4 0 7 0;
#X connect 5 0 0 0;
#X connect 6 0 2 0;
#X connect 7 0 6 1;
#X connect 8 0 10 0;
#X connect 9 0 8 0;
#X connect 10 0 13 0;
#X connect 11 0 10 1;
#X connect 12 0 9 0;
#X connect 14 0 11 0;
#X connect 14 0 15 0;
#X restore 354 79 pd Sym/Switch-led;
#X obj 107 271 r SYNCHRO-clock;
#X obj 134 325 unpack f f;
#X msg 107 468 0 \, 1 \$1;
#X obj 107 491 line;
#X obj 107 356 ndmetro 1 4;
#X obj 107 300 t a a;
#X obj 108 404 f;
#X obj 112 536 wrap;
#X obj 154 512 hsl 128 15 0 1 0 0 empty empty phase -2 -8 0 10 -262144
-1 -1 0 1;
#X obj 258 350 f;
#X msg 257 319 1;
#X msg 287 319 2;
#X msg 315 320 3;
#X obj 112 514 -;
#X obj 76 573 * 2;
#X obj 76 595 - 1;
#X obj 41 845 hsl 128 15 0 1 0 0 empty empty empty -2 -8 0 10 -262144
-1 -1 0 1;
#X obj 76 746 + 1;
#X obj 76 768 / 2;
#X obj 76 621 t f f;
#X obj 76 653 abs;
#X obj 76 719 * 1;
#X obj 126 651 > 0;
#X obj 126 673 * 2;
#X obj 126 695 - 1;
#X obj 142 569 hsl 128 15 0 1 0 0 empty empty warp -2 -8 0 10 -262144
-1 -1 0 1;
#X obj 139 613 + 1;
#X obj 76 674 pow 1.7;
#X obj 108 378 sel 0;
#X msg 257 374 nd 4 \$1;
#X msg 257 396 \$1 \$2;
#X obj 257 418 /;
#X obj 107 446 * 0.25;
#X floatatom 264 450 5 0 0 0 - - -, f 5;
#X msg 346 321 4;
#X text 306 345 nd, f 3;
#X obj 139 589 * 2;
#X obj 267 182 r \$1-Speed;
#X obj 267 224 i;
#X floatatom 326 256 5 0 0 0 - - -, f 5;
#X obj 267 245 + 1;
#X obj 188 543 r \$1-Warp;
#X msg 378 321 6;
#X msg 415 322 8;
#X msg 455 321 12;
#X msg 494 322 16;
#X msg 527 323 32;
#X obj 266 275 sel 1 2 3 4 5 6 7 8 9;
#X obj 267 204 * 8.5;
#X msg 184 785 set \$1;
#X symbolatom 235 785 0 0 0 0 - - -;
#X obj 184 679 r \$1-Film;
#X obj 184 719 + 1;
#X obj 184 740 i;
#X obj 184 763 makesymbol film-%s-pos;
#X obj 75 811 iem_s film-1-pos;
#X obj 54 22 MASTERtypeNbPos \$0;
#X obj 267 730 s \$0-NbFilm;
#X obj 28 497 s \$1-lvert;
#X obj 19 345 s \$1-lrouge;
#X obj 184 698 * 1.5;
#X floatatom 272 683 5 0 0 0 - - -, f 5;
#X obj 108 426 spigot;
#X obj 207 420 tgl 15 0 empty empty empty 17 7 0 10 -262144 -1 -1 0
1;
#X obj 195 467 r \$1-Phase;
#X obj 150 395 r \$1-lOn;
#X connect 1 0 5 0;
#X connect 2 0 5 1;
#X connect 10 0 15 0;
#X connect 10 0 69 0;
#X connect 11 1 16 1;
#X connect 12 0 13 0;
#X connect 13 0 23 0;
#X connect 14 0 38 0;
#X connect 14 0 68 0;
#X connect 15 0 14 0;
#X connect 15 1 11 0;
#X connect 16 0 72 0;
#X connect 17 0 24 0;
#X connect 18 0 23 1;
#X connect 19 0 39 0;
#X connect 20 0 19 0;
#X connect 21 0 19 0;
#X connect 22 0 19 0;
#X connect 23 0 17 0;
#X connect 24 0 25 0;
#X connect 25 0 29 0;
#X connect 27 0 28 0;
#X connect 28 0 26 0;
#X connect 28 0 65 0;
#X connect 29 0 30 0;
#X connect 29 1 32 0;
#X connect 30 0 37 0;
#X connect 31 0 27 0;
#X connect 32 0 33 0;
#X connect 33 0 34 0;
#X connect 34 0 31 1;
#X connect 35 0 46 0;
#X connect 36 0 37 1;
#X connect 37 0 31 0;
#X connect 38 0 16 0;
#X connect 39 0 14 0;
#X connect 39 0 40 0;
#X connect 40 0 41 0;
#X connect 41 0 42 1;
#X connect 41 0 43 0;
#X connect 42 0 12 0;
#X connect 44 0 19 0;
#X connect 46 0 36 0;
#X connect 47 0 58 0;
#X connect 48 0 50 0;
#X connect 50 0 49 0;
#X connect 50 0 57 0;
#X connect 51 0 35 0;
#X connect 52 0 19 0;
#X connect 53 0 19 0;
#X connect 54 0 19 0;
#X connect 55 0 19 0;
#X connect 56 0 19 0;
#X connect 57 0 20 0;
#X connect 57 1 21 0;
#X connect 57 2 22 0;
#X connect 57 3 44 0;
#X connect 57 4 52 0;
#X connect 57 5 53 0;
#X connect 57 6 54 0;
#X connect 57 7 55 0;
#X connect 57 8 56 0;
#X connect 58 0 48 0;
#X connect 59 0 65 1;
#X connect 61 0 70 0;
#X connect 62 0 63 0;
#X connect 63 0 64 0;
#X connect 63 0 67 0;
#X connect 63 0 71 0;
#X connect 64 0 59 0;
#X connect 64 0 60 0;
#X connect 70 0 62 0;
#X connect 72 0 42 0;
#X connect 74 0 18 0;
#X connect 75 0 72 1;
#X connect 75 0 73 0;
#X coords 0 -1 1 1 42 117 2 50 10;
