#N canvas 628 75 634 671 10;
#X obj 51 11 cnv 15 40 115 empty empty \$1 1 5 1 8 -99865 -1 0;
#X obj 58 111 bng 10 250 50 0 empty empty empty 17 7 0 10 -4034 -1
-1;
#X obj 75 111 bng 10 250 50 0 empty empty empty 17 7 0 10 -258113 -1
-1;
#N canvas 704 103 392 407 KEPboutons 0;
#X obj 188 142 tLock \$1 1/1;
#X obj 188 162 tLock \$1 1/2;
#X obj 189 182 tLock \$1 1/3;
#X obj 189 202 tLock \$1 1/4;
#X obj 209 254 KEPbus \$1 lr -lr- lrouge;
#X obj 209 277 KEPbus \$1 lv -lv- lvert;
#X obj 9 159 KEPbus \$1 Evnt g2 t2;
#X obj 8 182 KEPbus \$1 Tic g3 t3;
#X obj 15 288 KEPbus \$1 lEvnt -lg2- tl2;
#X obj 14 265 KEPbus \$1 lTrig -lg1- tl1;
#X obj 9 138 KEPbus \$1 Trig g1 t1;
#X obj 9 227 KEPbus \$1 On On tREC;
#X obj 12 356 KEPbus \$1 lOn lOn tlREC;
#X obj 8 75 KEPbus \$1 Rel Rel b4;
#X obj 8 8 KEPbus \$1 Atac Atac b1;
#X obj 9 30 KEPbus \$1 Time Vitesse b2;
#X obj 8 97 KEPbus \$1 Amp Group b5;
#X obj 8 203 KEPbus \$1 Sym Switch t4;
#X obj 17 310 KEPbus \$1 lTic -lg3- tl3;
#X obj 17 331 KEPbus \$1 lSym lSwitch tl4;
#X obj 8 53 KEPbus \$1 Ofset Phase b3;
#X restore 351 152 pd KEPboutons;
#X obj 108 40 KEPface \$1;
#X obj 37 159 KEPCommon \$1 \$0;
#X obj 54 22 MASTERtypeNbPos \$0;
#X text 110 7 Group : construit les Groupes de projecteurs;
#X msg 238 521 1 2 3 4 5 6;
#X floatatom 156 506 5 0 0 0 - - -, f 5;
#X msg 240 489 7 1 2 6 3 4;
#X obj 156 549 line;
#X msg 290 434 1 3 5 7 9 11 13 15 17 19 21 23;
#X msg 300 459 23 21 19 17 15 13 11 9 7 5 3 1;
#X obj 295 402 sel 0 1;
#X obj 295 382 tgl 15 0 empty empty empty 17 7 0 10 -262144 -1 -1 0
1;
#X msg 156 528 \$1 10;
#X obj 377 281 r \$1-group1;
#X obj 217 325 text get PVJgroups;
#X obj 216 245 r \$1-group;
#X obj 477 48 r tic_mesure-Aubio;
#X obj 477 69 b;
#X obj 477 92 random 240;
#X obj 477 114 - 120;
#X msg 388 608 switch \$1;
#X obj 388 588 tgl 15 0 empty empty empty 17 7 0 10 -262144 -1 -1 0
1;
#X obj 388 566 r \$1-switchgroup;
#X obj 526 467 tgl 15 0 empty empty empty 17 7 0 10 -262144 -1 -1 1
1;
#X msg 526 487 sym \$1;
#X obj 526 446 r \$1-symgroup;
#N canvas 2444 513 228 125 speed 0;
#X obj 55 58 outlet;
#N canvas 2008 474 708 443 Vitesse 0;
#X obj 140 365 outlet;
#X obj 102 96 i;
#X obj 150 324 t a;
#X obj 99 131 change -1;
#X obj 66 319 bng 15 250 50 0 empty empty empty 17 7 0 10 -262144 -1
-1;
#X obj 102 42 * 7.9;
#X msg 48 185 1;
#X msg 81 205 2;
#X msg 111 221 3;
#X msg 133 198 4;
#X msg 153 228 6;
#X msg 169 196 8;
#X msg 183 221 12;
#X msg 215 235 16;
#X obj 102 70 + 0;
#X obj 99 154 sel 0 1 2 3 4 5 6 7;
#X floatatom 167 72 5 0 0 0 - - -, f 5;
#X obj 102 16 r \$1-Vitesse;
#X connect 1 0 3 0;
#X connect 2 0 0 0;
#X connect 3 0 15 0;
#X connect 5 0 14 0;
#X connect 6 0 2 0;
#X connect 7 0 2 0;
#X connect 8 0 2 0;
#X connect 9 0 2 0;
#X connect 10 0 2 0;
#X connect 11 0 2 0;
#X connect 12 0 2 0;
#X connect 13 0 2 0;
#X connect 14 0 1 0;
#X connect 15 0 6 0;
#X connect 15 1 7 0;
#X connect 15 2 8 0;
#X connect 15 3 9 0;
#X connect 15 4 10 0;
#X connect 15 5 11 0;
#X connect 15 6 12 0;
#X connect 15 7 13 0;
#X connect 17 0 5 0;
#X connect 17 0 16 0;
#X restore 55 10 pd Vitesse;
#N canvas 1692 412 740 507 trig 0;
#X obj 124 269 spigot;
#X obj 104 311 bng 15 250 50 0 empty empty empty 17 7 0 10 -262144
-1 -1;
#X obj 121 19 r SYNCHRO-clock;
#X obj 235 219 r \$0-onoff;
#X floatatom 26 128 5 0 0 0 - - -, f 5;
#X obj 246 140 t b f;
#X obj 248 92 inlet;
#X obj 164 357 outlet;
#X obj 121 45 unpack f f;
#X obj 116 79 mod 4;
#X obj 116 102 sel 0;
#X obj 116 162 pack f f;
#X obj 188 68 * 4;
#X obj 75 212 bng 15 250 50 0 empty empty empty 17 7 0 10 -262144 -1
-1;
#X obj 144 305 spigot;
#X obj 247 269 r SYNCHRO-on_off-snd;
#X obj 139 350 bng 15 250 50 0 empty empty empty 17 7 0 10 -262144
-1 -1;
#X obj 116 135 f;
#X obj 326 47 hsl 128 15 0 1 0 0 empty empty empty -2 -8 0 10 -262144
-1 -1 0 1;
#X floatatom 326 132 5 0 0 0 - - -, f 5;
#X obj 116 206 ndmetro;
#X msg 246 191 nd \$1 \$2;
#X floatatom 372 177 5 0 0 0 - - -, f 5;
#X obj 69 327 del;
#X floatatom 28 231 5 0 0 0 - - -, f 5;
#X floatatom 183 167 5 0 0 0 - - -, f 5;
#X obj 246 169 pack 64 16;
#X floatatom 46 281 5 0 0 0 - - -, f 5;
#X obj 319 104 / 16;
#X obj 333 79 t b f;
#X obj 323 21 inlet phase;
#X connect 0 0 14 0;
#X connect 2 0 4 0;
#X connect 2 0 8 0;
#X connect 3 0 0 1;
#X connect 5 0 26 0;
#X connect 5 1 26 1;
#X connect 5 1 29 0;
#X connect 6 0 5 0;
#X connect 6 0 22 0;
#X connect 8 0 9 0;
#X connect 8 1 12 0;
#X connect 9 0 10 0;
#X connect 10 0 17 0;
#X connect 11 0 20 0;
#X connect 11 0 13 0;
#X connect 11 0 24 0;
#X connect 12 0 11 1;
#X connect 12 0 25 0;
#X connect 14 0 16 0;
#X connect 14 0 7 0;
#X connect 15 0 14 1;
#X connect 17 0 11 0;
#X connect 18 0 28 0;
#X connect 20 0 1 0;
#X connect 20 0 0 0;
#X connect 20 0 23 0;
#X connect 20 0 27 0;
#X connect 21 0 20 0;
#X connect 26 0 21 0;
#X connect 28 0 17 1;
#X connect 28 0 19 0;
#X connect 29 0 28 0;
#X connect 29 1 28 1;
#X connect 30 0 18 0;
#X restore 55 33 pd trig;
#X obj 123 9 r \$1-Phase;
#X connect 1 0 2 0;
#X connect 2 0 0 0;
#X connect 3 0 2 1;
#X restore 38 291 pd speed;
#X obj 129 436 bng 25 250 50 0 empty empty empty 17 7 0 10 -262144
-1 -1;
#N canvas 753 184 476 565 pulse 0;
#X obj 178 149 sel 1;
#X obj 111 538 outlet;
#X obj 111 420 m;
#X floatatom 32 181 5 0 0 0 - - -, f 5;
#X obj 14 202 f;
#X msg 14 225 1 \$1;
#X floatatom 264 158 5 0 0 0 - - -, f 5;
#X obj 178 172 f;
#X msg 178 195 0 \$1;
#X obj 178 127 speedlim 20;
#X obj 264 136 + 25;
#X obj 32 159 + 25;
#X obj 32 138 * 975;
#X obj 264 114 * 975;
#X obj 112 243 line;
#X obj 14 36 inlet;
#X obj 144 285 r \$1-Amp;
#X obj 32 114 r \$1-Atac;
#X obj 144 329 - 1;
#X obj 144 308 * 2;
#X obj 133 54 r tic_evenement-Aubio;
#X obj 110 80 mux 0 1;
#X obj 156 23 r \$0-Trig/Evnt;
#X obj 264 93 r \$1-Rel;
#X obj 255 208 hsl 128 15 0 1 0 0 empty empty empty -2 -8 0 10 -262144
-1 -1 0 1;
#X obj 279 294 sin;
#X obj 252 244 t f f;
#X obj 257 328 *;
#X obj 267 392 hsl 128 15 -1 1 0 0 empty empty empty -2 -8 0 10 -262144
-1 -1 0 1;
#X obj 111 463 ++;
#X obj 195 400 r \$1-Ofset;
#X obj 195 423 * 2;
#X obj 195 445 - 1;
#X obj 196 534 * 180;
#X obj 144 421 * 180;
#X obj 279 272 * 6.29;
#X obj 228 273 pow 0.5;
#X obj 144 399 *;
#X obj 144 351 t f f;
#X obj 144 373 abs;
#X obj 195 514 *;
#X obj 195 466 t f f;
#X obj 195 488 abs;
#X connect 0 0 7 0;
#X connect 2 0 29 0;
#X connect 3 0 4 1;
#X connect 4 0 5 0;
#X connect 5 0 14 0;
#X connect 6 0 7 1;
#X connect 7 0 8 0;
#X connect 8 0 14 0;
#X connect 9 0 0 0;
#X connect 10 0 6 0;
#X connect 11 0 3 0;
#X connect 12 0 11 0;
#X connect 13 0 10 0;
#X connect 14 0 9 0;
#X connect 14 0 26 0;
#X connect 15 0 4 0;
#X connect 16 0 19 0;
#X connect 17 0 12 0;
#X connect 18 0 38 0;
#X connect 19 0 18 0;
#X connect 20 0 21 1;
#X connect 22 0 21 2;
#X connect 23 0 13 0;
#X connect 24 0 26 0;
#X connect 25 0 27 1;
#X connect 26 0 36 0;
#X connect 26 1 35 0;
#X connect 27 0 2 0;
#X connect 29 0 1 0;
#X connect 30 0 31 0;
#X connect 31 0 32 0;
#X connect 32 0 41 0;
#X connect 33 0 29 1;
#X connect 34 0 2 1;
#X connect 35 0 25 0;
#X connect 36 0 27 0;
#X connect 37 0 34 0;
#X connect 38 0 39 0;
#X connect 38 1 37 1;
#X connect 39 0 37 0;
#X connect 40 0 33 0;
#X connect 41 0 42 0;
#X connect 41 1 40 1;
#X connect 42 0 40 0;
#X restore 129 477 pd pulse;
#X obj 349 493 r \$1-Time;
#X obj 26 554 s \$1-lvert;
#N canvas 2381 489 335 210 Trig 0;
#X obj 73 45 r \$1-Trig;
#X obj 73 70 sel 1;
#X obj 147 114 s \$1-lTrig;
#X obj 70 118 outlet;
#X connect 0 0 1 0;
#X connect 0 0 2 0;
#X connect 1 0 3 0;
#X restore 145 397 pd Trig;
#X obj 349 516 * 5000;
#N canvas 1716 576 355 296 Tic/Evnt 0;
#X obj 91 15 inlet;
#X obj 98 266 outlet;
#X obj 190 52 bng 15 250 50 0 empty empty empty 17 7 0 10 -262144 -1
-1;
#X obj 6 216 bng 15 250 50 0 empty empty empty 17 7 0 10 -262144 -1
-1;
#X obj 121 108 mux 0 1;
#X obj 199 136 tgl 15 0 empty empty empty 17 7 0 10 -262144 -1 -1 0
1;
#X obj 175 28 inlet;
#X obj 80 70 bng 15 250 50 0 empty empty empty 17 7 0 10 -262144 -1
-1;
#X obj 219 32 r \$0-Trig/Evnt;
#X obj 108 235 spigot;
#X obj 241 199 r \$0-onoff;
#X obj 244 240 tgl 15 0 empty empty empty 17 7 0 10 -262144 -1 -1 0
1;
#X obj 184 261 bng 15 250 50 0 empty empty empty 17 7 0 10 -262144
-1 -1;
#X obj 236 135 tgl 15 0 empty empty empty 17 7 0 10 -262144 -1 -1 0
1;
#X obj 114 135 t b;
#X obj 114 156 spigot 1;
#X msg 115 178 0;
#X obj 147 178 del 80;
#X msg 147 200 1;
#X connect 0 0 4 0;
#X connect 0 0 7 0;
#X connect 4 0 14 0;
#X connect 6 0 2 0;
#X connect 6 0 4 1;
#X connect 8 0 4 2;
#X connect 8 0 13 0;
#X connect 9 0 1 0;
#X connect 9 0 12 0;
#X connect 10 0 9 1;
#X connect 10 0 11 0;
#X connect 14 0 15 0;
#X connect 15 0 16 0;
#X connect 15 0 17 0;
#X connect 15 0 3 0;
#X connect 15 0 9 0;
#X connect 16 0 15 1;
#X connect 17 0 18 0;
#X connect 18 0 15 1;
#X restore 87 320 pd Tic/Evnt;
#N canvas 587 94 450 401 Tic/Evnt-led 0;
#X obj 211 70 tgl 15 0 empty empty empty 17 7 0 10 -262144 -1 -1 0
1;
#X obj 239 59 sel 1;
#X obj 238 36 r \$1-Evnt;
#X msg 239 81 1;
#X obj 168 54 sel 1;
#X obj 167 31 r \$1-Tic;
#X obj 108 223 s \$1-lTic;
#X obj 199 212 s \$1-lEvnt;
#X obj 147 126 sel 0 1;
#X msg 100 163 1;
#X msg 121 186 0;
#X msg 220 176 1;
#X msg 181 171 0;
#X msg 165 79 0;
#X obj 327 207 s \$0-Trig/Evnt;
#X obj 300 154 r \$1-lEvnt;
#X obj 175 267 r \$1-lTic;
#X obj 175 289 change;
#X obj 175 311 == 0;
#X obj 175 334 s \$1-lEvnt;
#X obj 288 294 change;
#X obj 288 316 == 0;
#X obj 288 271 r \$1-lEvnt;
#X obj 288 338 s \$1-lTic;
#X connect 1 0 3 0;
#X connect 2 0 0 0;
#X connect 2 0 1 0;
#X connect 3 0 8 0;
#X connect 4 0 13 0;
#X connect 5 0 4 0;
#X connect 8 0 9 0;
#X connect 8 0 12 0;
#X connect 8 1 11 0;
#X connect 8 1 10 0;
#X connect 9 0 6 0;
#X connect 10 0 6 0;
#X connect 11 0 7 0;
#X connect 12 0 7 0;
#X connect 13 0 8 0;
#X connect 15 0 14 0;
#X connect 16 0 17 0;
#X connect 17 0 18 0;
#X connect 18 0 19 0;
#X connect 20 0 21 0;
#X connect 21 0 23 0;
#X connect 22 0 20 0;
#X restore 355 56 pd Tic/Evnt-led;
#N canvas 186 544 450 300 On-led 0;
#X obj 148 37 r \$1-On;
#X obj 147 143 s \$1-lOn;
#X obj 231 100 s \$0-onoff;
#X obj 242 37 r \$1-lOn;
#X obj 148 86 sel 1;
#X obj 148 60 change;
#X obj 148 114 f;
#X obj 184 114 == 0;
#X connect 0 0 5 0;
#X connect 3 0 2 0;
#X connect 3 0 7 0;
#X connect 4 0 6 0;
#X connect 5 0 4 0;
#X connect 6 0 1 0;
#X connect 7 0 6 1;
#X restore 357 33 pd On-led;
#X obj 158 227 r tic_evenement-Aubio;
#X obj 512 410 r \$0-Sym;
#X obj 498 240 r \$1-Group;
#X obj 498 298 + 0.5;
#X floatatom 518 354 5 0 0 0 - - -, f 5;
#X obj 497 321 i;
#X obj 498 273 * 24;
#X obj 495 540 r \$0-Switch;
#N canvas 735 112 450 300 Sym/Switch-led 0;
#X obj 71 78 sel 1;
#X obj 71 30 r \$1-Sym;
#X obj 71 135 s \$1-lSym;
#X obj 154 138 s \$0-Sym;
#X obj 154 66 r \$1-lSym;
#X obj 71 52 change;
#X obj 71 106 f;
#X obj 107 106 == 0;
#X obj 243 86 sel 1;
#X obj 243 60 change;
#X obj 243 114 f;
#X obj 279 114 == 0;
#X obj 243 38 r \$1-Switch;
#X obj 243 143 s \$1-lSwitch;
#X obj 326 74 r \$1-lSwitch;
#X obj 326 146 s \$0-Switch;
#X connect 0 0 6 0;
#X connect 1 0 5 0;
#X connect 4 0 3 0;
#X connect 4 0 7 0;
#X connect 5 0 0 0;
#X connect 6 0 2 0;
#X connect 7 0 6 1;
#X connect 8 0 10 0;
#X connect 9 0 8 0;
#X connect 10 0 13 0;
#X connect 11 0 10 1;
#X connect 12 0 9 0;
#X connect 14 0 11 0;
#X connect 14 0 15 0;
#X restore 354 79 pd Sym/Switch-led;
#X obj 185 579 groupRot;
#X obj 280 557 r \$0-onoff;
#X obj 217 295 change -1;
#X connect 1 0 5 0;
#X connect 2 0 5 1;
#X connect 8 0 49 1;
#X connect 9 0 16 0;
#X connect 10 0 49 1;
#X connect 11 0 49 0;
#X connect 12 0 49 1;
#X connect 13 0 49 1;
#X connect 14 0 12 0;
#X connect 14 1 13 0;
#X connect 15 0 14 0;
#X connect 16 0 11 0;
#X connect 18 0 49 1;
#X connect 20 0 21 0;
#X connect 21 0 22 0;
#X connect 22 0 23 0;
#X connect 24 0 49 3;
#X connect 25 0 24 0;
#X connect 26 0 25 0;
#X connect 27 0 28 0;
#X connect 28 0 49 3;
#X connect 29 0 27 0;
#X connect 30 0 37 0;
#X connect 31 0 32 0;
#X connect 31 0 34 0;
#X connect 31 0 49 3;
#X connect 32 0 16 0;
#X connect 33 0 36 0;
#X connect 35 0 31 0;
#X connect 36 0 49 2;
#X connect 37 0 31 0;
#X connect 40 0 37 1;
#X connect 41 0 27 0;
#X connect 42 0 46 0;
#X connect 43 0 45 0;
#X connect 45 0 44 0;
#X connect 45 0 51 0;
#X connect 46 0 43 0;
#X connect 47 0 25 0;
#X connect 50 0 49 4;
#X connect 51 0 18 0;
#X coords 0 -1 1 1 42 117 2 50 10;
