#N canvas 271 580 372 334 10;
#X obj 21 34 cnv 15 150 30 empty \$0-stastocan-rcv empty 20 12 0 14
-241291 -1 0;
#X obj 26 45 tgl 15 1 \$0-on-snd \$0-on-rcv on 0 -6 1 8 -258699 -1
-1 1 1;
#X obj 95 41 cnv 15 70 20 empty \$0-pied_can-rcv pied_actif 2 12 1
12 -241291 -1 0;
#X obj 121 167 r \$0-fruitpresent;
#X obj 240 167 r Fraise-\$2-snd;
#N canvas 428 671 450 300 rename 0;
#X obj 139 164 s \$0-2Fr2;
#X obj 139 117 symbol \$2;
#X msg 139 139 Boot rename \$1;
#X obj 108 87 bng 15 250 50 0 empty empty empty 17 7 0 10 -262144 -1
-1;
#X obj 258 126 r \$0-Fr2;
#X obj 258 150 route boot;
#X obj 258 173 route \$2;
#X obj 258 204 route renamed rename_error;
#X obj 258 229 s \$0-assign;
#X obj 139 92 r \$0-rename;
#X connect 1 0 2 0;
#X connect 2 0 0 0;
#X connect 3 0 1 0;
#X connect 4 0 5 0;
#X connect 5 0 6 0;
#X connect 6 0 7 0;
#X connect 7 0 8 0;
#X connect 9 0 1 0;
#X restore 22 207 pd rename;
#N canvas 1 29 450 300 assign 0;
#X obj 83 71 symbol \$2;
#X obj 83 94 pack s \$3;
#X obj 83 137 s \$0-2Fr2;
#X msg 83 117 Assign \$1 \$2 \, Status 0;
#X obj 83 48 r \$0-assign;
#X connect 0 0 1 0;
#X connect 1 0 3 0;
#X connect 3 0 2 0;
#X connect 4 0 0 0;
#X restore 22 232 pd assign;
#X obj 46 45 bng 15 250 50 0 \$0-showutils-snd \$0-showutils-rcv utils
17 7 0 10 -4034 -1 -1;
#N canvas 958 142 292 127 \$0-utils 0;
#X obj 10 2 cnv 15 250 100 empty empty empty 20 12 0 14 -1 -66577 0
;
#X obj 204 10 bng 15 250 50 0 \$0-assign empty ASSIGN -15 20 1 10 -4034
-1 -4034;
#X obj 146 9 bng 15 250 50 0 \$0-rename empty RENAME -15 20 1 10 -258113
-1 -258113;
#X obj 71 72 cnv 15 100 15 \$0-progressbg-snd \$0-progressbg-rcv empty
30 -10 0 10 -83269 -257985 0;
#X obj 91 72 cnv 5 80 15 \$0-progressfg-snd \$0-progressfg-rcv done
50 -8 0 10 -24198 -24198 0;
#X obj 73 72 bng 15 250 50 0 \$0-program \$0-program-rcv PROGRAM 0
-8 1 10 -24198 -1 -24198;
#X obj 37 69 bng 15 250 50 0 \$0-make empty MAKE -15 20 1 10 -4032
-1 -4032;
#X obj 30 8 bng 15 250 50 0 \$0-progboot empty PROG_BOOTLOADER -15
20 1 10 -159808 -1 -159808;
#X restore 22 180 pd \$0-utils;
#N canvas 601 541 473 361 Fr2_interface 0;
#X obj 25 11 r Fr2;
#X obj 141 235 tgl 15 0 empty empty empty 17 7 0 10 -262144 -1 -1 1
1;
#X obj 25 32 route \$1;
#X obj 24 119 tgl 15 0 empty empty empty 17 7 0 10 -262144 -1 -1 1
1;
#X obj 141 190 del 100;
#X obj 141 169 t b f;
#X obj 141 213 f;
#X obj 24 138 s \$0-piedactif;
#X obj 141 280 s \$0-fruitpresent;
#X obj 25 52 s \$0-Fr2;
#X obj 24 76 r \$0-Fr2;
#X obj 24 166 r \$0-2Fr2;
#X obj 24 270 glue;
#X obj 64 248 a2l;
#X obj 24 290 route list;
#X obj 24 226 t b a;
#X obj 24 248 l \$1;
#X obj 24 313 s 2Fr2;
#X obj 141 122 route \$3;
#X obj 24 97 route actif;
#X obj 159 238 r \$0-piedactif;
#X obj 141 259 &&;
#X text 308 211 data from child;
#X msg 337 189 present \$1;
#X obj 305 231 s Fraise-\$2-snd;
#X obj 337 168 r \$0-fruitpresent;
#X obj 141 147 route present wrerror;
#X obj 203 187 s \$0-wrerror;
#X obj 273 236 bng 15 250 50 0 empty empty empty 17 7 0 10 -262144
-1 -1;
#X connect 0 0 2 0;
#X connect 1 0 21 0;
#X connect 2 0 9 0;
#X connect 3 0 7 0;
#X connect 4 0 6 0;
#X connect 5 0 4 0;
#X connect 5 1 6 1;
#X connect 6 0 1 0;
#X connect 10 0 19 0;
#X connect 11 0 15 0;
#X connect 12 0 14 0;
#X connect 13 0 12 1;
#X connect 14 0 17 0;
#X connect 15 0 16 0;
#X connect 15 1 13 0;
#X connect 16 0 12 0;
#X connect 18 0 26 0;
#X connect 19 0 3 0;
#X connect 19 1 18 0;
#X connect 20 0 21 1;
#X connect 21 0 8 0;
#X connect 23 0 24 0;
#X connect 25 0 23 0;
#X connect 26 0 5 0;
#X connect 26 1 27 0;
#X connect 26 1 28 0;
#X connect 26 2 24 0;
#X restore 22 82 pd Fr2_interface;
#N canvas 4 116 450 300 status 0;
#X obj 42 32 loadbang;
#X obj 42 96 s \$0-2Fr2;
#X msg 42 74 Status 0;
#X obj 42 52 t b b;
#X obj 109 80 s \$0-piedactif;
#X obj 131 105 s \$0-fruitpresent;
#X msg 131 53 0;
#X connect 0 0 3 0;
#X connect 2 0 1 0;
#X connect 3 0 2 0;
#X connect 3 1 6 0;
#X connect 6 0 4 0;
#X connect 6 0 5 0;
#X restore 22 105 pd status;
#X text 18 0 usage: Fr2Fruit piedid fruitname fruitid firmware;
#N canvas 3 173 355 250 tochild 0;
#X obj 79 197 s \$0-2Fr2;
#X text 25 10 data to child;
#X obj 37 29 r Fraise-\$2-rcv;
#X obj 164 29 r Fraise-\$2-C-rcv;
#X obj 164 51 list prepend OutC \$3;
#X obj 37 52 list prepend Out \$3;
#X obj 79 114 list trim;
#X obj 79 160 spigot 1;
#X obj 171 83 r \$0-wrerror;
#X msg 177 154 1;
#X msg 146 132 0;
#X obj 248 154 bng 15 250 50 0 empty empty empty 17 7 0 10 -262144
-1 -1;
#X obj 170 109 b;
#X obj 177 134 del 500;
#X connect 2 0 5 0;
#X connect 3 0 4 0;
#X connect 4 0 6 0;
#X connect 5 0 6 0;
#X connect 6 0 7 0;
#X connect 7 0 0 0;
#X connect 8 0 11 0;
#X connect 8 0 12 0;
#X connect 9 0 7 1;
#X connect 10 0 7 1;
#X connect 12 0 10 0;
#X connect 12 0 13 0;
#X connect 13 0 9 0;
#X restore 22 133 pd tochild;
#X obj 121 140 s Fraise-\$2-rcv;
#N canvas 247 232 330 327 UI 0;
#N canvas 67 337 394 241 canvascolor 0;
#X obj 15 13 inlet;
#X obj 15 103 s \$0-stastocan-rcv;
#X msg 15 74 color 1 13 22;
#X msg 114 74 color 15 13 22;
#X obj 15 37 sel 0 1 2;
#X msg 208 73 color 13 13 22;
#X connect 0 0 4 0;
#X connect 2 0 1 0;
#X connect 3 0 1 0;
#X connect 4 0 2 0;
#X connect 4 1 3 0;
#X connect 4 2 5 0;
#X connect 5 0 1 0;
#X restore 26 137 pd canvascolor;
#N canvas 584 443 347 343 pied_can 0;
#X obj 17 17 inlet;
#X obj 17 125 s \$0-pied_can-rcv;
#X msg 17 70 color 1 13 22 \, label pied_inactif;
#X msg 36 98 color 15 13 22 \, label pied_actif;
#X obj 272 32 tgl 15 0 empty empty empty 17 7 0 10 -262144 -1 -1 0
1;
#X obj 17 43 sel 0 1;
#X connect 0 0 5 0;
#X connect 2 0 1 0;
#X connect 3 0 1 0;
#X connect 5 0 2 0;
#X connect 5 1 3 0;
#X restore 34 -22 pd pied_can;
#X obj 34 -44 r \$0-piedactif;
#X obj 26 42 r \$0-fruitpresent;
#X obj 35 -114 r \$0-showutils-snd;
#X obj 35 -68 showtab \$0-utils;
#X msg 35 -93 0 \, 1;
#N canvas 353 395 506 316 program 0;
#X obj 43 15 r \$0-Fr2;
#X obj 43 35 route Boot;
#X obj 43 93 route prog_progress programmed program_error;
#X obj 44 164 * 100;
#X obj 44 185 i;
#X obj 44 206 change;
#X obj 246 230 * 80;
#X msg 33 255 label \$1%;
#X obj 186 57 hsl 128 15 0 1 0 0 empty empty empty -2 -8 0 10 -262144
-1 -1 0 1;
#X obj 44 140 f;
#X obj 246 276 s \$0-progressfg-rcv;
#X msg 205 248 15;
#X msg 246 253 vis_size \$1 15;
#X msg 246 158 1;
#X msg 105 240 label done;
#X msg 92 207 label ERROR !;
#X obj 33 279 s \$0-progressfg-rcv;
#X obj 313 164 r \$0-program;
#X obj 171 32 print;
#X obj 43 61 route \$2;
#X msg 313 185 color 15 22 15;
#X msg 314 221 color 16 22 16;
#X msg 294 137 color 13 22 13;
#X obj 374 274 s \$0-program-rcv;
#X obj 44 116 clip 0 1;
#X connect 0 0 1 0;
#X connect 1 0 19 0;
#X connect 2 0 24 0;
#X connect 2 1 13 0;
#X connect 2 1 14 0;
#X connect 2 1 21 0;
#X connect 2 2 22 0;
#X connect 2 2 15 0;
#X connect 3 0 4 0;
#X connect 4 0 5 0;
#X connect 5 0 7 0;
#X connect 6 0 12 0;
#X connect 7 0 16 0;
#X connect 8 0 9 0;
#X connect 9 0 3 0;
#X connect 9 0 6 0;
#X connect 11 0 12 0;
#X connect 12 0 10 0;
#X connect 13 0 6 0;
#X connect 14 0 16 0;
#X connect 15 0 16 0;
#X connect 17 0 20 0;
#X connect 19 0 2 0;
#X connect 20 0 10 0;
#X connect 20 0 23 0;
#X connect 21 0 10 0;
#X connect 21 0 23 0;
#X connect 22 0 10 0;
#X connect 22 0 23 0;
#X connect 24 0 9 0;
#X restore 35 167 pd program;
#X obj 144 24 r \$0-wrerror;
#X obj 143 46 b;
#X obj 143 67 del 500;
#X msg 113 85 2;
#X msg 143 87 1;
#X obj 26 111 m 1;
#X connect 2 0 1 0;
#X connect 3 0 13 0;
#X connect 4 0 6 0;
#X connect 6 0 5 0;
#X connect 8 0 9 0;
#X connect 9 0 10 0;
#X connect 9 0 11 0;
#X connect 10 0 12 0;
#X connect 11 0 13 1;
#X connect 12 0 13 1;
#X connect 13 0 0 0;
#X restore 22 158 pd UI;
#X obj 121 187 outlet on;
#X obj 240 189 outlet data;
#X obj 121 120 inlet data;
#N canvas 3 87 450 300 select 0;
#X obj 44 18 r \$0-piedactif;
#X obj 44 228 s \$0-2Fr2;
#X obj 44 178 f \$3;
#X obj 121 178 f \$3;
#X msg 121 198 Deselect \$1;
#X msg 44 199 Select \$1;
#X obj 44 133 sel 1 0;
#X obj 158 173 s \$0-fruitpresent;
#X msg 158 153 0;
#X obj 127 245 bng 15 250 50 0 empty empty empty 17 7 0 10 -262144
-1 -1;
#X obj 44 109 change -1;
#X obj 44 88 &&;
#X obj 55 64 t b f;
#X obj 55 42 r \$0-on-snd;
#X obj 44 157 del 100;
#X connect 0 0 11 0;
#X connect 2 0 5 0;
#X connect 3 0 4 0;
#X connect 4 0 1 0;
#X connect 5 0 1 0;
#X connect 6 0 14 0;
#X connect 6 1 8 0;
#X connect 6 1 3 0;
#X connect 8 0 7 0;
#X connect 10 0 6 0;
#X connect 11 0 10 0;
#X connect 12 0 11 0;
#X connect 12 1 11 1;
#X connect 13 0 12 0;
#X connect 14 0 2 0;
#X restore 23 257 pd select;
#N canvas 422 541 335 253 program 0;
#X obj 42 28 bng 15 250 50 0 empty empty empty 17 7 0 10 -262144 -1
-1;
#X obj 90 102 symbol \$4;
#X obj 90 81 loadbang;
#X obj 62 125 pack s s s;
#X obj 160 82 loadbang;
#X obj 160 103 symbol \$2;
#X msg 62 153 Boot program \$3 \$1/\$2/\$2.hex;
#X obj 62 27 r \$0-program;
#X obj 62 189 s \$0-2Fr2;
#X obj 245 84 print;
#X obj 223 19 bng 15 250 50 0 empty empty empty 17 7 0 10 -262144 -1
-1;
#X obj 221 42 getdir 2;
#X obj 62 53 getdir 2;
#X connect 0 0 12 0;
#X connect 1 0 3 1;
#X connect 2 0 1 0;
#X connect 3 0 6 0;
#X connect 4 0 5 0;
#X connect 5 0 3 2;
#X connect 6 0 8 0;
#X connect 7 0 12 0;
#X connect 10 0 11 0;
#X connect 11 0 9 0;
#X connect 12 0 3 0;
#X restore 22 303 pd program;
#N canvas 3 87 450 300 make 0;
#X obj 52 38 bng 15 250 50 0 empty empty empty 17 7 0 10 -262144 -1
-1;
#X obj 100 112 symbol \$4;
#X obj 100 91 loadbang;
#X obj 72 135 pack s s s;
#X obj 170 92 loadbang;
#X obj 170 113 symbol \$2;
#X obj 72 199 s \$0-2Fr2;
#X obj 72 63 getdir 2;
#X msg 72 163 Boot make \$3 \$1/\$2;
#X obj 72 37 r \$0-make;
#X obj 186 57 bng 15 250 50 0 empty empty empty 17 7 0 10 -262144 -1
-1;
#X connect 0 0 7 0;
#X connect 1 0 3 1;
#X connect 2 0 1 0;
#X connect 3 0 8 0;
#X connect 4 0 5 0;
#X connect 5 0 3 2;
#X connect 7 0 3 0;
#X connect 8 0 6 0;
#X connect 9 0 7 0;
#X connect 10 0 5 0;
#X connect 10 0 1 0;
#X restore 23 280 pd make;
#N canvas 32 595 450 300 progbootloader 0;
#X obj 62 48 bng 15 250 50 0 empty empty empty 17 7 0 10 -262144 -1
-1;
#X obj 110 122 symbol \$4;
#X obj 110 101 loadbang;
#X obj 82 145 pack s s s;
#X obj 180 102 loadbang;
#X obj 180 123 symbol \$2;
#X obj 82 209 s \$0-2Fr2;
#X obj 82 73 getdir 2;
#X obj 196 67 bng 15 250 50 0 empty empty empty 17 7 0 10 -262144 -1
-1;
#X obj 82 47 r \$0-progboot;
#X msg 82 173 Boot progboot \$3 \$1/\$2;
#X connect 0 0 7 0;
#X connect 1 0 3 1;
#X connect 2 0 1 0;
#X connect 3 0 10 0;
#X connect 4 0 5 0;
#X connect 5 0 3 2;
#X connect 7 0 3 0;
#X connect 8 0 5 0;
#X connect 8 0 1 0;
#X connect 9 0 7 0;
#X connect 10 0 6 0;
#X restore 75 280 pd progbootloader;
#X connect 3 0 15 0;
#X connect 4 0 16 0;
#X connect 17 0 13 0;
#X coords 0 -1 1 1 152 45 1 20 20;
