#N canvas 795 305 562 428 10;
#X msg 135 46 set \$1;
#X obj 28 15 r \$1-\$2-snd;
#X obj 135 15 r \$1-\$2n-snd;
#X obj 131 95 s \$1-\$2-rcv;
#X obj 180 73 s \$1-\$2n-rcv;
#X obj 343 12 r \$1-params;
#X obj 343 36 route \$2;
#X obj 28 123 f;
#X obj 28 37 + 0.5;
#X obj 28 57 i;
#X obj 343 58 + 0.5;
#X obj 343 78 i;
#X obj 28 185 s \$1-todevice;
#X obj 287 244 s \$1-todevice;
#X obj 233 37 route \$3;
#X floatatom 181 125 5 0 0 0 - - -;
#X obj 233 13 r \$1-fromdevice;
#X obj 287 120 r \$1-get;
#X obj 287 145 random 300;
#X obj 287 168 del;
#X obj 364 204 del;
#X obj 364 160 random 200;
#X msg 387 98 stop;
#X obj 364 183 + 400;
#X obj 287 198 f \$3;
#X obj 438 67 print;
#X obj 28 164 list prepend c \$3;
#X obj 28 145 list prepend \$4;
#X msg 287 220 c 254 c \$1;
#X connect 0 0 3 0;
#X connect 0 0 4 0;
#X connect 1 0 8 0;
#X connect 2 0 0 0;
#X connect 2 0 7 0;
#X connect 5 0 6 0;
#X connect 6 0 10 0;
#X connect 7 0 27 0;
#X connect 8 0 9 0;
#X connect 9 0 7 0;
#X connect 9 0 0 0;
#X connect 10 0 11 0;
#X connect 11 0 0 0;
#X connect 11 0 8 0;
#X connect 14 0 0 0;
#X connect 14 0 22 0;
#X connect 15 0 0 0;
#X connect 16 0 14 0;
#X connect 17 0 18 0;
#X connect 18 0 19 0;
#X connect 19 0 21 0;
#X connect 19 0 24 0;
#X connect 20 0 18 0;
#X connect 21 0 23 0;
#X connect 22 0 19 0;
#X connect 22 0 20 0;
#X connect 23 0 20 0;
#X connect 24 0 28 0;
#X connect 26 0 12 0;
#X connect 27 0 26 0;
#X connect 28 0 13 0;
