#N canvas 542 75 806 541 10;
#X obj 356 237 vsl 15 128 0 127 0 0 empty empty empty 0 -8 0 8 -262144
-1 -1 82 0;
#X obj 74 98 hradio 15 1 0 5 empty empty empty 0 -6 0 8 -262144 -1
-1 3;
#N canvas 440 327 445 299 preset 0;
#X msg 36 193 setK 0.05 \, setD 0 \, setD2 30;
#X msg 55 166 setK 1 \, setD 0 \, setD2 30;
#X msg 75 138 setK 1 \, setD 0 \, setD2 200;
#X obj 36 16 inlet;
#X obj 115 254 outlet;
#X msg 95 108 setK 300 \, setD 300 \, setD2 5;
#X obj 36 43 sel 2 1 0 3 4;
#X msg 115 78 setK 3000 \, setD 1000 \, setD2 5000;
#X connect 0 0 4 0;
#X connect 1 0 4 0;
#X connect 2 0 4 0;
#X connect 3 0 6 0;
#X connect 5 0 4 0;
#X connect 6 0 0 0;
#X connect 6 1 1 0;
#X connect 6 2 2 0;
#X connect 6 3 5 0;
#X connect 6 4 7 0;
#X connect 7 0 4 0;
#X restore 74 119 pd preset;
#X obj 336 237 vsl 15 128 0 127 0 0 empty empty empty 0 -8 0 8 -262144
-1 -1 0 0;
#N canvas 11 285 268 186 stuff 0;
#X obj 13 20 loadbang;
#X obj 52 95 s \$0-link;
#X obj 13 123 s \$0-mass;
#X obj 89 20 bng 15 250 50 0 empty empty empty 0 -6 0 8 -262144 -1
-1;
#X msg 124 92 reset;
#X msg 89 66 resetL \, resetF;
#X obj 89 40 t b b;
#X obj 13 45 metro 10;
#X obj 13 71 t b b b;
#X obj 38 147 s \$0-mass2;
#X connect 0 0 7 0;
#X connect 3 0 6 0;
#X connect 3 0 7 0;
#X connect 4 0 2 0;
#X connect 4 0 9 0;
#X connect 5 0 1 0;
#X connect 6 0 5 0;
#X connect 6 1 4 0;
#X connect 7 0 8 0;
#X connect 8 0 2 0;
#X connect 8 1 9 0;
#X connect 8 2 1 0;
#X restore 75 65 pd stuff;
#X obj 169 167 link \$0-link 0 1 0 200;
#X obj 205 304 vsl 15 128 0 127 0 0 empty empty empty 0 -8 0 8 -262144
-1 -1 5 0;
#X obj 185 304 vsl 15 128 0 127 0 0 empty empty empty 0 -8 0 8 -262144
-1 -1 0 0;
#X obj 18 234 link \$0-link 0 1 0 200;
#X obj 205 234 mass \$0-mass 10000 0;
#X obj 227 67 inlet;
#X obj 356 167 mass \$0-mass2 10000 0;
#X obj 248 472 outlet;
#X obj 384 217 link \$0-link 0 1 0 200;
#X obj 533 218 mass \$0-mass2 10000 0;
#X obj 426 249 link \$0-link 0 1 0 200;
#X obj 575 250 mass \$0-mass2 10000 0;
#X obj 465 282 link \$0-link 0 1 0 200;
#X obj 614 283 mass \$0-mass2 10000 0;
#X obj 273 67 inlet;
#X obj 320 66 inlet;
#X obj 366 66 inlet;
#X obj 415 64 inlet;
#X obj 305 473 outlet;
#X obj 360 473 outlet;
#X obj 417 474 outlet;
#X obj 478 472 outlet;
#X obj 578 73 inlet;
#X obj 578 108 s \$0-link;
#X obj 155 38 loadbang;
#X msg 155 60 3;
#X connect 1 0 2 0;
#X connect 2 0 5 0;
#X connect 2 0 8 0;
#X connect 3 0 5 0;
#X connect 5 1 11 0;
#X connect 7 0 8 0;
#X connect 8 1 9 0;
#X connect 9 0 6 0;
#X connect 9 0 8 1;
#X connect 9 0 12 0;
#X connect 10 0 8 0;
#X connect 11 0 0 0;
#X connect 11 0 5 1;
#X connect 11 0 23 0;
#X connect 13 1 14 0;
#X connect 14 0 13 1;
#X connect 14 0 24 0;
#X connect 15 1 16 0;
#X connect 16 0 15 1;
#X connect 16 0 25 0;
#X connect 17 1 18 0;
#X connect 18 0 17 1;
#X connect 18 0 26 0;
#X connect 19 0 5 0;
#X connect 20 0 13 0;
#X connect 21 0 15 0;
#X connect 22 0 17 0;
#X connect 27 0 28 0;
#X connect 29 0 30 0;
#X connect 30 0 1 0;
