#N canvas 690 85 618 713 10;
#X obj 77 16 inlet rot;
#X obj 278 23 inlet list;
#X obj 380 22 inlet time;
#X obj 379 121 table \$0-tab 1000;
#X obj 380 89 s \$0-tab;
#X text 476 39 10ms;
#X obj 380 44 / 10;
#X msg 380 66 resize \$1;
#X obj 278 45 s \$0-list;
#X obj 448 66 s \$0-time;
#X obj 164 141 metro 10;
#X obj 164 123 tgl 15 0 empty empty empty 17 7 0 10 -262144 -1 -1 0
1;
#X obj 191 186 i;
#X obj 191 208 + 1;
#X obj 191 230 mod 1000;
#X obj 236 186 r \$0-time;
#X obj 236 208 / 10;
#X obj 107 301 tabwrite \$0-tab;
#X obj 337 486 tabread \$0-tab;
#X obj 483 299 r \$0-list;
#X obj 483 321 length;
#X obj 77 38 sel stop;
#X msg 77 62 0;
#X msg 105 63 1;
#X obj 133 93 change;
#X obj 412 300 r \$0-time;
#X obj 412 322 / 10;
#X obj 447 346 t b f;
#X obj 412 372 / 2;
#X obj 231 262 t b;
#X obj 231 284 f 1;
#X obj 272 260 r \$0-list;
#X obj 272 282 length;
#X obj 231 306 t f b;
#X obj 231 328 until;
#X obj 231 350 i;
#X obj 260 351 + 1;
#X msg 271 329 0;
#X obj 343 345 r \$0-list;
#X obj 231 399 list;
#X obj 231 421 list split 1;
#X obj 265 443 t a;
#X obj 322 367 list;
#X obj 231 372 t b f;
#X obj 337 421 *;
#X obj 231 516 pack f f;
#X obj 231 569 s PVJ-projs-rcv;
#X msg 231 538 \$1 rot \$2;
#X obj 337 443 +;
#X obj 337 465 mod 1000;
#X obj 382 422 r \$0-time;
#X obj 382 444 / 10;
#X obj 107 276 f;
#X obj 164 162 t b b b;
#X obj 144 40 del 10000;
#X obj 195 15 r \$0-time;
#X obj 144 17 b;
#X msg 144 61 0;
#X connect 0 0 21 0;
#X connect 1 0 8 0;
#X connect 2 0 6 0;
#X connect 2 0 9 0;
#X connect 6 0 7 0;
#X connect 7 0 4 0;
#X connect 10 0 53 0;
#X connect 11 0 10 0;
#X connect 12 0 13 0;
#X connect 13 0 14 0;
#X connect 14 0 12 1;
#X connect 14 0 17 1;
#X connect 14 0 48 1;
#X connect 15 0 16 0;
#X connect 16 0 14 1;
#X connect 18 0 45 1;
#X connect 19 0 20 0;
#X connect 20 0 27 0;
#X connect 21 0 22 0;
#X connect 21 1 23 0;
#X connect 21 1 52 1;
#X connect 21 1 56 0;
#X connect 22 0 24 0;
#X connect 23 0 24 0;
#X connect 24 0 11 0;
#X connect 25 0 26 0;
#X connect 26 0 28 0;
#X connect 27 0 28 0;
#X connect 27 1 28 1;
#X connect 28 0 44 1;
#X connect 29 0 30 0;
#X connect 30 0 33 0;
#X connect 31 0 32 0;
#X connect 32 0 30 1;
#X connect 33 0 34 0;
#X connect 33 1 37 0;
#X connect 33 1 42 0;
#X connect 34 0 35 0;
#X connect 35 0 36 0;
#X connect 35 0 43 0;
#X connect 36 0 35 1;
#X connect 37 0 35 1;
#X connect 38 0 42 1;
#X connect 39 0 40 0;
#X connect 40 0 45 0;
#X connect 40 1 41 0;
#X connect 41 0 39 1;
#X connect 42 0 39 1;
#X connect 43 0 39 0;
#X connect 43 1 44 0;
#X connect 44 0 48 0;
#X connect 45 0 47 0;
#X connect 47 0 46 0;
#X connect 48 0 49 0;
#X connect 49 0 18 0;
#X connect 50 0 51 0;
#X connect 51 0 49 1;
#X connect 52 0 17 0;
#X connect 53 0 29 0;
#X connect 53 1 52 0;
#X connect 53 2 12 0;
#X connect 54 0 57 0;
#X connect 55 0 54 1;
#X connect 56 0 54 0;
#X connect 57 0 24 0;
