#N canvas 6 155 355 308 10;
#N canvas 7 75 450 300 distrib 0;
#X obj 151 34 inlet;
#X obj 151 105 list split 1;
#X obj 192 129 list;
#X obj 151 57 t a b;
#X obj 178 186 i;
#X obj 208 185 + 1;
#X msg 253 107 0;
#X obj 151 127 t b a;
#X obj 178 156 t b s;
#X obj 178 208 outlet;
#X obj 254 210 outlet;
#X connect 0 0 3 0;
#X connect 1 0 7 0;
#X connect 1 1 2 1;
#X connect 2 0 1 0;
#X connect 3 0 1 0;
#X connect 3 1 6 0;
#X connect 4 0 5 0;
#X connect 4 0 9 0;
#X connect 5 0 4 1;
#X connect 6 0 4 1;
#X connect 7 0 2 0;
#X connect 7 1 8 0;
#X connect 8 0 4 0;
#X connect 8 1 10 0;
#X restore 84 113 pd distrib;
#X obj 84 188 pack f s;
#X obj 84 153 + \$2;
#X obj 141 137 list prepend \$1;
#X msg 141 158 symbol \$1/\$2;
#X obj 84 84 inlet list;
#X text 128 43 DistribFilm folder 1stFilm;
#X obj 84 232 s image-set;
#X connect 0 0 2 0;
#X connect 0 1 3 0;
#X connect 1 0 7 0;
#X connect 2 0 1 0;
#X connect 3 0 4 0;
#X connect 4 0 1 1;
#X connect 5 0 0 0;
