#N canvas 10 75 849 582 10;
#X obj 280 68 gemhead 20;
#X obj 276 114 gemframebuffer;
#X obj 194 9 loadbang;
#X msg 194 34 dimen 3072 768;
#X floatatom 403 206 5 0 0 0 - - -, f 5;
#X obj 280 90 alpha;
#X obj 275 302 rotateXYZ;
#X floatatom 351 273 5 0 0 0 - - -, f 5;
#X floatatom 318 268 5 0 0 0 - - -, f 5;
#X floatatom 290 275 5 0 0 0 - - -, f 5;
#X obj 275 354 rotateXYZ;
#X floatatom 296 330 5 0 0 0 - - -, f 5;
#X floatatom 398 364 5 0 0 0 - - -, f 5;
#X obj 105 117 vradio 8 1 0 3 \$0-mediaType-snd \$0-mediaType-rcv empty
0 -8 0 10 -257985 -1 -1 0;
#X text 113 112 film;
#X text 113 121 img;
#X text 112 130 fb;
#X obj 105 142 nbx 2 10 1 99 0 0 \$0-mediaNumber-snd \$0-mediaNumber-rcv
empty 0 -8 0 10 -262144 -1 -1 51 256;
#X obj 147 116 hsl 40 8 0 1 0 0 \$0-R-snd \$0-R-rcv empty -2 -8 0 10
-258113 -1 -1 0 1;
#X obj 147 125 hsl 40 8 0 1 0 0 \$0-V-snd \$0-V-rcv empty -2 -8 0 10
-4034 -1 -1 0 1;
#X obj 147 134 hsl 40 8 0 1 0 0 \$0-B-snd \$0-B-rcv empty -2 -8 0 10
-4032 -1 -1 0 1;
#X obj 147 143 hsl 40 8 0 1 0 0 \$0-alpha-snd \$0-alpha-rcv empty -2
-8 0 10 -262144 -1 -1 0 1;
#X obj 135 143 bng 8 250 50 0 empty empty empty 17 7 0 10 -262144 -1
-1;
#X msg 164 72 1;
#X obj 634 201 r \$0-alpha-snd;
#X obj 634 223 s \$0-alpha;
#X obj 106 161 hsl 40 8 0 1 0 0 \$0-rotx-snd \$0-rotx-rcv rotx -2 -4
0 8 -262144 -1 -1 0 1;
#X obj 155 161 hsl 40 8 0 1 0 0 \$0-rotz-snd \$0-rotz-rcv rotz -2 -4
0 8 -262144 -1 -1 0 1;
#X obj 633 33 apf PVJprojs fb\$1-R \$0-R;
#X obj 633 52 apf PVJprojs fb\$1-V \$0-V;
#X obj 633 75 apf PVJprojs fb\$1-B \$0-B;
#X obj 634 96 apf PVJprojs fb\$1-alpha \$0-alpha;
#X obj 635 129 apf PVJprojs fb\$1-rotx \$0-rotx;
#X obj 357 158 s tex_fb-\$1;
#X obj 127 178 hsl 40 8 0 1 0 0 \$0-scale-snd \$0-scale-rcv scale -2
-4 0 8 -262144 -1 -1 0 1;
#X obj 266 231 translateXYZ 0 0 -4;
#X obj 521 207 r \$0-rotx-snd;
#X obj 470 187 * 180;
#X obj 470 165 r \$0-rotz-snd;
#X obj 470 354 r \$0-scale-snd;
#X obj 470 420 + 1;
#X obj 470 376 pow 3;
#X obj 470 398 * 40;
#X obj 293 500 rectangle 16 4;
#X obj 443 445 * 4;
#X floatatom 525 427 5 0 0 0 - - -, f 5;
#X obj 404 442 * 4;
#X floatatom 428 306 5 0 0 0 - - -, f 5;
#X floatatom 361 345 5 0 0 0 - - -, f 5;
#X obj 285 191 rotateXYZ;
#X floatatom 306 167 5 0 0 0 - - -, f 5;
#X msg 368 8 1;
#X floatatom 409 7 5 0 0 0 - - -, f 5;
#X obj 368 30 t f f;
#X obj 368 52 * -1;
#X obj 368 74 pack f f;
#X msg 370 96 perspec \$1 \$2 \$1 \$2 \$2 20;
#X obj 304 3 loadbang;
#X obj 456 284 * -0.5;
#X obj 419 255 * 85;
#X msg 302 26 0.15;
#X obj 521 229 * 2;
#X obj 521 251 - 1;
#X obj 103 173 bng 8 250 50 0 empty empty empty 17 7 0 10 -262144 -1
-1;
#X msg 55 161 0.5;
#X obj 477 48 tgl 15 0 empty empty empty 17 7 0 10 -262144 -1 -1 0
1;
#X obj 477 26 textureIsUsed fb \$1;
#X obj 635 149 apf PVJprojs fb\$1-rotz \$0-rotz;
#X obj 635 168 apf PVJprojs fb\$1-scale \$0-scale;
#X obj 280 427 media \$0 fb\$1;
#X obj 734 202 r \$0-R-snd;
#X obj 734 222 s \$0-R;
#X obj 733 245 r \$0-V-snd;
#X obj 733 265 s \$0-V;
#X obj 733 286 r \$0-B-snd;
#X obj 733 306 s \$0-B;
#X connect 0 0 5 0;
#X connect 1 0 49 0;
#X connect 1 1 33 0;
#X connect 2 0 3 0;
#X connect 3 0 1 0;
#X connect 4 0 35 3;
#X connect 5 0 1 0;
#X connect 6 0 10 0;
#X connect 7 0 6 3;
#X connect 8 0 6 2;
#X connect 9 0 6 1;
#X connect 10 0 69 0;
#X connect 11 0 10 1;
#X connect 12 0 46 0;
#X connect 22 0 23 0;
#X connect 23 0 18 0;
#X connect 23 0 19 0;
#X connect 23 0 20 0;
#X connect 23 0 21 0;
#X connect 24 0 25 0;
#X connect 35 0 6 0;
#X connect 36 0 61 0;
#X connect 37 0 6 3;
#X connect 38 0 37 0;
#X connect 39 0 41 0;
#X connect 40 0 44 0;
#X connect 40 0 46 0;
#X connect 41 0 42 0;
#X connect 42 0 40 0;
#X connect 44 0 43 2;
#X connect 45 0 40 0;
#X connect 46 0 43 1;
#X connect 49 0 35 0;
#X connect 50 0 49 1;
#X connect 51 0 53 0;
#X connect 52 0 53 0;
#X connect 53 0 54 0;
#X connect 53 1 55 1;
#X connect 54 0 55 0;
#X connect 55 0 56 0;
#X connect 56 0 1 0;
#X connect 57 0 60 0;
#X connect 58 0 49 1;
#X connect 59 0 10 1;
#X connect 59 0 58 0;
#X connect 60 0 53 0;
#X connect 61 0 62 0;
#X connect 62 0 59 0;
#X connect 63 0 64 0;
#X connect 64 0 26 0;
#X connect 65 0 0 0;
#X connect 66 0 65 0;
#X connect 69 0 43 0;
#X connect 70 0 71 0;
#X connect 72 0 73 0;
#X connect 74 0 75 0;
#X coords 0 -1 1 1 100 90 1 100 100;
