#N canvas 201 75 885 797 10;
#X obj 276 114 gemframebuffer;
#X obj 194 9 loadbang;
#X msg 194 34 dimen 3072 768;
#X obj 272 80 alpha;
#X obj 105 117 vradio 8 1 0 3 \$0-mediaType-snd \$0-mediaType-rcv empty
0 -8 0 10 -257985 -1 -1 1;
#X text 113 112 film;
#X text 113 121 img;
#X text 112 130 fb;
#X obj 105 142 nbx 2 10 1 99 0 0 \$0-mediaNumber-snd \$0-mediaNumber-rcv
empty 0 -8 0 10 -262144 -1 -1 80 256;
#X obj 147 116 hsl 40 8 0 1 0 0 \$0-R-snd \$0-R-rcv empty -2 -8 0 10
-258113 -1 -1 3900 1;
#X obj 147 125 hsl 40 8 0 1 0 0 \$0-V-snd \$0-V-rcv empty -2 -8 0 10
-4034 -1 -1 3900 1;
#X obj 147 134 hsl 40 8 0 1 0 0 \$0-B-snd \$0-B-rcv empty -2 -8 0 10
-4032 -1 -1 3900 1;
#X obj 147 143 hsl 40 8 0 1 0 0 \$0-alpha-snd \$0-alpha-rcv empty -2
-8 0 10 -262144 -1 -1 3900 1;
#X obj 135 143 bng 8 250 50 0 empty empty empty 17 7 0 10 -262144 -1
-1;
#X msg 164 72 1;
#X obj 635 225 r \$0-alpha-snd;
#X obj 634 246 s \$0-alpha;
#X obj 106 161 hsl 40 8 0 1 0 0 \$0-speed-snd \$0-speed-rcv speed -2
-4 0 8 -262144 -1 -1 0 1;
#X obj 155 161 hsl 40 8 0 1 0 0 \$0-rotz-snd \$0-rotz-rcv rotz -2 -4
0 8 -262144 -1 -1 0 1;
#X obj 633 33 apf PVJprojs fb\$1-R \$0-R;
#X obj 633 52 apf PVJprojs fb\$1-V \$0-V;
#X obj 633 75 apf PVJprojs fb\$1-B \$0-B;
#X obj 634 96 apf PVJprojs fb\$1-alpha \$0-alpha;
#X obj 357 158 s tex_fb-\$1;
#X obj 104 180 hsl 40 8 0 1 0 0 \$0-scale-snd \$0-scale-rcv scale -2
-4 0 8 -262144 -1 -1 0 1;
#X obj 538 285 r \$0-rotz-snd;
#X msg 368 8 1;
#X floatatom 409 7 5 0 0 0 - - -, f 5;
#X obj 368 30 t f f;
#X obj 368 52 * -1;
#X obj 368 74 pack f f;
#X msg 370 96 perspec \$1 \$2 \$1 \$2 \$2 20;
#X obj 304 3 loadbang;
#X msg 302 26 0.15;
#X obj 30 148 bng 8 250 50 0 empty empty empty 17 7 0 10 -262144 -1
-1;
#X msg 55 161 0.5;
#X obj 477 48 tgl 15 0 empty empty empty 17 7 0 10 -262144 -1 -1 1
1;
#X obj 477 26 textureIsUsed fb \$1;
#X text 353 224 set the color range;
#X obj 223 218 scaleXYZ 0.25 1 1;
#X obj 80 331 hsl 128 15 0 1 0 0 empty empty empty -2 -8 0 10 -262144
-1 -1 0 1;
#X obj 77 351 pow 2;
#X obj 77 373 * 5;
#X obj 75 201 r \$0-speed-snd;
#X obj 637 150 apf PVJprojs fb\$1-scale \$0-scale;
#X obj 637 128 apf PVJprojs fb\$1-speed \$0-speed;
#X obj 74 300 r \$0-scale-snd;
#X obj 243 137 alpha;
#X obj 273 59 gemhead 30;
#X msg 34 43 format RGBA \, color 0 0 0 0;
#X obj 542 331 * 6.2815;
#X obj 542 353 t f f;
#X obj 540 375 cos;
#X obj 569 375 sin;
#X obj 542 306 hsl 128 15 0 1 0 0 empty empty empty -2 -8 0 10 -262144
-1 -1 0 1;
#X obj 541 461 pack f f 0 f;
#X obj 609 415 t b f;
#X obj 649 419 hsl 128 15 0 1 0 0 empty empty empty -2 -8 0 10 -262144
-1 -1 0 1;
#X obj 646 439 pow 2;
#X obj 540 397 *;
#X obj 570 397 *;
#X obj 607 340 t b f;
#X obj 672 326 hsl 128 15 0 1 0 0 empty empty empty -2 -8 0 10 -262144
-1 -1 0 1;
#X obj 667 345 pow 2;
#X msg 685 376 1 \$1;
#X obj 685 398 -;
#X obj 155 180 hsl 40 8 0 1 0 0 \$0-beam-snd \$0-beam-rcv beam -2 -4
0 8 -262144 -1 -1 0 1;
#X obj 637 171 apf PVJprojs fb\$1-rotz \$0-rotz;
#X obj 637 190 apf PVJprojs fb\$1-beam \$0-beam;
#X obj 670 277 r \$0-beam-snd;
#X obj 227 500 media \$0 fb\$1;
#X obj 806 218 r \$0-R-snd;
#X obj 806 238 s \$0-R;
#X obj 805 261 r \$0-V-snd;
#X obj 805 281 s \$0-V;
#X obj 805 302 r \$0-B-snd;
#X obj 805 322 s \$0-B;
#X floatatom 362 463 5 0 0 0 - - -, f 5;
#X floatatom 247 414 5 0 0 0 - - -, f 5;
#X obj 229 460 rotateXYZ 90 0 0;
#X floatatom 340 198 5 0 0 0 - - -, f 5;
#X obj 277 393 2Dinertia;
#X obj 277 371 pack f f;
#X obj 277 415 unpack f f;
#X obj 310 352 t b f;
#X obj 316 331 hsl 128 15 0 360 0 0 empty empty empty -2 -8 0 10 -262144
-1 -1 600 1;
#X obj 261 312 hsl 128 15 -45 45 0 0 empty empty empty -2 -8 0 10 -262144
-1 -1 7700 1;
#X obj 232 160 translateXYZ 0 0 8;
#X obj 219 559 sphere 20 50;
#X obj 274 437 + 90;
#X obj 438 552 t b b;
#X obj 459 576 random 2000;
#X obj 459 598 - 1000;
#X obj 459 620 / 1000;
#X obj 446 524 metro 500;
#X obj 451 482 tgl 15 0 empty empty empty 17 7 0 10 -262144 -1 -1 1
1;
#X obj 459 673 +;
#X floatatom 472 721 5 0 0 0 - - -, f 5;
#X obj 461 698 clip -360 360;
#X obj 459 642 * 10;
#X obj 354 582 random 2000;
#X obj 354 604 - 1000;
#X obj 354 626 / 1000;
#X obj 354 679 +;
#X obj 354 648 * 10;
#X obj 356 704 clip -45 45;
#X floatatom 344 735 5 0 0 0 - - -, f 5;
#X connect 0 0 47 0;
#X connect 0 1 23 0;
#X connect 1 0 2 0;
#X connect 1 0 49 0;
#X connect 2 0 0 0;
#X connect 3 0 0 0;
#X connect 13 0 14 0;
#X connect 14 0 9 0;
#X connect 14 0 10 0;
#X connect 14 0 11 0;
#X connect 14 0 12 0;
#X connect 15 0 16 0;
#X connect 25 0 54 0;
#X connect 26 0 28 0;
#X connect 27 0 28 0;
#X connect 28 0 29 0;
#X connect 28 1 30 1;
#X connect 29 0 30 0;
#X connect 30 0 31 0;
#X connect 31 0 0 0;
#X connect 32 0 33 0;
#X connect 33 0 28 0;
#X connect 34 0 35 0;
#X connect 35 0 17 0;
#X connect 36 0 48 0;
#X connect 36 0 95 0;
#X connect 37 0 36 0;
#X connect 39 0 79 0;
#X connect 40 0 41 0;
#X connect 41 0 42 0;
#X connect 46 0 40 0;
#X connect 47 0 87 0;
#X connect 48 0 3 0;
#X connect 49 0 0 0;
#X connect 50 0 51 0;
#X connect 51 0 52 0;
#X connect 51 1 53 0;
#X connect 52 0 59 0;
#X connect 53 0 60 0;
#X connect 54 0 50 0;
#X connect 56 0 55 0;
#X connect 56 1 55 3;
#X connect 57 0 58 0;
#X connect 58 0 56 0;
#X connect 59 0 55 0;
#X connect 60 0 55 1;
#X connect 61 0 50 0;
#X connect 61 1 60 1;
#X connect 61 1 59 1;
#X connect 62 0 63 0;
#X connect 63 0 61 0;
#X connect 63 0 64 0;
#X connect 64 0 65 0;
#X connect 65 0 56 0;
#X connect 69 0 62 0;
#X connect 70 0 88 0;
#X connect 71 0 72 0;
#X connect 73 0 74 0;
#X connect 75 0 76 0;
#X connect 77 0 79 3;
#X connect 78 0 79 1;
#X connect 79 0 70 0;
#X connect 80 0 87 3;
#X connect 81 0 83 0;
#X connect 82 0 81 0;
#X connect 83 0 89 0;
#X connect 83 1 79 3;
#X connect 84 0 82 0;
#X connect 84 1 82 1;
#X connect 85 0 84 0;
#X connect 86 0 82 0;
#X connect 87 0 39 0;
#X connect 89 0 79 1;
#X connect 90 0 100 0;
#X connect 90 1 91 0;
#X connect 91 0 92 0;
#X connect 92 0 93 0;
#X connect 93 0 99 0;
#X connect 94 0 90 0;
#X connect 95 0 94 0;
#X connect 96 0 98 0;
#X connect 98 0 96 1;
#X connect 98 0 97 0;
#X connect 98 0 82 1;
#X connect 99 0 96 0;
#X connect 100 0 101 0;
#X connect 101 0 102 0;
#X connect 102 0 104 0;
#X connect 103 0 105 0;
#X connect 104 0 103 0;
#X connect 105 0 103 1;
#X connect 105 0 82 0;
#X connect 105 0 106 0;
#X coords 0 -1 1 1 100 90 1 100 100;
