#N canvas 273 77 457 393 10;
#X obj 78 19 inlet rot;
#X obj 141 20 inlet list;
#X obj 212 21 inlet time;
#X obj 78 332 s PVJ-projs-rcv;
#X msg 78 285 \$1 rot2 \$2;
#X obj 291 22 inlet config;
#X obj 78 129 groupPropage;
#X msg 147 82 time \$1;
#X obj 146 156 unpack f f;
#X obj 146 199 pack f f;
#X obj 203 180 * -1;
#X obj 78 309 spigot;
#X obj 373 22 inlet on;
#X connect 0 0 6 0;
#X connect 1 0 6 1;
#X connect 2 0 7 0;
#X connect 4 0 11 0;
#X connect 5 0 6 2;
#X connect 6 0 4 0;
#X connect 6 1 8 0;
#X connect 7 0 6 2;
#X connect 8 0 9 0;
#X connect 8 1 10 0;
#X connect 9 0 4 0;
#X connect 10 0 9 1;
#X connect 11 0 3 0;
#X connect 12 0 11 1;
