#N canvas 2098 399 463 287 10;
#X obj 50 16 inlet rot;
#X obj 120 16 inlet list;
#X obj 197 16 inlet time;
#X obj 50 185 s PVJ-projs-rcv;
#X msg 126 60 time \$1;
#X obj 274 16 inlet config;
#X obj 50 107 groupPropage;
#X obj 366 16 inlet on;
#X obj 50 155 spigot;
#X floatatom 28 213 5 0 0 0 - - -, f 5;
#X msg 50 132 \$1 alpha2 \$2;
#X connect 0 0 6 0;
#X connect 1 0 6 1;
#X connect 2 0 4 0;
#X connect 4 0 6 2;
#X connect 5 0 6 2;
#X connect 6 0 10 0;
#X connect 6 1 10 0;
#X connect 7 0 8 1;
#X connect 8 0 3 0;
#X connect 8 0 9 0;
#X connect 10 0 8 0;
