#N canvas 712 121 622 712 10;
#X obj 35 16 inlet rot;
#X obj 236 23 inlet list;
#X obj 292 131 table \$0-tab 1000;
#X obj 474 127 s \$0-tab;
#X obj 474 82 / 10;
#X msg 474 104 resize \$1;
#X obj 236 45 s \$0-list;
#X obj 542 104 s \$0-time;
#X obj 122 141 metro 10;
#X obj 122 123 tgl 15 0 empty empty empty 17 7 0 10 -262144 -1 -1 1
1;
#X obj 149 186 i;
#X obj 149 208 + 1;
#X obj 149 230 mod 1000;
#X obj 194 186 r \$0-time;
#X obj 194 208 / 10;
#X obj 62 267 tabwrite \$0-tab;
#X obj 402 441 tabread \$0-tab;
#X obj 488 259 r \$0-list;
#X obj 488 281 length;
#X obj 35 38 sel stop;
#X msg 35 62 0;
#X msg 63 63 1;
#X obj 91 93 change;
#X obj 417 260 r \$0-time;
#X obj 417 282 / 10;
#X obj 452 306 t b f;
#X obj 417 332 / 2;
#X obj 170 280 t b;
#X obj 170 302 f 1;
#X obj 211 278 r \$0-list;
#X obj 211 300 length;
#X obj 170 324 t f b;
#X obj 170 346 until;
#X obj 170 368 i;
#X obj 199 369 + 1;
#X msg 210 347 0;
#X obj 263 327 r \$0-list;
#X obj 170 417 list;
#X obj 170 439 list split 1;
#X obj 207 463 t a;
#X obj 242 349 list;
#X obj 170 390 t b f;
#X obj 402 376 *;
#X obj 170 639 pack f f;
#X obj 402 398 +;
#X obj 402 420 mod 1000;
#X obj 447 377 r \$0-time;
#X obj 447 399 / 10;
#X obj 62 242 f;
#X obj 122 162 t b b b;
#X obj 102 40 del 10000;
#X obj 153 15 r \$0-time;
#X obj 102 17 b;
#X msg 102 61 0;
#X obj 417 354 * -1;
#X obj 170 257 gemhead 1;
#X obj 333 13 inlet config;
#X obj 371 60 spigot;
#N canvas 5 75 450 300 reverse_list 0;
#X obj 112 23 inlet;
#X obj 137 46 r \$0-list;
#X obj 112 75 list;
#X obj 112 45 b;
#X obj 112 102 t b l b;
#X obj 133 135 list split 1;
#X obj 167 157 t l;
#X obj 133 206 t l;
#X obj 112 228 list;
#X msg 215 184 list;
#X obj 112 252 s \$0-list;
#X obj 76 41 bng 15 250 50 0 empty empty empty 17 7 0 10 -262144 -1
-1;
#X obj 133 183 list prepend;
#X connect 0 0 3 0;
#X connect 1 0 2 1;
#X connect 2 0 4 0;
#X connect 3 0 2 0;
#X connect 4 0 8 0;
#X connect 4 1 5 0;
#X connect 4 2 9 0;
#X connect 5 0 12 0;
#X connect 5 1 6 0;
#X connect 6 0 5 0;
#X connect 7 0 8 1;
#X connect 7 0 12 1;
#X connect 8 0 10 0;
#X connect 9 0 7 0;
#X connect 11 0 2 0;
#X connect 12 0 7 0;
#X restore 371 85 pd reverse_list;
#X obj 333 35 route sym bang switch time;
#X obj 170 667 outlet;
#X obj 170 462 t f f;
#X obj 275 467 spigot;
#X obj 333 105 s \$0-sym;
#X obj 317 444 r \$0-sym;
#X obj 314 80 tgl 15 0 empty empty empty 17 7 0 10 -262144 -1 -1 0
1;
#X obj 276 487 t f f;
#X obj 276 530 list prepend;
#X obj 303 510 mod 2;
#X obj 276 552 route 0 1;
#X obj 323 593 -;
#X obj 276 595 -;
#X obj 276 619 f;
#X floatatom 521 177 5 0 0 0 - - -, f 5;
#X obj 276 641 pack f f;
#X obj 276 662 outlet;
#X text 277 682 symetric;
#X msg 276 573 22 \$1;
#X msg 323 571 20 \$1;
#X connect 0 0 19 0;
#X connect 1 0 6 0;
#X connect 4 0 5 0;
#X connect 5 0 3 0;
#X connect 8 0 49 0;
#X connect 9 0 8 0;
#X connect 10 0 11 0;
#X connect 11 0 12 0;
#X connect 12 0 10 1;
#X connect 12 0 15 1;
#X connect 12 0 44 1;
#X connect 13 0 14 0;
#X connect 14 0 12 1;
#X connect 16 0 43 1;
#X connect 16 0 74 1;
#X connect 17 0 18 0;
#X connect 18 0 25 0;
#X connect 19 0 20 0;
#X connect 19 1 21 0;
#X connect 19 1 48 1;
#X connect 19 1 52 0;
#X connect 20 0 22 0;
#X connect 21 0 22 0;
#X connect 22 0 9 0;
#X connect 23 0 24 0;
#X connect 24 0 26 0;
#X connect 25 0 26 0;
#X connect 25 1 26 1;
#X connect 26 0 54 0;
#X connect 27 0 28 0;
#X connect 28 0 31 0;
#X connect 29 0 30 0;
#X connect 30 0 28 1;
#X connect 31 0 32 0;
#X connect 31 1 35 0;
#X connect 31 1 40 0;
#X connect 32 0 33 0;
#X connect 33 0 34 0;
#X connect 33 0 41 0;
#X connect 34 0 33 1;
#X connect 35 0 33 1;
#X connect 36 0 40 1;
#X connect 37 0 38 0;
#X connect 38 0 61 0;
#X connect 38 1 39 0;
#X connect 39 0 37 1;
#X connect 40 0 37 1;
#X connect 41 0 37 0;
#X connect 41 1 42 0;
#X connect 42 0 44 0;
#X connect 43 0 60 0;
#X connect 44 0 45 0;
#X connect 45 0 16 0;
#X connect 46 0 47 0;
#X connect 47 0 45 1;
#X connect 48 0 15 0;
#X connect 49 1 48 0;
#X connect 49 2 10 0;
#X connect 50 0 53 0;
#X connect 51 0 50 1;
#X connect 52 0 50 0;
#X connect 53 0 22 0;
#X connect 54 0 42 1;
#X connect 55 0 27 0;
#X connect 56 0 59 0;
#X connect 57 0 58 0;
#X connect 59 0 63 0;
#X connect 59 1 57 0;
#X connect 59 2 57 1;
#X connect 59 3 7 0;
#X connect 59 3 73 0;
#X connect 61 0 43 0;
#X connect 61 1 62 0;
#X connect 62 0 66 0;
#X connect 64 0 62 1;
#X connect 65 0 63 0;
#X connect 66 0 67 0;
#X connect 66 1 68 0;
#X connect 67 0 69 0;
#X connect 68 0 67 1;
#X connect 69 0 77 0;
#X connect 69 1 78 0;
#X connect 70 0 72 0;
#X connect 71 0 72 0;
#X connect 72 0 74 0;
#X connect 74 0 75 0;
#X connect 77 0 71 0;
#X connect 78 0 70 0;
