#N canvas 627 139 463 287 10;
#X obj 50 16 inlet rot;
#X obj 113 16 inlet list;
#X obj 181 16 inlet time;
#X obj 50 185 s PVJ-projs-rcv;
#X msg 50 133 \$1 scale2 \$2;
#X msg 119 60 time \$1;
#X obj 251 16 inlet config;
#X obj 50 107 groupPropage;
#X obj 331 15 inlet on;
#X obj 50 155 spigot;
#X connect 0 0 7 0;
#X connect 1 0 7 1;
#X connect 2 0 5 0;
#X connect 4 0 9 0;
#X connect 5 0 7 2;
#X connect 6 0 7 2;
#X connect 7 0 4 0;
#X connect 7 1 4 0;
#X connect 8 0 9 1;
#X connect 9 0 3 0;
