#N canvas 501 260 769 612 10;
#X obj 159 287 posGem \$0;
#X floatatom 292 515 0 0 0 0 - - -;
#X text 310 517 size;
#X msg 239 482 font \$1;
#X obj 311 481 openpanel;
#X msg 345 456 bang;
#X msg 232 452 font vera.ttf;
#X obj 159 51 separator;
#X obj 222 515 text3d 1;
#X obj 391 515 circle 1;
#X obj 159 318 t a a;
#X obj 390 470 separator;
#X obj 159 344 separator;
#X obj 162 406 colorRGB 1 1 1;
#X obj 411 378 posLoad \$0;
#X obj 451 232 hradio 15 1 0 8 empty empty empty 0 -8 0 10 -262144
-1 -1 4;
#X obj 161 373 translateXYZ 0 0 0.01;
#X obj 232 430 loadbang;
#X msg 357 379 text \$1;
#X floatatom 414 292 5 0 0 0 - - -, f 5;
#X obj 454 251 + 1;
#X floatatom 295 260 5 0 0 0 - - -, f 5;
#X obj 159 234 separator;
#X obj 158 123 t f b;
#X obj 158 145 until;
#X obj 158 167 i;
#X obj 191 168 + 1;
#X msg 202 146 1;
#X obj 158 190 t b f;
#X obj 360 349 f;
#X obj 158 212 gemlist;
#X obj 158 72 t b a;
#X obj 370 190 print;
#X obj 371 163 bng 15 250 50 0 empty empty empty 17 7 0 10 -262144
-1 -1;
#X floatatom 506 442 5 0 0 0 - - -, f 5;
#X obj 159 31 spigot;
#X obj 359 4 tgl 15 0 empty empty empty 17 7 0 10 -262144 -1 -1 1 1
;
#X obj 158 9 r PVJholesHead;
#X obj 392 490 colorRGB 0 0 0 1;
#X obj 159 261 translateXYZ 0 0 0;
#X obj 305 23 hsl 70 15 0 1 0 0 empty empty empty -2 -8 0 10 -262144
-1 -1 0 1;
#X obj 302 72 + 1;
#X obj 302 43 pow 2;
#X obj 158 101 f 22;
#X connect 0 0 10 0;
#X connect 1 0 8 1;
#X connect 3 0 8 0;
#X connect 4 0 3 0;
#X connect 5 0 4 0;
#X connect 6 0 8 0;
#X connect 7 0 31 0;
#X connect 10 1 11 0;
#X connect 11 0 38 0;
#X connect 12 0 16 0;
#X connect 13 0 8 0;
#X connect 15 0 20 0;
#X connect 16 0 13 0;
#X connect 17 0 6 0;
#X connect 18 0 8 0;
#X connect 20 0 19 0;
#X connect 21 0 39 3;
#X connect 22 0 39 0;
#X connect 23 0 24 0;
#X connect 23 1 27 0;
#X connect 24 0 25 0;
#X connect 25 0 26 0;
#X connect 25 0 28 0;
#X connect 26 0 25 1;
#X connect 27 0 25 1;
#X connect 28 0 30 0;
#X connect 28 1 29 0;
#X connect 29 0 18 0;
#X connect 29 0 14 0;
#X connect 30 0 22 0;
#X connect 31 0 43 0;
#X connect 31 1 30 1;
#X connect 33 0 32 0;
#X connect 34 0 9 1;
#X connect 35 0 7 0;
#X connect 36 0 35 1;
#X connect 37 0 35 0;
#X connect 38 0 9 0;
#X connect 39 0 0 0;
#X connect 40 0 42 0;
#X connect 41 0 9 1;
#X connect 42 0 41 0;
#X connect 43 0 23 0;
#X coords 0 -1 1 1 80 40 1 300 0;
