#N canvas 67 434 505 291 10;
#X text 63 17 KEP telecommand button;
#X obj 210 100 r \$1-\$2-name;
#X obj 52 101 s \$1-\$2-getinfo;
#X obj 52 72 bng 15 250 50 0 empty empty empty 17 7 0 10 -262144 -1
-1;
#X msg 210 123 label \$1;
#X msg 328 126 label \$1;
#X obj 328 103 r \$1-\$2-shift-name;
#X obj 199 146 r \$1-\$2-normal;
#X obj 198 236 s \$1-\$2-normal-set;
#X obj 198 213 change;
#X obj 199 167 s ktb-\$1-\$2-rcv;
#X obj 198 193 r ktb-\$1-\$2-snd;
#X obj 317 215 change;
#X obj 318 148 r \$1-\$2-shift;
#X obj 317 238 s \$1-\$2-shift-set;
#X obj 317 195 r ktbs-\$1-\$2-snd;
#X obj 318 169 s ktbs-\$1-\$2-rcv;
#X obj 52 50 r ktb-\$1-getinfo;
#X obj 247 44 apf KT-\$1 ktb-\$2 ktb-\$1-\$2;
#X obj 247 63 apf KT-\$1 ktbs-\$2 ktbs-\$1-\$2;
#X connect 1 0 4 0;
#X connect 3 0 2 0;
#X connect 4 0 10 0;
#X connect 5 0 16 0;
#X connect 6 0 5 0;
#X connect 7 0 10 0;
#X connect 9 0 8 0;
#X connect 11 0 9 0;
#X connect 12 0 14 0;
#X connect 13 0 16 0;
#X connect 15 0 12 0;
#X connect 17 0 3 0;
