#N canvas 69 961 764 320 10;
#X obj 153 81 gemhead 20;
#X obj 153 243 pix_texture;
#X msg 224 80 auto \$1;
#X obj 269 29 tgl 15 0 empty empty empty 0 -6 0 8 -262144 -1 -1 1 1
;
#X msg 97 49 colorspace Grey;
#X obj 216 268 s tex_film-\$1;
#X floatatom 334 161 5 0 0 0 - - -, f 5;
#X obj 239 141 t b;
#X obj 201 9 loadbang;
#X obj 269 6 textureIsUsed film \$1;
#X msg 239 163 1;
#X obj 413 35 t f b;
#X obj 291 104 change;
#X obj 269 49 && 1;
#X obj 302 49 t b f;
#X msg 440 65 0;
#X obj 470 65 del 1000;
#X msg 470 87 1;
#X obj 470 109 change;
#X obj 291 83 clip 1 10;
#X obj 190 188 unpack f f f;
#X obj 192 215 v film-\$1-length;
#X obj 413 12 r film-\$1-frame;
#X obj 425 178 r film-\$1-pos;
#X obj 425 200 clip 0 1;
#X obj 425 222 *;
#X obj 425 244 + 1;
#X obj 425 266 s film-\$1-frame;
#X floatatom 271 236 5 0 0 0 - - -, f 5;
#X floatatom 328 241 5 0 0 0 - - -, f 5;
#X floatatom 374 240 5 0 0 0 - - -, f 5;
#X obj 153 143 pix_film;
#X obj 42 78 loadbang;
#X obj 42 102 bng 15 250 50 0 empty empty empty 17 7 0 10 -262144 -1
-1;
#X msg 42 144 open \$1;
#X obj 42 122 symbol \$2;
#X obj 453 141 tgl 15 0 empty empty empty 17 7 0 10 -262144 -1 -1 0
1;
#X obj 291 126 spigot;
#X connect 0 0 31 0;
#X connect 1 1 5 0;
#X connect 2 0 31 0;
#X connect 3 0 13 0;
#X connect 3 0 37 1;
#X connect 4 0 31 0;
#X connect 6 0 31 1;
#X connect 7 0 10 0;
#X connect 9 0 3 0;
#X connect 10 0 31 1;
#X connect 11 0 19 0;
#X connect 11 1 15 0;
#X connect 11 1 16 0;
#X connect 12 0 37 0;
#X connect 13 0 2 0;
#X connect 14 0 13 0;
#X connect 14 1 13 1;
#X connect 15 0 18 0;
#X connect 16 0 17 0;
#X connect 17 0 18 0;
#X connect 18 0 14 0;
#X connect 19 0 12 0;
#X connect 20 0 19 2;
#X connect 20 0 21 0;
#X connect 20 0 25 1;
#X connect 20 0 28 0;
#X connect 20 1 29 0;
#X connect 20 2 30 0;
#X connect 22 0 11 0;
#X connect 23 0 24 0;
#X connect 24 0 25 0;
#X connect 25 0 26 0;
#X connect 26 0 27 0;
#X connect 31 0 1 0;
#X connect 31 1 20 0;
#X connect 31 2 7 0;
#X connect 32 0 33 0;
#X connect 33 0 35 0;
#X connect 34 0 31 0;
#X connect 35 0 34 0;
#X connect 37 0 31 1;
