#N canvas 8 234 764 320 10;
#X obj 243 93 gemhead 20;
#X obj 243 260 pix_texture;
#X msg 314 92 auto \$1;
#X obj 359 41 tgl 15 0 empty empty empty 0 -6 0 8 -262144 -1 -1 1 1
;
#X msg 210 123 colorspace Grey;
#X obj 306 285 s tex_film-\$1;
#X floatatom 424 173 5 0 0 0 - - -, f 5;
#X obj 314 146 t b;
#X obj 291 21 loadbang;
#X msg 314 185 1;
#X obj 499 42 t f b;
#X obj 381 116 change;
#X obj 359 61 && 1;
#X obj 392 61 t b f;
#X msg 516 74 0;
#X msg 546 96 1;
#X obj 546 118 change;
#X obj 381 95 clip 1 10;
#X obj 280 205 unpack f f f;
#X obj 282 232 v film-\$1-length;
#X obj 515 212 clip 0 1;
#X obj 515 234 *;
#X obj 515 256 + 1;
#X obj 515 278 s film-\$1-frame;
#X floatatom 361 253 5 0 0 0 - - -, f 5;
#X floatatom 418 258 5 0 0 0 - - -, f 5;
#X floatatom 464 257 5 0 0 0 - - -, f 5;
#X obj 243 155 pix_film;
#X obj 24 52 loadbang;
#X obj 24 76 bng 15 250 50 0 empty empty empty 17 7 0 10 -262144 -1
-1;
#X obj 381 138 spigot;
#X obj 449 135 tgl 15 0 empty empty empty 17 7 0 10 -262144 -1 -1 0
1;
#X obj 546 74 del 5000;
#X obj 24 146 getenv HOME;
#X msg 24 190 open \$1/Datas/PVJ/\$2;
#X obj 359 18 textureIsUsed film \$1;
#X obj 515 146 hradio 15 1 0 8 empty empty empty 0 -8 0 10 -262144
-1 -1 1;
#X msg 515 167 set film-\$1-pos;
#X obj 82 6 r film-set;
#X obj 515 189 iem_r film-\$3-pos;
#X obj 499 20 r film-\$1-frame;
#X obj 82 71 unpack s f;
#X obj 24 99 symbol \$2;
#X obj 24 121 t b s;
#X obj 24 168 pack s s;
#X obj 82 28 route \$1;
#X obj 141 94 f;
#X obj 82 50 t a b;
#X msg 152 70 0;
#X obj 640 62 r film-set-bus;
#X obj 640 85 route \$1 -1;
#X obj 640 107 f;
#X obj 314 165 del 1;
#X connect 0 0 27 0;
#X connect 1 1 5 0;
#X connect 2 0 27 0;
#X connect 3 0 12 0;
#X connect 3 0 30 1;
#X connect 4 0 27 0;
#X connect 6 0 27 1;
#X connect 7 0 52 0;
#X connect 9 0 27 1;
#X connect 10 0 17 0;
#X connect 10 1 14 0;
#X connect 10 1 32 0;
#X connect 11 0 30 0;
#X connect 12 0 2 0;
#X connect 12 0 31 0;
#X connect 13 0 12 0;
#X connect 13 1 12 1;
#X connect 14 0 16 0;
#X connect 15 0 16 0;
#X connect 16 0 13 0;
#X connect 17 0 11 0;
#X connect 18 0 17 2;
#X connect 18 0 19 0;
#X connect 18 0 21 1;
#X connect 18 0 24 0;
#X connect 18 1 25 0;
#X connect 18 2 26 0;
#X connect 20 0 21 0;
#X connect 21 0 22 0;
#X connect 22 0 23 0;
#X connect 27 0 1 0;
#X connect 27 1 18 0;
#X connect 27 2 7 0;
#X connect 28 0 29 0;
#X connect 29 0 42 0;
#X connect 30 0 27 1;
#X connect 32 0 15 0;
#X connect 33 0 44 0;
#X connect 34 0 27 0;
#X connect 35 0 3 0;
#X connect 36 0 37 0;
#X connect 37 0 39 0;
#X connect 38 0 45 0;
#X connect 39 0 20 0;
#X connect 40 0 10 0;
#X connect 41 0 42 0;
#X connect 41 1 46 0;
#X connect 42 0 43 0;
#X connect 43 0 33 0;
#X connect 43 1 44 1;
#X connect 44 0 34 0;
#X connect 45 0 47 0;
#X connect 46 0 36 0;
#X connect 47 0 41 0;
#X connect 47 1 48 0;
#X connect 48 0 46 0;
#X connect 49 0 50 0;
#X connect 50 0 51 0;
#X connect 50 1 51 0;
#X connect 51 0 36 0;
#X connect 52 0 9 0;
