#N canvas 1868 833 371 144 10;
#X obj 11 11 cnv 15 32 83 \$0-canNbPos-snd \$0-canNbPos-rcv 0 1 23
0 25 -4160 -257985 0;
#X text 63 -18 MASTERtypeNO_IN : ne fait rien !;
#X obj 10 61 cnv 10 34 10 \$0-can-snd \$0-can-rcv BASE1 3 5 1 8 -257985
-1 0;
#X text 53 15 Affiche la prépa d'instrument quand-meme...;
#X text 53 -1 \$1 : \$0 de MAIN \,;
#X obj 87 40 r \$1-prepa;
#X obj 87 84 s \$0-can-rcv;
#X msg 87 62 label \$1;
#X msg 194 94 label \$1;
#X obj 194 32 r \$1-NbPos;
#X obj 194 116 s \$0-canNbPos-rcv;
#X floatatom 285 79 5 0 0 0 - - -, f 5;
#X obj 201 70 makesymbol;
#X obj 279 36 r \$1-NbFilm;
#X connect 5 0 7 0;
#X connect 7 0 6 0;
#X connect 8 0 10 0;
#X connect 9 0 11 0;
#X connect 9 0 12 0;
#X connect 12 0 8 0;
#X connect 13 0 12 0;
#X coords 0 -1 1 1 34 85 2 10 10;
