#N canvas 97 334 1211 496 10;
#X obj 135 201 iem_r;
#X msg 135 177 set \$1;
#X obj 72 225 pix_texture;
#X obj 397 241 route media;
#X obj 397 263 unpack s f;
#X obj 397 304 sel film img fb;
#X obj 397 327 f 0;
#X obj 426 327 f 1;
#X obj 455 327 f 2;
#X obj 604 60 t s b;
#X obj 631 93 symbol none;
#X obj 631 114 t b s;
#X obj 631 163 s;
#X msg 658 139 symbol \$1-used;
#X msg 631 138 let;
#X obj 604 184 t b s;
#X obj 604 233 s;
#X msg 631 209 symbol \$1-used;
#X msg 604 208 get;
#X obj 100 34 inlet gemhead;
#X obj 119 80 separator;
#X obj 100 104 separator;
#X obj 72 376 colorRGB;
#X obj 303 206 iem_r;
#X msg 303 182 set \$1;
#X obj 240 229 pix_texture;
#X obj 138 464 outlet;
#X obj 117 334 *;
#X obj 144 333 t b f;
#X obj 187 251 r \$0-ABpos;
#X obj 167 133 r \$0-textureB;
#X obj 336 138 r \$0-textureA;
#X obj 604 19 r \$0-textureA;
#X obj 397 219 r \$1-rcv;
#X obj 397 360 s \$1-mediaType-rcv;
#X obj 454 283 s \$1-mediaNumber-rcv;
#X obj 764 58 route _all_;
#X msg 819 115 store \$1;
#X msg 764 115 load \$1;
#X obj 764 138 t a a;
#X obj 764 160 list prepend \$2-mediaType;
#X obj 791 186 list prepend \$2-mediaNumber;
#X obj 764 213 list trim;
#X obj 764 86 route load store;
#X obj 857 273 route A B pos;
#N canvas 156 110 494 214 getmediaForpattern 0;
#X obj 94 19 inlet;
#X obj 94 120 mediaTextureName;
#X obj 94 47 t f f;
#X obj 94 142 outlet;
#X obj 203 42 inlet;
#X obj 329 40 inlet;
#X msg 383 157 0;
#X obj 383 179 s \$0-ABpos;
#X obj 342 187 bng 15 250 50 0 empty empty empty 17 7 0 10 -262144
-1 -1;
#X obj 121 71 tabread \$3-\$2-mediaNumber-pattern;
#X obj 94 92 tabread \$3-\$2-mediaType-pattern;
#X connect 0 0 2 0;
#X connect 1 0 3 0;
#X connect 2 0 10 0;
#X connect 2 1 9 0;
#X connect 4 0 1 0;
#X connect 4 0 6 0;
#X connect 5 0 1 1;
#X connect 5 0 6 0;
#X connect 6 0 7 0;
#X connect 6 0 8 0;
#X connect 9 0 1 1;
#X connect 10 0 1 0;
#X restore 857 409 pd getmediaForpattern;
#X obj 857 430 s \$0-textureA;
#N canvas 5 75 416 197 getmediaForpattern 0;
#X obj 94 19 inlet;
#X obj 94 120 mediaTextureName;
#X obj 94 47 t f f;
#X obj 94 142 outlet;
#X obj 121 71 tabread \$3-\$2-mediaNumber-pattern;
#X obj 94 95 tabread \$3-\$2-mediaType-pattern;
#X connect 0 0 2 0;
#X connect 1 0 3 0;
#X connect 2 0 5 0;
#X connect 2 1 4 0;
#X connect 4 0 1 1;
#X connect 5 0 1 0;
#X restore 882 323 pd getmediaForpattern;
#X obj 882 344 s \$0-textureB;
#X obj 907 297 s \$0-ABpos, f 11;
#X obj 918 367 r \$1-mediaType-snd;
#X obj 980 386 r \$1-mediaNumber-snd;
#X obj 100 56 t a a b;
#X obj 303 161 symbol;
#X obj 135 155 symbol;
#X obj 185 283 f;
#X obj 236 41 gemhead 1;
#X obj 236 93 b;
#X obj 306 319 r \$1-alpha;
#X obj 604 306 t s b;
#X obj 631 339 symbol none;
#X obj 631 360 t b s;
#X obj 631 409 s;
#X msg 658 385 symbol \$1-used;
#X msg 631 384 let;
#X obj 604 430 t b s;
#X obj 604 479 s;
#X msg 631 455 symbol \$1-used;
#X msg 604 454 get;
#X obj 604 266 r \$0-textureB;
#X msg 333 93 rectangle 0 \, repeat 0;
#X obj 333 69 loadbang;
#X symbolatom 373 181 14 0 0 0 - - -, f 14;
#X obj 240 358 colorRGB 1 1 1 1;
#X obj 83 250 r \$1-R;
#X obj 94 270 r \$1-V;
#X obj 105 288 r \$1-B;
#X obj 117 312 r \$1-alpha;
#X obj 263 263 r \$1-R;
#X obj 275 283 r \$1-V;
#X obj 286 301 r \$1-B;
#X obj 1007 49 route _all_;
#X obj 1007 71 route _nbpattern_;
#X obj 1007 93 list prepend _nbpattern_;
#X obj 1007 114 t a a;
#X obj 1007 136 list prepend \$2-mediaType;
#X obj 1034 162 list prepend \$2-mediaNumber;
#X obj 1007 189 list trim;
#X obj 159 363 > 0.01;
#X obj 159 385 change;
#X obj 324 378 > 0.01;
#X obj 324 400 change;
#N canvas 4 103 377 290 switch_off 0;
#X obj 84 32 inlet tex_sym;
#X obj 208 31 inlet on;
#X obj 84 226 outlet tex_sym;
#X obj 84 54 t b s;
#X obj 103 135 symbol;
#X obj 84 91 f;
#X obj 84 113 sel 0 1;
#X obj 84 165 symbol none;
#X connect 0 0 3 0;
#X connect 1 0 5 0;
#X connect 3 0 5 0;
#X connect 3 1 4 1;
#X connect 4 0 2 0;
#X connect 5 0 6 0;
#X connect 6 0 7 0;
#X connect 6 1 4 0;
#X connect 7 0 2 0;
#X restore 604 41 pd switch_off;
#N canvas 4 103 377 290 switch_off 0;
#X obj 84 32 inlet tex_sym;
#X obj 208 31 inlet on;
#X obj 84 226 outlet tex_sym;
#X obj 84 54 t b s;
#X obj 103 135 symbol;
#X obj 84 91 f;
#X obj 84 113 sel 0 1;
#X obj 84 165 symbol none;
#X connect 0 0 3 0;
#X connect 1 0 5 0;
#X connect 3 0 5 0;
#X connect 3 1 4 1;
#X connect 4 0 2 0;
#X connect 5 0 6 0;
#X connect 6 0 7 0;
#X connect 6 1 4 0;
#X connect 7 0 2 0;
#X restore 604 286 pd switch_off;
#X obj 314 19 api \$3 \$2-mediaType \$1-mediaType 1;
#X obj 314 45 api \$3 \$2-mediaNumber \$1-mediaNumber 1;
#X obj 764 36 r \$3-pattern-snd;
#X obj 1007 27 r \$3-setap-snd;
#X obj 1007 209 s \$3-setap-snd;
#X obj 764 242 s \$3-pattern-snd;
#X connect 0 0 2 1;
#X connect 1 0 0 0;
#X connect 2 0 22 0;
#X connect 3 0 4 0;
#X connect 4 0 5 0;
#X connect 4 1 35 0;
#X connect 5 0 6 0;
#X connect 5 1 7 0;
#X connect 5 2 8 0;
#X connect 6 0 34 0;
#X connect 7 0 34 0;
#X connect 8 0 34 0;
#X connect 9 0 10 1;
#X connect 9 0 15 0;
#X connect 9 1 10 0;
#X connect 10 0 11 0;
#X connect 11 0 14 0;
#X connect 11 1 13 0;
#X connect 13 0 12 1;
#X connect 14 0 12 0;
#X connect 15 0 18 0;
#X connect 15 1 17 0;
#X connect 17 0 16 1;
#X connect 18 0 16 0;
#X connect 19 0 52 0;
#X connect 20 0 25 0;
#X connect 21 0 2 0;
#X connect 22 0 26 0;
#X connect 23 0 25 1;
#X connect 24 0 23 0;
#X connect 25 0 73 0;
#X connect 27 0 22 4;
#X connect 27 0 88 0;
#X connect 28 0 27 0;
#X connect 28 1 27 1;
#X connect 29 0 55 1;
#X connect 30 0 54 1;
#X connect 31 0 53 1;
#X connect 31 0 72 0;
#X connect 32 0 92 0;
#X connect 33 0 3 0;
#X connect 36 0 43 0;
#X connect 37 0 39 0;
#X connect 38 0 39 0;
#X connect 39 0 40 0;
#X connect 39 1 41 0;
#X connect 40 0 42 0;
#X connect 41 0 42 0;
#X connect 42 0 99 0;
#X connect 43 0 38 0;
#X connect 43 1 37 0;
#X connect 43 2 44 0;
#X connect 44 0 45 0;
#X connect 44 1 47 0;
#X connect 44 2 49 0;
#X connect 45 0 46 0;
#X connect 47 0 48 0;
#X connect 50 0 45 1;
#X connect 51 0 45 2;
#X connect 52 0 21 0;
#X connect 52 1 20 0;
#X connect 53 0 24 0;
#X connect 54 0 1 0;
#X connect 55 0 28 0;
#X connect 56 0 57 0;
#X connect 57 0 53 0;
#X connect 57 0 55 0;
#X connect 57 0 54 0;
#X connect 58 0 73 4;
#X connect 58 0 90 0;
#X connect 59 0 60 1;
#X connect 59 0 65 0;
#X connect 59 1 60 0;
#X connect 60 0 61 0;
#X connect 61 0 64 0;
#X connect 61 1 63 0;
#X connect 63 0 62 1;
#X connect 64 0 62 0;
#X connect 65 0 68 0;
#X connect 65 1 67 0;
#X connect 67 0 66 1;
#X connect 68 0 66 0;
#X connect 69 0 93 0;
#X connect 70 0 25 0;
#X connect 70 0 2 0;
#X connect 71 0 70 0;
#X connect 73 0 26 0;
#X connect 74 0 22 1;
#X connect 75 0 22 2;
#X connect 76 0 22 3;
#X connect 77 0 27 0;
#X connect 78 0 73 1;
#X connect 79 0 73 2;
#X connect 80 0 73 3;
#X connect 81 0 82 0;
#X connect 82 0 83 0;
#X connect 83 0 84 0;
#X connect 84 0 85 0;
#X connect 84 1 86 0;
#X connect 85 0 87 0;
#X connect 86 0 87 0;
#X connect 87 0 98 0;
#X connect 88 0 89 0;
#X connect 89 0 93 1;
#X connect 90 0 91 0;
#X connect 91 0 92 1;
#X connect 92 0 9 0;
#X connect 93 0 59 0;
#X connect 96 0 36 0;
#X connect 97 0 81 0;
