#N canvas 4 103 379 334 10;
#X obj 83 255 pack s f;
#X obj 42 104 sel 0 1 2;
#X obj 31 155 symbol film;
#X obj 105 155 symbol img;
#X obj 174 156 symbol fb;
#X obj 83 232 symbol;
#X obj 253 151 t b f;
#X msg 83 276 symbol tex_\$1-\$2;
#X obj 42 31 inlet type;
#X obj 42 53 change -1;
#X obj 253 61 change -1;
#X obj 253 39 inlet num;
#X obj 83 298 outlet;
#X connect 0 0 7 0;
#X connect 1 0 2 0;
#X connect 1 1 3 0;
#X connect 1 2 4 0;
#X connect 2 0 5 0;
#X connect 3 0 5 0;
#X connect 4 0 5 0;
#X connect 5 0 0 0;
#X connect 6 0 0 0;
#X connect 6 1 0 1;
#X connect 7 0 12 0;
#X connect 8 0 9 0;
#X connect 9 0 1 0;
#X connect 10 0 6 0;
#X connect 11 0 10 0;
