#N canvas 96 281 482 454 10;
#X obj 104 123 hradio 10 1 0 16 \$1-patternButton-snd \$1-patternButton-rcv
pattern 0 -6 0 10 -262144 -1 -1 0;
#X obj 264 123 tgl 10 0 \$0-savepat-snd \$0-savepat-rcv store -20 -5
0 10 -258113 -1 -1 0 1;
#X msg 103 212 color 0 22 22;
#X msg 122 193 color 13 22 22;
#X obj 103 173 sel 0 1;
#X obj 203 353 spigot;
#X obj 99 344 spigot 1;
#X obj 144 319 == 0;
#X obj 103 152 r \$0-savepat-snd;
#X obj 144 291 r \$0-savepat-snd;
#X msg 203 379 _all_ store \$1;
#X msg 99 376 _all_ load \$1;
#X obj 308 398 s \$0-savepat-rcv;
#X msg 308 378 0;
#X obj 99 403 s \$1-pattern-snd;
#X obj 103 237 s \$1-patternButton-rcv;
#X obj 99 267 r \$1-patternButton-snd;
#X floatatom 42 323 5 0 0 0 - - -, f 5;
#X obj 43 19 r \$1-pattern-snd;
#X obj 43 41 route _all_;
#X obj 43 63 route load;
#X msg 43 85 set \$1;
#X connect 2 0 15 0;
#X connect 3 0 15 0;
#X connect 4 0 2 0;
#X connect 4 1 3 0;
#X connect 5 0 10 0;
#X connect 5 0 13 0;
#X connect 6 0 11 0;
#X connect 7 0 6 1;
#X connect 8 0 4 0;
#X connect 9 0 5 1;
#X connect 9 0 7 0;
#X connect 10 0 14 0;
#X connect 11 0 14 0;
#X connect 13 0 12 0;
#X connect 16 0 5 0;
#X connect 16 0 6 0;
#X connect 16 0 17 0;
#X connect 18 0 19 0;
#X connect 19 0 20 0;
#X connect 20 0 21 0;
#X connect 21 0 0 0;
#X coords 0 -1 1 1 180 35 1 100 100;
