#N canvas 26 372 359 500 10;
#X floatatom 82 254 5 0 0 0 - - -, f 5;
#X floatatom 218 215 5 0 0 0 - - -, f 5;
#X obj 54 143 translateXYZ;
#X obj 98 30 r \$1-X;
#X obj 170 47 r \$1-Y;
#X floatatom 170 113 5 0 0 0 - - -, f 5;
#X obj 98 51 - 0.5;
#X obj 170 68 - 0.5;
#X floatatom 98 97 5 0 0 0 - - -, f 5;
#X obj 85 209 - 0.5;
#X obj 218 171 - 0.5;
#X obj 286 171 - 0.5;
#X obj 126 167 r \$1-RX;
#X obj 218 150 r \$1-RY;
#X obj 286 145 r \$1-RZ;
#X obj 286 196 * 360;
#X obj 201 402 * 6;
#X floatatom 201 460 5 0 0 0 - - -, f 5;
#X obj 201 360 r \$1-Sc;
#X obj 201 382 - 0;
#X obj 201 432 + 0.05;
#X obj 98 73 * 32;
#X obj 170 89 * 8;
#X floatatom 146 22 5 0 0 0 - - -, f 5;
#X obj 54 445 scaleXYZ;
#X obj 75 413 f;
#X obj 54 10 inlet;
#X obj 54 467 outlet;
#X obj 85 231 * 45;
#X obj 54 380 rotateXYZ;
#X obj 54 323 rotateXYZ;
#X obj 54 357 scaleXYZ 1 1 1;
#X obj 266 323 * -1;
#X obj 129 326 hsl 128 15 0 2 0 0 empty empty empty -2 -8 0 10 -262144
-1 -1 297 1;
#X floatatom 155 237 8 0 0 0 - - -, f 8;
#X obj 218 193 * 200;
#X connect 1 0 32 0;
#X connect 1 0 30 3;
#X connect 2 0 30 0;
#X connect 3 0 6 0;
#X connect 3 0 23 0;
#X connect 4 0 7 0;
#X connect 5 0 2 2;
#X connect 6 0 21 0;
#X connect 7 0 22 0;
#X connect 8 0 2 1;
#X connect 9 0 28 0;
#X connect 10 0 35 0;
#X connect 11 0 15 0;
#X connect 12 0 34 0;
#X connect 12 0 33 0;
#X connect 13 0 10 0;
#X connect 14 0 11 0;
#X connect 16 0 20 0;
#X connect 17 0 25 0;
#X connect 18 0 19 0;
#X connect 19 0 16 0;
#X connect 20 0 17 0;
#X connect 21 0 8 0;
#X connect 22 0 5 0;
#X connect 24 0 27 0;
#X connect 25 0 24 1;
#X connect 25 0 24 2;
#X connect 25 0 24 3;
#X connect 26 0 2 0;
#X connect 28 0 0 0;
#X connect 29 0 24 0;
#X connect 30 0 31 0;
#X connect 31 0 29 0;
#X connect 32 0 29 3;
#X connect 33 0 31 1;
#X connect 35 0 1 0;
