#N canvas 230 88 405 338 10;
#X obj 176 21 r \$1-X;
#X obj 54 10 inlet;
#X obj 54 193 outlet;
#X obj 54 70 posGem \$0;
#X obj 176 156 5Dinertia;
#X obj 176 272 s \$0-X;
#X obj 188 246 s \$0-Y;
#X obj 201 222 s \$0-RX;
#X obj 214 200 s \$0-RY;
#X obj 227 179 s \$0-Sc;
#X obj 188 43 r \$1-Y, f 7;
#X obj 227 117 r \$1-Sc;
#X obj 201 69 r \$1-RX;
#X obj 214 92 r \$1-RY;
#X floatatom 275 65 5 0 0 0 - - -, f 5;
#X obj 292 125 r PVJ-posInertia;
#X connect 0 0 4 0;
#X connect 1 0 3 0;
#X connect 3 0 2 0;
#X connect 4 0 5 0;
#X connect 4 1 6 0;
#X connect 4 2 7 0;
#X connect 4 3 8 0;
#X connect 4 4 9 0;
#X connect 10 0 4 1;
#X connect 11 0 4 4;
#X connect 12 0 4 2;
#X connect 13 0 4 3;
#X connect 15 0 4 5;
