#N canvas 7 75 770 284 10;
#X floatatom 136 178 5 0 0 0 - - -, f 5;
#X obj 100 142 tabread PVJ-PosY;
#X obj 109 202 s \$1-Y;
#X floatatom 238 155 5 0 0 0 - - -, f 5;
#X obj 202 119 tabread PVJ-PosRX;
#X obj 211 179 s \$1-RX;
#X floatatom 382 160 5 0 0 0 - - -, f 5;
#X floatatom 521 153 5 0 0 0 - - -, f 5;
#X obj 347 124 tabread PVJ-PosRY;
#X obj 355 184 s \$1-RY;
#X obj 494 177 s \$1-RZ;
#X obj 485 117 tabread PVJ-PosRZ;
#X floatatom 673 158 5 0 0 0 - - -, f 5;
#X obj 638 122 tabread PVJ-PosSc;
#X obj 646 182 s \$1-Sc;
#X floatatom 44 211 5 0 0 0 - - -, f 5;
#X obj 151 9 inlet;
#X obj 151 31 t f f f f f;
#X floatatom 57 136 5 0 0 0 - - -, f 5;
#X floatatom 90 290 5 0 0 0 - - -, f 5;
#X obj 21 101 tabread PVJ-PosX;
#X obj 30 161 s \$1-X;
#X connect 1 0 0 0;
#X connect 1 0 2 0;
#X connect 4 0 3 0;
#X connect 4 0 5 0;
#X connect 8 0 6 0;
#X connect 8 0 9 0;
#X connect 11 0 7 0;
#X connect 11 0 10 0;
#X connect 13 0 12 0;
#X connect 13 0 14 0;
#X connect 16 0 17 0;
#X connect 17 0 20 0;
#X connect 17 1 4 0;
#X connect 17 1 1 0;
#X connect 17 2 8 0;
#X connect 17 3 11 0;
#X connect 17 4 13 0;
#X connect 20 0 18 0;
#X connect 20 0 21 0;
