#N canvas 313 75 810 684 10;
#X text 31 16 projecteur : média \, fade (alpha) \, couleur \, scale
\, rotation coordonnées de texure pour le média : 2 positions full/zoom
\, numéro de parapluie \, forme (cercle \, cone \, sphere \, square
\, cube);
#X obj 234 72 r PVJ-projs-rcv;
#X obj 234 94 route \$1 -1;
#X obj 234 121 s \$0-rcv;
#X obj 103 115 vradio 8 1 0 3 \$0-mediaType-snd \$0-mediaType-rcv empty
0 -8 0 10 -257985 -1 -1 0;
#X text 111 110 film;
#X text 111 119 img;
#X text 110 128 fb;
#X obj 103 140 nbx 2 10 1 99 0 0 \$0-mediaNumber-snd \$0-mediaNumber-rcv
empty 0 -8 0 10 -262144 -1 -1 6 256;
#X obj 140 113 hsl 40 8 0 1 0 0 \$0-R-snd \$0-R-rcv empty -2 -8 0 10
-258113 -1 -1 3900 1;
#X obj 140 122 hsl 40 8 0 1 0 0 \$0-V-snd \$0-V-rcv empty -2 -8 0 10
-4034 -1 -1 3900 1;
#X obj 140 131 hsl 40 8 0 1 0 0 \$0-B-snd \$0-B-rcv empty -2 -8 0 10
-4032 -1 -1 3900 1;
#X obj 140 140 hsl 40 8 0 1 0 0 \$0-alpha-snd \$0-alpha-rcv empty -2
-8 0 10 -262144 -1 -1 0 1;
#X obj 107 160 hsl 40 8 0 2 0 0 \$0-scale-snd \$0-scale-rcv scale -2
-4 0 8 -262144 -1 -1 1950 1;
#X obj 141 169 bng 8 250 50 0 empty empty empty 17 7 0 10 -262144 -1
-1;
#X msg 57 157 1;
#X obj 107 190 hsl 40 8 0 360 0 0 \$0-rot-snd \$0-rot-rcv rot -2 -4
0 8 -262144 -1 -1 0 1;
#X obj 104 172 tgl 8 0 \$0-zoom-snd \$0-zoom-rcv zoom 9 4 0 8 -262144
-1 -1 0 1;
#X obj 186 138 nbx 2 10 1 99 0 0 \$0-pos-snd \$0-pos-rcv pos 0 -5 0
8 -262144 -1 -1 10 256;
#X obj 156 154 vradio 8 1 0 5 \$0-shape-snd \$0-shape-rcv empty 0 -8
0 10 -204786 -1 -1 0;
#X text 164 149 circle;
#X text 164 174 square;
#X text 164 157 cone;
#X text 164 165 sphere;
#X text 164 182 cube;
#X obj 187 112 bng 8 250 50 0 empty empty empty 17 7 0 10 -262144 -1
-1;
#X msg 164 67 1;
#X obj 95 252 r PVJprojsHead;
#X obj 345 496 demux 0 1 2 3 4;
#N canvas 519 89 767 579 props 0;
#X obj 96 183 s \$0-R-rcv;
#X obj 130 164 s \$0-V-rcv;
#X obj 165 142 s \$0-B-rcv;
#X obj 96 16 r \$0-rcv;
#X obj 96 116 unpack f f f;
#X obj 502 17 apf PVJprojs \$1-R \$0-R;
#X obj 503 37 apf PVJprojs \$1-V \$0-V;
#X obj 503 60 apf PVJprojs \$1-B \$0-B;
#X obj 504 81 apf PVJprojs \$1-alpha \$0-alpha;
#X obj 499 113 apf PVJprojs \$1-scale \$0-scale;
#X obj 178 74 s \$0-scale-rcv;
#X obj 243 123 s \$0-zoom-rcv;
#X obj 504 143 apf PVJprojs \$1-zoom \$0-zoom;
#X obj 261 99 s \$0-rot-rcv;
#X obj 279 79 s \$0-shape-rcv;
#X obj 503 172 apf PVJprojs \$1-rot \$0-rot;
#X obj 96 37 route color alpha scale zoom rot shape pos;
#X obj 307 60 s \$0-pos-rcv;
#X obj 141 97 s \$0-alpha-rcv;
#X obj 502 208 api PVJprojs \$1-shape \$0-shape;
#X obj 501 236 api PVJprojs \$1-pos \$0-pos;
#X obj 72 438 s \$0-alpha;
#X obj 194 457 s \$0-scale;
#X obj 330 458 s \$0-rot;
#X obj 330 434 +;
#X obj 72 412 * 1;
#X obj 194 437 * 1;
#X obj 72 367 f;
#X obj 87 270 r \$0-getprops;
#X obj 87 320 t f f;
#X obj 72 345 *;
#X msg 87 294 1;
#X obj 87 389 r \$0-alpha-snd;
#X obj 209 412 r \$0-scale-snd;
#X obj 361 412 r \$0-rot-snd;
#X obj 194 393 f;
#X obj 209 296 r \$0-getprops;
#X obj 209 346 t f f;
#X obj 194 371 *;
#X msg 209 320 1;
#X obj 330 409 f;
#X obj 345 312 r \$0-getprops;
#X obj 345 362 t f f;
#X msg 345 336 0;
#X obj 330 387 +;
#X obj 185 264 route alpha2 scale2 rot2 color2;
#X obj 448 301 unpack f f f;
#X obj 448 437 f;
#X obj 463 340 r \$0-getprops;
#X obj 463 390 t f f;
#X obj 479 440 r \$0-R-snd;
#X obj 552 434 f;
#X obj 567 337 r \$0-getprops;
#X obj 567 387 t f f;
#X obj 654 434 f;
#X obj 669 337 r \$0-getprops;
#X obj 669 387 t f f;
#X obj 583 437 r \$0-V-snd;
#X obj 685 437 r \$0-B-snd;
#X obj 654 483 s \$0-B;
#X obj 552 483 s \$0-V;
#X obj 448 486 s \$0-R;
#X msg 463 363 1;
#X msg 567 361 1;
#X msg 669 361 1;
#X obj 448 415 *;
#X obj 552 412 *;
#X obj 654 412 *;
#X obj 448 462 *;
#X obj 552 459 *;
#X obj 654 459 *;
#X connect 3 0 16 0;
#X connect 4 0 0 0;
#X connect 4 1 1 0;
#X connect 4 2 2 0;
#X connect 16 0 4 0;
#X connect 16 1 18 0;
#X connect 16 2 10 0;
#X connect 16 3 11 0;
#X connect 16 4 13 0;
#X connect 16 5 14 0;
#X connect 16 6 17 0;
#X connect 16 7 45 0;
#X connect 24 0 23 0;
#X connect 25 0 21 0;
#X connect 26 0 22 0;
#X connect 27 0 30 1;
#X connect 27 0 25 0;
#X connect 28 0 31 0;
#X connect 29 0 30 1;
#X connect 29 1 30 0;
#X connect 30 0 27 0;
#X connect 31 0 29 0;
#X connect 32 0 25 1;
#X connect 33 0 26 1;
#X connect 34 0 24 1;
#X connect 35 0 38 1;
#X connect 35 0 26 0;
#X connect 36 0 39 0;
#X connect 37 0 38 1;
#X connect 37 1 38 0;
#X connect 38 0 35 0;
#X connect 39 0 37 0;
#X connect 40 0 44 1;
#X connect 40 0 24 0;
#X connect 41 0 43 0;
#X connect 42 0 44 1;
#X connect 42 1 44 0;
#X connect 43 0 42 0;
#X connect 44 0 40 0;
#X connect 45 0 30 0;
#X connect 45 1 38 0;
#X connect 45 2 44 0;
#X connect 45 3 46 0;
#X connect 46 0 65 0;
#X connect 46 1 66 0;
#X connect 46 2 67 0;
#X connect 47 0 65 1;
#X connect 47 0 68 0;
#X connect 48 0 62 0;
#X connect 49 0 65 1;
#X connect 49 1 65 0;
#X connect 50 0 68 1;
#X connect 51 0 66 1;
#X connect 51 0 69 0;
#X connect 52 0 63 0;
#X connect 53 0 66 1;
#X connect 53 1 66 0;
#X connect 54 0 67 1;
#X connect 54 0 70 0;
#X connect 55 0 64 0;
#X connect 56 0 67 1;
#X connect 56 1 67 0;
#X connect 57 0 69 1;
#X connect 58 0 70 1;
#X connect 62 0 49 0;
#X connect 63 0 53 0;
#X connect 64 0 56 0;
#X connect 65 0 47 0;
#X connect 66 0 51 0;
#X connect 67 0 54 0;
#X connect 68 0 61 0;
#X connect 69 0 60 0;
#X connect 70 0 59 0;
#X restore 544 39 pd props;
#X obj 233 147 r \$0-pos-snd;
#X obj 233 193 posLoad \$0;
#X obj 440 474 r \$0-shape-snd;
#X obj 345 221 separator;
#X msg 506 223 dimen 300 300;
#X obj 506 201 loadbang;
#X obj 95 603 circle 1;
#X obj 95 339 colorRGB 1 1 1 1;
#X obj 95 274 separator;
#X msg 627 281 format RGBA;
#X msg 625 210 rectangle \$1;
#X obj 625 192 tgl 15 0 empty empty empty 0 -6 0 8 -262144 -1 -1 0
1;
#X msg 624 240 type FLOAT;
#X floatatom 11 515 5 0 0 0 - - -, f 5;
#X obj 345 200 alpha;
#X obj 345 245 colorRGB 1 1 1 1;
#X obj 345 668 circle 3;
#X obj 366 646 cone 2 30;
#X obj 345 476 rotate 0 0 0 1;
#X floatatom 434 647 5 0 0 0 - - -, f 5;
#X floatatom 386 595 5 0 0 0 - - -, f 5;
#X obj 345 282 gemframebuffer;
#X floatatom 479 527 5 0 0 0 - - -, f 5;
#X floatatom 518 528 5 0 0 0 - - -, f 5;
#X obj 95 310 alpha;
#X obj 345 309 alpha;
#X floatatom 456 312 5 0 0 0 - - -, f 5;
#X msg 625 262 color 0 0 0 1;
#X obj 629 605 rotateXYZ -180 0 0;
#X obj 664 584 / 2;
#X obj 366 615 rotateXYZ -180 0 0;
#X floatatom 556 529 5 0 0 0 - - -, f 5;
#X obj 589 547 - 120;
#X obj 388 550 rotateXYZ -270 -180 -120;
#X obj 589 524 / 1.5;
#X floatatom 695 623 5 0 0 0 - - -, f 5;
#X floatatom 481 664 5 0 0 0 - - -, f 5;
#X obj 31 93 inlet;
#X obj 623 40 r \$0-rcv;
#X obj 623 62 route initpos;
#X obj 623 84 f \$1;
#X obj 623 127 s \$0-pos-rcv;
#X obj 233 169 change;
#X msg 623 106 0 \, \$1;
#X obj 345 357 media \$0 \$1;
#X obj 328 148 gemhead 25;
#X obj 155 550 r \$0-scale;
#X obj 589 495 r \$0-rot;
#X obj 695 551 r \$0-rot;
#X obj 385 453 r \$0-rot;
#X obj 140 573 f;
#X obj 391 199 s \$0-getprops;
#X obj 328 173 t b a b b;
#X obj 345 408 spigot 1;
#X obj 412 408 spigot;
#X obj 478 333 r \$0-zoom-snd;
#X obj 478 356 tgl 15 0 empty empty empty 17 7 0 10 -262144 -1 -1 0
1;
#X obj 411 382 == 0;
#N canvas 189 353 515 422 coords 0;
#X obj 235 337 outlet;
#X msg 126 212 0 0 1 0 1 1 0 1;
#X obj 197 32 r \$0-X;
#X obj 278 30 r \$0-Y;
#X floatatom 197 55 5 0 0 0 - - -, f 5;
#X floatatom 278 56 5 0 0 0 - - -, f 5;
#X obj 235 268 pack f f f f f f f f;
#X obj 239 197 -;
#X obj 291 227 +;
#X obj 201 119 bng 15 250 50 0 empty empty empty 17 7 0 10 -262144
-1 -1;
#X obj 239 121 pack f f f f;
#X obj 239 143 unpack f f f f;
#X obj 365 18 r \$0-Sc;
#X obj 360 44 f;
#X obj 339 33 bng 15 250 50 0 empty empty empty 17 7 0 10 -262144 -1
-1;
#X msg 46 26 768 1024;
#X obj 46 48 /;
#X floatatom 46 70 5 0 0 0 - - -, f 5;
#X obj 263 83 * 0.75;
#X obj 269 197 +;
#X obj 321 227 -;
#X obj 375 98 / 1;
#X floatatom 431 38 5 0 0 0 - - -, f 5;
#X obj 427 62 t b b f;
#X floatatom 429 120 5 0 0 0 - - -, f 5;
#X obj 239 224 t f f;
#X obj 232 168 t f f;
#X obj 367 65 * 0.61;
#X obj 317 70 * 0.61;
#X obj 319 92 / 36;
#X obj 189 77 * 0.61;
#X floatatom 157 93 5 0 0 0 - - -, f 5;
#X obj 332 324 print;
#X obj 66 260 list;
#X obj 53 234 t b f;
#X obj 66 282 unpack f f f f f f f f;
#X obj 67 339 pack f f f f f f f f;
#X obj 66 310 +;
#X obj 98 310 +;
#X obj 133 310 +;
#X obj 165 310 +;
#X floatatom 44 207 5 0 0 0 - - -, f 5;
#X floatatom 37 365 5 0 0 0 - - -, f 5;
#X floatatom 291 327 5 0 0 0 - - -, f 5;
#X msg 185 376 \$1 0 1 0 1 1 \$1 1;
#X obj 46 89 pack f f;
#X msg 43 124 \$1 \$1 \$2 \$2;
#X obj 97 60 t b f;
#X msg 57 174 \$3 \$2 \$1 \$2 \$1 \$4 \$3 \$4;
#X msg 91 148 0.7 0.7 0 0;
#X floatatom 118 33 5 0 0 0 - - -, f 5;
#X connect 1 0 0 0;
#X connect 2 0 4 0;
#X connect 2 0 30 0;
#X connect 3 0 5 0;
#X connect 3 0 18 0;
#X connect 6 0 0 0;
#X connect 7 0 25 0;
#X connect 8 0 6 2;
#X connect 8 0 6 4;
#X connect 9 0 10 0;
#X connect 10 0 11 0;
#X connect 11 0 26 0;
#X connect 11 1 19 0;
#X connect 11 1 20 0;
#X connect 11 2 7 1;
#X connect 11 2 8 1;
#X connect 11 3 19 1;
#X connect 11 3 20 1;
#X connect 12 0 13 0;
#X connect 12 0 24 0;
#X connect 13 0 27 0;
#X connect 13 0 28 0;
#X connect 14 0 13 0;
#X connect 15 0 16 0;
#X connect 16 0 17 0;
#X connect 17 0 45 0;
#X connect 18 0 10 1;
#X connect 19 0 6 1;
#X connect 19 0 6 3;
#X connect 20 0 6 5;
#X connect 20 0 6 7;
#X connect 21 0 10 3;
#X connect 22 0 23 0;
#X connect 23 0 10 0;
#X connect 23 1 13 0;
#X connect 23 2 27 1;
#X connect 25 0 6 0;
#X connect 25 1 6 6;
#X connect 26 0 7 0;
#X connect 26 1 8 0;
#X connect 27 0 21 0;
#X connect 28 0 29 0;
#X connect 29 0 10 2;
#X connect 30 0 10 0;
#X connect 31 0 10 0;
#X connect 33 0 35 0;
#X connect 34 0 33 0;
#X connect 34 1 37 1;
#X connect 34 1 40 1;
#X connect 35 0 37 0;
#X connect 35 1 36 1;
#X connect 35 2 38 0;
#X connect 35 3 36 3;
#X connect 35 4 39 0;
#X connect 35 5 36 5;
#X connect 35 6 40 0;
#X connect 35 7 36 7;
#X connect 36 0 0 0;
#X connect 37 0 36 0;
#X connect 37 0 42 0;
#X connect 38 0 36 2;
#X connect 39 0 36 4;
#X connect 40 0 36 6;
#X connect 41 0 34 0;
#X connect 43 0 44 0;
#X connect 44 0 0 0;
#X connect 45 0 46 0;
#X connect 46 0 48 0;
#X connect 47 0 45 0;
#X connect 47 1 45 1;
#X connect 48 0 0 0;
#X connect 48 0 33 1;
#X connect 49 0 48 0;
#X connect 50 0 47 0;
#X restore 493 408 pd coords;
#X obj 95 391 pix_texture;
#X obj 345 380 t a;
#X obj 345 432 t a;
#X obj 412 431 pix_coordinate;
#X obj 95 363 posGemInertia \$0;
#X obj 196 256 tabwrite PVJ-projsPos;
#X obj 220 227 pack f \$1;
#X msg 447 75 1;
#X obj 447 97 t f f;
#X obj 447 119 * -1;
#X obj 412 53 loadbang;
#X msg 410 76 0.15;
#X obj 629 631 cube 1.28;
#X obj 449 142 pack f f f;
#X obj 498 119 * 2;
#X msg 448 163 perspec \$1 \$2 \$1 \$2 \$3 20;
#X obj 343 332 translateXYZ 0 0 -6;
#X floatatom 494 598 5 0 0 0 - - -, f 5;
#X obj 388 573 sphere -2.66 30;
#X floatatom 479 502 5 0 0 0 - - -, f 5;
#X obj 410 529 square 2.13;
#X obj 194 288 hsl 128 15 0 1 0 0 empty empty empty -2 -8 0 10 -262144
-1 -1 0 1;
#X obj 188 316 r \$0-alpha;
#X connect 1 0 2 0;
#X connect 2 0 3 0;
#X connect 2 1 3 0;
#X connect 14 0 15 0;
#X connect 15 0 13 0;
#X connect 25 0 26 0;
#X connect 26 0 9 0;
#X connect 26 0 10 0;
#X connect 26 0 11 0;
#X connect 26 0 12 0;
#X connect 27 0 38 0;
#X connect 28 0 46 0;
#X connect 28 1 60 0;
#X connect 28 2 63 0;
#X connect 28 3 109 0;
#X connect 28 4 58 0;
#X connect 30 0 72 0;
#X connect 32 0 28 1;
#X connect 33 0 45 0;
#X connect 34 0 51 0;
#X connect 35 0 34 0;
#X connect 37 0 93 0;
#X connect 38 0 54 0;
#X connect 39 0 51 0;
#X connect 40 0 51 0;
#X connect 41 0 40 0;
#X connect 42 0 51 0;
#X connect 43 0 36 1;
#X connect 44 0 33 0;
#X connect 45 0 51 0;
#X connect 48 0 28 0;
#X connect 49 0 47 1;
#X connect 50 0 60 1;
#X connect 51 0 55 0;
#X connect 51 1 89 1;
#X connect 52 0 63 1;
#X connect 53 0 63 2;
#X connect 54 0 37 0;
#X connect 55 0 105 0;
#X connect 56 0 105 3;
#X connect 57 0 51 0;
#X connect 58 0 101 0;
#X connect 59 0 58 1;
#X connect 60 0 47 0;
#X connect 61 0 63 3;
#X connect 62 0 63 3;
#X connect 63 0 107 0;
#X connect 64 0 62 0;
#X connect 65 0 101 1;
#X connect 68 0 69 0;
#X connect 69 0 70 0;
#X connect 70 0 73 0;
#X connect 72 0 31 0;
#X connect 72 0 95 0;
#X connect 73 0 71 0;
#X connect 74 0 90 0;
#X connect 75 0 82 0;
#X connect 76 0 80 1;
#X connect 77 0 64 0;
#X connect 78 0 58 2;
#X connect 78 0 59 0;
#X connect 79 0 48 1;
#X connect 80 0 36 1;
#X connect 82 1 44 0;
#X connect 82 2 80 0;
#X connect 82 3 81 0;
#X connect 83 0 91 0;
#X connect 84 0 92 0;
#X connect 85 0 86 0;
#X connect 86 0 84 1;
#X connect 86 0 87 0;
#X connect 87 0 83 1;
#X connect 88 0 92 1;
#X connect 89 0 36 0;
#X connect 90 0 83 0;
#X connect 90 0 84 0;
#X connect 91 0 48 0;
#X connect 92 0 91 0;
#X connect 93 0 89 0;
#X connect 95 0 94 0;
#X connect 96 0 97 0;
#X connect 97 0 98 0;
#X connect 97 1 102 1;
#X connect 97 1 103 0;
#X connect 98 0 102 0;
#X connect 99 0 100 0;
#X connect 100 0 97 0;
#X connect 102 0 104 0;
#X connect 103 0 102 2;
#X connect 104 0 51 0;
#X connect 105 0 74 0;
#X connect 106 0 107 1;
#X connect 108 0 109 1;
#X connect 111 0 37 4;
#X coords 0 -1 1 1 110 100 1 100 100;
