#N canvas 479 127 964 755 10;
#X declare -lib libdir -lib ggee;
#X declare -lib libdir -lib ggee;
#X declare -lib libdir -lib ggee;
#X declare -lib libdir -lib ggee;
#X declare -lib libdir -lib ggee;
#X declare -lib libdir -lib ggee;
#X declare -lib libdir -lib ggee -stdpath ggee;
#X declare -lib libdir -lib ggee -stdpath ggee;
#X declare -lib Gem;
#X declare -lib libdir -lib ggee -stdpath ggee;
#X declare -lib libdir -lib ggee -stdpath ggee;
#X declare -lib libdir -lib ggee -stdpath ggee;
#X declare -lib libdir -lib ggee -stdpath ggee;
#X declare -lib libdir -lib iemlib -lib iemlib/iemlib2;
#X declare -lib libdir -lib ggee -stdpath ggee;
#X declare -lib libdir -lib ggee -stdpath ggee;
#X declare -lib libdir -lib ggee -stdpath ggee;
#X declare -lib libdir -lib ggee -stdpath ggee;
#X declare -lib libdir -lib ggee -stdpath ggee;
#X declare -lib libdir -lib ggee -stdpath ggee;
#X declare -lib libdir -lib ggee -stdpath ggee;
#X declare -lib libdir -lib ggee -stdpath ggee;
#X declare -lib libdir -lib ggee -stdpath ggee;
#X declare -lib libdir -lib ggee -stdpath ggee;
#X declare -lib libdir -lib ggee -stdpath ggee;
#X declare -lib libdir -lib ggee -stdpath ggee;
#X declare -lib libdir -lib ggee -stdpath ggee;
#X declare -lib libdir -lib ggee -stdpath ggee;
#X declare -lib libdir -lib ggee -stdpath ggee;
#X declare -lib libdir -lib ggee -stdpath ggee;
#X declare -lib libdir -lib ggee -stdpath ggee;
#X declare -lib libdir -lib ggee -stdpath ggee;
#X declare -lib libdir -lib ggee -stdpath ggee;
#X declare -lib libdir -lib ggee -stdpath ggee;
#X declare -lib libdir -lib ggee -stdpath ggee;
#X declare -lib libdir -lib ggee -stdpath ggee;
#X declare -lib libdir -lib ggee -stdpath ggee;
#X declare -lib libdir -lib ggee -stdpath ggee;
#X declare -lib libdir -lib ggee -stdpath ggee;
#X declare -lib libdir -lib ggee -stdpath ggee;
#X declare -lib libdir -lib ggee -stdpath ggee;
#X declare -lib libdir -lib ggee -stdpath ggee;
#X declare -lib libdir -lib ggee -stdpath ggee;
#X declare -lib libdir -lib ggee -stdpath ggee;
#X declare -lib libdir -lib ggee -stdpath ggee;
#X declare -lib libdir -lib ggee -stdpath ggee;
#X declare -lib libdir -lib ggee -stdpath ggee;
#X declare -lib libdir -lib ggee -stdpath ggee;
#X declare -lib libdir -lib ggee -stdpath ggee;
#X declare -lib libdir -lib ggee -stdpath ggee;
#X declare -lib libdir -lib ggee -stdpath ggee;
#X declare -lib libdir -lib ggee -stdpath ggee;
#X declare -lib libdir -lib ggee -stdpath ggee;
#X declare -lib libdir -lib ggee -stdpath ggee;
#X declare -lib libdir -lib ggee -stdpath ggee;
#X declare -lib libdir -lib ggee -stdpath ggee;
#X declare -lib libdir -lib ggee -stdpath ggee;
#X declare -lib libdir -lib ggee -stdpath ggee;
#X declare -lib libdir -lib ggee -stdpath ggee;
#X declare -lib libdir -lib ggee -stdpath ggee;
#X declare -lib libdir -lib ggee -stdpath ggee;
#X declare -lib libdir -lib ggee -stdpath ggee;
#X declare -lib libdir -lib ggee -stdpath ggee;
#X declare -lib libdir -lib ggee -stdpath ggee;
#X declare -lib libdir -lib ggee -stdpath ggee;
#X declare -lib libdir -lib ggee -stdpath ggee;
#X declare -lib libdir -lib ggee -stdpath ggee;
#X declare -lib libdir -lib ggee -stdpath ggee;
#X declare -lib libdir -lib ggee -stdpath ggee;
#X declare -lib libdir -lib ggee -stdpath ggee;
#X declare -lib libdir -lib ggee -stdpath ggee;
#X declare -lib libdir -lib ggee -stdpath ggee;
#X declare -lib libdir -lib ggee -stdpath ggee;
#X declare -lib libdir -lib ggee -stdpath ggee;
#X declare -lib libdir -lib ggee -stdpath ggee;
#X declare -lib libdir -lib ggee -stdpath ggee;
#X declare -lib libdir -lib ggee -stdpath ggee;
#X declare -lib libdir -lib ggee -stdpath ggee;
#X declare -lib libdir -lib ggee -stdpath ggee;
#X declare -lib libdir -lib ggee -stdpath ggee;
#X declare -lib libdir -lib ggee -stdpath ggee;
#X declare -lib libdir -lib ggee -stdpath ggee;
#X declare -lib libdir -lib ggee -stdpath ggee;
#X declare -lib libdir -lib ggee -stdpath ggee;
#X declare -lib libdir -lib ggee -stdpath ggee;
#X declare -lib libdir -lib ggee -stdpath ggee;
#X declare -lib libdir -lib ggee -stdpath ggee;
#X declare -lib libdir -lib ggee -stdpath ggee;
#X declare -lib libdir -lib ggee -stdpath ggee;
#X declare -lib libdir -lib ggee -stdpath ggee;
#X declare -lib libdir -lib ggee -stdpath ggee;
#X declare -lib libdir -lib ggee -stdpath ggee;
#X declare -lib libdir -lib ggee -stdpath ggee;
#X declare -lib libdir -lib ggee -stdpath ggee;
#X declare -lib libdir -lib ggee -stdpath ggee;
#X declare -lib libdir -lib ggee -stdpath ggee;
#X declare -lib libdir -lib ggee -stdpath ggee;
#X declare -lib libdir -lib ggee -stdpath ggee;
#X declare -lib libdir -lib ggee -stdpath ggee;
#X declare -lib libdir -lib ggee -stdpath ggee;
#X declare -lib libdir -lib ggee -stdpath ggee;
#X declare -lib libdir -lib ggee -stdpath ggee;
#X declare -lib libdir -lib ggee -stdpath ggee;
#X declare -lib libdir -lib ggee -stdpath ggee;
#X declare -lib libdir -lib ggee -stdpath ggee;
#X declare -lib libdir -lib ggee -stdpath ggee;
#X declare -lib libdir -lib ggee -stdpath ggee;
#X declare -lib libdir -lib ggee -stdpath ggee;
#X declare -lib libdir -lib ggee -stdpath ggee;
#X declare -lib libdir -lib ggee -stdpath ggee;
#X declare -lib libdir -lib ggee -stdpath ggee;
#X declare -lib libdir -lib ggee -stdpath ggee;
#X declare -lib libdir -lib ggee -stdpath ggee;
#X declare -lib libdir -lib ggee -stdpath ggee;
#X declare -lib libdir -lib ggee -stdpath ggee;
#X declare -lib libdir -lib ggee -stdpath ggee;
#X declare -lib libdir -lib ggee -stdpath ggee;
#X declare -lib libdir -lib ggee -stdpath ggee;
#X declare -lib libdir -lib ggee -stdpath ggee;
#X declare -lib libdir -lib ggee -stdpath ggee;
#X declare -lib libdir -lib ggee -stdpath ggee;
#X declare -lib libdir -lib ggee -stdpath ggee;
#X declare -lib libdir -lib ggee -stdpath ggee;
#X declare -lib libdir -lib ggee -stdpath ggee;
#X declare -lib libdir -lib ggee -stdpath ggee;
#X declare -lib libdir -lib ggee -stdpath ggee;
#X declare -lib libdir -lib ggee -stdpath ggee;
#X declare -lib libdir -lib ggee -stdpath ggee;
#X declare -lib libdir -lib ggee -stdpath ggee;
#X declare -lib libdir -lib ggee -stdpath ggee;
#X declare -lib libdir -lib ggee -stdpath ggee;
#X declare -lib libdir -lib ggee -stdpath ggee;
#X declare -lib libdir -lib ggee -stdpath ggee;
#X declare -lib libdir -lib ggee -stdpath ggee;
#X declare -lib libdir -lib ggee -stdpath ggee;
#X declare -lib libdir -lib ggee -stdpath ggee;
#X declare -lib libdir -lib ggee -stdpath ggee;
#X declare -lib libdir -lib ggee -stdpath ggee;
#X declare -lib libdir -lib ggee -stdpath ggee;
#X declare -lib libdir -lib ggee -stdpath ggee;
#X declare -lib libdir -lib ggee -stdpath ggee;
#X declare -lib libdir -lib ggee -stdpath ggee;
#X declare -lib libdir -lib ggee -stdpath ggee;
#X declare -lib libdir -lib ggee -stdpath ggee;
#X declare -lib libdir -lib ggee -stdpath ggee;
#X declare -lib libdir -lib ggee -stdpath ggee;
#X declare -lib libdir -lib ggee -stdpath ggee;
#X declare -lib libdir -lib ggee -stdpath ggee;
#X declare -lib libdir -lib ggee -stdpath ggee;
#X declare -lib libdir -lib ggee -stdpath ggee;
#X declare -lib libdir -lib ggee -stdpath ggee;
#X declare -lib libdir -lib ggee -stdpath ggee;
#X declare -lib libdir -lib ggee -stdpath ggee;
#X declare -lib libdir -lib ggee -stdpath ggee;
#X declare -lib libdir -lib ggee -stdpath ggee;
#X declare -lib libdir -lib ggee -stdpath ggee;
#X declare -lib libdir -lib ggee -stdpath ggee;
#X declare -lib libdir -lib ggee -stdpath ggee;
#X declare -lib libdir -lib ggee -stdpath ggee;
#X declare -lib libdir -lib ggee -stdpath ggee;
#X declare -lib libdir -lib ggee -stdpath ggee;
#X declare -lib libdir -lib ggee -stdpath ggee;
#X declare -lib libdir -lib ggee -stdpath ggee;
#X declare -lib libdir -lib ggee -stdpath ggee;
#X declare -lib libdir -lib ggee -stdpath ggee;
#X declare -lib libdir -lib ggee -stdpath ggee;
#X declare -lib libdir -lib ggee -stdpath ggee;
#X declare -lib libdir -lib ggee -stdpath ggee;
#X declare -lib libdir -lib ggee -stdpath ggee;
#X declare -lib libdir -lib ggee -stdpath ggee;
#X declare -lib libdir -lib ggee -stdpath ggee;
#X declare -lib libdir -lib ggee -stdpath ggee;
#X declare -lib libdir -lib ggee -stdpath ggee;
#X declare -lib libdir -lib ggee -stdpath ggee;
#X declare -lib libdir -lib ggee -stdpath ggee;
#X declare -lib libdir -lib ggee -stdpath ggee;
#X declare -lib libdir -lib ggee -stdpath ggee;
#X declare -lib libdir -lib ggee -stdpath ggee;
#X declare -lib libdir -lib ggee -stdpath ggee;
#X declare -lib libdir -lib ggee -stdpath ggee;
#X declare -lib libdir -lib ggee -stdpath ggee;
#X declare -lib libdir -lib ggee -stdpath ggee;
#X declare -lib libdir -lib ggee -stdpath ggee;
#X declare -lib libdir -lib ggee -stdpath ggee;
#X declare -lib libdir -lib ggee -stdpath ggee;
#X declare -lib libdir -lib ggee -stdpath ggee;
#X declare -lib libdir -lib ggee -stdpath ggee;
#X declare -lib libdir -lib ggee -stdpath ggee;
#X declare -lib libdir -lib ggee -stdpath ggee;
#X declare -lib libdir -lib ggee -stdpath ggee;
#X declare -lib libdir -lib ggee -stdpath ggee;
#X declare -lib libdir -lib ggee -stdpath ggee;
#X declare -lib libdir -lib ggee -stdpath ggee;
#X declare -lib libdir -lib ggee -stdpath ggee;
#X declare -lib libdir -lib ggee -stdpath ggee;
#X declare -lib libdir -lib ggee -stdpath ggee;
#X declare -lib libdir -lib ggee -stdpath ggee;
#X declare -lib libdir -lib ggee -stdpath ggee;
#X declare -lib libdir -lib ggee -stdpath ggee;
#X declare -lib libdir -lib ggee -stdpath ggee;
#X declare -lib libdir -lib ggee -stdpath ggee;
#X declare -lib libdir -lib ggee -stdpath ggee;
#X declare -lib libdir -lib ggee -stdpath ggee;
#X declare -lib libdir -lib ggee -stdpath ggee;
#X declare -lib libdir -lib ggee -stdpath ggee;
#X declare -lib libdir -lib ggee -stdpath ggee;
#X declare -lib libdir -lib ggee -stdpath ggee;
#X declare -lib libdir -lib ggee -stdpath ggee;
#X declare -lib libdir -lib ggee -stdpath ggee;
#X declare -lib libdir -lib ggee -stdpath ggee;
#X declare -lib libdir -lib ggee -stdpath ggee;
#X declare -lib libdir -lib ggee -stdpath ggee;
#X declare -lib libdir -lib ggee -stdpath ggee;
#X declare -lib libdir -lib ggee -stdpath ggee;
#X declare -lib libdir -lib ggee -stdpath ggee;
#X declare -lib libdir -lib ggee -stdpath ggee;
#X declare -lib libdir -lib ggee -stdpath ggee;
#X declare -lib libdir -lib ggee -stdpath ggee;
#X declare -lib libdir -lib ggee -stdpath ggee;
#X declare -lib libdir -lib ggee -stdpath ggee;
#X declare -lib libdir -lib ggee -stdpath ggee;
#X declare -lib libdir -lib ggee -stdpath ggee;
#X declare -lib libdir -lib ggee -stdpath ggee;
#X declare -lib libdir -lib ggee -stdpath ggee;
#X declare -lib libdir -lib ggee -stdpath ggee;
#X declare -lib libdir -lib ggee -stdpath ggee;
#X declare -lib libdir -lib ggee -stdpath ggee;
#X declare -lib libdir -lib ggee -stdpath ggee;
#X declare -lib libdir -lib ggee -stdpath ggee;
#X declare -lib libdir -lib ggee -stdpath ggee;
#X declare -lib libdir -lib ggee -stdpath ggee;
#X declare -lib libdir -lib ggee -stdpath ggee;
#X declare -lib libdir -lib ggee -stdpath ggee;
#X declare -lib libdir -lib ggee -stdpath ggee;
#X declare -lib libdir -lib ggee -stdpath ggee;
#X declare -lib libdir -lib ggee -stdpath ggee;
#X declare -lib libdir -lib ggee -stdpath ggee;
#X declare -lib libdir -lib ggee -stdpath ggee;
#X declare -lib libdir -lib ggee -stdpath ggee;
#X declare -lib libdir -lib ggee -stdpath ggee;
#X declare -lib libdir -lib ggee -stdpath ggee;
#X declare -lib libdir -lib ggee -stdpath ggee;
#X declare -lib libdir -lib ggee -stdpath ggee;
#X declare -lib libdir -lib ggee -stdpath ggee;
#X declare -lib libdir -lib ggee -stdpath ggee;
#X declare -lib libdir -lib ggee -stdpath ggee;
#X declare -lib libdir -lib ggee -stdpath ggee;
#X declare -lib libdir -lib ggee -stdpath ggee;
#X declare -lib libdir -lib ggee -stdpath ggee;
#X declare -lib libdir -lib ggee -stdpath ggee;
#X declare -lib libdir -lib ggee -stdpath ggee;
#X declare -lib libdir -lib ggee -stdpath ggee;
#X declare -lib libdir -lib ggee -stdpath ggee;
#X declare -lib libdir -lib ggee -stdpath ggee;
#X declare -lib libdir -lib ggee -stdpath ggee;
#X declare -lib libdir -lib ggee -stdpath ggee;
#X declare -lib libdir -lib ggee -stdpath ggee;
#X declare -lib libdir -lib ggee -stdpath ggee;
#X declare -lib libdir -lib ggee -stdpath ggee;
#X declare -lib libdir -lib ggee -stdpath ggee;
#X declare -lib libdir -lib ggee -stdpath ggee;
#X declare -lib libdir -lib ggee -stdpath ggee;
#X declare -lib libdir -lib ggee -stdpath ggee;
#X declare -lib libdir -lib ggee -stdpath ggee;
#X declare -lib libdir -lib ggee -stdpath ggee;
#X declare -lib libdir -lib ggee -stdpath ggee;
#X declare -lib libdir -lib ggee -stdpath ggee;
#X declare -lib libdir -lib ggee -stdpath ggee;
#X declare -lib libdir -lib ggee -stdpath ggee;
#X declare -lib libdir -lib ggee -stdpath ggee;
#X declare -lib libdir -lib ggee -stdpath ggee;
#X declare -lib libdir -lib ggee -stdpath ggee;
#X declare -lib libdir -lib ggee -stdpath ggee;
#X declare -lib libdir -lib ggee -stdpath ggee;
#X declare -lib libdir -lib ggee -stdpath ggee;
#X declare -lib libdir -lib ggee -stdpath ggee;
#X declare -lib libdir -lib ggee -stdpath ggee;
#X declare -lib libdir -lib ggee -stdpath ggee;
#X declare -lib libdir -lib ggee -stdpath ggee;
#X declare -lib libdir -lib ggee -stdpath ggee;
#X declare -lib libdir -lib ggee -stdpath ggee;
#X declare -lib libdir -lib ggee -stdpath ggee;
#X declare -lib libdir -lib ggee -stdpath ggee;
#X declare -lib libdir -lib ggee -stdpath ggee;
#X declare -lib libdir -lib ggee -stdpath ggee;
#X declare -lib libdir -lib ggee -stdpath ggee;
#X declare -lib libdir -lib ggee -stdpath ggee;
#X declare -lib libdir -lib ggee -stdpath ggee;
#X declare -lib libdir -lib ggee -stdpath ggee;
#X declare -lib libdir -lib ggee -stdpath ggee;
#X declare -lib libdir -lib ggee -stdpath ggee;
#X declare -lib libdir -lib ggee -stdpath ggee;
#X declare -lib libdir -lib ggee -stdpath ggee;
#X declare -lib libdir -lib ggee -stdpath ggee;
#X declare -lib libdir -lib ggee -stdpath ggee;
#X declare -lib libdir -lib ggee -stdpath ggee;
#X declare -lib libdir -lib ggee -stdpath ggee;
#X declare -lib libdir -lib ggee -stdpath ggee;
#X declare -lib libdir -lib ggee -stdpath ggee;
#X declare -lib libdir -lib ggee -stdpath ggee;
#X declare -lib libdir -lib ggee -stdpath ggee;
#X declare -lib libdir -lib ggee -stdpath ggee;
#X declare -lib libdir -lib ggee -stdpath ggee;
#X declare -lib libdir -lib ggee -stdpath ggee;
#X declare -lib libdir -lib ggee -stdpath ggee;
#X declare -lib libdir -lib ggee -stdpath ggee;
#X declare -lib libdir -lib ggee -stdpath ggee;
#X declare -lib libdir -lib ggee -stdpath ggee;
#X declare -lib libdir -lib ggee -stdpath ggee;
#X declare -lib libdir -lib ggee -stdpath ggee;
#X declare -lib libdir -lib ggee -stdpath ggee;
#X declare -lib libdir -lib ggee -stdpath ggee;
#X declare -lib libdir -lib ggee -stdpath ggee;
#X declare -lib libdir -lib ggee -stdpath ggee;
#X declare -lib libdir -lib ggee -stdpath ggee;
#X declare -lib libdir -lib ggee -stdpath ggee;
#X declare -lib libdir -lib ggee -stdpath ggee;
#X declare -lib libdir -lib ggee -stdpath ggee;
#X declare -lib libdir -lib ggee -stdpath ggee;
#X declare -lib libdir -lib ggee -stdpath ggee;
#X declare -lib libdir -lib ggee -stdpath ggee;
#X declare -lib libdir -lib ggee -stdpath ggee;
#X declare -lib libdir -lib ggee -stdpath ggee;
#X declare -lib libdir -lib ggee -stdpath ggee;
#X declare -lib libdir -lib ggee -stdpath ggee;
#X declare -lib libdir -lib ggee -stdpath ggee;
#X declare -lib libdir -lib ggee -stdpath ggee;
#X declare -lib libdir -lib ggee -stdpath ggee;
#X declare -lib libdir -lib ggee -stdpath ggee;
#X declare -lib libdir -lib ggee -stdpath ggee;
#X declare -lib libdir -lib ggee -stdpath ggee;
#X declare -lib libdir -lib ggee -stdpath ggee;
#X declare -lib libdir -lib ggee -stdpath ggee;
#X declare -lib libdir -lib ggee -stdpath ggee;
#X declare -lib libdir -lib ggee -stdpath ggee;
#X declare -lib libdir -lib ggee -stdpath ggee;
#X declare -lib libdir -lib ggee -stdpath ggee;
#X declare -lib libdir -lib ggee -stdpath ggee;
#X declare -lib libdir -lib ggee -stdpath ggee;
#X declare -lib libdir -lib ggee -stdpath ggee;
#X declare -lib libdir -lib ggee -stdpath ggee;
#X declare -lib libdir -lib ggee -stdpath ggee;
#X declare -lib libdir -lib ggee -stdpath ggee;
#X declare -lib libdir -lib ggee -stdpath ggee;
#X declare -lib libdir -lib ggee -stdpath ggee;
#X declare -lib libdir -lib ggee -stdpath ggee;
#X declare -lib libdir -lib ggee -stdpath ggee;
#X declare -lib libdir -lib ggee -stdpath ggee;
#X declare -lib libdir -lib ggee -stdpath ggee;
#X declare -lib libdir -lib ggee -stdpath ggee;
#X declare -lib libdir -lib ggee -stdpath ggee;
#X declare -lib libdir -lib ggee -stdpath ggee;
#X declare -lib libdir -lib ggee -stdpath ggee;
#X declare -lib libdir -lib ggee -stdpath ggee;
#X declare -lib libdir -lib ggee -stdpath ggee;
#X declare -lib libdir -lib ggee -stdpath ggee;
#X declare -lib libdir -lib ggee -stdpath ggee;
#X declare -lib libdir -lib ggee -stdpath ggee;
#X declare -lib libdir -lib ggee -stdpath ggee;
#X declare -lib libdir -lib ggee -stdpath ggee;
#X declare -lib libdir -lib ggee -stdpath ggee;
#X declare -lib libdir -lib ggee -stdpath ggee;
#X declare -lib libdir -lib ggee -stdpath ggee;
#X declare -lib libdir -lib ggee -stdpath ggee;
#X declare -lib libdir -lib ggee -stdpath ggee;
#X declare -lib libdir -lib ggee -stdpath ggee;
#X declare -lib libdir -lib ggee -stdpath ggee;
#X declare -lib libdir -lib ggee -stdpath ggee;
#X declare -lib libdir -lib ggee -stdpath ggee;
#X declare -lib libdir -lib ggee -stdpath ggee;
#X declare -lib libdir -lib ggee -stdpath ggee;
#X declare -lib libdir -lib ggee -stdpath ggee;
#X declare -lib libdir -lib ggee -stdpath ggee;
#X declare -lib libdir -lib ggee -stdpath ggee;
#X declare -lib libdir -lib ggee -stdpath ggee;
#X declare -lib libdir -lib ggee -stdpath ggee;
#X declare -lib libdir -lib ggee -stdpath ggee;
#X declare -lib libdir -lib ggee -stdpath ggee;
#X declare -lib libdir -lib ggee -stdpath ggee;
#X declare -lib libdir -lib ggee -stdpath ggee;
#X declare -lib libdir -lib ggee -stdpath ggee;
#X declare -lib libdir -lib ggee -stdpath ggee;
#X declare -lib libdir -lib ggee -stdpath ggee;
#X declare -lib libdir -lib ggee -stdpath ggee;
#X declare -lib libdir -lib ggee -stdpath ggee;
#X declare -lib libdir -lib ggee -stdpath ggee;
#X declare -lib libdir -lib ggee -stdpath ggee;
#X declare -lib libdir -lib ggee -stdpath ggee;
#X declare -lib libdir -lib ggee -stdpath ggee;
#X declare -lib libdir -lib ggee -stdpath ggee;
#X declare -lib libdir -lib ggee -stdpath ggee;
#X declare -lib libdir -lib ggee -stdpath ggee;
#X declare -lib libdir -lib ggee -stdpath ggee;
#X declare -lib libdir -lib ggee -stdpath ggee;
#X declare -lib libdir -lib ggee -stdpath ggee;
#X declare -lib libdir -lib ggee -stdpath ggee;
#X declare -lib libdir -lib ggee -stdpath ggee;
#X declare -lib libdir -lib ggee -stdpath ggee;
#X declare -lib libdir -lib ggee -stdpath ggee;
#X declare -lib libdir -lib ggee -stdpath ggee;
#X declare -lib libdir -lib ggee -stdpath ggee;
#X declare -lib libdir -lib ggee -stdpath ggee;
#X declare -lib libdir -lib ggee -stdpath ggee;
#X declare -lib libdir -lib ggee -stdpath ggee;
#X declare -lib libdir -lib ggee -stdpath ggee;
#X declare -lib libdir -lib ggee -stdpath ggee;
#X declare -lib libdir -lib ggee -stdpath ggee;
#X declare -lib libdir -lib ggee -stdpath ggee;
#X declare -lib libdir -lib ggee -stdpath ggee;
#X declare -lib libdir -lib ggee -stdpath ggee;
#X declare -lib libdir -lib ggee -stdpath ggee;
#X declare -lib libdir -lib ggee -stdpath ggee;
#X declare -lib libdir -lib ggee -stdpath ggee;
#X declare -lib libdir -lib ggee -stdpath ggee;
#X declare -lib libdir -lib ggee -stdpath ggee;
#X declare -lib libdir -lib ggee -stdpath ggee;
#X declare -lib libdir -lib ggee -stdpath ggee;
#X declare -lib libdir -lib ggee -stdpath ggee;
#X declare -lib libdir -lib ggee -stdpath ggee;
#X declare -lib libdir -lib ggee -stdpath ggee;
#X declare -lib libdir -lib ggee -stdpath ggee;
#X declare -lib libdir -lib ggee -stdpath ggee;
#X declare -lib libdir -lib ggee -stdpath ggee;
#X declare -lib libdir -lib ggee -stdpath ggee;
#X declare -lib libdir -lib ggee -stdpath ggee;
#X declare -lib libdir -lib ggee -stdpath ggee;
#X declare -lib libdir -lib ggee -stdpath ggee;
#X declare -lib libdir -lib ggee -stdpath ggee;
#X declare -lib libdir -lib ggee -stdpath ggee;
#X declare -lib libdir -lib ggee -stdpath ggee;
#X declare -lib libdir -lib ggee -stdpath ggee;
#X declare -lib libdir -lib ggee -stdpath ggee;
#X declare -lib libdir -lib ggee -stdpath ggee;
#X declare -lib libdir -lib ggee -stdpath ggee;
#X declare -lib libdir -lib ggee -stdpath ggee;
#X declare -lib libdir -lib ggee -stdpath ggee;
#X declare -lib libdir -lib ggee -stdpath ggee;
#X declare -lib libdir -lib ggee -stdpath ggee;
#X declare -lib libdir -lib ggee -stdpath ggee;
#X declare -lib libdir -lib ggee -stdpath ggee;
#X declare -lib libdir -lib ggee -stdpath ggee;
#X declare -lib libdir -lib ggee -stdpath ggee;
#X declare -lib libdir -lib ggee -stdpath ggee;
#X declare -lib libdir -lib ggee -stdpath ggee;
#X declare -lib libdir -lib ggee -stdpath ggee;
#X declare -lib libdir -lib ggee -stdpath ggee;
#X declare -lib libdir -lib ggee -stdpath ggee;
#X declare -lib libdir -lib ggee -stdpath ggee;
#X declare -lib libdir -lib ggee -stdpath ggee;
#X declare -lib libdir -lib ggee -stdpath ggee;
#X declare -lib libdir -lib ggee -stdpath ggee;
#X declare -lib libdir -lib ggee -stdpath ggee;
#X declare -lib libdir -lib ggee -stdpath ggee;
#X declare -lib libdir -lib ggee -stdpath ggee;
#X declare -lib libdir -lib ggee -stdpath ggee;
#X declare -lib libdir -lib ggee -stdpath ggee;
#X declare -lib libdir -lib ggee -stdpath ggee;
#X declare -lib libdir -lib ggee -stdpath ggee;
#X declare -lib libdir -lib ggee -stdpath ggee;
#X declare -lib libdir -lib ggee -stdpath ggee;
#X declare -lib libdir -lib ggee -stdpath ggee;
#X declare -lib libdir -lib ggee -stdpath ggee;
#X declare -lib libdir -lib ggee -stdpath ggee;
#X declare -lib libdir -lib ggee -stdpath ggee;
#X declare -lib libdir -lib ggee -stdpath ggee;
#X declare -lib libdir -lib ggee -stdpath ggee;
#X declare -lib libdir -lib ggee -stdpath ggee;
#X declare -lib libdir -lib ggee -stdpath ggee;
#X declare -lib libdir -lib ggee -stdpath ggee;
#X declare -lib libdir -lib ggee -stdpath ggee;
#X declare -lib libdir -lib ggee -stdpath ggee;
#X declare -lib libdir -lib ggee -stdpath ggee;
#X declare -lib libdir -lib ggee -stdpath ggee;
#X declare -lib libdir -lib ggee -stdpath ggee;
#X declare -lib libdir -lib ggee -stdpath ggee;
#X declare -lib libdir -lib ggee -stdpath ggee;
#X declare -lib libdir -lib ggee -stdpath ggee;
#X declare -lib libdir -lib ggee -stdpath ggee;
#X declare -lib libdir -lib ggee -stdpath ggee;
#X declare -lib libdir -lib ggee -stdpath ggee;
#X declare -lib libdir -lib ggee -stdpath ggee;
#X declare -lib libdir -lib ggee -stdpath ggee;
#X declare -lib libdir -lib ggee -stdpath ggee;
#X declare -lib libdir -lib ggee -stdpath ggee;
#X declare -lib libdir -lib ggee -stdpath ggee;
#X declare -lib libdir -lib ggee -stdpath ggee;
#X declare -lib libdir -lib ggee -stdpath ggee;
#X declare -lib libdir -lib ggee -stdpath ggee;
#X declare -lib libdir -lib ggee -stdpath ggee;
#X declare -lib libdir -lib ggee -stdpath ggee;
#X declare -lib libdir -lib ggee -stdpath ggee;
#X declare -lib libdir -lib ggee -stdpath ggee;
#X declare -lib libdir -lib ggee -stdpath ggee;
#X declare -lib libdir -lib ggee -stdpath ggee;
#X declare -lib libdir -lib ggee -stdpath ggee;
#X declare -lib libdir -lib ggee -stdpath ggee;
#X declare -lib libdir -lib ggee -stdpath ggee;
#X declare -lib libdir -lib ggee -stdpath ggee;
#X declare -lib libdir -lib ggee -stdpath ggee;
#X declare -lib libdir -lib ggee -stdpath ggee;
#X declare -lib libdir -lib ggee -stdpath ggee;
#X declare -lib libdir -lib ggee -stdpath ggee;
#X declare -lib libdir -lib ggee -stdpath ggee;
#X declare -lib libdir -lib ggee -stdpath ggee;
#X declare -lib libdir -lib ggee -stdpath ggee;
#X declare -lib libdir -lib ggee -stdpath ggee;
#X declare -lib libdir -lib ggee -stdpath ggee;
#X declare -lib libdir -lib ggee -stdpath ggee;
#X declare -lib libdir -lib ggee -stdpath ggee;
#X declare -lib libdir -lib ggee -stdpath ggee;
#X declare -lib libdir -lib ggee -stdpath ggee;
#X declare -lib libdir -lib ggee -stdpath ggee;
#X declare -lib libdir -lib ggee -stdpath ggee;
#X declare -lib libdir -lib ggee -stdpath ggee;
#X declare -lib libdir -lib ggee -stdpath ggee;
#X declare -lib libdir -lib ggee -stdpath ggee;
#X declare -lib libdir -lib ggee -stdpath ggee;
#X declare -lib libdir -lib ggee -stdpath ggee;
#X declare -lib libdir -lib ggee -stdpath ggee;
#X declare -lib libdir -lib ggee -stdpath ggee;
#X declare -lib libdir -lib ggee -stdpath ggee;
#X declare -lib libdir -lib ggee -stdpath ggee;
#X declare -lib libdir -lib ggee -stdpath ggee;
#X declare -lib libdir -lib ggee -stdpath ggee;
#X declare -lib libdir -lib ggee -stdpath ggee;
#X declare -lib libdir -lib ggee -stdpath ggee;
#X declare -lib libdir -lib ggee -stdpath ggee;
#X declare -lib Gem -path extended_view_toolkit/ -path extended_view_toolkit/data
-path extended_view_toolkit/ev-in -path extended_view_toolkit/ev-main
-path extended_view_toolkit/ev-pano -path extended_view_toolkit/ev-pro
-path extended_view_toolkit/libs/gil -path extended_view_toolkit/libs/kollabs
-path extended_view_toolkit/media -path extended_view_toolkit/ev-glsl
;
#X obj 32 85 PosTabs;
#X obj 93 10 apmaster PVJprojs;
#X obj 32 59 apmasterfile PVJprojs projs.txt;
#X obj 32 42 bng 15 250 50 0 empty empty LOAD 17 7 0 10 -4034 -1 -1
;
#X obj 215 20 bng 15 250 50 0 empty empty SAVE 17 7 0 10 -258113 -1
-1;
#X obj 489 11 declare -lib Gem;
#X obj 32 106 PosNum;
#X obj 684 40 Holes;
#X obj 497 80 tgl 30 0 FULLSCREEN FULLSCREEN FULLSCREEN 0 -7 0 10 -4032
-1 -1 0 1;
#X obj 32 2 loadbang;
#X obj 32 24 del 500;
#N canvas 350 225 921 603 setprojs 0;
#X obj 196 340 s PVJ-projs-rcv;
#X msg 218 136 1 media fb 10;
#X msg 188 109 1 media img 2;
#X msg 166 85 1 media img 1;
#X msg 221 173 1 media film 1;
#X msg 73 148 -1 initpos;
#X msg 102 60 -1 media img 2;
#X msg 202 57 1 rot \$1;
#X floatatom 201 37 5 0 0 0 - - -, f 5;
#X msg 291 55 -1 shape \$1;
#X obj 291 33 hradio 15 1 0 8 empty empty empty 0 -8 0 10 -262144 -1
-1 0;
#X obj 325 138 hsl 128 15 0 1 0 0 empty empty empty -2 -8 0 10 -262144
-1 -1 0 1;
#X msg 322 159 -1 alpha \$1;
#X msg 337 247 -1 color 1 0 0;
#X obj 591 462 s PVJprojs-pattern-snd;
#X obj 500 345 hsl 128 15 0 5 0 0 empty empty empty -2 -8 0 10 -262144
-1 -1 0 1;
#X msg 497 365 _all_ load \$1;
#X msg 660 354 A 0 \, B 3;
#X obj 648 394 list prepend _all_;
#X obj 648 416 list trim;
#X obj 631 291 hsl 128 15 0 1 0 0 empty empty empty -2 -8 0 10 -262144
-1 -1 0 1;
#X msg 628 311 pos \$1;
#X msg 650 333 A 0 \, B 1;
#X msg 675 374 A 2 \, B 1;
#X msg 328 205 -1 color 1 1 1 \, -1 alpha 1 \, -1 initpos \, -1 scale
1 \, -1 shape 0 \, -1 rot2 0 \, -1 alpha2 1 \, -1 scale2 1;
#X msg 397 504 1 2 3 4 5 6;
#X floatatom 344 461 5 0 0 0 - - -, f 5;
#X msg 434 548 1000;
#X floatatom 96 481 5 0 0 0 - - -, f 5;
#X msg 180 536 10000;
#X obj 100 452 hsl 128 15 0 2 0 0 empty empty empty -2 -8 0 10 -262144
-1 -1 0 1;
#X msg 193 557 1000;
#X obj 344 507 line;
#X msg 343 482 \$1 100;
#X msg 444 569 500;
#X msg 124 512 1 2 3 4;
#X msg 196 419 1 3 5 7 9 11 13 15 17 19 21 23;
#X msg 422 527 3000;
#X msg 146 481 2 4 6 8 10 12 14 16 18 20 22;
#X msg 190 510 list;
#X msg 23 112 -1 pos 1000;
#X obj 105 558 groupScale;
#X obj 378 550 groupRot;
#X obj 458 68 t b f;
#X obj 458 91 random 8;
#X obj 458 113 + 1;
#X obj 458 135 pack f f;
#X msg 458 157 \$2 media film \$1;
#X obj 458 45 drip;
#X msg 323 93 1 \, 0 2000;
#X obj 323 115 line;
#X msg 391 92 0 \, 1 2000;
#X obj 361 320 hsl 128 15 0 180 0 0 empty empty empty -2 -8 0 10 -262144
-1 -1 0 1;
#X msg 358 341 -1 rot \$1;
#X obj 23 48 loadbang;
#X obj 23 68 b;
#X obj 26 28 bng 15 250 50 0 empty empty empty 17 7 0 10 -262144 -1
-1;
#X obj 42 90 del 500;
#X msg 458 9 1 2 3 4 5 6 7 8 9 10 11 12 13 14 15 16 17 18 19 20;
#X text 495 65 rnd films;
#X obj 588 90 t b f;
#X obj 588 113 random 8;
#X obj 588 135 + 1;
#X obj 588 157 pack f f;
#X obj 588 67 drip;
#X msg 588 38 1 2 3 4 5 6 7 8 9 10 11 12 13 14 15 16 17 18 19 20;
#X msg 588 179 \$2 media img \$1;
#X obj 630 58 r rnd-images;
#X obj 354 6 r rnd-films;
#X obj 29 270 hsl 128 15 0 1 0 0 empty empty empty -2 -8 0 10 -262144
-1 -1 0 1;
#X obj 27 247 line;
#X obj 15 212 hsl 128 15 0 1 0 0 empty empty empty -2 -8 0 10 -262144
-1 -1 0 1;
#X obj 42 344 hsl 128 15 0 1 0 0 empty empty empty -2 -8 0 10 -262144
-1 -1 0 1;
#X msg 38 369 -1 color \$1 1 \$1;
#X obj 39 395 hsl 128 15 0 1 0 0 empty empty empty -2 -8 0 10 -262144
-1 -1 0 1;
#X msg 35 420 -1 color \$1 \$1 1;
#X msg 652 119 3;
#X obj 628 85 t b f;
#X text 666 91 rnd images;
#X obj 501 55 t b f;
#X obj 503 28 r rnd-films;
#X msg 76 35 -1 media film \$1;
#X obj 63 0 hradio 10 1 0 15 empty empty empty 0 -8 0 10 -262144 -1
-1 10;
#X obj 72 13 + 1;
#X msg 337 289 -1 media film 30;
#X msg 26 291 -1 color \$1 \$1 \$1;
#X connect 1 0 0 0;
#X connect 2 0 0 0;
#X connect 3 0 0 0;
#X connect 4 0 0 0;
#X connect 5 0 0 0;
#X connect 6 0 0 0;
#X connect 7 0 0 0;
#X connect 8 0 7 0;
#X connect 9 0 0 0;
#X connect 10 0 9 0;
#X connect 11 0 12 0;
#X connect 12 0 0 0;
#X connect 13 0 0 0;
#X connect 15 0 16 0;
#X connect 16 0 14 0;
#X connect 17 0 18 0;
#X connect 18 0 19 0;
#X connect 19 0 14 0;
#X connect 20 0 21 0;
#X connect 21 0 18 0;
#X connect 22 0 18 0;
#X connect 23 0 18 0;
#X connect 24 0 0 0;
#X connect 25 0 42 1;
#X connect 26 0 33 0;
#X connect 27 0 42 2;
#X connect 28 0 41 0;
#X connect 29 0 41 2;
#X connect 30 0 28 0;
#X connect 31 0 41 2;
#X connect 32 0 42 0;
#X connect 33 0 32 0;
#X connect 34 0 42 2;
#X connect 35 0 41 1;
#X connect 36 0 41 1;
#X connect 37 0 42 2;
#X connect 38 0 41 1;
#X connect 39 0 41 1;
#X connect 40 0 0 0;
#X connect 43 0 44 0;
#X connect 43 1 46 1;
#X connect 44 0 45 0;
#X connect 45 0 46 0;
#X connect 46 0 47 0;
#X connect 47 0 0 0;
#X connect 48 0 43 0;
#X connect 49 0 50 0;
#X connect 50 0 11 0;
#X connect 51 0 50 0;
#X connect 52 0 53 0;
#X connect 53 0 0 0;
#X connect 54 0 55 0;
#X connect 55 0 40 0;
#X connect 55 0 57 0;
#X connect 56 0 55 0;
#X connect 57 0 5 0;
#X connect 58 0 48 0;
#X connect 60 0 61 0;
#X connect 60 1 63 1;
#X connect 61 0 62 0;
#X connect 62 0 63 0;
#X connect 63 0 66 0;
#X connect 64 0 60 0;
#X connect 65 0 64 0;
#X connect 66 0 0 0;
#X connect 67 0 77 0;
#X connect 68 0 58 0;
#X connect 69 0 85 0;
#X connect 70 0 69 0;
#X connect 71 0 70 0;
#X connect 72 0 73 0;
#X connect 73 0 0 0;
#X connect 74 0 75 0;
#X connect 75 0 0 0;
#X connect 76 0 61 1;
#X connect 77 0 65 0;
#X connect 77 1 61 1;
#X connect 79 0 58 0;
#X connect 79 1 44 1;
#X connect 80 0 79 0;
#X connect 81 0 0 0;
#X connect 82 0 83 0;
#X connect 83 0 81 0;
#X connect 84 0 0 0;
#X connect 85 0 0 0;
#X restore 105 84 pd setprojs;
#X obj 781 121 s PVJprojs-pattern-snd;
#N canvas 65 458 473 318 scene 0;
#X obj 27 67 api SCENE PVJprojs-pattern PVJprojs-patternButton 1;
#X obj 27 29 tgl 15 0 empty empty empty 17 7 0 10 -262144 -1 -1 0 1
;
#X obj 27 152 loadbang;
#X obj 27 193 s PVJprojs-setap-snd;
#X msg 27 172 SCENE _pat_all_follow_ 0;
#X obj 26 7 apsubmaster SCENE PVJprojs SCENE;
#X obj 27 48 scene_pattern SCENE PVJprojs-pattern PVJprojs;
#X obj 27 107 scene_pattern SCENE YEUX-pattern YEUX;
#X obj 27 89 tgl 15 0 empty empty empty 17 7 0 10 -262144 -1 -1 0 1
;
#X obj 27 126 api SCENE YEUX-pattern YEUX-patternButton 1;
#X obj 192 196 s YEUX-setap-snd;
#X obj 29 232 apsubmaster YEUX PVJprojs YEUX;
#X msg 203 173 YEUX _pat_all_follow_ 0;
#X connect 1 0 6 0;
#X connect 2 0 4 0;
#X connect 2 0 12 0;
#X connect 4 0 3 0;
#X connect 8 0 7 0;
#X connect 12 0 3 0;
#X restore 195 83 pd scene;
#X obj 468 39 tgl 15 0 show_framebuffer_content show_framebuffer_content
show_framebuffer_content 17 7 0 10 -260097 -1 -1 0 1;
#N canvas 65 374 809 486 YEUX 0;
#X obj 257 435 s PVJ-projs-rcv;
#X msg 311 347 initpos;
#X obj 257 404 list prepend -2;
#X msg 325 317 shape 2;
#X obj 217 118 hsl 128 15 -90 90 0 0 empty empty empty -2 -8 0 10 -262144
-1 -1 0 1;
#X obj 283 154 hsl 128 15 -90 90 0 0 empty empty empty -2 -8 0 10 -262144
-1 -1 0 1;
#X msg 305 241 roty \$1;
#X msg 435 291 color 1 1 1;
#X obj 100 193 hradio 15 1 0 6 empty empty empty 0 -8 0 10 -262144
-1 -1 0;
#X msg 100 244 media img \$1;
#X obj 220 196 2Dinertia;
#X obj 225 170 pack f f;
#X obj 244 141 t b f;
#X msg 224 221 rotx \$1 \, roty \$2;
#X obj 349 185 loadbang;
#X obj 403 24 t b b;
#X obj 403 46 random 2000;
#X obj 403 68 / 1000;
#X obj 403 90 - 1;
#X obj 403 112 * 20;
#X obj 478 46 random 2000;
#X obj 478 68 / 1000;
#X obj 478 90 - 1;
#X obj 478 112 * 20;
#X obj 403 134 pack f f;
#X obj 136 175 bng 15 250 50 0 empty empty empty 17 7 0 10 -262144
-1 -1;
#X msg 515 202 setK 500 \, setD 800 \, setD2 25;
#X obj 127 11 r SYNCHRO-clock;
#X obj 96 42 tgl 15 0 empty empty empty 17 7 0 10 -262144 -1 -1 0 1
;
#X obj 127 67 unpack f f;
#X obj 127 89 mod 4;
#X obj 127 111 sel 0;
#X obj 416 323 hsl 128 15 0 1 0 0 empty empty empty -2 -8 0 10 -4034
-1 -1 0 1;
#X msg 414 348 color \$1 \$1 \$1;
#X msg 374 232 setK 500 \, setD 2000 \, setD2 200;
#X msg 205 48 1;
#X msg 234 51 2;
#X msg 261 49 4;
#X msg 286 51 8;
#X obj 560 49 hsl 128 15 0 45 0 0 empty empty empty -2 -8 0 10 -262144
-1 -1 0 1;
#X obj 557 69 f;
#X obj 616 118 inlet dynamic;
#X obj 612 145 sel 0 1;
#X obj 100 213 + 30;
#X obj 308 66 random 3;
#X obj 67 59 sel 1;
#X obj 43 7 inlet on;
#X obj 130 151 spigot 0;
#X msg 38 312;
#X obj 71 292 line;
#X msg 40 221 \$1 1000;
#X msg 75 313 alpha \$1;
#X obj 241 8 r tic_evenement-Aubio;
#X obj 241 28 bng 15 250 50 0 empty empty empty 17 7 0 10 -262144 -1
-1;
#X obj 112 288 hsl 128 15 0 1 0 0 empty empty empty -2 -8 0 10 -262144
-1 -1 0 1;
#X obj 688 12 inlet source;
#X obj 129 131 mux 0 1;
#X obj 702 40 tgl 15 0 empty empty empty 17 7 0 10 -262144 -1 -1 0
1;
#X msg 175 266 color 0.6 0.6 0.6 \, initpos \, shape 2 \, scale 1;
#X connect 1 0 2 0;
#X connect 2 0 0 0;
#X connect 3 0 2 0;
#X connect 4 0 11 0;
#X connect 5 0 12 0;
#X connect 6 0 2 0;
#X connect 7 0 2 0;
#X connect 8 0 43 0;
#X connect 9 0 2 0;
#X connect 10 0 13 0;
#X connect 11 0 10 0;
#X connect 12 0 11 0;
#X connect 12 1 11 1;
#X connect 13 0 2 0;
#X connect 14 0 34 0;
#X connect 15 0 16 0;
#X connect 15 0 44 0;
#X connect 15 1 20 0;
#X connect 16 0 17 0;
#X connect 17 0 18 0;
#X connect 18 0 19 0;
#X connect 19 0 24 0;
#X connect 20 0 21 0;
#X connect 21 0 22 0;
#X connect 22 0 23 0;
#X connect 23 0 24 1;
#X connect 24 0 10 0;
#X connect 25 0 15 0;
#X connect 26 0 10 1;
#X connect 27 0 29 0;
#X connect 28 0 47 1;
#X connect 29 0 30 0;
#X connect 30 0 31 0;
#X connect 31 0 56 0;
#X connect 32 0 33 0;
#X connect 33 0 2 0;
#X connect 34 0 10 1;
#X connect 35 0 30 1;
#X connect 36 0 30 1;
#X connect 37 0 30 1;
#X connect 38 0 30 1;
#X connect 39 0 40 0;
#X connect 40 0 23 1;
#X connect 40 0 19 1;
#X connect 41 0 42 0;
#X connect 42 0 34 0;
#X connect 42 1 26 0;
#X connect 43 0 9 0;
#X connect 44 0 8 0;
#X connect 45 0 58 0;
#X connect 46 0 45 0;
#X connect 46 0 50 0;
#X connect 46 0 47 1;
#X connect 47 0 25 0;
#X connect 49 0 51 0;
#X connect 50 0 49 0;
#X connect 51 0 2 0;
#X connect 52 0 53 0;
#X connect 53 0 56 1;
#X connect 54 0 51 0;
#X connect 55 0 57 0;
#X connect 56 0 47 0;
#X connect 57 0 56 2;
#X connect 58 0 2 0;
#X restore 684 112 pd YEUX;
#N canvas 6 75 650 374 backup-projs.txt 0;
#X obj 192 72 getdir;
#X msg 192 132 symbol \$1/projs.txt;
#X obj 322 154 date, f 8;
#X obj 378 154 time, f 8;
#X floatatom 314 192 5 0 0 0 - - -, f 5;
#X floatatom 348 196 5 0 0 0 - - -, f 5;
#X floatatom 380 193 5 0 0 0 - - -, f 5;
#X floatatom 420 189 5 0 0 0 - - -, f 5;
#X floatatom 454 193 5 0 0 0 - - -, f 5;
#X floatatom 486 190 5 0 0 0 - - -, f 5;
#X obj 314 220 pack f f f f f f s;
#X obj 192 94 t s s s;
#X obj 322 132 t b b;
#X msg 314 243 symbol \$7/backups/projs_\$1_\$2_\$3-\$4h-\$5mn-\$6s.txt
;
#X obj 192 274 pack s s;
#X obj 164 346 shell;
#X obj 199 39 bng 15 250 50 0 empty empty empty 17 7 0 10 -262144 -1
-1;
#X obj 225 37 inlet;
#X msg 192 296 nohup cp \$1 \$2 &;
#X obj 192 318 system;
#X connect 0 0 11 0;
#X connect 1 0 14 0;
#X connect 2 0 4 0;
#X connect 2 0 10 0;
#X connect 2 1 5 0;
#X connect 2 1 10 1;
#X connect 2 2 6 0;
#X connect 2 2 10 2;
#X connect 3 0 7 0;
#X connect 3 0 10 3;
#X connect 3 1 8 0;
#X connect 3 1 10 4;
#X connect 3 2 9 0;
#X connect 3 2 10 5;
#X connect 10 0 13 0;
#X connect 11 0 1 0;
#X connect 11 1 12 0;
#X connect 11 2 10 6;
#X connect 12 0 2 0;
#X connect 12 1 3 0;
#X connect 13 0 14 1;
#X connect 14 0 18 0;
#X connect 16 0 0 0;
#X connect 17 0 0 0;
#X connect 18 0 19 0;
#X restore 273 60 pd backup-projs.txt;
#X obj 215 39 t b b;
#X obj 710 87 tgl 15 0 empty empty rebond 17 7 0 10 -262144 -1 -1 0
1;
#X obj 795 93 s film-set-bus;
#X msg 792 53 -1 1;
#X msg 830 53 -1 0;
#X obj 689 87 tgl 15 0 empty empty on 17 7 0 10 -262144 -1 -1 0 1;
#X obj 719 258 s PVJ-posInertia;
#X msg 719 235 setK 100 \, setD 500 \, setD2 3000;
#N canvas 177 358 450 300 1/2 0;
#X msg 138 47 1 \, 2 \, 3 \, 4 \, 5 \, 6 \, 7 \, 8 \, 9 \, 10 \, 11
\, 12 \, 13 \, 14 \, 15;
#X obj 138 69 t f f;
#X obj 165 90 mod 2;
#X obj 165 112 + 1;
#X obj 138 135 pack f f;
#X obj 138 158 s film-set-bus;
#X connect 0 0 1 0;
#X connect 1 0 4 0;
#X connect 1 1 2 0;
#X connect 2 0 3 0;
#X connect 3 0 4 1;
#X connect 4 0 5 0;
#X restore 892 74 pd 1/2;
#X obj 693 16 bng 15 250 50 0 media_load_monkeys empty monkeys 17 7
0 10 -262144 -1 -1;
#X obj 719 212 r resetInertia;
#X obj 733 109 tgl 15 0 empty empty src 17 7 0 10 -262144 -1 -1 0 1
;
#N canvas 257 129 838 489 fadescene 0;
#X obj 55 256 list prepend _all_;
#X obj 55 281 list trim;
#X obj 58 191 hsl 200 15 0 1 0 0 empty empty empty -2 -6 0 8 -262130
-1 -1 0 1;
#X floatatom 55 210 5 0 0 0 - - -, f 5;
#X obj 55 146 line;
#X obj 55 168 wrap;
#X msg 145 123 stop;
#X text 52 105 circular sequence :;
#X obj 55 307 s SCENE-pattern-snd;
#X obj 426 37 r SYNCHRO-clock;
#X obj 366 70 bng 15 250 50 0 empty empty empty 17 7 0 10 -262144 -1
-1;
#X obj 426 79 unpack f f;
#X obj 426 101 mod 4;
#X obj 426 123 sel 0;
#X obj 398 134 bng 15 250 50 0 empty empty empty 17 7 0 10 -262144
-1 -1;
#X obj 482 98 * 4;
#X obj 426 59 spigot;
#X obj 486 60 tgl 15 0 empty empty empty 17 7 0 10 -262144 -1 -1 0
1;
#X obj 55 231 presetfadecos 2 0 4 4 3 1 4 4 4 2 3 4 4 4 4 0 2;
#X msg 55 123 0 \, 20 1e+06;
#X obj 426 146 random 5;
#X obj 547 82 bng 50 250 50 0 empty empty empty 17 7 0 10 -4034 -1
-1;
#X msg 547 140 4000;
#X obj 426 167 pack f f;
#N canvas 65 212 334 413 fadeToScene 0;
#X obj 72 297 list prepend _all_;
#X obj 72 319 list trim;
#X obj 75 206 hsl 128 15 0 1 0 0 empty empty empty -2 -8 0 10 -262144
-1 -1 12700 1;
#X msg 72 226 pos \$1;
#X obj 72 351 s SCENE-pattern-snd;
#X msg 87 253 A 0 \, B 2;
#X msg 135 233 A 0 \, B 3;
#X obj 73 110 tgl 15 0 empty empty empty 17 7 0 10 -262144 -1 -1 1
1;
#X obj 150 157 route 0 1;
#X msg 150 179 A \$1;
#X msg 192 179 B \$1;
#X obj 72 158 list append;
#X obj 150 135 list append;
#X obj 73 131 t f f;
#X obj 72 183 line;
#X obj 73 86 t b f;
#X obj 73 8 inlet;
#X obj 73 37 unpack f f;
#X obj 73 59 - 1;
#X connect 0 0 1 0;
#X connect 1 0 4 0;
#X connect 2 0 3 0;
#X connect 3 0 0 0;
#X connect 5 0 0 0;
#X connect 6 0 0 0;
#X connect 7 0 13 0;
#X connect 8 0 9 0;
#X connect 8 1 10 0;
#X connect 9 0 0 0;
#X connect 10 0 0 0;
#X connect 11 0 14 0;
#X connect 12 0 8 0;
#X connect 13 0 11 0;
#X connect 13 1 12 0;
#X connect 14 0 2 0;
#X connect 15 0 7 0;
#X connect 15 1 12 1;
#X connect 16 0 17 0;
#X connect 17 0 18 0;
#X connect 17 1 11 1;
#X connect 18 0 15 0;
#X restore 517 272 pd fadeToScene;
#X obj 518 250 pack f 2000;
#X msg 524 203 33;
#X msg 554 203 34;
#X msg 512 182 1;
#X msg 584 205 35;
#X msg 601 230 36;
#X obj 370 90 print;
#X msg 447 344 3;
#X obj 447 366 s rnd-images;
#X msg 521 341 3;
#X obj 534 368 s rnd-films;
#X msg 481 344 8;
#X msg 581 344 8;
#X msg 651 228 2000;
#X msg 653 248 10000;
#X msg 610 344 9;
#X obj 405 317 s PVJ-projs-rcv;
#X msg 405 296 -1 initpos;
#X obj 506 295 hsl 128 15 0 1 0 0 empty empty empty -2 -8 0 10 -262144
-1 -1 0 1;
#X msg 503 316 -1 alpha \$1;
#X msg 549 343 4;
#X msg 618 371 2;
#X msg 642 407 15;
#X msg 553 404 6;
#X msg 649 372 11;
#X obj 504 160 r fadeToScene;
#X obj 644 135 r fadeToScene-time;
#X obj 644 157 route float;
#X obj 451 226 sel 16;
#X obj 451 248 del 100;
#X obj 436 272 bng 15 250 50 0 resetInertia empty resetInertia 17 7
0 10 -260097 -1 -1;
#X obj 167 356 r -play--patternButton-snd;
#X floatatom 99 383 5 0 0 0 - - -, f 5;
#X obj 168 402 s fadeToScene;
#X obj 167 378 + 1;
#X connect 0 0 1 0;
#X connect 1 0 8 0;
#X connect 2 0 3 0;
#X connect 3 0 18 0;
#X connect 4 0 5 0;
#X connect 5 0 2 0;
#X connect 6 0 4 0;
#X connect 9 0 16 0;
#X connect 9 0 10 0;
#X connect 11 0 12 0;
#X connect 11 1 15 0;
#X connect 12 0 13 0;
#X connect 13 0 14 0;
#X connect 13 0 20 0;
#X connect 15 0 23 1;
#X connect 16 0 11 0;
#X connect 17 0 16 1;
#X connect 18 0 0 0;
#X connect 19 0 4 0;
#X connect 20 0 23 0;
#X connect 21 0 22 0;
#X connect 25 0 24 0;
#X connect 26 0 25 0;
#X connect 27 0 25 0;
#X connect 28 0 25 0;
#X connect 29 0 25 0;
#X connect 30 0 25 0;
#X connect 32 0 33 0;
#X connect 34 0 35 0;
#X connect 36 0 33 0;
#X connect 37 0 35 0;
#X connect 38 0 25 1;
#X connect 39 0 25 1;
#X connect 40 0 35 0;
#X connect 42 0 41 0;
#X connect 43 0 44 0;
#X connect 44 0 41 0;
#X connect 45 0 35 0;
#X connect 47 0 35 0;
#X connect 48 0 35 0;
#X connect 49 0 35 0;
#X connect 50 0 25 0;
#X connect 50 0 53 0;
#X connect 51 0 52 0;
#X connect 52 0 25 1;
#X connect 53 0 54 0;
#X connect 54 0 55 0;
#X connect 56 0 57 0;
#X connect 56 0 59 0;
#X connect 59 0 58 0;
#X restore 682 165 pd fadescene;
#N canvas 65 81 900 263 Hurface 0;
#X obj 699 44 r fadeToScene-time;
#X obj 699 94 / 100;
#X obj 699 116 i;
#X obj 699 138 / 10;
#X floatatom 731 149 5 0 0 0 - - -, f 5;
#X obj 699 65 route float;
#X obj 726 192 s fadeToScene-time;
#X msg 727 166 label fadeTime:\$1_sec;
#X obj 73 130 bng 15 250 50 0 resetInertia empty resetInertia 17 7
0 10 -260097 -1 -1;
#X obj 71 61 r HurFace;
#X obj 71 105 sel 1;
#X obj 71 83 route func1 km;
#X obj 181 119 s GLOBAL-brightness;
#X obj 182 55 * 2;
#X obj 182 77 - 1;
#X obj 182 99 * -1;
#X obj 232 50 route tib0 tib1 tib2 tib3;
#X msg 236 94 16;
#X msg 271 92 15;
#X obj 252 140 s fadeToScene;
#X obj 226 69 sel 1;
#X obj 269 69 sel 1;
#X obj 358 83 route ib;
#X obj 436 56 r HurFace2;
#X obj 436 78 print;
#X obj 358 105 t f f;
#X obj 359 128 -;
#X obj 359 150 + 128;
#X obj 359 172 mod 256;
#X obj 359 194 - 128;
#X floatatom 409 194 5 0 0 0 - - -, f 5;
#X obj 434 133 +;
#X obj 454 92 r fadeToScene-time;
#X obj 445 175 s fadeToScene-time;
#X obj 447 154 clip 0 10000;
#X obj 454 114 route float;
#X obj 404 108 * -100;
#N canvas 5 75 654 464 Hurf 0;
#N canvas 738 85 538 684 lcdtext 0;
#X obj 223 33 inlet;
#X obj 128 72 t a a;
#X obj 116 114 unwonk f f;
#X obj 314 141 a2l;
#X obj 314 162 l2s;
#X obj 208 325 f2char;
#X obj 266 411 f2char;
#X obj 41 244 bng 15 250 50 0 empty empty empty 17 7 0 10 -262144 -1
-1;
#X msg 67 203 128;
#X obj 65 165 t f f;
#X obj 65 188 > 128;
#X obj 355 64 l;
#X obj 223 111 unwonk f f f f;
#X text 261 33 side line start len string;
#X obj 117 268 symbol;
#X obj 37 99 * 40;
#X obj 87 112 * 64;
#X obj 81 61 t f f;
#X obj 223 145 pack f f f f;
#X obj 208 216 t a a;
#X msg 208 240 \$2;
#X obj 208 262 > 1;
#X obj 208 441 pack s s;
#X obj 208 283 + 128;
#X obj 266 240 unpack f f f f;
#X obj 305 319 +;
#X obj 303 270 % 2;
#X obj 303 292 * 64;
#X obj 266 343 +;
#X floatatom 238 367 5 0 0 0 - - -, f 5;
#X floatatom 180 310 5 0 0 0 - - -, f 5;
#X obj 136 512 outlet;
#X msg 394 124 symbol L\$1;
#X obj 266 381 + 128;
#X obj 266 267 * 20;
#X obj 81 605 print;
#X msg 85 579 \$1---;
#X obj 317 210 makesymbol L%-5s;
#X msg 117 215 \$4;
#X obj 117 236 t b f;
#X obj 181 189 t a a;
#X msg 79 419 \$1;
#X floatatom 140 399 5 0 0 0 - - -, f 5;
#X msg 149 454 L\$1;
#X obj 107 311 change;
#X msg 209 466 L\$1\$2;
#X msg 107 334 symbol L%-\$1s;
#X obj 14 357 makesymbol L%-5s;
#X obj 334 493 f2char;
#X obj 392 505 f2char;
#X obj 334 535 pack s s;
#X obj 334 470 + 128;
#X msg 335 560 L\$1\$2;
#X msg 392 482 1;
#X obj 357 423 t f b;
#X msg 364 391 0 \, 1;
#X text 364 371 clear;
#X connect 0 0 12 0;
#X connect 3 0 4 0;
#X connect 4 0 14 1;
#X connect 5 0 22 0;
#X connect 6 0 22 1;
#X connect 9 0 10 0;
#X connect 12 0 18 0;
#X connect 12 1 18 1;
#X connect 12 2 18 2;
#X connect 12 3 18 3;
#X connect 12 4 3 0;
#X connect 14 0 47 0;
#X connect 18 0 40 0;
#X connect 19 0 20 0;
#X connect 19 1 24 0;
#X connect 20 0 21 0;
#X connect 21 0 23 0;
#X connect 22 0 45 0;
#X connect 23 0 5 0;
#X connect 24 0 34 0;
#X connect 24 1 26 0;
#X connect 24 2 25 1;
#X connect 25 0 28 1;
#X connect 26 0 27 0;
#X connect 27 0 25 0;
#X connect 28 0 33 0;
#X connect 33 0 6 0;
#X connect 34 0 28 0;
#X connect 36 0 35 0;
#X connect 38 0 39 0;
#X connect 39 0 14 0;
#X connect 39 1 44 0;
#X connect 40 0 38 0;
#X connect 40 1 19 0;
#X connect 41 0 31 0;
#X connect 43 0 31 0;
#X connect 44 0 46 0;
#X connect 45 0 31 0;
#X connect 46 0 47 1;
#X connect 47 0 41 0;
#X connect 48 0 50 0;
#X connect 49 0 50 1;
#X connect 50 0 52 0;
#X connect 51 0 48 0;
#X connect 52 0 31 0;
#X connect 53 0 49 0;
#X connect 54 0 51 0;
#X connect 54 1 53 0;
#X connect 55 0 54 0;
#X restore 270 222 pd lcdtext;
#X obj 186 275 FruitSend2 Hur2A;
#X obj 300 120 inlet;
#X obj 287 164 list prepend 1 2 13 6;
#X connect 0 0 1 1;
#X connect 2 0 3 0;
#X connect 3 0 0 0;
#X restore 799 112 pd Hurf;
#X msg 783 88 symbol \$1_s;
#X obj 308 73 sel 1;
#X msg 310 96 14;
#X obj 323 95 sel 1;
#X msg 325 118 13;
#X connect 0 0 5 0;
#X connect 1 0 2 0;
#X connect 2 0 3 0;
#X connect 3 0 4 0;
#X connect 3 0 7 0;
#X connect 3 0 38 0;
#X connect 5 0 1 0;
#X connect 7 0 6 0;
#X connect 9 0 11 0;
#X connect 10 0 8 0;
#X connect 11 0 10 0;
#X connect 11 1 13 0;
#X connect 11 2 16 0;
#X connect 13 0 14 0;
#X connect 14 0 15 0;
#X connect 15 0 12 0;
#X connect 16 0 20 0;
#X connect 16 1 21 0;
#X connect 16 2 39 0;
#X connect 16 3 41 0;
#X connect 16 4 22 0;
#X connect 17 0 19 0;
#X connect 18 0 19 0;
#X connect 20 0 17 0;
#X connect 21 0 18 0;
#X connect 22 0 25 0;
#X connect 25 0 26 1;
#X connect 25 1 26 0;
#X connect 26 0 27 0;
#X connect 27 0 28 0;
#X connect 28 0 29 0;
#X connect 29 0 30 0;
#X connect 29 0 36 0;
#X connect 31 0 34 0;
#X connect 32 0 35 0;
#X connect 34 0 33 0;
#X connect 35 0 31 1;
#X connect 36 0 31 0;
#X connect 38 0 37 0;
#X connect 39 0 40 0;
#X connect 40 0 19 0;
#X connect 41 0 42 0;
#X connect 42 0 19 0;
#X restore 682 142 pd Hurface;
#N canvas 65 133 769 447 création 0;
#N canvas 292 163 714 489 PROJS 0;
#X obj 9 19 projecteur 1;
#X obj 63 464 table PVJ-projsPos;
#X obj 9 232 projecteur 3;
#X obj 9 127 projecteur 2;
#X obj 9 340 projecteur 4;
#X obj 124 19 projecteur 5;
#X obj 124 127 projecteur 6;
#X obj 124 232 projecteur 7;
#X obj 124 340 projecteur 8;
#X obj 240 19 projecteur 9;
#X obj 241 127 projecteur 10;
#X obj 240 232 projecteur 11;
#X obj 240 340 projecteur 12;
#X obj 358 19 projecteur 13;
#X obj 358 127 projecteur 14;
#X obj 359 233 projecteur 15;
#X obj 358 340 projecteur 16;
#X obj 472 19 projecteur 17;
#X obj 472 127 projecteur 18;
#X obj 473 232 projecteur 19;
#X obj 473 340 projecteur 20;
#X obj 589 19 projecteur2 21;
#X obj 588 232 l projecteur2 23;
#X obj 589 340 l projecteur2 24;
#X obj 589 127 projecteur2 22;
#X restore 23 150 pd PROJS;
#X obj 310 115 Background BG;
#N canvas 65 569 450 300 GROUPS 0;
#X obj 90 42 text define -k PVJgroups;
#A set 1 3 5 7 9 11 13 15 17 19 20 18 16 14 12 10 8 6 4 2 \; 1 3 5
7 9 11 13 15 17 19 \; 2 4 6 8 10 12 14 16 18 20 \; 1 2 3 4 \; 5 6 7
8 \; 9 10 11 12 \; 13 14 15 16 \; 17 18 19 20 \; 1 3 5 7 9 10 8 6 4
2 \; 11 13 15 17 19 20 18 16 14 12 \;;
#X obj 93 127 hradio 15 1 0 8 empty empty empty 0 -8 0 10 -262144 -1
-1 6;
#X obj 93 154 text get PVJgroups;
#X obj 93 179 print groups;
#X connect 1 0 2 0;
#X connect 2 0 3 0;
#X restore 23 178 pd GROUPS;
#N canvas 209 144 1159 564 MEDIAS 0;
#X obj 50 40 MediaFilms;
#X symbolatom 84 198 10 0 0 0 - - -, f 10;
#X msg 88 131 symbol HOME;
#X obj 87 158 getenv HOME;
#X obj 61 129 bng 15 250 50 0 empty empty empty 17 7 0 10 -262144 -1
-1;
#X msg 210 63 1 film/monkeydrum1.mov 1 \, 2 film/monkeydrum2.mov 1
\, 3 film/monkeypiano.mov 1 \, 4 film/monkeytriangle.mov 1 \, 5 film/monkeydrum1.mov
2 \, 6 film/monkeydrum2.mov 2 \, 7 film/monkeypiano.mov 2 \, 8 film/monkeytriangle.mov
2;
#X obj 210 129 s film-set;
#X msg 319 143 1 \, 2 \, 3 \, 4 \, 5 \, 6 \, 7 \, 8;
#X msg 319 166 \$1 film/homer.avi 1;
#X obj 623 80 DistribFilms film 1;
#X msg 623 31 monkeydrum1.mov monkeydrum2.mov monkeypiano.mov monkeytriangle.mov
monkeydrum1.mov monkeydrum2.mov monkeypiano.mov monkeytriangle.mov
;
#X msg 652 241 1 1 \, 2 2 \, 3 2 \, 4 1 \, 5 1 \, 6 2 \, 7 2 \, 8 1
;
#X obj 652 265 s film-set-bus;
#X msg 630 218 -1 1;
#X msg 667 215 -1 2;
#X msg 706 214 -1 0;
#X obj 51 67 MediaImages;
#X text 134 4 1-29 : media parapluie dynamiques;
#X text 133 19 30-49 : media parapluie constants;
#X text 370 5 50-79 : media fullsceen dynamiques;
#X text 369 20 80-99 : media fullscreen constants;
#N canvas 148 516 450 300 1/2 0;
#X msg 138 47 1 \, 2 \, 3 \, 4 \, 5 \, 6 \, 7 \, 8 \, 9 \, 10 \, 11
\, 12 \, 13 \, 14 \, 15;
#X obj 138 69 t f f;
#X obj 165 90 mod 2;
#X obj 165 112 + 1;
#X obj 138 135 pack f f;
#X obj 138 158 s film-set-bus;
#X obj 137 20 inlet;
#X connect 0 0 1 0;
#X connect 1 0 4 0;
#X connect 1 1 2 0;
#X connect 2 0 3 0;
#X connect 3 0 4 1;
#X connect 4 0 5 0;
#X connect 6 0 0 0;
#X restore 765 131 pd 1/2;
#X obj 765 86 t b;
#X obj 765 108 del 100;
#X obj 623 8 r media_load_monkeys;
#X connect 2 0 3 0;
#X connect 3 0 1 0;
#X connect 4 0 3 0;
#X connect 5 0 6 0;
#X connect 7 0 8 0;
#X connect 8 0 6 0;
#X connect 10 0 9 0;
#X connect 10 0 22 0;
#X connect 11 0 12 0;
#X connect 13 0 12 0;
#X connect 14 0 12 0;
#X connect 15 0 12 0;
#X connect 22 0 23 0;
#X connect 23 0 21 0;
#X connect 24 0 10 0;
#X restore 23 123 pd MEDIAS;
#N canvas 913 120 664 752 MOTORS 0;
#X obj 10 243 KEPTEL SeqRot1;
#X obj 280 719 testmotors;
#X obj 10 7 KEPTEL SeqScale1;
#X obj 163 7 KEPTEL SeqScale2;
#X obj 162 243 KEPTEL SeqRot2;
#X obj 329 243 KEPTEL SeqFilm1;
#X obj 482 243 KEPTEL SeqFilm2;
#X obj 329 8 KEPTEL SeqRandom1;
#X obj 482 8 KEPTEL SeqRandom2;
#X obj 10 476 KEPTEL SeqAlpha1;
#X obj 163 476 KEPTEL SeqAlpha2;
#X restore 23 205 pd MOTORS;
#X obj 313 179 Overlay OL;
#X obj 406 115 64patterns PVJprojs PVJprojs;
#X obj 406 224 64patterns SCENE PVJprojs;
#X obj 105 242 FB50 50;
#X obj 206 242 FBfontaine 51;
#X obj 307 242 FBsphere 52;
#X obj 646 100 PVJscreen;
#X obj 121 123 bng 15 250 50 0 empty empty 1_MEDIAS 17 7 0 10 -262144
-1 -1;
#X msg 123 13 \; pd-MEDIAS vis 1;
#X msg 244 14 \; pd-PROJS vis 1;
#X msg 354 14 \; pd-GROUPS vis 1;
#X msg 470 14 \; pd-MOTORS vis 1;
#X obj 121 144 bng 15 250 50 0 empty empty 2_PROJS 17 7 0 10 -262144
-1 -1;
#X obj 121 165 bng 15 250 50 0 empty empty 3_GROUPS 17 7 0 10 -262144
-1 -1;
#X obj 121 186 bng 15 250 50 0 empty empty 4_EFFECTS 17 7 0 10 -262144
-1 -1;
#X obj 552 100 bng 15 250 50 0 empty empty FRAMEBUFFER 17 7 0 10 -262144
-1 -1;
#X msg 586 14 \; pd-PVJscreen.pd vis 1;
#X text 100 100 SCENE SETTINGS;
#X obj 256 117 bng 30 250 50 0 SAVE-SCENES empty SAVE-SCENES -20 -8
0 10 -258113 -1 -1;
#X obj 118 207 patterns YEUX;
#X connect 12 0 13 0;
#X connect 17 0 14 0;
#X connect 18 0 15 0;
#X connect 19 0 16 0;
#X connect 20 0 21 0;
#X coords 0 -1 1 1 536 232 2 100 100;
#X restore 29 171 pd création des scènes;
#X obj 297 19 r SAVE-SCENES;
#X obj 129 449 hsl 128 15 0 10000 0 0 fadeToScene-time fadeToScene-time
fadeTime:1_sec -2 -8 0 10 -262144 -1 -1 0 1;
#X obj 29 466 64patterns -play- -fade-;
#X text 27 447 PLAY;
#X connect 3 0 2 0;
#X connect 4 0 17 0;
#X connect 9 0 10 0;
#X connect 10 0 3 0;
#X connect 17 0 2 1;
#X connect 17 1 16 0;
#X connect 18 0 15 1;
#X connect 20 0 19 0;
#X connect 21 0 19 0;
#X connect 22 0 15 0;
#X connect 24 0 23 0;
#X connect 27 0 24 0;
#X connect 28 0 15 2;
#X connect 32 0 4 0;
