#N canvas 312 266 445 467 10;
#X obj 182 189 b;
#X obj 182 111 inlet on;
#X obj 323 114 loadbang;
#X msg 323 136 0;
#X obj 182 167 gemhead 1;
#X msg 243 132 1;
#X obj 8 66 unpack f f f f;
#X obj 268 15 table \$0-R 25;
#X obj 268 35 table \$0-V 25;
#X obj 269 55 table \$0-B 25;
#X obj 183 273 t f f f f;
#X obj 200 345 tabread \$0-R;
#X obj 217 323 tabread \$0-V;
#X obj 234 296 tabread \$0-B;
#X obj 183 372 pack f f f f;
#X obj 183 395 outlet num col;
#X obj 8 22 inlet num col;
#X obj 8 139 tabwrite \$0-R 25;
#X obj 35 115 tabwrite \$0-V 25;
#X obj 62 91 tabwrite \$0-B 25;
#X msg 8 44 \$2 \$3 \$4 \$1;
#X msg 182 212 1 \, 2 \, 3 \, 4 \, 5 \, 6 \, 7 \, 8 \, 9 \, 10 \, 11
\, 12 \, 13 \, 14 \, 15 \, 16 \, 17 \, 18 \, 19 \, 20, f 29;
#X connect 0 0 21 0;
#X connect 1 0 4 0;
#X connect 2 0 3 0;
#X connect 3 0 4 0;
#X connect 4 0 0 0;
#X connect 5 0 4 0;
#X connect 6 0 17 0;
#X connect 6 1 18 0;
#X connect 6 2 19 0;
#X connect 6 3 17 1;
#X connect 6 3 18 1;
#X connect 6 3 19 1;
#X connect 10 0 14 0;
#X connect 10 1 11 0;
#X connect 10 2 12 0;
#X connect 10 3 13 0;
#X connect 11 0 14 1;
#X connect 12 0 14 2;
#X connect 13 0 14 3;
#X connect 14 0 15 0;
#X connect 16 0 20 0;
#X connect 20 0 6 0;
#X connect 21 0 10 0;
