#N canvas 2885 166 450 300 10;
#X obj 1 1 cnv 15 232 60 empty empty PVJ-Pos 8 12 1 14 -159808 -1 0
;
#X obj 3 45 bng 13 250 50 0 empty empty load 17 7 1 10 -4034 -1 -1
;
#X obj 3 25 bng 13 250 50 0 empty empty save_as 17 7 1 10 -258113 -1
-1;
#X symbolatom 66 42 0 0 0 0 - - -;
#N canvas 1754 549 331 475 apmaster_autoload 0;
#X obj 65 49 route loaded saved;
#X obj 10 122 loadbang;
#X msg 65 363 loadfile \$1;
#X obj 65 90 symbol;
#X obj 65 335 symbol;
#X obj 10 144 del 100;
#X msg 65 156 set \$1;
#X obj 65 254 getdir;
#X obj 65 277 pack s s;
#X msg 65 183 BASE-PVJ-Pos;
#X obj 65 232 t b a;
#X obj 65 207 symbol;
#X obj 65 113 split_path;
#X obj 64 22 r PVJ-Pos-apmaster-snd;
#X obj 65 391 s PVJ-Pos-apmaster-rcv;
#X obj 65 301 makesymbol %s/0PVJ/ConfigPVJ-Pos/%s;
#X connect 0 0 3 0;
#X connect 0 1 3 0;
#X connect 1 0 5 0;
#X connect 2 0 14 0;
#X connect 3 0 12 0;
#X connect 4 0 2 0;
#X connect 5 0 9 0;
#X connect 6 0 9 0;
#X connect 7 0 8 0;
#X connect 8 0 15 0;
#X connect 9 0 11 0;
#X connect 10 0 7 0;
#X connect 10 1 8 1;
#X connect 11 0 10 0;
#X connect 12 1 6 0;
#X connect 13 0 0 0;
#X connect 15 0 4 0;
#X restore 133 157 pd apmaster_autoload;
#N canvas 2009 594 272 246 apmaster_symbol 0;
#X obj 75 38 route loaded saved;
#X obj 75 79 symbol;
#X obj 75 149 symbol;
#X obj 75 171 outlet;
#X obj 75 100 split_path;
#X obj 75 16 r PVJ-Pos-apmaster-snd;
#X connect 0 0 1 0;
#X connect 0 1 1 0;
#X connect 1 0 4 0;
#X connect 2 0 3 0;
#X connect 4 1 2 0;
#X connect 5 0 0 0;
#X restore 66 177 pd apmaster_symbol;
#X obj 10 224 tgl 13 0 PVJ-Pos-save_tog-snd PVJ-Pos-save_tog-rcv sessions
90 -16 1 10 -258113 -1 -1 0 1;
#N canvas 1759 522 450 300 patterns 0;
#X msg 37 41 \$1;
#X obj 213 46 tgl 15 0 empty empty empty 0 -6 0 8 -262144 -1 -1 0 1
;
#X obj 213 77 sel 0 1;
#X msg 213 98 color 0 22 22;
#X msg 236 122 color 13 22 22;
#X obj 81 98 demux;
#X obj 111 122 t f f b;
#X msg 174 155 0;
#X msg 38 152 load \$1;
#X msg 117 155 store \$1;
#X obj 88 208 list trim;
#X obj 88 184 list prepend _all_;
#X obj 37 11 r PVJ-Pos-pattern_but-snd;
#X obj 213 20 r PVJ-Pos-save_tog-snd;
#X obj 88 231 s PVJ-Pos-pattern-snd;
#X obj 214 182 s PVJ-Pos-save_tog-rcv;
#X obj 213 148 s PVJ-Pos-pattern_but-rcv;
#X connect 0 0 5 0;
#X connect 1 0 2 0;
#X connect 1 0 5 1;
#X connect 2 0 3 0;
#X connect 2 1 4 0;
#X connect 3 0 16 0;
#X connect 4 0 16 0;
#X connect 5 0 8 0;
#X connect 5 1 6 0;
#X connect 6 1 9 0;
#X connect 6 2 7 0;
#X connect 7 0 15 0;
#X connect 8 0 11 0;
#X connect 9 0 11 0;
#X connect 10 0 14 0;
#X connect 11 0 10 0;
#X connect 12 0 0 0;
#X connect 13 0 1 0;
#X restore 124 115 pd patterns;
#X obj 87 12 bng 25 250 50 0 empty empty save 3 -7 1 10 -258113 -1
-1;
#X msg 87 64 savein;
#X obj 26 224 hradio 13 1 0 16 PVJ-Pos-pattern_but-snd PVJ-Posl-pattern_but-rcv
_1_.2_.3_.4_.5_.6_.7_.8_.9.10.11.12.13.14.15.16 0 -4 1 9 -262144 -1
-1 0;
#X obj 3 136 apmaster PVJ-Pos;
#X obj 87 87 s PVJ-Pos-apmaster-rcv;
#X connect 1 0 11 0;
#X connect 2 0 11 1;
#X connect 5 0 3 0;
#X connect 8 0 9 0;
#X connect 9 0 12 0;
#X coords 0 -1 1 1 234 62 1 0 0;
