#N canvas 1784 442 577 316 10;
#X obj 91 12 r \$1-pattern-snd;
#X obj 91 116 tabread \$1-\$2-pattern;
#X obj 132 142 tabread \$1-\$2-pattern;
#X msg 91 138 A \$1;
#X msg 132 164 B \$1;
#X msg 175 167 pos \$1;
#X floatatom 55 168 5 0 0 0 - - -, f 5;
#X floatatom 159 207 5 0 0 0 - - -, f 5;
#X obj 91 63 route _all_;
#X obj 91 275 s \$3-pattern-snd;
#X obj 91 230 list prepend _all_;
#X obj 91 252 list trim;
#X obj 91 88 route A B pos store load;
#X msg 270 142 store \$1;
#X obj 270 171 list prepend \$2;
#X obj 270 213 s \$1-pattern-snd;
#X obj 270 193 list trim;
#X msg 331 141 load \$1;
#X obj 91 40 spigot 1;
#X obj 248 11 inlet on;
#X obj 403 67 route _all_;
#X obj 403 44 spigot 1;
#X obj 403 16 r \$1-setap-snd;
#X obj 403 89 route _nbpattern_;
#X obj 403 111 list prepend _nbpattern_;
#X obj 403 131 list prepend \$2;
#X obj 403 153 list trim;
#X floatatom 360 275 5 0 0 0 - - -, f 5;
#X floatatom 477 223 5 0 0 0 - - -, f 5;
#X obj 403 176 s \$1-setap-snd;
#X connect 0 0 18 0;
#X connect 1 0 3 0;
#X connect 1 0 6 0;
#X connect 2 0 4 0;
#X connect 2 0 7 0;
#X connect 3 0 10 0;
#X connect 4 0 10 0;
#X connect 5 0 10 0;
#X connect 8 0 12 0;
#X connect 10 0 11 0;
#X connect 11 0 9 0;
#X connect 12 0 1 0;
#X connect 12 1 2 0;
#X connect 12 2 5 0;
#X connect 12 3 13 0;
#X connect 12 4 17 0;
#X connect 12 4 27 0;
#X connect 13 0 14 0;
#X connect 14 0 16 0;
#X connect 16 0 15 0;
#X connect 17 0 14 0;
#X connect 18 0 8 0;
#X connect 19 0 18 1;
#X connect 20 0 23 0;
#X connect 21 0 20 0;
#X connect 22 0 21 0;
#X connect 23 0 24 0;
#X connect 23 0 28 0;
#X connect 24 0 25 0;
#X connect 25 0 26 0;
#X connect 26 0 29 0;
