#N canvas 9 75 740 666 10;
#X obj 52 196 hsl 128 15 0 1 0 0 empty empty empty -2 -8 0 10 -262144
-1 -1 11597 1;
#X obj 49 85 line;
#X obj 49 157 wrap;
#X msg 49 62 0 \, 1 1000;
#X obj 49 129 + 0.5;
#X obj 148 77 line;
#X msg 148 54 0 \, 4 10000;
#X obj 49 107 pow 0.35;
#X obj 437 65 r SYNCHRO-clock;
#X obj 171 114 unpack f f;
#X obj 226 146 *;
#X obj 226 168 del;
#X obj 256 66 hsl 128 15 0 1 0 0 empty empty empty -2 -8 0 10 -262144
-1 -1 0 1;
#X obj 464 119 unpack f f;
#X msg 437 242 0 \, 1 \$1;
#X obj 437 265 line;
#X obj 322 349 hsl 128 15 0 1 0 0 empty empty empty -2 -8 0 10 -262144
-1 -1 12700 1;
#X obj 437 150 ndmetro 1 4;
#X obj 437 94 t a a;
#X obj 437 198 f;
#X obj 443 315 wrap;
#X obj 485 291 hsl 128 15 0 1 0 0 empty empty phase -2 -8 0 10 -262144
-1 -1 0 1;
#X obj 328 391 hsl 128 15 0 1 0 0 empty empty empty -2 -8 0 10 -262144
-1 -1 0 1;
#X obj 548 94 f;
#X msg 547 63 1;
#X msg 577 63 2;
#X msg 605 64 3;
#X obj 443 293 -;
#X obj 439 353 * 2;
#X obj 439 375 - 1;
#X obj 249 641 hsl 128 15 0 1 0 0 empty empty empty -2 -8 0 10 -262144
-1 -1 1700 1;
#X obj 435 516 + 1;
#X obj 439 548 / 2;
#X obj 439 401 t f f;
#X obj 439 433 abs;
#X obj 439 499 * 1;
#X obj 489 431 > 0;
#X obj 489 453 * 2;
#X obj 489 475 - 1;
#X obj 505 349 hsl 128 15 0 1 0 0 empty empty warp -2 -8 0 10 -262144
-1 -1 0 1;
#X obj 502 393 + 1;
#X obj 377 623 s film-2-pos;
#X obj 439 454 pow 1.7;
#X obj 422 588 s film-51-pos;
#X obj 437 172 sel 0;
#X msg 547 118 nd 4 \$1;
#X msg 547 140 \$1 \$2;
#X obj 547 162 /;
#X obj 437 220 * 0.25;
#X floatatom 554 194 5 0 0 0 - - -, f 5;
#X msg 636 65 4;
#X text 561 35 nd, f 3;
#X obj 502 369 * 2;
#X msg 655 103 8;
#X obj 538 13 loadbang;
#X obj 463 628 s film-1-pos;
#N canvas 128 270 783 533 swapProjsPos 0;
#X obj 152 220 t b b;
#X obj 152 248 random 24;
#X obj 152 270 + 1;
#X obj 218 248 random 24;
#X obj 218 270 + 1;
#X obj 178 339 tabread PVJ-projsPos;
#X obj 245 316 tabread PVJ-projsPos;
#X obj 151 302 t f f;
#X obj 218 292 t f f;
#X obj 151 381 pack f f f f;
#X obj 151 464 s PVJ-projs-rcv;
#X msg 151 408 \$1 pos \$4 \, \$3 pos \$2;
#X msg 286 408 -1 initpos;
#X obj 152 166 bng 50 250 50 0 empty empty empty 17 7 0 10 -262144
-1 -1;
#X msg 308 255 setK 0.05 \, setD 0 \, setD2 30;
#X msg 327 228 setK 1 \, setD 0 \, setD2 30;
#X msg 387 140 setK 3000 \, setD 1000 \, setD2 5000;
#X obj 442 407 s PVJ-posInertia;
#X obj 387 316 s PVJ-posInertia;
#X msg 430 285 setK 10 \, setD 50 \, setD2 300;
#X obj 152 145 until;
#X obj 152 8 r SYNCHRO-clock;
#X obj 152 75 sel 0;
#X obj 152 52 mod 4;
#X obj 152 30 unpack f f;
#X obj 152 122 f 10;
#X msg 510 311 setK 100 \, setD 500 \, setD2 3000;
#X obj 265 10 hradio 15 1 0 5 empty empty empty 0 -8 0 10 -262144 -1
-1 3;
#X obj 265 30 > 0;
#X obj 152 97 spigot;
#X obj 300 37 sel 1 2 3 4;
#X msg 299 60 8;
#X msg 328 60 4;
#X msg 355 60 2;
#X msg 381 61 1;
#X obj 313 92 f;
#X obj 502 34 hradio 15 1 0 5 empty empty empty 0 -8 0 10 -262144 -1
-1 4;
#X obj 502 54 sel 0 1 2 3 4;
#X msg 387 199 setK 1 \, setD 10 \, setD2 200;
#X msg 572 178 setK 300 \, setD 500 \, setD2 200;
#X obj 598 379 hradio 15 1 0 6 empty empty empty 0 -8 0 10 -262144
-1 -1 2;
#X floatatom 598 455 5 0 0 0 - - -, f 5;
#X msg 598 412 1 \$1;
#X obj 598 433 <<;
#X connect 0 0 1 0;
#X connect 0 1 3 0;
#X connect 1 0 2 0;
#X connect 2 0 7 0;
#X connect 3 0 4 0;
#X connect 4 0 8 0;
#X connect 5 0 9 1;
#X connect 6 0 9 3;
#X connect 7 0 9 0;
#X connect 7 1 5 0;
#X connect 8 0 9 2;
#X connect 8 1 6 0;
#X connect 9 0 11 0;
#X connect 11 0 10 0;
#X connect 12 0 10 0;
#X connect 13 0 0 0;
#X connect 14 0 18 0;
#X connect 15 0 18 0;
#X connect 16 0 18 0;
#X connect 19 0 18 0;
#X connect 20 0 13 0;
#X connect 21 0 24 0;
#X connect 22 0 29 0;
#X connect 23 0 22 0;
#X connect 24 0 23 0;
#X connect 25 0 20 0;
#X connect 26 0 18 0;
#X connect 27 0 28 0;
#X connect 27 0 30 0;
#X connect 28 0 29 1;
#X connect 29 0 25 0;
#X connect 30 0 31 0;
#X connect 30 1 32 0;
#X connect 30 2 33 0;
#X connect 30 3 34 0;
#X connect 31 0 35 0;
#X connect 32 0 35 0;
#X connect 33 0 35 0;
#X connect 34 0 35 0;
#X connect 35 0 23 1;
#X connect 36 0 37 0;
#X connect 37 0 14 0;
#X connect 37 1 38 0;
#X connect 37 2 19 0;
#X connect 37 3 26 0;
#X connect 37 4 39 0;
#X connect 38 0 18 0;
#X connect 39 0 18 0;
#X connect 40 0 42 0;
#X connect 42 0 43 0;
#X connect 43 0 41 0;
#X connect 43 0 25 1;
#X restore 51 309 pd swapProjsPos;
#X connect 1 0 7 0;
#X connect 2 0 0 0;
#X connect 3 0 1 0;
#X connect 4 0 2 0;
#X connect 5 0 2 0;
#X connect 6 0 5 0;
#X connect 7 0 4 0;
#X connect 8 0 9 0;
#X connect 8 0 18 0;
#X connect 9 1 10 0;
#X connect 10 0 11 0;
#X connect 11 0 3 0;
#X connect 12 0 10 1;
#X connect 12 0 4 1;
#X connect 13 1 19 1;
#X connect 15 0 16 0;
#X connect 15 0 27 0;
#X connect 17 0 44 0;
#X connect 18 0 17 0;
#X connect 18 1 13 0;
#X connect 19 0 48 0;
#X connect 20 0 28 0;
#X connect 21 0 27 1;
#X connect 23 0 45 0;
#X connect 24 0 23 0;
#X connect 25 0 23 0;
#X connect 26 0 23 0;
#X connect 27 0 20 0;
#X connect 28 0 29 0;
#X connect 29 0 33 0;
#X connect 31 0 32 0;
#X connect 32 0 30 0;
#X connect 32 0 41 0;
#X connect 32 0 43 0;
#X connect 32 0 55 0;
#X connect 33 0 34 0;
#X connect 33 1 36 0;
#X connect 34 0 42 0;
#X connect 35 0 31 0;
#X connect 36 0 37 0;
#X connect 37 0 38 0;
#X connect 38 0 35 1;
#X connect 39 0 52 0;
#X connect 40 0 42 1;
#X connect 42 0 35 0;
#X connect 44 0 19 0;
#X connect 45 0 17 0;
#X connect 45 0 46 0;
#X connect 46 0 47 0;
#X connect 47 0 48 1;
#X connect 47 0 49 0;
#X connect 48 0 14 0;
#X connect 50 0 23 0;
#X connect 52 0 40 0;
#X connect 53 0 23 0;
#X connect 54 0 25 0;
