#N canvas 140 560 571 308 10;
#X obj 192 253 outlet;
#X text 92 41 textureIsUsed img/film/fb num;
#X obj 120 126 route get let;
#X msg 120 149 1;
#X msg 157 149 -1;
#X obj 136 180 +;
#X obj 165 179 i;
#X obj 192 206 > 0;
#X obj 192 228 change;
#X obj 120 104 r tex_\$1-\$2-used;
#X obj 192 179 max 0;
#X obj 271 105 loadbang;
#X msg 271 127 0;
#X connect 2 0 3 0;
#X connect 2 1 4 0;
#X connect 3 0 5 0;
#X connect 4 0 5 0;
#X connect 5 0 6 0;
#X connect 6 0 10 0;
#X connect 7 0 8 0;
#X connect 8 0 0 0;
#X connect 9 0 2 0;
#X connect 10 0 5 1;
#X connect 10 0 7 0;
#X connect 11 0 12 0;
#X connect 12 0 0 0;
