#N canvas 1737 722 220 299 10;
#X obj 49 261 outlet~;
#X obj 17 11 init \$1;
#X obj 77 11 inlet;
#X obj 17 32 sel 0;
#X obj 133 12 inlet;
#X msg 49 212 set \$1;
#X obj 49 178 symbol;
#X obj 56 78 sel 1 2 3 4;
#X msg 13 118 FX-1;
#X msg 49 118 FX-2;
#X msg 93 120 FX-3;
#X msg 127 120 FX-4;
#X obj 49 233 r~ FX-1;
#X connect 1 0 3 0;
#X connect 2 0 7 0;
#X connect 3 1 7 0;
#X connect 4 0 6 0;
#X connect 5 0 12 0;
#X connect 6 0 5 0;
#X connect 7 0 8 0;
#X connect 7 1 9 0;
#X connect 7 2 10 0;
#X connect 7 3 11 0;
#X connect 8 0 6 0;
#X connect 9 0 6 0;
#X connect 10 0 6 0;
#X connect 11 0 6 0;
#X connect 12 0 0 0;
