#N canvas 2473 233 212 245 10;
#X obj -30 118 inlet~;
#X obj 28 24 init \$1;
#X obj 109 23 inlet;
#X obj 28 48 sel 1 2 3 4;
#X msg 28 84 set FX-1;
#X msg 59 131 set FX-3;
#X msg 75 153 set FX-4;
#X msg 41 109 set FX-2;
#X obj 28 197 throw~ FX-1;
#X connect 0 0 8 0;
#X connect 1 0 3 0;
#X connect 2 0 3 0;
#X connect 3 0 4 0;
#X connect 3 1 7 0;
#X connect 3 2 5 0;
#X connect 3 3 6 0;
#X connect 4 0 8 0;
#X connect 5 0 8 0;
#X connect 6 0 8 0;
#X connect 7 0 8 0;
