#N canvas 1696 581 459 402 10;
#X obj 49 330 outlet~;
#X obj 56 78 sel 1 2 3 4 5 6 7 8;
#X obj 17 11 init \$1;
#X obj 77 11 inlet;
#X obj 17 32 sel 0;
#X obj 278 16 inlet;
#X msg 49 281 set \$1;
#X obj 49 178 symbol;
#X msg 21 117 IN-1;
#X msg 49 118 IN-2;
#X msg 76 118 IN-3;
#X msg 110 118 IN-4;
#X msg 144 118 IN-5;
#X msg 178 118 IN-6;
#X msg 212 118 IN-7;
#X msg 247 118 IN-8;
#X obj 49 302 r~ IN-1;
#X connect 1 0 8 0;
#X connect 1 1 9 0;
#X connect 1 2 10 0;
#X connect 1 3 11 0;
#X connect 1 4 12 0;
#X connect 1 5 13 0;
#X connect 1 6 14 0;
#X connect 1 7 15 0;
#X connect 2 0 4 0;
#X connect 3 0 1 0;
#X connect 4 1 1 0;
#X connect 5 0 7 0;
#X connect 6 0 16 0;
#X connect 7 0 6 0;
#X connect 8 0 7 0;
#X connect 9 0 7 0;
#X connect 10 0 7 0;
#X connect 11 0 7 0;
#X connect 12 0 7 0;
#X connect 13 0 7 0;
#X connect 14 0 7 0;
#X connect 15 0 7 0;
#X connect 16 0 0 0;
