#N canvas 2063 373 653 612 10;
#X obj 44 195 loadbang;
#X msg 44 345 label \$1;
#X obj 42 173 bng 15 250 50 0 empty empty empty 17 7 0 10 -262144 -1
-1;
#X obj 103 164 sel 0 1;
#X obj 326 219 demux 0 1;
#X obj 210 306 mux 0 1;
#X obj 396 63 apf \$1-SETTING \$2 \$1-\$2 2;
#X text 396 103 2 = pas de pattern;
#X obj 44 217 symbol \$2;
#X obj 95 279 symbol \$3;
#X obj 199 153 t f f;
#X obj 192 183 sel 0 1;
#X obj 398 149 apf \$1-SETTING \$3 \$1-\$3 2;
#X text 31 24 KEPbus-bouton \$1 = \$1 (nom instru) \, \$2 = nom bouton
\, \$3 = nom bouton shift \$4 = num bouton;
#X obj 154 214 r \$1-\$2;
#X obj 260 215 r \$1-\$3;
#X obj 326 267 s \$1-\$2;
#X obj 377 267 s \$1-\$3;
#X obj 210 95 t b f f f;
#X obj 210 68 r \$1-tSHIFT-snd;
#X obj 396 85 s \$1-\$2;
#X obj 398 172 s \$1-\$3;
#X obj 154 261 change;
#X obj 260 260 change;
#X obj 92 525 s \$1-\$4-rcv;
#X obj 44 377 s \$1-\$4-info;
#X obj 92 435 r \$1-\$4-info;
#X obj 92 456 route label;
#X obj 92 479 list prepend label;
#X obj 92 501 list trim;
#X obj 210 330 s \$1-\$4;
#X obj 383 348 t b f b;
#X obj 323 427 spigot 1;
#X msg 383 372 1;
#X msg 383 406 0;
#X obj 378 475 speedlim 50;
#X obj 323 448 change;
#X floatatom 286 408 5 0 0 0 - - -, f 5;
#X floatatom 333 357 5 0 0 0 - - -, f 5;
#X obj 323 527 s \$1-\$4-rcv;
#X obj 417 407 s \$1-\$4;
#X obj 323 323 r \$1-\$4;
#X obj 326 195 r \$1-\$4;
#X obj 383 323 r \$1-\$4-snd;
#X msg 323 498 set \$1;
#X obj 398 126 r \$1-\$3;
#X obj 396 40 r \$1-\$2;
#X floatatom 300 305 5 0 0 0 - - -, f 5;
#X floatatom 209 248 5 0 0 0 - - -, f 5;
#X msg 163 72 0;
#X obj 480 287 symbol \$2;
#X obj 496 235 symbol \$3;
#X obj 480 311 s \$1-\$4-name;
#X obj 496 262 s \$1-\$4-shift-name;
#X obj 480 204 r \$1-\$4-getinfo;
#X obj 481 350 r \$1-\$2;
#X obj 481 414 r \$1-\$3;
#X obj 481 392 s \$1-\$4-normal;
#X obj 481 456 s \$1-\$4-shift;
#X obj 481 372 change;
#X obj 481 435 change;
#X obj 480 489 r \$1-\$4-normal-set;
#X obj 480 510 s \$1-\$2;
#X obj 480 534 r \$1-\$4-shift-set;
#X obj 480 555 s \$1-\$3;
#X obj 17 94 r \$1-\$2-name;
#X obj 101 94 r \$1-\$3-name;
#X obj 17 116 spigot 1;
#X obj 101 117 spigot;
#X obj 73 116 == 0;
#X obj 453 179 r \$1-\$2-name;
#X obj 537 179 r \$1-\$3-name;
#X connect 0 0 8 0;
#X connect 1 0 25 0;
#X connect 3 0 8 0;
#X connect 3 1 9 0;
#X connect 4 0 16 0;
#X connect 4 0 47 0;
#X connect 4 1 17 0;
#X connect 5 0 30 0;
#X connect 6 0 20 0;
#X connect 8 0 1 0;
#X connect 9 0 1 0;
#X connect 10 0 11 0;
#X connect 10 1 4 1;
#X connect 11 0 22 0;
#X connect 11 1 23 0;
#X connect 12 0 21 0;
#X connect 14 0 22 0;
#X connect 14 0 48 0;
#X connect 15 0 23 0;
#X connect 18 1 3 0;
#X connect 18 2 10 0;
#X connect 18 3 5 2;
#X connect 18 3 68 1;
#X connect 18 3 69 0;
#X connect 19 0 18 0;
#X connect 22 0 5 0;
#X connect 23 0 5 1;
#X connect 26 0 27 0;
#X connect 27 0 28 0;
#X connect 28 0 29 0;
#X connect 29 0 24 0;
#X connect 31 0 33 0;
#X connect 31 1 40 0;
#X connect 31 2 34 0;
#X connect 32 0 36 0;
#X connect 33 0 32 1;
#X connect 34 0 32 1;
#X connect 36 0 44 0;
#X connect 41 0 37 0;
#X connect 41 0 32 0;
#X connect 42 0 4 0;
#X connect 43 0 38 0;
#X connect 43 0 31 0;
#X connect 44 0 39 0;
#X connect 45 0 12 0;
#X connect 46 0 6 0;
#X connect 49 0 18 0;
#X connect 50 0 52 0;
#X connect 51 0 53 0;
#X connect 54 0 50 0;
#X connect 54 0 51 0;
#X connect 55 0 59 0;
#X connect 56 0 60 0;
#X connect 59 0 57 0;
#X connect 60 0 58 0;
#X connect 61 0 62 0;
#X connect 63 0 64 0;
#X connect 65 0 8 1;
#X connect 65 0 67 0;
#X connect 66 0 9 1;
#X connect 66 0 68 0;
#X connect 67 0 1 0;
#X connect 68 0 1 0;
#X connect 69 0 67 1;
#X connect 70 0 50 0;
#X connect 71 0 51 0;
