#N canvas 2605 297 306 179 10;
#X obj 1 1 cnv 15 232 90 empty empty empty 20 13 0 14 -128992 -66577
0;
#X obj 7 16 mknob 25 100 0 1 0 0 \$1-b1-snd \$1-b1-rcv Vitesse -3 -6
193 8 -191407 -228856 -262144 0 1;
#X obj 41 67 tgl 20 0 \$1-t1-snd \$1-t1-rcv 1/1 1 11 1 10 -261682 -1
-1 0 1;
#X obj 64 67 tgl 20 0 \$1-t2-snd \$1-t2-rcv 1/2 1 11 1 10 -261682 -1
-1 0 1;
#X obj 87 67 tgl 20 0 \$1-t3-snd \$1-t3-rcv 1/3 1 11 1 10 -261682 -1
-1 0 1;
#X obj 110 67 tgl 20 0 \$1-t4-snd \$1-t4-rcv 1/4 1 11 1 10 -261682
-1 -1 0 1;
#X obj 142 67 tgl 20 0 \$1-tREC-snd \$1-tREC-rcv Lock 1 11 1 10 -261234
-1 -1 0 1;
#X obj 96 3 tgl 20 0 \$1-tSHIFT-snd \$1-tSHIFT-rcv shift 1 11 1 10
-204786 -1 -1 1 1;
#X obj 123 5 bng 8 250 50 0 \$1-lvert-snd \$1-lvert-rcv empty 17 7
0 10 -204786 -4034 -1;
#X obj 123 13 bng 8 250 50 0 \$1-lrouge-snd \$1-lrouge-rcv empty 17
7 0 10 -261234 -258113 -1;
#X obj 165 14 mknob 25 100 0 1 0 0 \$1-b4-snd \$1-b4-rcv Reverb -30
-6 193 8 -191407 -228856 -262144 7350 1;
#X obj 92 39 mknob 25 100 0 1 0 0 \$1-b3-snd \$1-b3-rcv Effet 1 -6
193 8 -191407 -228856 -262144 5144 1;
#X obj 6 62 mknob 25 100 0 1 0 0 \$1-b2-snd \$1-b2-rcv Phrases -3 -6
193 8 -191407 -228856 -262144 7135 1;
#X obj 167 61 mknob 25 100 0 1 0 0 \$1-b5-snd \$1-b5-rcv Volume -30
-6 193 8 -191407 -228856 -262144 5731 1;
#X text 74 138 \$1 : nom unique instrument;
#X text 27 124 KEPface \$1;
#X obj 241 18 loadbang;
#X obj 241 109 f;
#X msg 241 85 0;
#X msg 241 41 1;
#X obj 241 65 del 150;
#X obj 47 63 tgl 8 0 \$1-tl1-snd \$1-tl1-rcv empty 17 7 0 10 -261682
-258113 -1 0 1;
#X obj 70 63 tgl 8 0 \$1-tl2-snd \$1-tl2-rcv empty 17 7 0 10 -261682
-258113 -1 0 1;
#X obj 93 63 tgl 8 0 \$1-tl3-snd \$1-tl3-rcv empty 17 7 0 10 -261682
-258113 -1 0 1;
#X obj 116 63 tgl 8 0 \$1-tl4-snd \$1-tl4-rcv empty 17 7 0 10 -261682
-258113 -1 0 1;
#X obj 148 63 tgl 8 0 \$1-tlREC-snd \$1-tlREC-rcv empty 17 7 0 10 -261682
-258113 -1 0 1;
#X connect 16 0 19 0;
#X connect 16 0 20 0;
#X connect 17 0 7 0;
#X connect 18 0 17 0;
#X connect 19 0 17 0;
#X connect 20 0 18 0;
#X coords 0 -1 1 1 234 92 1 0 0;
