#N canvas 2336 547 459 402 10;
#X obj 156 17 inlet~;
#X obj 82 76 sel 1 2 3 4 5 6 7 8;
#X obj 78 46 init \$1;
#X obj 244 24 inlet;
#X msg 34 152 set OUT-1;
#X msg 49 176 set OUT-2;
#X msg 100 152 set OUT-3;
#X msg 116 174 set OUT-4;
#X msg 165 153 set OUT-5;
#X msg 186 173 set OUT-6;
#X msg 229 153 set OUT-7;
#X msg 256 174 set OUT-8;
#X obj 156 264 throw~ OUT-1;
#X connect 0 0 12 0;
#X connect 1 0 4 0;
#X connect 1 1 5 0;
#X connect 1 2 6 0;
#X connect 1 3 7 0;
#X connect 1 4 8 0;
#X connect 1 5 9 0;
#X connect 1 6 10 0;
#X connect 1 7 11 0;
#X connect 2 0 1 0;
#X connect 3 0 1 0;
#X connect 4 0 12 0;
#X connect 5 0 12 0;
#X connect 6 0 12 0;
#X connect 7 0 12 0;
#X connect 8 0 12 0;
#X connect 9 0 12 0;
#X connect 10 0 12 0;
#X connect 11 0 12 0;
