#N canvas 1715 274 358 398 10;
#X obj 14 304 inlet~;
#X obj 34 53 init \$1;
#X obj 105 53 inlet;
#X msg 34 152 set REC-1;
#X msg 62 193 set REC-3;
#X msg 80 234 set REC-5;
#X msg 102 278 set REC-7;
#X msg 49 173 set REC-2;
#X msg 74 214 set REC-4;
#X msg 87 257 set REC-6;
#X msg 106 299 set REC-8;
#X msg 186 148 set REC-9;
#X msg 201 169 set REC-10;
#X msg 214 188 set REC-11;
#X msg 226 210 set REC-12;
#X msg 232 232 set REC-13;
#X msg 239 253 set REC-14;
#X msg 254 274 set REC-15;
#X msg 258 295 set REC-16;
#X obj 34 83 sel 1 2 3 4 5 6 7 8 9 10 11 12 13 14 15 16;
#X obj 76 361 throw~ REC-1;
#X connect 0 0 20 0;
#X connect 1 0 19 0;
#X connect 2 0 19 0;
#X connect 3 0 20 0;
#X connect 4 0 20 0;
#X connect 5 0 20 0;
#X connect 6 0 20 0;
#X connect 7 0 20 0;
#X connect 8 0 20 0;
#X connect 9 0 20 0;
#X connect 10 0 20 0;
#X connect 11 0 20 0;
#X connect 12 0 20 0;
#X connect 13 0 20 0;
#X connect 14 0 20 0;
#X connect 15 0 20 0;
#X connect 16 0 20 0;
#X connect 17 0 20 0;
#X connect 18 0 20 0;
#X connect 19 0 3 0;
#X connect 19 1 7 0;
#X connect 19 2 4 0;
#X connect 19 3 8 0;
#X connect 19 4 5 0;
#X connect 19 5 9 0;
#X connect 19 6 6 0;
#X connect 19 7 10 0;
#X connect 19 8 11 0;
#X connect 19 9 12 0;
#X connect 19 10 13 0;
#X connect 19 11 14 0;
#X connect 19 12 15 0;
#X connect 19 13 16 0;
#X connect 19 14 17 0;
#X connect 19 15 18 0;
