#N canvas 472 221 473 393 10;
#X obj 101 101 cnv 10 184 80 empty empty SYNCHRO 40 8 1 14 -261234
-1 0;
#X obj 103 117 hsl 170 15 5 240 0 0 \$2-bpm-snd \$2-bpm-rcv bpm:123.047
4 10 0 15 -129097 -262144 -241291 8489 1;
#X obj 225 136 tgl 30 0 \$2-on_off-snd \$2-on_off-rcv ON 0 17 1 15
-35364 -35364 -262144 1 1;
#X obj 102 146 nbx 5 14 -1e+37 1e+37 0 0 empty empty empty 0 -8 0 10
-262144 -1 -1 0 256;
#X obj 256 140 bng 25 50 25 0 \$2-tic-snd \$2-tic-rcv empty 0 -6 0
8 -1 -258699 -1;
#N canvas 2604 197 276 202 on/off 0;
#X obj 85 45 sel 0 1;
#X msg 107 113 label ON;
#X msg 85 86 label OFF;
#X text 86 2 on/off label;
#X obj 85 22 r \$2-on_off-snd;
#X obj 85 138 s \$2-on_off-rcv;
#X connect 0 0 2 0;
#X connect 0 1 1 0;
#X connect 1 0 5 0;
#X connect 2 0 5 0;
#X connect 4 0 0 0;
#X restore 313 229 pd on/off;
#N canvas 1981 514 236 151 bpm 0;
#X msg 85 68 label \$1;
#X obj 85 45 makesymbol bpm:%s;
#X text 73 1 bpm label;
#X obj 85 21 r \$2-bpm-snd;
#X obj 85 91 s \$2-bpm-rcv;
#X connect 0 0 4 0;
#X connect 1 0 0 0;
#X connect 3 0 1 0;
#X restore 313 248 pd bpm;
#N canvas 341 318 804 499 clock 0;
#X obj 301 72 /;
#X msg 301 50 60000 \$1;
#X msg 107 115 0;
#X obj 85 47 sel 0 1;
#X msg 76 115 -1;
#X obj 20 12 inlet;
#X obj 301 29 inlet;
#X obj 338 436 s \$1-time;
#X obj 369 52 t b f;
#X obj 333 84 / 1;
#X obj 361 29 r \$0-demesure;
#X obj 267 465 outlet;
#X obj 238 247 timer;
#X obj 238 276 / 1000;
#X obj 238 298 +;
#X obj 280 299 f;
#X obj 174 392 + 1;
#X obj 141 391 i;
#X obj 58 202 t f f;
#X obj 58 223 -;
#X obj 85 224 i;
#X msg 58 244 1 \$1;
#X obj 58 263 -;
#X obj 58 283 * 1000;
#X obj 171 206 t f b f b;
#X obj 171 173 r \$0-_setbeat_;
#X obj 188 448 s \$0-_setbeat_;
#X text 319 178 set tempo;
#X obj 315 193 t f b f;
#X obj 421 318 r \$0-_setbeat_;
#X floatatom 421 424 5 0 0 0 - - -, f 5;
#X obj 99 149 s \$0-_setbeat_;
#X obj 21 181 sel -1;
#X msg 141 314 stop;
#X obj 315 159 speedlim 50;
#X floatatom 464 57 5 0 0 0 - - -, f 5;
#X obj 58 305 spigot;
#X obj 108 284 != -1;
#X msg 94 73 stop;
#X msg 147 98 1;
#X obj 314 378 pack f 1000;
#X floatatom 409 133 5 0 0 0 - - -, f 5;
#X obj 58 326 max 1;
#X obj 20 34 t f f f;
#X obj 283 139 demux;
#X floatatom 302 345 5 0 0 0 - - -, f 5;
#X floatatom 137 469 5 0 0 0 - - -, f 5;
#X obj 141 337 del 1;
#X obj 107 96 del 1;
#X obj 170 11 r \$0-reset-snd;
#X msg 170 32 0;
#X obj 170 54 s \$0-_setbeat_;
#X floatatom 339 461 0 0 0 0 - - -;
#X floatatom 211 474 5 0 0 0 - - -, f 5;
#X floatatom 82 402 5 0 0 0 - - -, f 5;
#N canvas 662 961 450 300 spigotSJ-inv 0;
#X obj 32 58 spigot 0;
#X obj 32 23 inlet;
#X obj 158 33 r \$2-SJ_on-snd;
#X obj 32 86 outlet;
#X obj 156 56 - 1;
#X obj 156 77 abs;
#X obj 172 124 tgl 15 0 empty empty empty 17 7 0 10 -262144 -1 -1 1
1;
#X connect 0 0 3 0;
#X connect 1 0 0 0;
#X connect 2 0 4 0;
#X connect 4 0 5 0;
#X connect 5 0 0 1;
#X connect 5 0 6 0;
#X restore 172 425 pd spigotSJ-inv;
#X floatatom 177 494 5 0 0 0 - - -, f 5;
#X floatatom 275 101 5 0 0 0 - - -, f 5;
#X obj 422 109 line;
#N canvas 658 570 450 300 muxAb 0;
#X obj 31 72 inlet;
#X obj 30 232 outlet;
#X obj 281 151 - 1;
#X obj 281 172 abs;
#X obj 297 219 tgl 15 0 empty empty empty 17 7 0 10 -262144 -1 -1 0
1;
#X obj 103 75 r \$2-Ab_on-snd;
#X obj 91 14 r tic_mesure-Aubio;
#X obj 106 38 bng 15 250 50 0 empty empty empty 17 7 0 10 -262144 -1
-1;
#X obj 58 151 bng 15 250 50 0 empty empty empty 17 7 0 10 -262144 -1
-1;
#X obj 36 109 mux 0 1;
#X obj 115 122 tgl 15 0 empty empty empty 17 7 0 10 -262144 -1 -1 1
1;
#X obj 47 198 spigot;
#X obj 149 198 r \$2-on_off-snd;
#X obj 151 229 tgl 15 0 empty empty empty 17 7 0 10 -262144 -1 -1 0
1;
#X obj 157 125 print;
#X connect 0 0 9 0;
#X connect 2 0 3 0;
#X connect 3 0 4 0;
#X connect 5 0 9 2;
#X connect 5 0 10 0;
#X connect 6 0 7 0;
#X connect 6 0 9 1;
#X connect 9 0 8 0;
#X connect 9 0 11 0;
#X connect 11 0 1 0;
#X connect 12 0 11 1;
#X restore 104 364 pd muxAb;
#X obj 140 187 bng 15 250 50 0 empty empty empty 17 7 0 10 -262144
-1 -1;
#X obj 212 34 bng 15 250 50 0 empty empty empty 17 7 0 10 -262144 -1
-1;
#X floatatom 205 311 5 0 0 0 - - -, f 5;
#X obj 218 326 r \$2-Ab_on-snd;
#X obj 173 370 spigot 1;
#X obj 218 348 == 0;
#X msg 231 372 0;
#X obj 40 425 r \$2-Ab_on-snd;
#X obj 14 449 spigot 0;
#X connect 0 0 9 0;
#X connect 0 0 57 0;
#X connect 1 0 0 0;
#X connect 2 0 31 0;
#X connect 2 0 39 0;
#X connect 3 0 4 0;
#X connect 3 0 38 0;
#X connect 3 1 48 0;
#X connect 4 0 31 0;
#X connect 5 0 43 0;
#X connect 6 0 1 0;
#X connect 8 0 9 0;
#X connect 8 1 9 1;
#X connect 9 0 41 0;
#X connect 9 0 44 0;
#X connect 10 0 8 0;
#X connect 10 0 35 0;
#X connect 12 0 13 0;
#X connect 13 0 14 0;
#X connect 14 0 15 1;
#X connect 14 0 45 0;
#X connect 14 0 55 0;
#X connect 15 0 14 1;
#X connect 16 0 17 1;
#X connect 17 0 54 0;
#X connect 17 0 55 0;
#X connect 17 0 68 0;
#X connect 18 0 19 0;
#X connect 18 1 20 0;
#X connect 19 0 21 0;
#X connect 20 0 19 1;
#X connect 21 0 22 0;
#X connect 22 0 23 0;
#X connect 23 0 36 0;
#X connect 24 0 15 0;
#X connect 24 0 32 0;
#X connect 24 1 12 0;
#X connect 24 2 46 0;
#X connect 24 2 64 0;
#X connect 24 3 33 0;
#X connect 25 0 24 0;
#X connect 28 1 12 1;
#X connect 28 2 40 1;
#X connect 28 2 13 1;
#X connect 28 2 23 1;
#X connect 29 0 30 0;
#X connect 29 0 40 0;
#X connect 32 1 18 0;
#X connect 33 0 47 0;
#X connect 34 0 28 0;
#X connect 36 0 42 0;
#X connect 37 0 36 1;
#X connect 38 0 48 0;
#X connect 39 0 48 1;
#X connect 40 0 11 0;
#X connect 40 0 7 0;
#X connect 40 0 52 0;
#X connect 42 0 47 0;
#X connect 43 1 3 0;
#X connect 43 1 37 0;
#X connect 43 1 44 1;
#X connect 44 0 13 1;
#X connect 44 0 23 1;
#X connect 44 0 40 1;
#X connect 44 1 34 0;
#X connect 47 0 59 0;
#X connect 48 0 2 0;
#X connect 49 0 50 0;
#X connect 50 0 51 0;
#X connect 55 0 26 0;
#X connect 55 0 56 0;
#X connect 59 0 17 0;
#X connect 63 0 65 0;
#X connect 64 0 16 0;
#X connect 65 0 64 1;
#X connect 66 0 64 1;
#X connect 67 0 68 1;
#X connect 68 0 16 0;
#X restore 314 142 pd clock;
#N canvas 2070 696 159 209 mesure 0;
#X obj 42 55 unpack f f;
#X obj 91 102 i;
#X obj 43 76 t f f;
#X obj 43 118 sel 0;
#X obj 43 138 i;
#X obj 42 34 r \$2-clock;
#X obj 40 183 s \$2-tic-rcv;
#X connect 0 0 2 0;
#X connect 1 0 3 1;
#X connect 1 0 4 1;
#X connect 2 0 3 0;
#X connect 2 1 1 0;
#X connect 3 0 4 0;
#X connect 4 0 6 0;
#X connect 5 0 0 0;
#X restore 313 269 pd mesure;
#X obj 219 11 apsubmaster \$2 \$1 \$2;
#X obj 212 72 api \$2 \$2-on_off \$2-on_off;
#X obj 27 72 apf \$2 \$2-bpm \$2-bpm;
#X obj 314 98 r \$2-on_off-snd;
#X obj 329 118 r \$2-bpm-snd;
#X obj 314 208 s \$2-clock;
#N canvas 1859 371 804 499 shuflle 0;
#X obj 184 34 inlet;
#X obj 240 428 outlet;
#X obj 184 63 route -1;
#X obj 240 168 unpack f f;
#X obj 240 245 * 0.5;
#X obj 240 273 del;
#X msg 184 88 stop;
#X obj 240 304 f;
#X obj 295 112 t a a;
#X obj 350 124 unpack f f;
#X obj 350 200 pack f f;
#X obj 407 175 * 1;
#X msg 240 147 \$2 \$1;
#X obj 297 197 + 0.5;
#X obj 240 222 * 1;
#X obj 240 195 t f f;
#X obj 240 329 pack f f;
#X obj 285 258 * 1;
#X obj 449 68 t f f;
#X obj 453 21 hsl 128 15 0.1 1.9 0 0 \$2-shuffle-snd \$2-shuffle-rcv
shuffle -2 -8 0 10 -262144 -1 -1 0 1;
#X text 562 159 bpm0 -> bpm1 \, bpm2;
#X text 568 177 t=1/bpm0 = 1/2*bpm1 + 1/2*bpm2;
#X text 571 195 1/2bpm2=1/bpm0-1/2bpm1;
#X text 587 267 bpm1= bpm0/k;
#X text 568 219 bpm2=1/(2/bpm0-1/bpm1);
#X text 570 288 bpm2=1/(2/bpm0-k/bpm0);
#X text 591 302 =bpm0/(2-k);
#X obj 502 91 swap 2;
#X obj 502 113 -;
#X obj 502 135 swap 1;
#X obj 502 157 /;
#X obj 450 100 swap 1;
#X obj 450 122 /;
#X msg 392 26 1;
#X msg 125 246 -1;
#X obj 452 47 r \$2-shuffle-snd;
#X connect 0 0 2 0;
#X connect 2 0 6 0;
#X connect 2 0 34 0;
#X connect 2 1 8 0;
#X connect 3 0 15 0;
#X connect 3 1 13 0;
#X connect 4 0 5 0;
#X connect 5 0 7 0;
#X connect 6 0 5 0;
#X connect 7 0 16 0;
#X connect 8 0 12 0;
#X connect 8 1 9 0;
#X connect 9 0 10 0;
#X connect 9 1 11 0;
#X connect 10 0 1 0;
#X connect 11 0 10 1;
#X connect 12 0 3 0;
#X connect 13 0 7 1;
#X connect 14 0 4 0;
#X connect 15 0 14 0;
#X connect 15 1 17 0;
#X connect 16 0 1 0;
#X connect 17 0 16 1;
#X connect 18 0 31 0;
#X connect 18 1 27 0;
#X connect 27 0 28 0;
#X connect 27 1 28 1;
#X connect 28 0 29 0;
#X connect 29 0 30 0;
#X connect 29 1 30 1;
#X connect 30 0 11 1;
#X connect 30 0 14 1;
#X connect 31 0 32 0;
#X connect 31 1 32 1;
#X connect 32 0 17 1;
#X connect 33 0 19 0;
#X connect 34 0 1 0;
#X connect 35 0 18 0;
#X restore 327 174 pd shuflle;
#X obj 125 166 hsl 128 15 0.1 1.9 0 0 \$2-shuffle-snd \$2-shuffle-rcv
shuffle 4 8 0 10 -13330 -262144 -260097 0 1;
#X msg 97 252 1;
#X obj 105 166 bng 15 250 50 0 empty empty empty 17 7 0 10 -262144
-1 -1;
#X obj 163 145 tgl 18 1 \$2-SJ_on-snd \$2-SJ_on-rcv off 0 10 1 15 -258699
-258699 -262144 0 1;
#N canvas 2601 223 336 202 SJ_on 0;
#X obj 85 45 sel 0 1;
#X text 86 2 on/off label;
#X obj 85 22 r \$2-SJ_on-snd;
#X obj 117 137 s \$2-SJ_on-rcv;
#X msg 209 82 color 16 16 10;
#X msg 17 104 color 13 13 0;
#X obj 188 54 tgl 15 0 empty empty empty 17 7 0 10 -262144 -1 -1 0
1;
#X msg 117 85 label off;
#X msg 139 112 label on;
#X connect 0 0 7 0;
#X connect 0 0 5 0;
#X connect 0 1 8 0;
#X connect 0 1 4 0;
#X connect 2 0 0 0;
#X connect 2 0 6 0;
#X connect 4 0 3 0;
#X connect 5 0 3 0;
#X connect 7 0 3 0;
#X connect 8 0 3 0;
#X restore 393 209 pd SJ_on;
#N canvas 576 961 450 300 spigotSJ 0;
#X obj 32 58 spigot 0;
#X obj 32 23 inlet;
#X obj 85 27 r \$2-SJ_on-snd;
#X obj 32 86 outlet;
#X connect 0 0 3 0;
#X connect 1 0 0 0;
#X connect 2 0 0 1;
#X restore 21 39 pd spigotSJ;
#X obj 233 292 syncjams-gui-connector-help;
#X obj 45 16 hsl 128 15 5 240 0 0 /\$2-bpmSJ/1 /\$2-bpmSJ/1/r /\$2-bpmSJ/1
-2 -8 0 10 -262144 -1 -1 0 0;
#X obj 29 339 syncjams-gui-connector \$0/syncj /\$2-bpmSJ/1 /\$2-bpmSJ/1/r
;
#N canvas 2937 85 450 526 SJ 0;
#X floatatom 131 182 5 0 0 0 - - -, f 5;
#X obj 113 119 syncjams \$0/syncj;
#X msg 63 66 set-state /BPM \$1;
#X obj 63 36 r \$2-bpm-snd;
#X obj 113 141 route tick state;
#X obj 207 207 route /BPM;
#X floatatom 300 233 5 0 0 0 - - -, f 5;
#X floatatom 327 192 5 0 0 0 - - -, f 5;
#X obj 167 163 list split 1;
#X obj 207 185 list trim;
#N canvas 576 961 450 300 spigotSJ 0;
#X obj 32 58 spigot 0;
#X obj 32 23 inlet;
#X obj 85 27 r \$2-SJ_on-snd;
#X obj 32 86 outlet;
#X connect 0 0 3 0;
#X connect 1 0 0 0;
#X connect 2 0 0 1;
#X restore 207 231 pd spigotSJ;
#X obj 210 259 s \$2-bpm-rcv;
#X obj 113 315 s \$0-_setbeat_;
#N canvas 184 810 450 300 spigotSJ 0;
#X obj 32 58 spigot 0;
#X obj 32 23 inlet;
#X obj 85 27 r \$2-SJ_on-snd;
#X obj 32 86 outlet;
#X obj 125 90 tgl 15 0 empty empty empty 17 7 0 10 -262144 -1 -1 0
1;
#X connect 0 0 3 0;
#X connect 1 0 0 0;
#X connect 2 0 0 1;
#X connect 2 0 4 0;
#X restore 113 271 pd spigotSJ;
#X floatatom 209 300 5 0 0 0 - - -, f 5;
#X obj 268 316 r \$2-SJ_on-snd;
#X obj 269 382 s \$2-on_off-snd;
#X obj 268 340 t b;
#X msg 269 359 0;
#X connect 1 0 4 0;
#X connect 2 0 1 0;
#X connect 3 0 2 0;
#X connect 4 0 0 0;
#X connect 4 0 13 0;
#X connect 4 1 8 0;
#X connect 5 0 10 0;
#X connect 8 1 9 0;
#X connect 9 0 5 0;
#X connect 10 0 11 0;
#X connect 13 0 12 0;
#X connect 13 0 14 0;
#X connect 15 0 17 0;
#X connect 17 0 18 0;
#X connect 18 0 16 0;
#X restore 282 34 pd SJ;
#X obj 174 238 l syncjams-kep;
#X obj 28 316 l syncjams-gui-connector \$0/syncj \$2-bpm-snd \$2-bpm-rcv
;
#X text 161 131 SJ;
#X obj 192 145 tgl 18 1 \$2-Ab_on-snd \$2-Ab_on-rcv on 0 10 1 15 -24198
-24198 -233017 1 1;
#X text 190 131 Ab;
#N canvas 349 492 450 247 Ab 1;
#X floatatom 150 127 5 0 0 0 - - -, f 5;
#X obj 77 197 s \$2-bpm-rcv;
#X obj 239 115 s \$2-on_off-snd;
#X obj 238 73 t b;
#X msg 239 92 0;
#X obj 238 49 r \$2-Ab_on-snd;
#N canvas 571 572 450 300 spigotAb 0;
#X obj 32 58 spigot 0;
#X obj 32 23 inlet;
#X obj 32 86 outlet;
#X obj 85 27 r \$2-Ab_on-snd;
#X connect 0 0 2 0;
#X connect 1 0 0 0;
#X connect 3 0 0 1;
#X restore 77 173 pd spigotAb;
#X obj 53 22 r aubiotempo;
#X floatatom 137 55 5 0 0 0 - - -, f 5;
#X obj 78 153 /;
#X msg 78 132 60000 \$1;
#X obj 39 83 line;
#X msg 39 60 \$1 500;
#X connect 3 0 4 0;
#X connect 4 0 2 0;
#X connect 5 0 3 0;
#X connect 6 0 1 0;
#X connect 7 0 8 0;
#X connect 7 0 10 0;
#X connect 9 0 6 0;
#X connect 10 0 9 0;
#X connect 12 0 11 0;
#X restore 349 31 pd Ab;
#N canvas 2598 249 336 202 Ab_on 0;
#X obj 85 45 sel 0 1;
#X text 86 2 on/off label;
#X msg 209 82 color 16 16 10;
#X msg 17 104 color 13 13 0;
#X obj 188 54 tgl 15 0 empty empty empty 17 7 0 10 -262144 -1 -1 1
1;
#X msg 117 85 label off;
#X msg 139 112 label on;
#X obj 85 22 r \$2-Ab_on-snd;
#X obj 117 137 s \$2-Ab_on-rcv;
#X connect 0 0 5 0;
#X connect 0 0 3 0;
#X connect 0 1 6 0;
#X connect 0 1 2 0;
#X connect 2 0 8 0;
#X connect 3 0 8 0;
#X connect 5 0 8 0;
#X connect 6 0 8 0;
#X connect 7 0 0 0;
#X connect 7 0 4 0;
#X restore 389 241 pd Ab_on;
#X connect 3 0 1 0;
#X connect 7 0 14 0;
#X connect 12 0 7 0;
#X connect 13 0 7 1;
#X connect 15 0 14 0;
#X connect 17 0 16 0;
#X connect 18 0 17 0;
#X connect 23 0 21 0;
#X coords 0 -1 1 1 186 82 1 100 100;
