#N canvas 1857 221 812 797 10;
#X obj 51 11 cnv 15 40 115 empty empty \$1 1 5 1 8 -4032 -1 0;
#X obj 58 111 bng 10 250 50 0 empty empty empty 17 7 0 10 -4034 -1
-1;
#X obj 75 111 bng 10 250 50 0 empty empty empty 17 7 0 10 -258113 -1
-1;
#N canvas 2221 392 392 407 KEPboutons 0;
#X obj 224 138 tLock \$1 1/1;
#X obj 224 158 tLock \$1 1/2;
#X obj 225 178 tLock \$1 1/3;
#X obj 225 198 tLock \$1 1/4;
#X obj 209 254 KEPbus \$1 lr -lr- lrouge;
#X obj 209 277 KEPbus \$1 lv -lv- lvert;
#X obj 9 227 KEPbus \$1 On On tREC;
#X obj 12 356 KEPbus \$1 lOn lOn tlREC;
#X obj 8 75 KEPbus \$1 Densite Densite b4;
#X obj 9 138 KEPbus \$1 Trig Col t1;
#X obj 9 159 KEPbus \$1 Evnt Alph t2;
#X obj 8 182 KEPbus \$1 Tic Rot t3;
#X obj 14 265 KEPbus \$1 lTrig lCol tl1;
#X obj 15 288 KEPbus \$1 lEvnt lAlph tl2;
#X obj 18 309 KEPbus \$1 lTic lRot tl3;
#X obj 10 203 KEPbus \$1 Pos Pos t4;
#X obj 16 331 KEPbus \$1 lPos lPos tl4;
#X obj 8 97 KEPbus \$1 RotAmp AlphaDensite b5;
#X obj 8 8 KEPbus \$1 Vitesse R b1;
#X obj 10 29 KEPbus \$1 Phase V b2;
#X obj 7 55 KEPbus \$1 Inertie B b3;
#X restore 358 100 pd KEPboutons;
#X obj 108 39 KEPface \$1;
#X obj 37 159 KEPCommon \$1 \$0;
#X text 110 7 Group : construit les Groupes de projecteurs;
#N canvas 2991 558 450 401 Tic/Evnt-led 0;
#X obj 211 70 tgl 15 0 empty empty empty 17 7 0 10 -262144 -1 -1 0
1;
#X obj 239 59 sel 1;
#X obj 238 36 r \$1-Evnt;
#X msg 239 81 1;
#X obj 168 54 sel 1;
#X obj 167 31 r \$1-Tic;
#X obj 108 223 s \$1-lTic;
#X obj 199 212 s \$1-lEvnt;
#X obj 147 126 sel 0 1;
#X msg 100 163 1;
#X msg 121 186 0;
#X msg 220 176 1;
#X msg 181 171 0;
#X msg 165 79 0;
#X obj 327 207 s \$0-Trig/Evnt;
#X obj 300 154 r \$1-lEvnt;
#X obj 175 267 r \$1-lTic;
#X obj 175 289 change;
#X obj 175 311 == 0;
#X obj 175 334 s \$1-lEvnt;
#X obj 288 294 change;
#X obj 288 316 == 0;
#X obj 288 271 r \$1-lEvnt;
#X obj 288 338 s \$1-lTic;
#X connect 1 0 3 0;
#X connect 2 0 0 0;
#X connect 2 0 1 0;
#X connect 3 0 8 0;
#X connect 4 0 13 0;
#X connect 5 0 4 0;
#X connect 8 0 9 0;
#X connect 8 0 12 0;
#X connect 8 1 11 0;
#X connect 8 1 10 0;
#X connect 9 0 6 0;
#X connect 10 0 6 0;
#X connect 11 0 7 0;
#X connect 12 0 7 0;
#X connect 13 0 8 0;
#X connect 15 0 14 0;
#X connect 16 0 17 0;
#X connect 17 0 18 0;
#X connect 18 0 19 0;
#X connect 20 0 21 0;
#X connect 21 0 23 0;
#X connect 22 0 20 0;
#X restore 355 56 pd Tic/Evnt-led;
#N canvas 2117 638 450 300 On-led 0;
#X obj 148 37 r \$1-On;
#X obj 147 143 s \$1-lOn;
#X obj 231 100 s \$0-onoff;
#X obj 242 37 r \$1-lOn;
#X obj 148 86 sel 1;
#X obj 148 60 change;
#X obj 148 114 f;
#X obj 184 114 == 0;
#X connect 0 0 5 0;
#X connect 3 0 2 0;
#X connect 3 0 7 0;
#X connect 4 0 6 0;
#X connect 5 0 4 0;
#X connect 6 0 1 0;
#X connect 7 0 6 1;
#X restore 357 33 pd On-led;
#X obj 54 22 MASTERtypeNbPos \$0;
#N canvas 2416 662 228 125 speed 0;
#X obj 55 58 outlet;
#N canvas 2008 476 708 443 Vitesse 0;
#X obj 140 365 outlet;
#X obj 102 96 i;
#X obj 150 324 t a;
#X obj 99 131 change -1;
#X obj 66 319 bng 15 250 50 0 empty empty empty 17 7 0 10 -262144 -1
-1;
#X obj 102 42 * 7.9;
#X msg 48 185 1;
#X msg 81 205 2;
#X msg 111 221 3;
#X msg 133 198 4;
#X msg 153 228 6;
#X msg 169 196 8;
#X msg 183 221 12;
#X msg 215 235 16;
#X obj 102 70 + 0;
#X obj 99 154 sel 0 1 2 3 4 5 6 7;
#X floatatom 167 72 5 0 0 0 - - -, f 5;
#X obj 102 16 r \$1-Vitesse;
#X connect 1 0 3 0;
#X connect 2 0 0 0;
#X connect 3 0 15 0;
#X connect 5 0 14 0;
#X connect 6 0 2 0;
#X connect 7 0 2 0;
#X connect 8 0 2 0;
#X connect 9 0 2 0;
#X connect 10 0 2 0;
#X connect 11 0 2 0;
#X connect 12 0 2 0;
#X connect 13 0 2 0;
#X connect 14 0 1 0;
#X connect 15 0 6 0;
#X connect 15 1 7 0;
#X connect 15 2 8 0;
#X connect 15 3 9 0;
#X connect 15 4 10 0;
#X connect 15 5 11 0;
#X connect 15 6 12 0;
#X connect 15 7 13 0;
#X connect 17 0 5 0;
#X connect 17 0 16 0;
#X restore 55 10 pd Vitesse;
#N canvas 2101 414 740 507 trig 0;
#X obj 124 269 spigot;
#X obj 104 311 bng 15 250 50 0 empty empty empty 17 7 0 10 -262144
-1 -1;
#X obj 121 19 r SYNCHRO-clock;
#X obj 235 219 r \$0-onoff;
#X floatatom 26 128 5 0 0 0 - - -, f 5;
#X obj 246 140 t b f;
#X obj 248 92 inlet;
#X obj 164 357 outlet;
#X obj 121 45 unpack f f;
#X obj 116 79 mod 4;
#X obj 116 102 sel 0;
#X obj 116 162 pack f f;
#X obj 188 68 * 4;
#X obj 75 212 bng 15 250 50 0 empty empty empty 17 7 0 10 -262144 -1
-1;
#X obj 144 305 spigot;
#X obj 247 269 r SYNCHRO-on_off-snd;
#X obj 139 350 bng 15 250 50 0 empty empty empty 17 7 0 10 -262144
-1 -1;
#X obj 116 135 f;
#X obj 326 47 hsl 128 15 0 1 0 0 empty empty empty -2 -8 0 10 -262144
-1 -1 0 1;
#X floatatom 326 132 5 0 0 0 - - -, f 5;
#X obj 116 206 ndmetro;
#X msg 246 191 nd \$1 \$2;
#X floatatom 372 177 5 0 0 0 - - -, f 5;
#X obj 69 327 del;
#X floatatom 28 231 5 0 0 0 - - -, f 5;
#X floatatom 183 167 5 0 0 0 - - -, f 5;
#X obj 246 169 pack 64 16;
#X floatatom 46 281 5 0 0 0 - - -, f 5;
#X obj 319 104 / 16;
#X obj 333 79 t b f;
#X obj 323 21 inlet phase;
#X connect 0 0 14 0;
#X connect 2 0 4 0;
#X connect 2 0 8 0;
#X connect 3 0 0 1;
#X connect 5 0 26 0;
#X connect 5 1 26 1;
#X connect 5 1 29 0;
#X connect 6 0 5 0;
#X connect 6 0 22 0;
#X connect 8 0 9 0;
#X connect 8 1 12 0;
#X connect 9 0 10 0;
#X connect 10 0 17 0;
#X connect 11 0 20 0;
#X connect 11 0 13 0;
#X connect 11 0 24 0;
#X connect 12 0 11 1;
#X connect 12 0 25 0;
#X connect 14 0 16 0;
#X connect 14 0 7 0;
#X connect 15 0 14 1;
#X connect 17 0 11 0;
#X connect 18 0 28 0;
#X connect 20 0 1 0;
#X connect 20 0 0 0;
#X connect 20 0 23 0;
#X connect 20 0 27 0;
#X connect 21 0 20 0;
#X connect 26 0 21 0;
#X connect 28 0 17 1;
#X connect 28 0 19 0;
#X connect 29 0 28 0;
#X connect 29 1 28 1;
#X connect 30 0 18 0;
#X restore 55 33 pd trig;
#X obj 123 9 r \$1-Phase;
#X connect 1 0 2 0;
#X connect 2 0 0 0;
#X connect 3 0 2 1;
#X restore 157 154 pd speed;
#X obj 38 393 bng 25 250 50 0 empty empty empty 17 7 0 10 -262144 -1
-1;
#N canvas 2375 541 335 210 Trig 0;
#X obj 73 45 r \$1-Trig;
#X obj 73 70 sel 1;
#X obj 147 114 s \$1-lTrig;
#X obj 70 118 outlet;
#X connect 0 0 1 0;
#X connect 0 0 2 0;
#X connect 1 0 3 0;
#X restore 104 317 pd Trig;
#N canvas 1706 628 355 296 Tic/Evnt 0;
#X obj 96 37 inlet;
#X obj 114 246 outlet;
#X obj 190 52 bng 15 250 50 0 empty empty empty 17 7 0 10 -262144 -1
-1;
#X obj 142 165 bng 15 250 50 0 empty empty empty 17 7 0 10 -262144
-1 -1;
#X obj 120 123 mux 0 1;
#X obj 199 136 tgl 15 0 empty empty empty 17 7 0 10 -262144 -1 -1 0
1;
#X obj 175 28 inlet;
#X obj 80 70 bng 15 250 50 0 empty empty empty 17 7 0 10 -262144 -1
-1;
#X obj 178 87 r \$0-Trig/Evnt;
#X obj 124 215 spigot;
#X obj 241 199 r \$0-onoff;
#X obj 244 240 tgl 15 0 empty empty empty 17 7 0 10 -262144 -1 -1 0
1;
#X obj 184 261 bng 15 250 50 0 empty empty empty 17 7 0 10 -262144
-1 -1;
#X connect 0 0 4 0;
#X connect 0 0 7 0;
#X connect 4 0 3 0;
#X connect 4 0 9 0;
#X connect 6 0 2 0;
#X connect 6 0 4 1;
#X connect 8 0 4 2;
#X connect 9 0 1 0;
#X connect 9 0 12 0;
#X connect 10 0 9 1;
#X connect 10 0 11 0;
#X restore 181 177 pd Tic/Evnt;
#X obj 177 464 t b b;
#X obj 164 520 + 1;
#X obj 243 514 + 1;
#X obj 203 583 tabread PVJ-projsPos;
#X obj 270 560 tabread PVJ-projsPos;
#X obj 163 552 t f f;
#X obj 243 536 t f f;
#X obj 176 625 pack f f f f;
#X obj 176 743 s PVJ-projs-rcv;
#X msg 176 652 \$1 pos \$4 \, \$3 pos \$2;
#X msg 365 660 -1 initpos;
#X obj 176 336 bng 50 250 50 0 empty empty empty 17 7 0 10 -262144
-1 -1;
#X msg 297 347 setK 0.05 \, setD 0 \, setD2 30;
#X msg 515 526 setK 1 \, setD 0 \, setD2 30;
#X msg 471 496 setK 3000 \, setD 1000 \, setD2 5000;
#X obj 467 651 s PVJ-posInertia;
#X obj 412 560 s PVJ-posInertia;
#X msg 355 396 setK 10 \, setD 50 \, setD2 300;
#X obj 178 443 until;
#X obj 152 131 r SYNCHRO-clock;
#X obj 176 292 sel 0;
#X obj 176 269 mod 4;
#X obj 176 247 unpack f f;
#X obj 178 420 f 10;
#X msg 384 418 setK 100 \, setD 500 \, setD2 3000;
#X obj 369 226 hradio 15 1 0 5 empty empty empty 0 -8 0 10 -262144
-1 -1 0;
#X obj 369 246 > 0;
#X obj 176 314 spigot;
#X msg 403 276 8;
#X msg 432 276 4;
#X msg 459 276 2;
#X msg 489 275 1;
#X obj 417 308 f;
#X obj 636 273 hradio 15 1 0 5 empty empty empty 0 -8 0 10 -262144
-1 -1 0;
#X obj 636 293 sel 0 1 2 3 4;
#X msg 327 372 setK 1 \, setD 10 \, setD2 200;
#X msg 408 444 setK 300 \, setD 500 \, setD2 200;
#X obj 623 623 hradio 15 1 0 6 empty empty empty 0 -8 0 10 -262144
-1 -1 0;
#X floatatom 623 699 5 0 0 0 - - -, f 5;
#X msg 623 656 1 \$1;
#X obj 623 677 <<;
#X text 636 215 inertie;
#X obj 86 397 print;
#X text 635 589 densite;
#X obj 367 163 r \$1-Vitesse;
#X obj 369 205 i;
#X floatatom 465 179 5 0 0 0 - - -, f 5;
#X obj 594 206 * 4.5;
#X obj 595 226 i;
#X obj 593 184 r \$1-Inertie;
#X obj 594 579 * 4.5;
#X obj 595 599 i;
#X obj 593 557 r \$1-Densite;
#X obj 176 227 spigot;
#X obj 215 205 r \$0-onoff;
#X obj 552 125 spigot;
#X obj 591 103 r SYNCHRO-on_off-snd;
#X obj 368 185 * 5.5;
#X obj 405 244 sel 1 2 3 4;
#X obj 283 139 r tic_evenement-Aubio;
#N canvas 2015 221 450 300 Col-led 0;
#X obj 148 86 sel 1;
#X obj 148 60 change;
#X obj 148 114 f;
#X obj 184 114 == 0;
#X obj 231 99 s \$0-RdCol;
#X obj 242 37 r \$1-lCol;
#X obj 147 143 s \$1-lCol;
#X obj 148 37 r \$1-Col;
#X connect 0 0 2 0;
#X connect 1 0 0 0;
#X connect 2 0 6 0;
#X connect 3 0 2 1;
#X connect 5 0 3 0;
#X connect 5 0 4 0;
#X connect 7 0 1 0;
#X restore 470 32 pd Col-led;
#N canvas 2008 221 450 300 Alph-led 0;
#X obj 148 86 sel 1;
#X obj 148 60 change;
#X obj 148 114 f;
#X obj 184 114 == 0;
#X obj 148 37 r \$1-Alph;
#X obj 147 143 s \$1-lAlph;
#X obj 231 99 s \$0-RdAlph;
#X obj 242 37 r \$1-lAlph;
#X connect 0 0 2 0;
#X connect 1 0 0 0;
#X connect 2 0 5 0;
#X connect 3 0 2 1;
#X connect 4 0 1 0;
#X connect 7 0 3 0;
#X connect 7 0 6 0;
#X restore 475 58 pd Alph-led;
#N canvas 2004 222 450 300 Rot-led 0;
#X obj 148 86 sel 1;
#X obj 148 60 change;
#X obj 148 114 f;
#X obj 184 114 == 0;
#X obj 149 36 r \$1-Rot;
#X obj 147 143 s \$1-lRot;
#X obj 231 99 s \$0-RdRot;
#X obj 241 37 r \$1-lRot;
#X connect 0 0 2 0;
#X connect 1 0 0 0;
#X connect 2 0 5 0;
#X connect 3 0 2 1;
#X connect 4 0 1 0;
#X connect 7 0 3 0;
#X connect 7 0 6 0;
#X restore 474 84 pd Rot-led;
#N canvas 1998 220 450 300 Pos-led 0;
#X obj 148 86 sel 1;
#X obj 148 60 change;
#X obj 148 114 f;
#X obj 184 114 == 0;
#X obj 150 36 r \$1-Pos;
#X obj 148 143 s \$1-lPos;
#X obj 231 99 s \$0-RdPos;
#X obj 241 37 r \$1-lPos;
#X connect 0 0 2 0;
#X connect 1 0 0 0;
#X connect 2 0 5 0;
#X connect 3 0 2 1;
#X connect 4 0 1 0;
#X connect 7 0 3 0;
#X connect 7 0 6 0;
#X restore 467 110 pd Pos-led;
#X obj 176 699 spigot;
#X obj 215 676 r \$0-RdPos;
#N canvas 2006 367 424 472 Rot 0;
#X obj 79 379 spigot;
#X obj 180 302 r \$0-RdRot;
#X obj 79 3 inlet;
#X obj 79 401 outlet;
#X obj 79 96 t b f;
#X obj 79 118 random 100;
#X obj 79 140 <;
#X obj 164 91 r \$1-Densite;
#X obj 164 113 * 100;
#X obj 79 162 sel 1;
#X obj 181 212 * 180;
#X obj 181 188 r \$1-RotAmp;
#X obj 79 284 pack f f;
#X obj 226 211 hsl 128 15 0 1 0 0 empty empty empty -2 -8 0 10 -262144
-1 -1 0 1;
#X obj 207 112 hsl 128 15 0 1 0 0 empty empty empty -2 -8 0 10 -262144
-1 -1 0 1;
#X obj 79 192 random 200000;
#X obj 79 214 / 100000;
#X obj 79 236 - 1;
#X obj 79 258 *;
#X obj 79 332 refreshVar2;
#X msg 79 355 \$1 rot2 \$2;
#X msg 79 308 \$2 \$1;
#X msg 79 26 1 \, 2 \, 3 \, 4 \, 5 \, 6 \, 7 \, 8 \, 9 \, 10 \, 11
\, 12 \, 13 \, 14 \, 15 \, 16 \, 17 \, 18 \, 19 \, 20, f 29;
#X connect 0 0 3 0;
#X connect 1 0 0 1;
#X connect 1 0 19 1;
#X connect 2 0 22 0;
#X connect 4 0 5 0;
#X connect 4 1 12 1;
#X connect 5 0 6 0;
#X connect 6 0 9 0;
#X connect 7 0 8 0;
#X connect 8 0 6 1;
#X connect 9 0 15 0;
#X connect 10 0 18 1;
#X connect 11 0 10 0;
#X connect 12 0 21 0;
#X connect 13 0 10 0;
#X connect 14 0 8 0;
#X connect 15 0 16 0;
#X connect 16 0 17 0;
#X connect 17 0 18 0;
#X connect 18 0 12 0;
#X connect 19 0 20 0;
#X connect 20 0 0 0;
#X connect 21 0 19 0;
#X connect 22 0 4 0;
#X restore 60 555 pd Rot;
#N canvas 1555 437 399 472 Alpha 0;
#X obj 41 363 spigot;
#X obj 41 15 inlet;
#X obj 41 385 outlet;
#X obj 41 122 t b f;
#X obj 41 144 random 100;
#X obj 41 166 <;
#X obj 112 108 r \$1-Densite;
#X obj 112 130 * 100;
#X obj 41 188 sel 1;
#X obj 41 263 pack f f;
#X obj 189 239 hsl 128 15 0 1 0 0 empty empty empty -2 -8 0 10 -262144
-1 -1 0 1;
#X obj 127 163 hsl 128 15 0 1 0 0 empty empty empty -2 -8 0 10 -262144
-1 -1 0 1;
#X obj 41 218 random 200000;
#X obj 41 311 refreshVar2;
#X msg 41 287 \$2 \$1;
#X obj 129 212 r \$1-AlphaDensite;
#X obj 129 236 * 200000;
#X msg 41 333 \$1 alpha2 \$2;
#X obj 41 240 <;
#X obj 110 396 bng 15 250 50 0 empty empty empty 17 7 0 10 -262144
-1 -1;
#X obj 171 325 tgl 15 0 empty empty empty 17 7 0 10 -262144 -1 -1 0
1;
#X obj 148 267 r \$0-RdAlph;
#X msg 41 39 1 \, 2 \, 3 \, 4 \, 5 \, 6 \, 7 \, 8 \, 9 \, 10 \, 11
\, 12 \, 13 \, 14 \, 15 \, 16 \, 17 \, 18 \, 19 \, 20;
#X connect 0 0 2 0;
#X connect 1 0 22 0;
#X connect 3 0 4 0;
#X connect 3 1 9 1;
#X connect 4 0 5 0;
#X connect 5 0 8 0;
#X connect 6 0 7 0;
#X connect 7 0 5 1;
#X connect 8 0 12 0;
#X connect 9 0 14 0;
#X connect 10 0 16 0;
#X connect 11 0 7 0;
#X connect 12 0 18 0;
#X connect 13 0 17 0;
#X connect 14 0 13 0;
#X connect 15 0 16 0;
#X connect 16 0 18 1;
#X connect 17 0 0 0;
#X connect 18 0 9 0;
#X connect 21 0 0 1;
#X connect 21 0 13 1;
#X connect 21 0 20 0;
#X connect 22 0 3 0;
#X restore 93 582 pd Alpha;
#X obj 42 667 spigot;
#X obj 81 645 r \$0-onoff;
#N canvas 1607 332 480 599 Color 0;
#X obj 41 449 spigot;
#X obj 41 15 inlet;
#X obj 41 471 outlet;
#X obj 41 122 t b f;
#X obj 41 144 random 100;
#X obj 41 166 <;
#X obj 112 108 r \$1-Densite;
#X obj 112 130 * 100;
#X obj 41 188 sel 1;
#X obj 262 203 hsl 128 15 0 1 0 0 empty empty empty -2 -8 0 10 -262144
-1 -1 0 1;
#X obj 127 163 hsl 128 15 0 1 0 0 empty empty empty -2 -8 0 10 -262144
-1 -1 0 1;
#X obj 145 352 r \$0-RdCol;
#X obj 41 241 random 100000;
#X obj 41 210 t b b b;
#X obj 98 264 r \$1-R;
#X obj 41 263 / 100000;
#X obj 41 285 *;
#X obj 98 286 * -1;
#X obj 41 307 + 1;
#X obj 41 349 pack f f f f;
#X msg 41 373 \$4 \$1 \$2 \$3;
#X obj 41 397 refreshColor2;
#X obj 147 241 random 100000;
#X obj 147 263 / 100000;
#X obj 147 285 *;
#X obj 204 286 * -1;
#X obj 147 307 + 1;
#X obj 256 241 random 100000;
#X obj 256 263 / 100000;
#X obj 256 285 *;
#X obj 313 286 * -1;
#X obj 256 307 + 1;
#X obj 204 263 r \$1-V;
#X obj 313 264 r \$1-B;
#X obj 258 436 bng 15 250 50 0 empty empty empty 17 7 0 10 -262144
-1 -1;
#X obj 253 402 print;
#X msg 41 419 \$1 color2 \$2 \$3 \$4;
#X obj 256 375 spigot;
#X obj 320 342 tgl 15 0 empty empty empty 17 7 0 10 -262144 -1 -1 0
1;
#X msg 274 136 \$1 1 1 1;
#X obj 274 73 loadbang;
#X msg 41 39 1 \, 2 \, 3 \, 4 \, 5 \, 6 \, 7 \, 8 \, 9 \, 10 \, 11
\, 12 \, 13 \, 14 \, 15 \, 16 \, 17 \, 18 \, 19 \, 20;
#X msg 274 97 1 \, 2 \, 3 \, 4 \, 5 \, 6 \, 7 \, 8 \, 9 \, 10 \, 11
\, 12 \, 13 \, 14 \, 15 \, 16 \, 17 \, 18 \, 19 \, 20;
#X connect 0 0 2 0;
#X connect 0 0 37 0;
#X connect 1 0 41 0;
#X connect 3 0 4 0;
#X connect 3 1 19 3;
#X connect 4 0 5 0;
#X connect 5 0 8 0;
#X connect 6 0 7 0;
#X connect 7 0 5 1;
#X connect 8 0 13 0;
#X connect 10 0 7 0;
#X connect 11 0 0 1;
#X connect 11 0 21 1;
#X connect 12 0 15 0;
#X connect 13 0 12 0;
#X connect 13 1 22 0;
#X connect 13 2 27 0;
#X connect 14 0 17 0;
#X connect 15 0 16 0;
#X connect 16 0 18 0;
#X connect 17 0 16 1;
#X connect 18 0 19 0;
#X connect 19 0 20 0;
#X connect 20 0 21 0;
#X connect 21 0 36 0;
#X connect 22 0 23 0;
#X connect 23 0 24 0;
#X connect 24 0 26 0;
#X connect 25 0 24 1;
#X connect 26 0 19 1;
#X connect 27 0 28 0;
#X connect 28 0 29 0;
#X connect 29 0 31 0;
#X connect 30 0 29 1;
#X connect 31 0 19 2;
#X connect 32 0 25 0;
#X connect 33 0 30 0;
#X connect 36 0 0 0;
#X connect 37 0 35 0;
#X connect 38 0 37 1;
#X connect 39 0 21 0;
#X connect 40 0 42 0;
#X connect 41 0 3 0;
#X connect 42 0 39 0;
#X restore 107 609 pd Color;
#X obj 164 498 random 20;
#X obj 243 492 random 20;
#X obj 637 251 spigot;
#X obj 676 229 r \$0-onoff;
#X connect 1 0 5 0;
#X connect 2 0 5 1;
#X connect 10 0 13 0;
#X connect 12 0 25 0;
#X connect 13 0 67 0;
#X connect 14 0 85 0;
#X connect 14 1 86 0;
#X connect 15 0 19 0;
#X connect 16 0 20 0;
#X connect 17 0 21 1;
#X connect 18 0 21 3;
#X connect 19 0 21 0;
#X connect 19 1 17 0;
#X connect 20 0 21 2;
#X connect 20 1 18 0;
#X connect 21 0 23 0;
#X connect 23 0 78 0;
#X connect 24 0 22 0;
#X connect 25 0 80 0;
#X connect 25 0 37 0;
#X connect 25 0 81 0;
#X connect 25 0 84 0;
#X connect 26 0 30 0;
#X connect 27 0 30 0;
#X connect 28 0 30 0;
#X connect 31 0 30 0;
#X connect 32 0 14 0;
#X connect 34 0 41 0;
#X connect 35 0 34 0;
#X connect 36 0 35 0;
#X connect 37 0 32 0;
#X connect 38 0 30 0;
#X connect 39 0 40 0;
#X connect 39 0 72 0;
#X connect 40 0 41 1;
#X connect 41 0 25 0;
#X connect 42 0 46 0;
#X connect 43 0 46 0;
#X connect 44 0 46 0;
#X connect 45 0 46 0;
#X connect 46 0 35 1;
#X connect 47 0 48 0;
#X connect 48 0 26 0;
#X connect 48 1 49 0;
#X connect 48 2 31 0;
#X connect 48 3 38 0;
#X connect 48 4 50 0;
#X connect 49 0 30 0;
#X connect 50 0 30 0;
#X connect 51 0 53 0;
#X connect 53 0 54 0;
#X connect 54 0 52 0;
#X connect 54 0 37 1;
#X connect 58 0 71 0;
#X connect 59 0 60 0;
#X connect 59 0 39 0;
#X connect 61 0 62 0;
#X connect 62 0 87 0;
#X connect 63 0 61 0;
#X connect 64 0 65 0;
#X connect 65 0 51 0;
#X connect 66 0 64 0;
#X connect 67 0 36 0;
#X connect 68 0 67 1;
#X connect 70 0 69 1;
#X connect 71 0 59 0;
#X connect 72 0 42 0;
#X connect 72 1 43 0;
#X connect 72 2 44 0;
#X connect 72 3 45 0;
#X connect 73 0 13 1;
#X connect 78 0 22 0;
#X connect 79 0 78 1;
#X connect 80 0 82 0;
#X connect 81 0 82 0;
#X connect 82 0 22 0;
#X connect 83 0 82 1;
#X connect 84 0 82 0;
#X connect 85 0 15 0;
#X connect 86 0 16 0;
#X connect 87 0 47 0;
#X connect 88 0 87 1;
#X coords 0 -1 1 1 42 117 2 50 10;
