#N canvas 102 95 634 671 10;
#X declare -lib libdir -lib ggee -stdpath ggee;
#X declare -lib libdir -lib ggee -stdpath ggee;
#X declare -lib libdir -lib ggee -stdpath ggee;
#X declare -lib libdir -lib ggee -stdpath ggee;
#X declare -lib libdir -lib ggee -stdpath ggee;
#X declare -lib libdir -lib ggee -stdpath ggee;
#X declare -lib libdir -lib ggee -stdpath ggee;
#X declare -lib libdir -lib ggee -stdpath ggee;
#X declare -lib libdir -lib ggee -stdpath ggee;
#X declare -lib libdir -lib ggee -stdpath ggee;
#X declare -lib libdir -lib ggee -stdpath ggee;
#X declare -lib libdir -lib ggee -stdpath ggee;
#X declare -lib libdir -lib ggee -stdpath ggee;
#X declare -lib libdir -lib ggee -stdpath ggee;
#X declare -lib libdir -lib ggee -stdpath ggee;
#X declare -lib libdir -lib ggee -stdpath ggee;
#X declare -lib libdir -lib ggee -stdpath ggee;
#X declare -lib libdir -lib ggee -stdpath ggee;
#X declare -lib libdir -lib ggee -stdpath ggee;
#X declare -lib libdir -lib ggee -stdpath ggee;
#X declare -lib libdir -lib ggee -stdpath ggee;
#X declare -lib libdir -lib ggee -stdpath ggee;
#X declare -lib libdir -lib ggee -stdpath ggee;
#X declare -lib libdir -lib ggee -stdpath ggee;
#X declare -lib libdir -lib ggee -stdpath ggee;
#X declare -lib libdir -lib ggee -stdpath ggee;
#X declare -lib libdir -lib ggee -stdpath ggee;
#X declare -lib libdir -lib ggee -stdpath ggee;
#X declare -lib libdir -lib ggee -stdpath ggee;
#X declare -lib libdir -lib ggee -stdpath ggee;
#X declare -lib libdir -lib ggee -stdpath ggee;
#X declare -lib libdir -lib ggee -stdpath ggee;
#X declare -lib libdir -lib ggee -stdpath ggee;
#X declare -lib libdir -lib ggee -stdpath ggee;
#X declare -lib libdir -lib ggee -stdpath ggee;
#X declare -lib libdir -lib ggee -stdpath ggee;
#X obj 51 11 cnv 15 40 115 empty empty \$1 1 5 1 8 -260097 -1 0;
#X obj 58 111 bng 10 250 50 0 empty empty empty 17 7 0 10 -4034 -1
-1;
#X obj 75 111 bng 10 250 50 0 empty empty empty 17 7 0 10 -258113 -1
-1;
#N canvas 1759 617 392 407 KEPboutons 0;
#X obj 188 142 tLock \$1 1/1;
#X obj 188 162 tLock \$1 1/2;
#X obj 189 182 tLock \$1 1/3;
#X obj 189 202 tLock \$1 1/4;
#X obj 209 254 KEPbus \$1 lr -lr- lrouge;
#X obj 209 277 KEPbus \$1 lv -lv- lvert;
#X obj 8 30 KEPbus \$1 TimS TimR b2;
#X obj 8 53 KEPbus \$1 RatS RatR b3;
#X obj 8 8 KEPbus \$1 AttS AttR b1;
#X obj 8 75 KEPbus \$1 RelS RelR b4;
#X obj 7 97 KEPbus \$1 VolS VolR b5;
#X obj 9 159 KEPbus \$1 Evnt g2 t2;
#X obj 9 227 KEPbus \$1 StoS StoR tREC;
#X obj 9 138 KEPbus \$1 Trg g1 t1;
#X obj 8 182 KEPbus \$1 Tic g3 t3;
#X obj 15 265 KEPbus \$1 lTrg -lg1- tl1;
#X obj 15 288 KEPbus \$1 lEvnt -lg2- tl2;
#X obj 17 310 KEPbus \$1 lTic -lg3- tl3;
#X obj 17 331 KEPbus \$1 lOn lg4 tl4;
#X obj 9 203 KEPbus \$1 On g4 t4;
#X obj 12 356 KEPbus \$1 lStoS lStoR tlREC;
#X restore 139 152 pd KEPboutons;
#X obj 108 40 KEPface \$1;
#X obj 37 159 KEPCommon \$1 \$0;
#X obj 401 100 param;
#N canvas 309 83 492 423 Gem 0;
#X msg 138 202 open \$1;
#X symbolatom 163 181 0 0 0 0 - - -;
#X obj 157 139 split_path;
#X obj 157 118 getdir;
#X obj 159 97 bng 15 250 50 1 empty empty empty 17 7 0 10 -262144 -1
-1;
#X obj 157 159 makesymbol %s/pic/\$1.png;
#X obj 124 264 pix_texture;
#X floatatom 319 103 5 0 0 0 - - -, f 5;
#X obj 54 99 separator;
#X obj 259 122 spigot;
#X obj 54 50 r PVJPoshead;
#X obj 54 121 spigot;
#X obj 144 66 r \$1-On;
#X obj 124 292 posGem \$1;
#X obj 124 316 circle 1;
#X obj 34 154 colorRGB 1 1 1 1;
#X obj 124 230 pix_image ../pic/\$1.png;
#X connect 0 0 16 0;
#X connect 2 0 5 0;
#X connect 3 0 2 0;
#X connect 4 0 3 0;
#X connect 5 0 1 0;
#X connect 5 0 0 0;
#X connect 6 0 13 0;
#X connect 8 0 11 0;
#X connect 10 0 8 0;
#X connect 11 0 15 0;
#X connect 12 0 11 1;
#X connect 13 0 14 0;
#X connect 15 0 16 0;
#X connect 16 0 6 0;
#X restore 391 132 pd Gem;
#X obj 54 22 MASTERtypeNbPos \$0;
#X text 110 7 Group : construit les Groupes de projecteurs;
#X obj 363 163 hsl 128 15 0 1 0 0 empty empty empty -2 -8 0 10 -262144
-1 -1 0 1;
#N canvas 259 304 450 486 ticAubio 0;
#X obj 14 41 r tic_mesure-Aubio;
#X obj 37 66 r tic_evenement-Aubio;
#X obj 14 92 mux 0 1;
#X obj 328 25 tgl 25 0 \$1-ChoixAubio-snd \$1-ChoixAubio-rcv tic_evnmt
17 7 0 10 -262144 -1 -1 0 1;
#X obj 286 21 bng 15 250 50 0 empty empty empty 17 7 0 10 -262144 -1
-1;
#X obj 172 324 sel 1;
#X obj 72 418 outlet;
#X obj 38 342 inlet;
#X obj 72 393 m;
#X obj 92 361 ++;
#X obj 259 58 hsl 128 15 0 1 0 0 empty empty offset -2 -8 0 10 -262130
-1 -1 0 1;
#X obj 261 88 hsl 128 15 0 1 0 0 empty empty Attack -2 -8 0 10 -191407
-1 -1 0 1;
#X floatatom 72 134 5 0 0 0 - - -, f 5;
#X obj 52 153 f;
#X msg 75 231 1 \$1;
#X floatatom 157 177 5 0 0 0 - - -, f 5;
#X obj 139 196 f;
#X msg 139 219 0 \$1;
#X obj 260 117 hsl 128 15 0 1 0 0 empty empty release -2 -8 0 10 -191407
-1 -1 0 1;
#X obj 172 302 speedlim 20;
#X obj 157 155 + 25;
#X obj 73 112 + 25;
#X obj 75 91 * 975;
#X obj 157 133 * 975;
#X obj 111 271 line;
#X connect 0 0 2 0;
#X connect 1 0 2 1;
#X connect 2 0 4 0;
#X connect 2 0 13 0;
#X connect 3 0 2 2;
#X connect 5 0 16 0;
#X connect 7 0 8 0;
#X connect 8 0 6 0;
#X connect 9 0 8 1;
#X connect 10 0 9 1;
#X connect 11 0 22 0;
#X connect 12 0 13 1;
#X connect 13 0 14 0;
#X connect 14 0 24 0;
#X connect 15 0 16 1;
#X connect 16 0 17 0;
#X connect 17 0 24 0;
#X connect 18 0 23 0;
#X connect 19 0 5 0;
#X connect 20 0 15 0;
#X connect 21 0 12 0;
#X connect 22 0 21 0;
#X connect 23 0 20 0;
#X connect 24 0 9 0;
#X connect 24 0 19 0;
#X coords 0 -1 1 1 150 135 1 250 0;
#X restore 359 216 pd ticAubio;
#N canvas 5 617 484 121 groupe24 0;
#X obj 48 56 outlet;
#X obj 3 3 bng 15 250 50 0 empty empty empty 17 7 0 10 -262144 -1 -1
;
#X msg 40 12 1 2 3 4 5 6 7 8 9 10 11 12 13 14 15 16 17 18 19 20 21
22 23 24;
#X connect 1 0 2 0;
#X connect 2 0 0 0;
#X coords 0 -1 1 1 20 20 1 0 0;
#X restore 215 367 pd groupe24;
#X msg 96 385 1 2 3 4 5 6;
#X floatatom 61 314 5 0 0 0 - - -, f 5;
#X msg 121 408 10000;
#X msg 133 429 1000;
#X floatatom 60 521 5 0 0 0 - - -, f 5;
#X msg 144 576 10000;
#X obj 69 598 groupScale;
#X obj 64 492 hsl 128 15 0 2 0 0 empty empty empty -2 -8 0 10 -262144
-1 -1 0 1;
#X msg 88 552 7 1 2 6 3 4;
#X msg 157 597 1000;
#X msg 118 351 7 1 2 6 3 4;
#X obj 43 388 line;
#X msg 143 450 500;
#X obj 421 433 hsl 128 15 0 1 0 0 empty empty empty -2 -8 0 10 -262144
-1 -1 0 1;
#N canvas 601 384 450 486 ticAubio 0;
#X obj 14 41 r tic_mesure-Aubio;
#X obj 37 66 r tic_evenement-Aubio;
#X obj 14 92 mux 0 1;
#X obj 328 25 tgl 25 0 \$1-ChoixAubio-snd \$1-ChoixAubio-rcv tic_evnmt
17 7 0 10 -262144 -1 -1 0 1;
#X obj 286 21 bng 15 250 50 0 empty empty empty 17 7 0 10 -262144 -1
-1;
#X obj 172 324 sel 1;
#X obj 72 418 outlet;
#X obj 38 342 inlet;
#X obj 72 393 m;
#X obj 92 361 ++;
#X obj 259 58 hsl 128 15 0 1 0 0 empty empty offset -2 -8 0 10 -262130
-1 -1 0 1;
#X obj 261 88 hsl 128 15 0 1 0 0 empty empty Attack -2 -8 0 10 -191407
-1 -1 0 1;
#X floatatom 72 134 5 0 0 0 - - -, f 5;
#X obj 52 153 f;
#X msg 75 231 1 \$1;
#X floatatom 157 177 5 0 0 0 - - -, f 5;
#X obj 139 196 f;
#X msg 139 219 0 \$1;
#X obj 260 117 hsl 128 15 0 1 0 0 empty empty release -2 -8 0 10 -191407
-1 -1 0 1;
#X obj 172 302 speedlim 20;
#X obj 157 155 + 25;
#X obj 73 112 + 25;
#X obj 75 91 * 975;
#X obj 157 133 * 975;
#X obj 111 271 line 0 10;
#X connect 0 0 2 0;
#X connect 1 0 2 1;
#X connect 2 0 4 0;
#X connect 2 0 13 0;
#X connect 3 0 2 2;
#X connect 5 0 16 0;
#X connect 7 0 8 0;
#X connect 8 0 6 0;
#X connect 9 0 8 1;
#X connect 10 0 9 1;
#X connect 11 0 22 0;
#X connect 12 0 13 1;
#X connect 13 0 14 0;
#X connect 14 0 24 0;
#X connect 15 0 16 1;
#X connect 16 0 17 0;
#X connect 17 0 24 0;
#X connect 18 0 23 0;
#X connect 19 0 5 0;
#X connect 20 0 15 0;
#X connect 21 0 12 0;
#X connect 22 0 21 0;
#X connect 23 0 20 0;
#X connect 24 0 9 0;
#X connect 24 0 19 0;
#X coords 0 -1 1 1 150 135 1 250 0;
#X restore 418 455 pd ticAubio;
#X obj 358 186 * 120;
#X obj 308 368 hsl 128 15 0 1 0 0 empty empty empty -2 -8 0 10 -262144
-1 -1 0 1;
#X obj 305 387 * 10000;
#X obj 219 532 hsl 128 15 0 1 0 0 empty empty empty -2 -8 0 10 -262144
-1 -1 0 1;
#X obj 216 551 * 10000;
#X msg 148 298 1 3 5 7 9 11 13 15 17 19 21 23;
#X msg 140 468 2 4 6 8 10 12 14 16 18 20 22 24;
#X obj 150 512 r \$1-group2;
#X msg 158 323 23 21 19 17 15 13 11 9 7 5 3 1;
#X msg 196 493 24 22 20 18 16 14 12 10 8 6 4 2;
#X obj 239 437 sel 0 1;
#X obj 239 417 tgl 15 0 empty empty empty 17 7 0 10 -262144 -1 -1 0
1;
#X obj 239 259 r tic_mesure-Aubio;
#X obj 239 281 b;
#X obj 153 266 sel 0 1;
#X obj 153 246 tgl 15 0 empty empty empty 17 7 0 10 -262144 -1 -1 0
1;
#X msg 42 363 \$1 10;
#X msg 346 454 list;
#X obj 169 245 r \$1-group1;
#X obj 142 216 text get PVJgroups;
#X obj 142 174 r \$1-group;
#X obj 448 49 r tic_mesure-Aubio;
#X obj 448 71 b;
#X obj 448 93 random 240;
#X obj 448 115 - 120;
#X msg 315 418 switch \$1;
#X obj 360 401 tgl 15 0 empty empty empty 17 7 0 10 -262144 -1 -1 0
1;
#X obj 378 400 r \$1-switchgroup;
#X obj 495 356 tgl 15 0 empty empty empty 17 7 0 10 -262144 -1 -1 0
1;
#X msg 450 373 sym \$1;
#X obj 513 355 r \$1-symgroup;
#X obj 43 444 groupRot;
#X obj 142 195 change;
#X connect 1 0 5 0;
#X connect 2 0 5 1;
#X connect 10 0 28 0;
#X connect 11 0 44 0;
#X connect 12 0 19 1;
#X connect 12 0 59 1;
#X connect 13 0 59 1;
#X connect 14 0 44 0;
#X connect 15 0 59 2;
#X connect 16 0 59 2;
#X connect 17 0 19 0;
#X connect 18 0 19 2;
#X connect 20 0 17 0;
#X connect 21 0 19 1;
#X connect 22 0 19 2;
#X connect 23 0 59 1;
#X connect 24 0 59 0;
#X connect 25 0 59 2;
#X connect 26 0 27 0;
#X connect 27 0 19 0;
#X connect 28 0 11 0;
#X connect 29 0 30 0;
#X connect 30 0 59 2;
#X connect 31 0 32 0;
#X connect 32 0 19 2;
#X connect 33 0 59 1;
#X connect 34 0 19 1;
#X connect 35 0 19 1;
#X connect 36 0 59 1;
#X connect 37 0 19 1;
#X connect 38 0 34 0;
#X connect 38 1 37 0;
#X connect 39 0 38 0;
#X connect 41 0 39 0;
#X connect 41 0 43 0;
#X connect 42 0 33 0;
#X connect 42 1 36 0;
#X connect 43 0 42 0;
#X connect 44 0 24 0;
#X connect 45 0 19 1;
#X connect 46 0 59 1;
#X connect 47 0 59 1;
#X connect 48 0 60 0;
#X connect 49 0 50 0;
#X connect 50 0 51 0;
#X connect 50 0 59 3;
#X connect 51 0 52 0;
#X connect 53 0 59 3;
#X connect 54 0 53 0;
#X connect 55 0 54 0;
#X connect 56 0 57 0;
#X connect 57 0 59 3;
#X connect 58 0 56 0;
#X connect 60 0 47 0;
#X coords 0 -1 1 1 42 117 2 50 10;
